G04*
G04 #@! TF.GenerationSoftware,Altium Limited,Altium Designer,19.0.4 (130)*
G04*
G04 Layer_Physical_Order=1*
G04 Layer_Color=255*
%FSLAX25Y25*%
%MOIN*%
G70*
G01*
G75*
%ADD13C,0.01000*%
%ADD15R,0.02362X0.04528*%
%ADD16R,0.01181X0.04528*%
%ADD17P,0.00557X4X180.0*%
G04:AMPARAMS|DCode=18|XSize=21.65mil|YSize=11.81mil|CornerRadius=0mil|HoleSize=0mil|Usage=FLASHONLY|Rotation=135.000|XOffset=0mil|YOffset=0mil|HoleType=Round|Shape=Rectangle|*
%AMROTATEDRECTD18*
4,1,4,0.01183,-0.00348,0.00348,-0.01183,-0.01183,0.00348,-0.00348,0.01183,0.01183,-0.00348,0.0*
%
%ADD18ROTATEDRECTD18*%

%ADD19P,0.00557X4X270.0*%
G04:AMPARAMS|DCode=20|XSize=21.65mil|YSize=11.81mil|CornerRadius=0mil|HoleSize=0mil|Usage=FLASHONLY|Rotation=225.000|XOffset=0mil|YOffset=0mil|HoleType=Round|Shape=Rectangle|*
%AMROTATEDRECTD20*
4,1,4,0.00348,0.01183,0.01183,0.00348,-0.00348,-0.01183,-0.01183,-0.00348,0.00348,0.01183,0.0*
%
%ADD20ROTATEDRECTD20*%

%ADD21R,0.06299X0.03937*%
%ADD22R,0.04528X0.05512*%
%ADD36C,0.02500*%
%ADD37C,0.02000*%
%ADD38C,0.03000*%
%ADD39C,0.01800*%
%ADD40C,0.02300*%
%ADD41C,0.05906*%
%ADD42R,0.05906X0.05906*%
%ADD43O,0.03937X0.07874*%
%ADD44O,0.04134X0.08268*%
%ADD45C,0.02559*%
%ADD46R,0.06000X0.07000*%
%ADD47O,0.06000X0.07000*%
%ADD48C,0.02400*%
%ADD49C,0.02000*%
%ADD50C,0.01200*%
G36*
X477317Y301717D02*
X477317Y296500D01*
X477317Y296500D01*
X477369Y296239D01*
X477415Y296170D01*
X477321Y295856D01*
X477205Y295670D01*
X474646D01*
Y297001D01*
X474801Y297105D01*
X475214Y297723D01*
X475359Y298453D01*
X475214Y299182D01*
X474801Y299801D01*
X474182Y300214D01*
X473453Y300359D01*
X472723Y300214D01*
X472105Y299801D01*
X471691Y299182D01*
X471546Y298453D01*
X471572Y298322D01*
X471111Y298076D01*
X469735Y299452D01*
X469348Y299710D01*
X469086Y299763D01*
X468957Y299956D01*
X468338Y300370D01*
X467608Y300515D01*
X466879Y300370D01*
X466260Y299956D01*
X465847Y299338D01*
X465702Y298608D01*
X465847Y297879D01*
X466260Y297260D01*
X466415Y297156D01*
Y295670D01*
X463789D01*
X463598Y296132D01*
X463733Y296267D01*
X463733Y296267D01*
X463881Y296489D01*
X463933Y296750D01*
X463933Y296750D01*
X463933Y301795D01*
X464955Y302817D01*
X476217Y302817D01*
X477317Y301717D01*
D02*
G37*
G36*
X481000Y304000D02*
X481000Y298732D01*
X480465Y298374D01*
X480034Y297729D01*
X479882Y296969D01*
X480034Y296208D01*
X480465Y295563D01*
X480958Y295233D01*
X480950Y294744D01*
X480500Y294481D01*
X479941Y294592D01*
X479500Y294504D01*
X479000Y294852D01*
Y295500D01*
X478000Y296500D01*
X478000Y302000D01*
X476500Y303500D01*
X464672Y303500D01*
X463250Y302078D01*
X463250Y296750D01*
X462000Y295500D01*
X462000Y294541D01*
X461500Y294246D01*
X461043Y294337D01*
X460500Y294229D01*
X460177Y294351D01*
X460000Y294445D01*
Y295216D01*
X460520Y295563D01*
X460951Y296208D01*
X461102Y296969D01*
X460951Y297729D01*
X460520Y298374D01*
X460000Y298721D01*
X460000Y304000D01*
X462500Y306500D01*
X478500D01*
X481000Y304000D01*
D02*
G37*
G36*
X503000Y321000D02*
X503000Y253322D01*
X502500Y253170D01*
X502466Y253221D01*
X500767Y254920D01*
X501029Y255554D01*
X501154Y256500D01*
X501029Y257446D01*
X500665Y258327D01*
X500084Y259084D01*
X499327Y259665D01*
X498446Y260030D01*
X497500Y260154D01*
X496554Y260030D01*
X495673Y259665D01*
X494916Y259084D01*
X494336Y258327D01*
X493970Y257446D01*
X493846Y256500D01*
X493968Y255570D01*
X493495Y255097D01*
X493033Y255288D01*
Y260346D01*
X495920Y263233D01*
X496554Y262970D01*
X497500Y262846D01*
X498446Y262970D01*
X499327Y263335D01*
X500084Y263916D01*
X500665Y264673D01*
X501029Y265554D01*
X501154Y266500D01*
X501029Y267446D01*
X500665Y268327D01*
X500084Y269084D01*
X499327Y269665D01*
X498446Y270029D01*
X497500Y270154D01*
X496554Y270029D01*
X495673Y269665D01*
X494916Y269084D01*
X494336Y268327D01*
X493970Y267446D01*
X493846Y266500D01*
X493970Y265554D01*
X494233Y264920D01*
X491825Y262512D01*
X491363Y262703D01*
Y268676D01*
X495920Y273233D01*
X496554Y272971D01*
X497500Y272846D01*
X498446Y272971D01*
X499327Y273336D01*
X500084Y273916D01*
X500665Y274673D01*
X501029Y275554D01*
X501154Y276500D01*
X501029Y277446D01*
X500665Y278327D01*
X500084Y279084D01*
X499327Y279664D01*
X498446Y280030D01*
X497500Y280154D01*
X496554Y280030D01*
X495673Y279664D01*
X494916Y279084D01*
X494336Y278327D01*
X493970Y277446D01*
X493846Y276500D01*
X493970Y275554D01*
X494233Y274920D01*
X490155Y270842D01*
X489693Y271033D01*
Y277006D01*
X495920Y283233D01*
X496554Y282970D01*
X497500Y282846D01*
X498446Y282970D01*
X499327Y283335D01*
X500084Y283916D01*
X500665Y284673D01*
X501029Y285554D01*
X501154Y286500D01*
X501029Y287446D01*
X500665Y288327D01*
X500084Y289084D01*
X499327Y289665D01*
X498446Y290030D01*
X497500Y290154D01*
X496554Y290030D01*
X495673Y289665D01*
X494916Y289084D01*
X494336Y288327D01*
X493970Y287446D01*
X493846Y286500D01*
X493970Y285554D01*
X494233Y284920D01*
X487656Y278344D01*
X487398Y277957D01*
X487307Y277500D01*
Y274887D01*
X486918Y274619D01*
X486807Y274619D01*
X479986D01*
X479778Y275119D01*
X481426Y276767D01*
X481499Y276876D01*
X481573Y276985D01*
X481573Y276987D01*
X481574Y276989D01*
X481600Y277119D01*
X481627Y277247D01*
Y277247D01*
X481655Y277290D01*
X481797Y278000D01*
Y289472D01*
X482591D01*
Y292736D01*
X483591D01*
Y289472D01*
X485272D01*
Y290147D01*
X485772Y290393D01*
X485953Y290254D01*
X486699Y289945D01*
X487000Y289906D01*
Y295000D01*
Y300095D01*
X486699Y300055D01*
X485953Y299746D01*
X485313Y299254D01*
X484821Y298614D01*
X484512Y297868D01*
X484407Y297067D01*
Y296463D01*
X484258Y296415D01*
X483824Y296801D01*
X483858Y296969D01*
X483707Y297729D01*
X483276Y298374D01*
X482631Y298805D01*
X481870Y298956D01*
X481683Y299110D01*
X481683Y304000D01*
X481683Y304000D01*
X481631Y304261D01*
X481483Y304483D01*
X481483Y304483D01*
X478983Y306983D01*
X478983Y306983D01*
X478761Y307131D01*
X478500Y307183D01*
X478500Y307183D01*
X462500D01*
X462500Y307183D01*
X462239Y307131D01*
X462017Y306983D01*
X462017Y306983D01*
X461827Y306793D01*
X461670Y306762D01*
X461052Y306348D01*
X460639Y305730D01*
X460607Y305574D01*
X459517Y304483D01*
X459517Y304483D01*
X459369Y304261D01*
X459317Y304000D01*
X459317Y304000D01*
X459317Y299123D01*
X459114Y298956D01*
X458354Y298805D01*
X457709Y298374D01*
X457278Y297729D01*
X457127Y296969D01*
X457160Y296801D01*
X456727Y296415D01*
X456578Y296463D01*
Y297067D01*
X456472Y297868D01*
X456163Y298614D01*
X455672Y299254D01*
X455031Y299746D01*
X454285Y300055D01*
X453984Y300095D01*
Y295000D01*
Y289906D01*
X454285Y289945D01*
X455031Y290254D01*
X455213Y290393D01*
X455713Y290147D01*
Y289472D01*
X457394D01*
Y292736D01*
X458394D01*
Y289472D01*
X460075D01*
Y289802D01*
X462409D01*
Y283102D01*
X462500Y282646D01*
X462759Y282259D01*
X463630Y281388D01*
X463593Y281205D01*
X463738Y280475D01*
X464152Y279856D01*
X464770Y279443D01*
X465500Y279298D01*
X466230Y279443D01*
X466848Y279856D01*
X467262Y280475D01*
X467407Y281205D01*
X467262Y281934D01*
X466848Y282553D01*
X466230Y282966D01*
X465500Y283111D01*
X465317Y283075D01*
X464795Y283596D01*
Y289802D01*
X468323D01*
Y288984D01*
X468414Y288528D01*
X468672Y288141D01*
X469657Y287157D01*
X470044Y286898D01*
X470500Y286807D01*
X472500D01*
X472957Y286898D01*
X473344Y287157D01*
X473802Y287615D01*
X474264Y287423D01*
Y282757D01*
X473652Y282348D01*
X473239Y281730D01*
X473093Y281000D01*
X473239Y280270D01*
X473652Y279652D01*
X474270Y279239D01*
X475000Y279093D01*
X475730Y279239D01*
X476348Y279652D01*
X476761Y280270D01*
X476907Y281000D01*
X476761Y281730D01*
X476650Y281897D01*
Y289802D01*
X478085D01*
Y280283D01*
X472285Y274483D01*
X472137Y274261D01*
X472085Y274000D01*
X472085Y274000D01*
Y265177D01*
X472085Y265177D01*
X472137Y264916D01*
X472285Y264694D01*
X472285Y264694D01*
X473097Y263882D01*
X473097Y263882D01*
X473318Y263734D01*
X473580Y263682D01*
X473580Y263682D01*
X475062Y263682D01*
X475213Y263182D01*
X475038Y263065D01*
X469936Y257962D01*
X468667Y256694D01*
X466193Y259168D01*
Y272048D01*
X466348Y272152D01*
X466761Y272770D01*
X466907Y273500D01*
X466761Y274230D01*
X466348Y274848D01*
X465730Y275261D01*
X465000Y275407D01*
X464270Y275261D01*
X463652Y274848D01*
X463238Y274230D01*
X463093Y273500D01*
X463238Y272770D01*
X463652Y272152D01*
X463807Y272048D01*
Y258674D01*
X463898Y258217D01*
X464156Y257830D01*
X467263Y254724D01*
X467175Y254286D01*
X467344Y253439D01*
X467471Y253250D01*
X467235Y252809D01*
X455903D01*
X455123Y253589D01*
X455314Y254051D01*
X457402D01*
Y256520D01*
X453752D01*
Y256151D01*
X453252Y255883D01*
X453193Y255923D01*
Y261568D01*
X453693Y261719D01*
X453904Y261404D01*
X454522Y260991D01*
X455252Y260845D01*
X455982Y260991D01*
X456600Y261404D01*
X457014Y262022D01*
X457159Y262752D01*
X457014Y263482D01*
X456600Y264100D01*
X456445Y264204D01*
Y269342D01*
X461721D01*
Y271402D01*
X461832Y271961D01*
X461721Y272519D01*
Y274619D01*
X454082D01*
Y270627D01*
X454059Y270512D01*
Y264204D01*
X453904Y264100D01*
X453693Y263785D01*
X453193Y263936D01*
Y278000D01*
X453102Y278456D01*
X452844Y278843D01*
X446767Y284920D01*
X447029Y285554D01*
X447154Y286500D01*
X447029Y287446D01*
X446664Y288327D01*
X446084Y289084D01*
X445327Y289665D01*
X444446Y290030D01*
X443500Y290154D01*
X442554Y290030D01*
X441673Y289665D01*
X440916Y289084D01*
X440336Y288327D01*
X439970Y287446D01*
X439846Y286500D01*
X439970Y285554D01*
X440336Y284673D01*
X440916Y283916D01*
X441673Y283335D01*
X442554Y282970D01*
X443500Y282846D01*
X444446Y282970D01*
X445080Y283233D01*
X450807Y277506D01*
Y271533D01*
X450345Y271342D01*
X446767Y274920D01*
X447029Y275554D01*
X447154Y276500D01*
X447029Y277446D01*
X446664Y278327D01*
X446084Y279084D01*
X445327Y279664D01*
X444446Y280030D01*
X443500Y280154D01*
X442554Y280030D01*
X441673Y279664D01*
X440916Y279084D01*
X440336Y278327D01*
X439970Y277446D01*
X439846Y276500D01*
X439970Y275554D01*
X440336Y274673D01*
X440916Y273916D01*
X441673Y273336D01*
X442554Y272971D01*
X443500Y272846D01*
X444446Y272971D01*
X445080Y273233D01*
X449137Y269176D01*
Y263203D01*
X448675Y263012D01*
X446767Y264920D01*
X447029Y265554D01*
X447154Y266500D01*
X447029Y267446D01*
X446664Y268327D01*
X446084Y269084D01*
X445327Y269665D01*
X444446Y270029D01*
X443500Y270154D01*
X442554Y270029D01*
X441673Y269665D01*
X440916Y269084D01*
X440336Y268327D01*
X439970Y267446D01*
X439846Y266500D01*
X439970Y265554D01*
X440336Y264673D01*
X440916Y263916D01*
X441673Y263335D01*
X442554Y262970D01*
X443500Y262846D01*
X444446Y262970D01*
X445080Y263233D01*
X447467Y260846D01*
Y257696D01*
X446967Y257596D01*
X446664Y258327D01*
X446084Y259084D01*
X445327Y259665D01*
X444446Y260030D01*
X443500Y260154D01*
X442554Y260030D01*
X441673Y259665D01*
X440916Y259084D01*
X440336Y258327D01*
X439970Y257446D01*
X439846Y256500D01*
X439970Y255554D01*
X440336Y254673D01*
X440916Y253916D01*
X441673Y253335D01*
X442554Y252971D01*
X443500Y252846D01*
X444446Y252971D01*
X444678Y253067D01*
X446843Y250902D01*
Y248915D01*
X446343Y248746D01*
X446084Y249084D01*
X445327Y249664D01*
X444446Y250029D01*
X443500Y250154D01*
X442554Y250029D01*
X441673Y249664D01*
X440916Y249084D01*
X440336Y248327D01*
X439970Y247446D01*
X439846Y246500D01*
X439970Y245554D01*
X440336Y244673D01*
X440916Y243916D01*
X441673Y243336D01*
X442554Y242970D01*
X443500Y242846D01*
X444446Y242970D01*
X445080Y243233D01*
X448044Y240269D01*
X448431Y240010D01*
X448888Y239919D01*
X450436D01*
X450540Y239764D01*
X451158Y239351D01*
X451888Y239206D01*
X452618Y239351D01*
X453236Y239764D01*
X453340Y239919D01*
X455041D01*
X459280Y235681D01*
X459290Y235631D01*
X459438Y235409D01*
X460347Y234500D01*
X459438Y233591D01*
X459290Y233369D01*
X459280Y233319D01*
X459154Y233193D01*
X453952D01*
X453848Y233348D01*
X453230Y233762D01*
X452500Y233907D01*
X451770Y233762D01*
X451152Y233348D01*
X451048Y233193D01*
X448494D01*
X446767Y234920D01*
X447029Y235554D01*
X447154Y236500D01*
X447029Y237446D01*
X446664Y238327D01*
X446084Y239084D01*
X445327Y239665D01*
X444446Y240030D01*
X443500Y240154D01*
X442554Y240030D01*
X441673Y239665D01*
X440916Y239084D01*
X440336Y238327D01*
X439970Y237446D01*
X439846Y236500D01*
X439970Y235554D01*
X440336Y234673D01*
X440916Y233916D01*
X441673Y233335D01*
X442554Y232970D01*
X443500Y232846D01*
X444446Y232970D01*
X445080Y233233D01*
X447120Y231193D01*
X447104Y231039D01*
X446950Y230693D01*
X446500D01*
X446043Y230602D01*
X445656Y230344D01*
X445080Y229767D01*
X444446Y230030D01*
X443500Y230154D01*
X442554Y230030D01*
X441673Y229664D01*
X440916Y229084D01*
X440336Y228327D01*
X439970Y227446D01*
X439846Y226500D01*
X439970Y225554D01*
X440336Y224673D01*
X440916Y223916D01*
X441673Y223336D01*
X442554Y222971D01*
X443500Y222846D01*
X444446Y222971D01*
X445327Y223336D01*
X446084Y223916D01*
X446664Y224673D01*
X447029Y225554D01*
X447154Y226500D01*
X447029Y227446D01*
X446856Y227864D01*
X447193Y228307D01*
X451967D01*
X452158Y227845D01*
X444354Y220041D01*
X443500Y220154D01*
X442554Y220029D01*
X441673Y219665D01*
X440916Y219084D01*
X440336Y218327D01*
X439970Y217446D01*
X439846Y216500D01*
X439970Y215554D01*
X440336Y214673D01*
X440916Y213916D01*
X441673Y213335D01*
X442554Y212970D01*
X443500Y212846D01*
X444446Y212970D01*
X445327Y213335D01*
X446084Y213916D01*
X446664Y214673D01*
X447029Y215554D01*
X447154Y216500D01*
X447029Y217446D01*
X446664Y218327D01*
X446382Y218695D01*
X448360Y220673D01*
X448415Y220649D01*
X448772Y220378D01*
X448695Y219990D01*
X448794Y219495D01*
X448797Y219489D01*
Y213484D01*
X445080Y209767D01*
X444446Y210030D01*
X443500Y210154D01*
X442554Y210030D01*
X441673Y209665D01*
X440916Y209084D01*
X440336Y208327D01*
X439970Y207446D01*
X439846Y206500D01*
X439970Y205554D01*
X440336Y204673D01*
X440916Y203916D01*
X441673Y203335D01*
X442554Y202971D01*
X443500Y202846D01*
X444446Y202971D01*
X445327Y203335D01*
X446084Y203916D01*
X446664Y204673D01*
X447029Y205554D01*
X447154Y206500D01*
X447029Y207446D01*
X446767Y208080D01*
X450005Y211318D01*
X450467Y211127D01*
Y205154D01*
X445080Y199767D01*
X444446Y200029D01*
X443500Y200154D01*
X442554Y200029D01*
X441673Y199664D01*
X440916Y199084D01*
X440336Y198327D01*
X439970Y197446D01*
X439846Y196500D01*
X439970Y195554D01*
X440336Y194673D01*
X440916Y193916D01*
X441673Y193335D01*
X442554Y192971D01*
X443500Y192846D01*
X444446Y192971D01*
X445327Y193335D01*
X446084Y193916D01*
X446664Y194673D01*
X447029Y195554D01*
X447154Y196500D01*
X447029Y197446D01*
X446767Y198080D01*
X451675Y202988D01*
X452137Y202797D01*
Y196824D01*
X445080Y189767D01*
X444446Y190030D01*
X443500Y190154D01*
X442554Y190030D01*
X441673Y189664D01*
X440916Y189084D01*
X440336Y188327D01*
X439970Y187446D01*
X439846Y186500D01*
X439970Y185554D01*
X440336Y184673D01*
X440916Y183916D01*
X441673Y183335D01*
X442554Y182970D01*
X443500Y182846D01*
X444446Y182970D01*
X445327Y183335D01*
X446084Y183916D01*
X446664Y184673D01*
X447029Y185554D01*
X447154Y186500D01*
X447029Y187446D01*
X446767Y188080D01*
X453345Y194658D01*
X453807Y194467D01*
Y188494D01*
X445080Y179767D01*
X444446Y180029D01*
X443500Y180154D01*
X442554Y180029D01*
X441673Y179665D01*
X440916Y179084D01*
X440336Y178327D01*
X439970Y177446D01*
X439846Y176500D01*
X439970Y175554D01*
X440336Y174673D01*
X440916Y173916D01*
X441673Y173336D01*
X442554Y172970D01*
X443500Y172846D01*
X444446Y172970D01*
X445327Y173336D01*
X446084Y173916D01*
X446664Y174673D01*
X447029Y175554D01*
X447154Y176500D01*
X447029Y177446D01*
X446767Y178080D01*
X455843Y187156D01*
X456095Y187532D01*
X456167Y187547D01*
X456618Y187575D01*
X456794Y187149D01*
X457042Y186826D01*
Y185311D01*
X453116Y181384D01*
X452691Y180749D01*
X452542Y180000D01*
X452542Y180000D01*
Y179740D01*
X452383Y179618D01*
X451794Y178851D01*
X451425Y177958D01*
X451298Y177000D01*
Y176000D01*
X451425Y175042D01*
X451794Y174149D01*
X452383Y173382D01*
X453149Y172794D01*
X454042Y172424D01*
X455000Y172298D01*
X455958Y172424D01*
X456851Y172794D01*
X457618Y173382D01*
X458206Y174149D01*
X458575Y175042D01*
X458702Y176000D01*
Y177000D01*
X458575Y177958D01*
X458206Y178851D01*
X457618Y179618D01*
X457504Y179704D01*
X457472Y180203D01*
X460384Y183116D01*
X460809Y183751D01*
X460958Y184500D01*
Y185424D01*
X460958Y185424D01*
X461851Y185794D01*
X462617Y186382D01*
X463206Y187149D01*
X463576Y188042D01*
X463702Y189000D01*
Y190000D01*
X463576Y190958D01*
X463206Y191851D01*
X462617Y192617D01*
X461851Y193206D01*
X460958Y193576D01*
X460000Y193702D01*
X459042Y193576D01*
X458149Y193206D01*
X457382Y192617D01*
X456794Y191851D01*
X456693Y191606D01*
X456193Y191706D01*
Y212506D01*
X459109Y215422D01*
X459571Y215230D01*
Y197236D01*
X459662Y196780D01*
X459920Y196393D01*
X466300Y190013D01*
X466298Y190000D01*
Y189000D01*
X466425Y188042D01*
X466794Y187149D01*
X467382Y186382D01*
X468149Y185794D01*
X469042Y185424D01*
X470000Y185298D01*
X470958Y185424D01*
X471262Y185550D01*
X474656Y182157D01*
X475043Y181898D01*
X475500Y181807D01*
X490506D01*
X494233Y178080D01*
X493970Y177446D01*
X493846Y176500D01*
X493970Y175554D01*
X494336Y174673D01*
X494916Y173916D01*
X495673Y173336D01*
X496554Y172970D01*
X497500Y172846D01*
X498446Y172970D01*
X499327Y173336D01*
X500084Y173916D01*
X500665Y174673D01*
X501029Y175554D01*
X501154Y176500D01*
X501029Y177446D01*
X500665Y178327D01*
X500084Y179084D01*
X499327Y179665D01*
X498446Y180029D01*
X497500Y180154D01*
X496554Y180029D01*
X495920Y179767D01*
X491844Y183844D01*
X491457Y184102D01*
X491000Y184193D01*
X475994D01*
X473133Y187054D01*
X473206Y187149D01*
X473575Y188042D01*
X473702Y189000D01*
Y190000D01*
X473575Y190958D01*
X473206Y191851D01*
X472617Y192617D01*
X471851Y193206D01*
X470958Y193576D01*
X470000Y193702D01*
X469042Y193576D01*
X468149Y193206D01*
X467382Y192617D01*
X467089Y192598D01*
X462295Y197392D01*
X462305Y197444D01*
X462848Y197608D01*
X465300Y195157D01*
X465687Y194898D01*
X466144Y194807D01*
X487506D01*
X494233Y188080D01*
X493970Y187446D01*
X493846Y186500D01*
X493970Y185554D01*
X494336Y184673D01*
X494916Y183916D01*
X495673Y183335D01*
X496554Y182970D01*
X497500Y182846D01*
X498446Y182970D01*
X499327Y183335D01*
X500084Y183916D01*
X500665Y184673D01*
X501029Y185554D01*
X501154Y186500D01*
X501029Y187446D01*
X500665Y188327D01*
X500084Y189084D01*
X499327Y189664D01*
X498446Y190030D01*
X497500Y190154D01*
X496554Y190030D01*
X495920Y189767D01*
X488843Y196844D01*
X488456Y197102D01*
X488000Y197193D01*
X466638D01*
X464193Y199638D01*
Y201913D01*
X466850D01*
Y205669D01*
X467850D01*
Y201913D01*
X470614D01*
X470716Y202243D01*
X476583D01*
Y205426D01*
X476671Y205484D01*
X479344Y208156D01*
X479602Y208543D01*
X479693Y209000D01*
Y212467D01*
X480155Y212658D01*
X494401Y198412D01*
X494336Y198327D01*
X493970Y197446D01*
X493846Y196500D01*
X493970Y195554D01*
X494336Y194673D01*
X494916Y193916D01*
X495673Y193335D01*
X496554Y192971D01*
X497500Y192846D01*
X498446Y192971D01*
X499327Y193335D01*
X500084Y193916D01*
X500665Y194673D01*
X501029Y195554D01*
X501154Y196500D01*
X501029Y197446D01*
X500665Y198327D01*
X500084Y199084D01*
X499327Y199664D01*
X498446Y200029D01*
X497500Y200154D01*
X496554Y200029D01*
X496274Y199913D01*
X480474Y215714D01*
X480512Y215770D01*
X480657Y216500D01*
X480512Y217230D01*
X480098Y217848D01*
X479943Y217952D01*
Y220548D01*
X480098Y220652D01*
X480512Y221270D01*
X480648Y221958D01*
X480808Y222058D01*
X481130Y222183D01*
X481630Y221683D01*
X481593Y221500D01*
X481739Y220770D01*
X482152Y220152D01*
X482307Y220048D01*
Y215685D01*
X482398Y215229D01*
X482656Y214842D01*
X491842Y205657D01*
X492229Y205398D01*
X492685Y205307D01*
X494073D01*
X494336Y204673D01*
X494916Y203916D01*
X495673Y203335D01*
X496554Y202971D01*
X497500Y202846D01*
X498446Y202971D01*
X499327Y203335D01*
X500084Y203916D01*
X500665Y204673D01*
X501029Y205554D01*
X501154Y206500D01*
X501029Y207446D01*
X500665Y208327D01*
X500084Y209084D01*
X499327Y209665D01*
X498446Y210030D01*
X497500Y210154D01*
X496554Y210030D01*
X495673Y209665D01*
X494916Y209084D01*
X494336Y208327D01*
X494073Y207693D01*
X493179D01*
X484693Y216179D01*
Y218950D01*
X485039Y219104D01*
X485193Y219120D01*
X488657Y215656D01*
X489044Y215398D01*
X489500Y215307D01*
X494073D01*
X494336Y214673D01*
X494916Y213916D01*
X495673Y213335D01*
X496554Y212970D01*
X497500Y212846D01*
X498446Y212970D01*
X499327Y213335D01*
X500084Y213916D01*
X500665Y214673D01*
X501029Y215554D01*
X501154Y216500D01*
X501029Y217446D01*
X500665Y218327D01*
X500084Y219084D01*
X499327Y219665D01*
X499052Y219778D01*
X498959Y220358D01*
X502466Y223865D01*
X502500Y223916D01*
X503000Y223764D01*
X503000Y171000D01*
X438000Y171000D01*
Y321000D01*
X503000Y321000D01*
D02*
G37*
G36*
X481000Y291646D02*
X481000Y288799D01*
X480943Y277250D01*
X477000Y273307D01*
Y265500D01*
X475865Y264365D01*
X473580Y264365D01*
X472768Y265177D01*
Y274000D01*
X479000Y280232D01*
X479000Y292000D01*
X480646Y292000D01*
X481000Y291646D01*
D02*
G37*
G36*
X495673Y253335D02*
X496554Y252971D01*
X497500Y252846D01*
X498446Y252971D01*
X499080Y253233D01*
X500430Y251883D01*
Y249408D01*
X499930Y249202D01*
X499327Y249664D01*
X498446Y250029D01*
X497500Y250154D01*
X496554Y250029D01*
X495673Y249664D01*
X494916Y249084D01*
X494336Y248327D01*
X494073Y247693D01*
X490118D01*
X489927Y248155D01*
X494353Y252581D01*
X494353Y252581D01*
X495353Y253581D01*
X495673Y253335D01*
D02*
G37*
G36*
X454717Y248753D02*
X465410D01*
X466560Y247603D01*
X466528Y247366D01*
X465999Y247188D01*
X465344Y247844D01*
X464957Y248102D01*
X464500Y248193D01*
X464044Y248102D01*
X463657Y247844D01*
X463398Y247457D01*
X463307Y247000D01*
X463398Y246544D01*
X463657Y246157D01*
X464125Y245688D01*
X464061Y245439D01*
X463919Y245187D01*
X463348Y245073D01*
X462796Y244704D01*
X462427Y244152D01*
X462297Y243500D01*
X462427Y242848D01*
X462796Y242296D01*
X462807Y242289D01*
Y241795D01*
X462307Y241644D01*
X462114Y241933D01*
X461694Y242214D01*
X461693Y242214D01*
Y243000D01*
X461602Y243457D01*
X461343Y243844D01*
X457628Y247559D01*
X457241Y247817D01*
X456785Y247908D01*
X454353D01*
X453956Y248345D01*
X453979Y248533D01*
X454433Y248809D01*
X454717Y248753D01*
D02*
G37*
G36*
X479279Y254381D02*
X482419D01*
X482626Y253881D01*
X475303Y246557D01*
X474841Y246749D01*
Y248648D01*
X474750Y249104D01*
X474491Y249491D01*
X471523Y252459D01*
X471448Y252510D01*
X471373Y253142D01*
X473065Y254833D01*
X477519Y259288D01*
X479279D01*
Y254381D01*
D02*
G37*
G36*
X472727Y244244D02*
X471335Y242852D01*
X470917Y243269D01*
X470918Y244105D01*
X471892Y245079D01*
X472727Y244244D01*
D02*
G37*
G36*
X470082Y244105D02*
X470083Y243269D01*
X469665Y242852D01*
X468273Y244244D01*
X469108Y245079D01*
X470082Y244105D01*
D02*
G37*
G36*
X494336Y244673D02*
X494916Y243916D01*
X495673Y243336D01*
X496554Y242970D01*
X497500Y242846D01*
X498446Y242970D01*
X499327Y243336D01*
X499930Y243798D01*
X500430Y243592D01*
Y239408D01*
X499930Y239202D01*
X499327Y239665D01*
X498446Y240030D01*
X497500Y240154D01*
X496554Y240030D01*
X495920Y239767D01*
X491844Y243844D01*
X491457Y244102D01*
X491000Y244193D01*
X488101D01*
X487910Y244655D01*
X488562Y245307D01*
X494073D01*
X494336Y244673D01*
D02*
G37*
G36*
X481079Y235892D02*
X480105Y234918D01*
X479270Y234917D01*
X478852Y235335D01*
X480244Y236727D01*
X481079Y235892D01*
D02*
G37*
G36*
X462148Y235335D02*
X461730Y234917D01*
X460895Y234918D01*
X459921Y235892D01*
X460756Y236727D01*
X462148Y235335D01*
D02*
G37*
G36*
X480105Y234082D02*
X481079Y233108D01*
X480244Y232273D01*
X478852Y233665D01*
X479270Y234083D01*
X480105Y234082D01*
D02*
G37*
G36*
X462148Y233665D02*
X460756Y232273D01*
X459921Y233108D01*
X460895Y234082D01*
X461730Y234083D01*
X462148Y233665D01*
D02*
G37*
G36*
X490146Y241734D02*
X490270Y241262D01*
X489652Y240848D01*
X489548Y240693D01*
X488000D01*
X487543Y240602D01*
X487156Y240343D01*
X485656Y238843D01*
X485398Y238457D01*
X485307Y238000D01*
Y231379D01*
X485398Y230922D01*
X485656Y230535D01*
X486102Y230089D01*
X486028Y229674D01*
X485557Y229482D01*
X481720Y233319D01*
X481710Y233369D01*
X481562Y233591D01*
X480653Y234500D01*
X481562Y235409D01*
X481710Y235631D01*
X481720Y235681D01*
X487847Y241807D01*
X490102D01*
X490146Y241734D01*
D02*
G37*
G36*
X494181Y235046D02*
X494336Y234673D01*
X494916Y233916D01*
X495673Y233335D01*
X496554Y232970D01*
X497500Y232846D01*
X498446Y232970D01*
X499327Y233335D01*
X499930Y233798D01*
X500430Y233592D01*
Y229408D01*
X499930Y229202D01*
X499327Y229664D01*
X498446Y230030D01*
X497500Y230154D01*
X496554Y230030D01*
X495673Y229664D01*
X494916Y229084D01*
X494336Y228327D01*
X493970Y227446D01*
X493846Y226500D01*
X493577Y226193D01*
X490952D01*
X490848Y226348D01*
X490230Y226762D01*
X489500Y226907D01*
X488770Y226762D01*
X488475Y226564D01*
X487896Y227143D01*
X488128Y227619D01*
X488730Y227738D01*
X489348Y228152D01*
X489761Y228770D01*
X489907Y229500D01*
X489761Y230230D01*
X489696Y230327D01*
X489926Y230883D01*
X490230Y230943D01*
X490848Y231357D01*
X491261Y231975D01*
X491407Y232705D01*
X491370Y232888D01*
X493611Y235129D01*
X494181Y235046D01*
D02*
G37*
G36*
X466285Y237157D02*
X466672Y236898D01*
X467128Y236807D01*
X468215D01*
X468511Y236866D01*
X473511Y231865D01*
X474064Y231496D01*
X474636Y231382D01*
X474815Y231066D01*
X474868Y230907D01*
X473589Y229628D01*
X472588Y228627D01*
X470806Y226844D01*
Y226844D01*
X470721Y226648D01*
X470246Y226733D01*
X470194Y226844D01*
Y226844D01*
X468412Y228627D01*
X467411Y229628D01*
X465628Y231411D01*
X464627Y232412D01*
X462844Y234194D01*
X462844D01*
X462733Y234246D01*
X462713Y234358D01*
X462714Y234365D01*
X462844Y234805D01*
X464627Y236588D01*
X465740Y237701D01*
X466285Y237157D01*
D02*
G37*
G36*
X472727Y224756D02*
X471892Y223921D01*
X470918Y224895D01*
X470917Y225730D01*
X471335Y226148D01*
X472727Y224756D01*
D02*
G37*
G36*
X470083Y225730D02*
X470082Y224895D01*
X469108Y223921D01*
X468273Y224756D01*
X469665Y226148D01*
X470083Y225730D01*
D02*
G37*
%LPC*%
G36*
X491968Y320213D02*
X448500D01*
X447653Y320044D01*
X447483Y319930D01*
X447123Y320123D01*
Y320123D01*
X439877D01*
Y312877D01*
X447123D01*
Y313911D01*
X447347Y313956D01*
X448065Y314436D01*
X449416Y315788D01*
X450925D01*
X451171Y315287D01*
X450891Y314922D01*
X450592Y314200D01*
X450490Y313425D01*
Y311957D01*
X453484D01*
X456478D01*
Y313425D01*
X456376Y314200D01*
X456077Y314922D01*
X455797Y315287D01*
X456044Y315788D01*
X484941D01*
X485187Y315287D01*
X484907Y314922D01*
X484608Y314200D01*
X484506Y313425D01*
Y311957D01*
X487500D01*
Y311457D01*
X488000D01*
Y306560D01*
X488275Y306596D01*
X488997Y306895D01*
X489617Y307371D01*
X489663Y307430D01*
X490163Y307260D01*
Y299413D01*
X489835Y299302D01*
X489663Y299273D01*
X489047Y299746D01*
X488301Y300055D01*
X488000Y300095D01*
Y295000D01*
Y289906D01*
X488301Y289945D01*
X489047Y290254D01*
X489687Y290746D01*
X490179Y291386D01*
X490488Y292132D01*
X490593Y292933D01*
Y294354D01*
X491093Y294621D01*
X491528Y294331D01*
X492375Y294163D01*
X493222Y294331D01*
X493660Y294624D01*
X494047Y294507D01*
X494681Y293681D01*
X495507Y293047D01*
X496468Y292649D01*
X497000Y292579D01*
Y296500D01*
Y300421D01*
X496468Y300351D01*
X495507Y299953D01*
X495087Y299631D01*
X494990Y299642D01*
X494588Y299878D01*
Y303562D01*
X495087Y303785D01*
X495673Y303335D01*
X496554Y302971D01*
X497500Y302846D01*
X498446Y302971D01*
X499327Y303335D01*
X500084Y303916D01*
X500665Y304673D01*
X501029Y305554D01*
X501154Y306500D01*
X501029Y307446D01*
X500665Y308327D01*
X500084Y309084D01*
X499327Y309665D01*
X498446Y310030D01*
X497500Y310154D01*
X496554Y310030D01*
X495673Y309665D01*
X495087Y309215D01*
X494588Y309438D01*
Y312877D01*
X501123D01*
Y320123D01*
X493877D01*
Y319881D01*
X493377Y319669D01*
X492815Y320044D01*
X491968Y320213D01*
D02*
G37*
G36*
X452984Y310957D02*
X450490D01*
Y309488D01*
X450592Y308713D01*
X450891Y307991D01*
X451367Y307371D01*
X451987Y306895D01*
X452709Y306596D01*
X452984Y306560D01*
Y310957D01*
D02*
G37*
G36*
X456478D02*
X453984D01*
Y306560D01*
X454259Y306596D01*
X454981Y306895D01*
X455601Y307371D01*
X456077Y307991D01*
X456376Y308713D01*
X456478Y309488D01*
Y310957D01*
D02*
G37*
G36*
X487000Y310957D02*
X484506D01*
Y309488D01*
X484608Y308713D01*
X484907Y307991D01*
X485383Y307371D01*
X486003Y306895D01*
X486725Y306596D01*
X487000Y306560D01*
Y310957D01*
D02*
G37*
G36*
X443500Y310154D02*
X442554Y310030D01*
X441673Y309665D01*
X440916Y309084D01*
X440336Y308327D01*
X439970Y307446D01*
X439846Y306500D01*
X439970Y305554D01*
X440336Y304673D01*
X440916Y303916D01*
X441673Y303335D01*
X442554Y302971D01*
X443500Y302846D01*
X444446Y302971D01*
X445327Y303335D01*
X446084Y303916D01*
X446664Y304673D01*
X447029Y305554D01*
X447154Y306500D01*
X447029Y307446D01*
X446664Y308327D01*
X446084Y309084D01*
X445327Y309665D01*
X444446Y310030D01*
X443500Y310154D01*
D02*
G37*
G36*
X498000Y300421D02*
Y297000D01*
X501421D01*
X501351Y297532D01*
X500953Y298493D01*
X500319Y299319D01*
X499493Y299953D01*
X498532Y300351D01*
X498000Y300421D01*
D02*
G37*
G36*
X444000D02*
Y297000D01*
X447421D01*
X447351Y297532D01*
X446953Y298493D01*
X446319Y299319D01*
X445493Y299953D01*
X444532Y300351D01*
X444000Y300421D01*
D02*
G37*
G36*
X443000D02*
X442468Y300351D01*
X441507Y299953D01*
X440681Y299319D01*
X440047Y298493D01*
X439649Y297532D01*
X439579Y297000D01*
X443000D01*
Y300421D01*
D02*
G37*
G36*
X452984Y300095D02*
X452684Y300055D01*
X451938Y299746D01*
X451297Y299254D01*
X450805Y298614D01*
X450496Y297868D01*
X450391Y297067D01*
Y295500D01*
X452984D01*
Y300095D01*
D02*
G37*
G36*
X501421Y296000D02*
X498000D01*
Y292579D01*
X498532Y292649D01*
X499493Y293047D01*
X500319Y293681D01*
X500953Y294507D01*
X501351Y295468D01*
X501421Y296000D01*
D02*
G37*
G36*
X447421D02*
X444000D01*
Y292579D01*
X444532Y292649D01*
X445493Y293047D01*
X446319Y293681D01*
X446953Y294507D01*
X447351Y295468D01*
X447421Y296000D01*
D02*
G37*
G36*
X443000D02*
X439579D01*
X439649Y295468D01*
X440047Y294507D01*
X440681Y293681D01*
X441507Y293047D01*
X442468Y292649D01*
X443000Y292579D01*
Y296000D01*
D02*
G37*
G36*
X452984Y294500D02*
X450391D01*
Y292933D01*
X450496Y292132D01*
X450805Y291386D01*
X451297Y290746D01*
X451938Y290254D01*
X452684Y289945D01*
X452984Y289906D01*
Y294500D01*
D02*
G37*
G36*
X462051Y259988D02*
X458402D01*
Y257520D01*
X462051D01*
Y259988D01*
D02*
G37*
G36*
X457402D02*
X453752D01*
Y257520D01*
X457402D01*
Y259988D01*
D02*
G37*
G36*
X462051Y256520D02*
X458402D01*
Y254051D01*
X462051D01*
Y256520D01*
D02*
G37*
G36*
X484000Y194000D02*
X480500D01*
Y190000D01*
X484000D01*
Y194000D01*
D02*
G37*
G36*
X479500D02*
X476000D01*
Y190000D01*
X479500D01*
Y194000D01*
D02*
G37*
G36*
X484000Y189000D02*
X480500D01*
Y185000D01*
X484000D01*
Y189000D01*
D02*
G37*
G36*
X479500D02*
X476000D01*
Y185000D01*
X479500D01*
Y189000D01*
D02*
G37*
G36*
X489000Y181000D02*
X485500D01*
Y177000D01*
X489000D01*
Y181000D01*
D02*
G37*
G36*
X484500D02*
X481000D01*
Y177000D01*
X484500D01*
Y181000D01*
D02*
G37*
G36*
X475000Y180702D02*
X474042Y180576D01*
X473149Y180206D01*
X472382Y179618D01*
X471794Y178851D01*
X471424Y177958D01*
X471298Y177000D01*
Y176000D01*
X471424Y175042D01*
X471794Y174149D01*
X472382Y173382D01*
X473149Y172794D01*
X474042Y172424D01*
X475000Y172298D01*
X475958Y172424D01*
X476851Y172794D01*
X477618Y173382D01*
X478206Y174149D01*
X478576Y175042D01*
X478702Y176000D01*
Y177000D01*
X478576Y177958D01*
X478206Y178851D01*
X477618Y179618D01*
X476851Y180206D01*
X475958Y180576D01*
X475000Y180702D01*
D02*
G37*
G36*
X465000D02*
X464042Y180576D01*
X463149Y180206D01*
X462383Y179618D01*
X461794Y178851D01*
X461424Y177958D01*
X461298Y177000D01*
Y176000D01*
X461424Y175042D01*
X461794Y174149D01*
X462383Y173382D01*
X463149Y172794D01*
X464042Y172424D01*
X465000Y172298D01*
X465958Y172424D01*
X466851Y172794D01*
X467618Y173382D01*
X468206Y174149D01*
X468575Y175042D01*
X468702Y176000D01*
Y177000D01*
X468575Y177958D01*
X468206Y178851D01*
X467618Y179618D01*
X466851Y180206D01*
X465958Y180576D01*
X465000Y180702D01*
D02*
G37*
G36*
X489000Y176000D02*
X485500D01*
Y172000D01*
X489000D01*
Y176000D01*
D02*
G37*
G36*
X484500D02*
X481000D01*
Y172000D01*
X484500D01*
Y176000D01*
D02*
G37*
%LPD*%
D13*
X464206Y243706D02*
X466672Y241240D01*
X464000Y241000D02*
Y243500D01*
X465905Y249946D02*
X467892Y247958D01*
X454717Y249946D02*
X465905D01*
X467892Y245461D02*
Y247958D01*
X466000Y244568D02*
Y245500D01*
Y244568D02*
X468064Y242504D01*
X464500Y247000D02*
X466000Y245500D01*
X467892Y245461D02*
X469387Y243965D01*
X450330Y254333D02*
X454717Y249946D01*
X455409Y251616D02*
X470679D01*
X473648Y248648D01*
X452000Y255025D02*
X455409Y251616D01*
X469500Y189000D02*
X475500Y183000D01*
X475000Y222500D02*
Y224432D01*
X466000Y214500D02*
X468093Y216593D01*
X466000Y213166D02*
Y214500D01*
X478500Y216000D02*
X497750Y196750D01*
X472808Y206328D02*
X474328D01*
X455830Y225830D02*
X461830D01*
X449990Y219990D02*
X455830Y225830D01*
X452500Y232000D02*
X459648D01*
X448000D02*
X452500D01*
X453500Y227500D02*
X460715D01*
X443500Y217500D02*
X453500Y227500D01*
X457000Y223000D02*
X458160Y224160D01*
X451660Y217660D02*
X457000Y223000D01*
X446500Y229500D02*
X459932D01*
X459648Y232000D02*
X461035Y233387D01*
X443500Y236500D02*
X448000Y232000D01*
X453330Y215330D02*
X460490Y222490D01*
X459932Y229500D02*
X462496Y232064D01*
X443500Y226500D02*
X446500Y229500D01*
X449990Y212990D02*
Y219990D01*
X443500Y206500D02*
X449990Y212990D01*
X443500Y216500D02*
Y217500D01*
X462820Y220820D02*
X465172D01*
X455000Y213000D02*
X462820Y220820D01*
X455000Y188000D02*
Y213000D01*
X460490Y222490D02*
X464058D01*
X453330Y196330D02*
Y215330D01*
X458160Y224160D02*
X462945D01*
X451660Y204660D02*
Y217660D01*
X461198Y241017D02*
X463888Y238328D01*
X460500Y241715D02*
X461198Y241017D01*
X450000Y250330D02*
X453615Y246715D01*
X456785D02*
X460500Y243000D01*
Y241715D02*
Y243000D01*
X453615Y246715D02*
X456785D01*
X468215Y238000D02*
X469000Y238785D01*
X448036Y248464D02*
X449500Y247000D01*
X452500Y244000D01*
X455432D01*
X448036Y248464D02*
Y251396D01*
X456000Y243432D02*
X462496Y236936D01*
X455432Y244000D02*
X456000Y243432D01*
X488000Y239500D02*
X491000D01*
X486500Y238000D02*
X488000Y239500D01*
X497500Y256500D02*
X501623Y252377D01*
Y224709D02*
Y252377D01*
X497914Y221000D02*
X501623Y224709D01*
X488587Y221000D02*
X497914D01*
X489500Y216500D02*
X497500D01*
X486000Y220000D02*
X489500Y216500D01*
X486000Y220000D02*
Y224316D01*
X478504Y231813D02*
X486000Y224316D01*
X478504Y231813D02*
Y232064D01*
X492685Y206500D02*
X497500D01*
X483500Y215685D02*
X492685Y206500D01*
X483500Y215685D02*
Y221500D01*
X486500Y231379D02*
Y238000D01*
Y231379D02*
X488000Y229879D01*
Y229500D02*
Y229879D01*
X493295Y236500D02*
X497500D01*
X489500Y232705D02*
X493295Y236500D01*
X479965Y233387D02*
X488352Y225000D01*
X489500D01*
X497500D01*
X472313Y222500D02*
X472351Y222538D01*
X470813Y221000D02*
X472313Y222500D01*
X469149Y218565D02*
X469268Y218684D01*
X467635Y217051D02*
X469149Y218565D01*
X478750Y222000D02*
Y223465D01*
Y216500D02*
Y222000D01*
X475000Y222500D02*
X475082Y222418D01*
Y221917D02*
Y222418D01*
X471849Y218684D02*
X475082Y221917D01*
X469268Y218684D02*
X471849D01*
X464040Y213166D02*
X466000Y215126D01*
X475720Y229280D02*
X483500Y221500D01*
X465000Y258674D02*
X469388Y254286D01*
X465000Y258674D02*
Y273500D01*
X443216Y256216D02*
X448036Y251396D01*
X448660Y253555D02*
X450000Y252215D01*
Y250330D02*
Y252215D01*
X460764Y197236D02*
X469000Y189000D01*
X469500D01*
X448660Y253555D02*
Y261340D01*
X451888Y241112D02*
X455536D01*
X443500Y246500D02*
X448888Y241112D01*
X451888D01*
X455536D02*
X461035Y235613D01*
X443500Y196500D02*
X451660Y204660D01*
X465864Y219150D02*
X467714Y221000D01*
X470813D01*
X463760Y219150D02*
X465864D01*
X460764Y216154D02*
X463760Y219150D01*
X465172Y220820D02*
X469387Y225035D01*
X460764Y197236D02*
Y216154D01*
X464058Y222490D02*
X468064Y226496D01*
X462945Y224160D02*
X466672Y227888D01*
X461830Y225830D02*
X465280Y229280D01*
X460715Y227500D02*
X463888Y230672D01*
X468093Y216593D02*
X468843Y215843D01*
X467769Y216916D02*
X468093Y216593D01*
X467635Y217051D02*
X467769Y216916D01*
X467500D02*
X467769D01*
X466885Y216301D02*
X467500Y216916D01*
X476000Y266500D02*
X481839D01*
X455252Y262752D02*
Y270512D01*
X455500D01*
X456968Y271980D01*
X457902D01*
X452000Y255025D02*
Y278000D01*
X450330Y254333D02*
Y269670D01*
X443500Y266500D02*
X448660Y261340D01*
X443500Y276500D02*
X450330Y269670D01*
X443500Y286500D02*
X452000Y278000D01*
X477112Y230672D02*
X478892Y228892D01*
X464000Y241000D02*
X465280Y239720D01*
X466672Y241112D02*
Y241240D01*
X467128Y238000D02*
X468215D01*
X465408Y239720D02*
X467128Y238000D01*
X466672Y241112D02*
X468957Y238828D01*
X465280Y239720D02*
X465408D01*
X474715Y233069D02*
X477112Y230672D01*
X473648Y246000D02*
Y248648D01*
X471613Y243965D02*
X473648Y246000D01*
X443500Y186500D02*
X453330Y196330D01*
X443500Y176500D02*
X455000Y188000D01*
X491000Y183000D02*
X497500Y176500D01*
X488000Y196000D02*
X497500Y186500D01*
X491000Y243000D02*
X497500Y236500D01*
X487352Y243000D02*
X491000D01*
X479965Y235613D02*
X487352Y243000D01*
X488068Y246500D02*
X497500D01*
X496585Y256500D02*
X497500D01*
X493510Y253425D02*
X496585Y256500D01*
X493510Y253425D02*
X493510D01*
X488552Y248466D02*
X493510Y253425D01*
X487251Y248466D02*
X488552D01*
X477112Y238328D02*
X487251Y248466D01*
X491840Y254117D02*
Y260840D01*
X487860Y250136D02*
X491840Y254117D01*
X486136Y250136D02*
X487860D01*
X475720Y239720D02*
X486136Y250136D01*
X490170Y254808D02*
Y269170D01*
X487168Y251806D02*
X490170Y254808D01*
X485022Y251806D02*
X487168D01*
X474328Y241112D02*
X485022Y251806D01*
X491840Y260840D02*
X497500Y266500D01*
X490170Y269170D02*
X497500Y276500D01*
X488500Y277500D02*
X497500Y286500D01*
X488500Y255500D02*
Y277500D01*
X486476Y253476D02*
X488500Y255500D01*
X483909Y253476D02*
X486476D01*
X478504Y236936D02*
X488068Y246500D01*
X472936Y242504D02*
X483909Y253476D01*
X463000Y199144D02*
Y212051D01*
X471394Y294370D02*
Y296106D01*
X467608Y294341D02*
Y298608D01*
X463602Y283102D02*
X465500Y281205D01*
X463602Y283102D02*
Y292736D01*
X467547Y294280D02*
X467608Y294341D01*
X470500Y288000D02*
X472500D01*
X468892Y298608D02*
X471394Y296106D01*
X469516Y288984D02*
X470500Y288000D01*
X463602Y292736D02*
X463693Y292827D01*
X467608Y298608D02*
X468892D01*
X473453Y288953D02*
Y298453D01*
X457856Y292699D02*
X457894Y292736D01*
X475457Y292779D02*
Y294244D01*
Y281000D02*
Y292779D01*
X475413Y292736D02*
X475457Y292779D01*
X471394Y294370D02*
X471484Y294280D01*
X469516Y288984D02*
Y294280D01*
X472500Y288000D02*
X473453Y288953D01*
X474328Y227888D02*
X478750Y223465D01*
X478500Y209000D02*
Y216000D01*
X466000Y214500D02*
Y215126D01*
X464115Y213166D02*
X466000D01*
X464040D02*
X464115D01*
X463000Y212051D02*
X464115Y213166D01*
X463000Y199144D02*
X466144Y196000D01*
X471613Y225035D02*
X472351Y224297D01*
Y222538D02*
Y224297D01*
X472936Y226496D02*
X475000Y224432D01*
X475828Y206328D02*
X478500Y209000D01*
X466144Y196000D02*
X488000D01*
X472150Y205669D02*
X472808Y206328D01*
X475500Y183000D02*
X491000D01*
D15*
X483091Y292736D02*
D03*
X457894D02*
D03*
X479941D02*
D03*
X461043D02*
D03*
D16*
X469508D02*
D03*
X471476D02*
D03*
X467539D02*
D03*
X465571D02*
D03*
X463602D02*
D03*
X473445D02*
D03*
X475413D02*
D03*
X477382D02*
D03*
D17*
X471613Y225035D02*
D03*
X479965Y233387D02*
D03*
X469387Y243965D02*
D03*
X461035Y235613D02*
D03*
D18*
X472936Y226496D02*
D03*
X474328Y227888D02*
D03*
X475720Y229280D02*
D03*
X477112Y230672D02*
D03*
X478504Y232064D02*
D03*
X468064Y242504D02*
D03*
X466672Y241112D02*
D03*
X465280Y239720D02*
D03*
X463888Y238328D02*
D03*
X462496Y236936D02*
D03*
D19*
X479965Y235613D02*
D03*
X471613Y243965D02*
D03*
X461035Y233387D02*
D03*
X469387Y225035D02*
D03*
D20*
X478504Y236936D02*
D03*
X477112Y238328D02*
D03*
X475720Y239720D02*
D03*
X474328Y241112D02*
D03*
X472936Y242504D02*
D03*
X462496Y232064D02*
D03*
X463888Y230672D02*
D03*
X465280Y229280D02*
D03*
X466672Y227888D02*
D03*
X468064Y226496D02*
D03*
D21*
X483098Y257020D02*
D03*
X457902D02*
D03*
X483098Y271980D02*
D03*
X457902D02*
D03*
D22*
X467350Y214331D02*
D03*
X473650Y205669D02*
D03*
X467350D02*
D03*
X473650Y214331D02*
D03*
D36*
X454500Y176500D02*
Y180000D01*
X459000Y184500D02*
Y188500D01*
X454500Y180000D02*
X459000Y184500D01*
X457894Y286894D02*
Y292736D01*
D37*
X469000Y238785D02*
X474715Y233069D01*
X483091Y289488D02*
Y292736D01*
D38*
X492375Y299688D02*
Y314406D01*
Y296375D02*
Y299688D01*
Y314406D02*
X493968Y316000D01*
X485500Y263500D02*
Y266500D01*
X483500Y261500D02*
X485500Y263500D01*
X471500Y256398D02*
X476602Y261500D01*
X469388Y254286D02*
X471500Y256398D01*
X476602Y261500D02*
X483500D01*
X491968Y318000D02*
X493968Y316000D01*
X448500Y318000D02*
X491968D01*
X446500Y316000D02*
X448500Y318000D01*
D39*
X460762Y292455D02*
X461043Y292736D01*
D40*
X479941Y278000D02*
Y292736D01*
D41*
X497500Y176500D02*
D03*
Y186500D02*
D03*
Y196500D02*
D03*
Y206500D02*
D03*
Y216500D02*
D03*
Y226500D02*
D03*
Y236500D02*
D03*
Y246500D02*
D03*
Y256500D02*
D03*
Y266500D02*
D03*
Y276500D02*
D03*
Y286500D02*
D03*
Y296500D02*
D03*
Y306500D02*
D03*
X443500Y176500D02*
D03*
Y186500D02*
D03*
Y196500D02*
D03*
Y206500D02*
D03*
Y216500D02*
D03*
Y226500D02*
D03*
Y236500D02*
D03*
Y246500D02*
D03*
Y256500D02*
D03*
Y266500D02*
D03*
Y276500D02*
D03*
Y286500D02*
D03*
Y296500D02*
D03*
Y306500D02*
D03*
D42*
X497500Y316500D02*
D03*
X443500D02*
D03*
D43*
X487500Y311457D02*
D03*
X453484D02*
D03*
D44*
X487500Y295000D02*
D03*
X453484D02*
D03*
D45*
X459114Y296969D02*
D03*
X481870D02*
D03*
D46*
X480000Y189500D02*
D03*
X485000Y176500D02*
D03*
D47*
X470000Y189500D02*
D03*
X460000D02*
D03*
X455000Y176500D02*
D03*
X465000D02*
D03*
X475000D02*
D03*
D48*
X488500Y199500D02*
D03*
X491000Y198500D02*
D03*
X492500Y211500D02*
D03*
X458804Y256535D02*
D03*
X462000Y262500D02*
D03*
X464500Y247000D02*
D03*
X452500Y232000D02*
D03*
X469000Y238785D02*
D03*
X452000Y249000D02*
D03*
X449500Y247000D02*
D03*
X491000Y239500D02*
D03*
X488587Y221000D02*
D03*
X488000Y229500D02*
D03*
X489500Y232705D02*
D03*
Y225000D02*
D03*
X478750Y222000D02*
D03*
X475413Y222500D02*
D03*
X472313D02*
D03*
X465000Y273500D02*
D03*
X451888Y241112D02*
D03*
X469149Y218565D02*
D03*
X483500Y221500D02*
D03*
X459926Y271961D02*
D03*
X481839Y266500D02*
D03*
X455252Y262752D02*
D03*
X492375Y299688D02*
D03*
Y296375D02*
D03*
X485500Y263500D02*
D03*
Y266500D02*
D03*
X465500Y281205D02*
D03*
X473453Y298453D02*
D03*
X467608Y298608D02*
D03*
X475000Y281000D02*
D03*
X478750Y216500D02*
D03*
X475720Y217500D02*
D03*
X471500Y256398D02*
D03*
X469388Y254286D02*
D03*
X474750Y268850D02*
D03*
X474220Y266000D02*
D03*
X474741Y271961D02*
D03*
X475000Y305000D02*
D03*
X462400D02*
D03*
X465550D02*
D03*
X480000Y200500D02*
D03*
X476000D02*
D03*
X471869D02*
D03*
X467500D02*
D03*
X478150Y305000D02*
D03*
X471850D02*
D03*
X468700D02*
D03*
D49*
X464000Y243500D02*
D03*
D50*
X449990Y219990D02*
D03*
X454500Y227446D02*
D03*
Y229446D02*
D03*
X457000Y223000D02*
D03*
X461198Y241017D02*
D03*
X456000Y243432D02*
D03*
M02*
