M48
;Layer_Color=9474304
;FILE_FORMAT=2:5
INCH,LZ
;TYPE=PLATED
T1F00S00C0.01000
T2F00S00C0.01200
T3F00S00C0.01500
T5F00S00C0.03200
T6F00S00C0.03543
;TYPE=NON_PLATED
T7F00S00C0.02559
%
T01
X044999Y021999
X0457Y0223
X04545Y0227446
Y0229446
X0456Y0243432
X0461198Y0241017
T02
X0471869Y02005
X0476
X048
X04885Y01995
X0491Y01985
X04925Y02115
X047875Y02165
X047572Y02175
X0469149Y0218565
X0475Y0281
X0473453Y0298453
X0475Y0305
X047815
X047185
X04687
X046555
X04624
X0467608Y0298608
X04655Y0281205
X0464Y02435
X04675Y02005
T03
X0472313Y02225
X0475413
X047875Y0222
X04835Y02215
X0488587Y0221
X04895Y0225
X0488Y02295
X04895Y0232705
X0491Y02395
X0469Y0238785
X0469388Y0254286
X04715Y0256398
X047422Y0266
X047475Y026885
X0474741Y0271961
X0481839Y02665
X04855
Y02635
X0492375Y0296375
Y0299688
X0465Y02735
X0459926Y0271961
X0462Y02625
X0455252Y0262752
X0458804Y0256535
X0452Y0249
X04495Y0247
X0451888Y0241112
X04525Y0232
X04645Y0247
T05
X0475Y01765
X0485
X048Y01895
X047
X046
X0455Y01765
X0465
T06
X04975Y01765
Y01865
Y01965
Y02065
Y02165
Y02265
Y02365
Y02465
Y02565
Y02665
Y02765
Y02865
Y02965
Y03065
X04435
Y02965
Y02865
Y02765
Y02665
Y02565
Y02465
Y02365
Y02265
Y02165
Y02065
Y01965
Y01865
Y01765
Y03165
X04975
T07
X048187Y0296969
X0459114
M30
