G04*
G04 #@! TF.GenerationSoftware,Altium Limited,Altium Designer,19.0.4 (130)*
G04*
G04 Layer_Color=32896*
%FSLAX25Y25*%
%MOIN*%
G70*
G01*
G75*
%ADD12C,0.00787*%
%ADD64C,0.00551*%
%ADD65R,0.04724X0.01181*%
G36*
X454633Y295500D02*
X454307D01*
Y297509D01*
X452968Y295500D01*
X452616D01*
Y298060D01*
X452942D01*
Y296048D01*
X454285Y298060D01*
X454633D01*
Y295500D01*
D02*
G37*
G36*
X456357Y298097D02*
X456486Y298079D01*
X456545Y298068D01*
X456601Y298053D01*
X456653Y298042D01*
X456701Y298027D01*
X456745Y298012D01*
X456782Y297997D01*
X456815Y297983D01*
X456845Y297972D01*
X456867Y297960D01*
X456882Y297953D01*
X456893Y297949D01*
X456897Y297946D01*
X456949Y297912D01*
X457000Y297879D01*
X457089Y297801D01*
X457167Y297724D01*
X457230Y297642D01*
X457282Y297572D01*
X457300Y297542D01*
X457315Y297513D01*
X457330Y297491D01*
X457337Y297476D01*
X457341Y297465D01*
X457345Y297461D01*
X457396Y297339D01*
X457433Y297217D01*
X457463Y297098D01*
X457470Y297043D01*
X457481Y296991D01*
X457485Y296943D01*
X457493Y296902D01*
X457496Y296862D01*
Y296828D01*
X457500Y296802D01*
Y296784D01*
Y296769D01*
Y296765D01*
X457493Y296628D01*
X457474Y296499D01*
X457463Y296440D01*
X457452Y296384D01*
X457437Y296329D01*
X457422Y296281D01*
X457408Y296236D01*
X457393Y296199D01*
X457382Y296162D01*
X457371Y296136D01*
X457359Y296111D01*
X457352Y296096D01*
X457345Y296085D01*
Y296081D01*
X457278Y295974D01*
X457204Y295881D01*
X457126Y295800D01*
X457052Y295733D01*
X456982Y295681D01*
X456956Y295663D01*
X456930Y295644D01*
X456908Y295633D01*
X456893Y295622D01*
X456882Y295618D01*
X456878Y295615D01*
X456819Y295585D01*
X456760Y295563D01*
X456642Y295522D01*
X456527Y295496D01*
X456420Y295474D01*
X456371Y295470D01*
X456327Y295463D01*
X456286Y295459D01*
X456253D01*
X456227Y295456D01*
X456190D01*
X456087Y295459D01*
X455987Y295470D01*
X455894Y295489D01*
X455813Y295507D01*
X455780Y295515D01*
X455746Y295522D01*
X455717Y295533D01*
X455691Y295541D01*
X455672Y295548D01*
X455657Y295552D01*
X455650Y295555D01*
X455646D01*
X455546Y295596D01*
X455454Y295644D01*
X455365Y295696D01*
X455287Y295744D01*
X455254Y295766D01*
X455221Y295789D01*
X455195Y295807D01*
X455173Y295822D01*
X455154Y295837D01*
X455139Y295848D01*
X455132Y295851D01*
X455128Y295855D01*
Y296806D01*
X456216D01*
Y296503D01*
X455461D01*
Y296022D01*
X455506Y295985D01*
X455557Y295951D01*
X455613Y295922D01*
X455665Y295896D01*
X455709Y295874D01*
X455750Y295855D01*
X455765Y295848D01*
X455772Y295844D01*
X455780Y295840D01*
X455783D01*
X455861Y295814D01*
X455939Y295792D01*
X456009Y295778D01*
X456075Y295770D01*
X456131Y295763D01*
X456153D01*
X456175Y295759D01*
X456212D01*
X456305Y295763D01*
X456394Y295778D01*
X456475Y295796D01*
X456549Y295814D01*
X456608Y295837D01*
X456634Y295844D01*
X456653Y295851D01*
X456671Y295859D01*
X456682Y295866D01*
X456690Y295870D01*
X456693D01*
X456771Y295918D01*
X456841Y295970D01*
X456901Y296025D01*
X456949Y296081D01*
X456989Y296133D01*
X457015Y296173D01*
X457026Y296188D01*
X457030Y296199D01*
X457037Y296207D01*
Y296210D01*
X457074Y296303D01*
X457104Y296399D01*
X457123Y296495D01*
X457137Y296588D01*
X457141Y296628D01*
X457145Y296666D01*
X457149Y296703D01*
Y296732D01*
X457152Y296754D01*
Y296773D01*
Y296784D01*
Y296788D01*
X457149Y296891D01*
X457137Y296984D01*
X457123Y297073D01*
X457104Y297150D01*
X457097Y297183D01*
X457086Y297213D01*
X457078Y297239D01*
X457071Y297261D01*
X457063Y297280D01*
X457060Y297291D01*
X457056Y297298D01*
Y297302D01*
X457030Y297354D01*
X457004Y297402D01*
X456978Y297446D01*
X456952Y297483D01*
X456930Y297513D01*
X456912Y297539D01*
X456897Y297553D01*
X456893Y297557D01*
X456852Y297598D01*
X456808Y297635D01*
X456760Y297664D01*
X456716Y297694D01*
X456679Y297713D01*
X456649Y297731D01*
X456627Y297739D01*
X456619Y297742D01*
X456553Y297768D01*
X456486Y297787D01*
X456416Y297798D01*
X456353Y297809D01*
X456297Y297813D01*
X456275D01*
X456257Y297816D01*
X456216D01*
X456146Y297813D01*
X456079Y297805D01*
X456020Y297794D01*
X455968Y297783D01*
X455924Y297768D01*
X455891Y297757D01*
X455872Y297750D01*
X455865Y297746D01*
X455809Y297720D01*
X455761Y297690D01*
X455717Y297661D01*
X455683Y297631D01*
X455657Y297605D01*
X455635Y297587D01*
X455624Y297572D01*
X455620Y297568D01*
X455587Y297524D01*
X455561Y297472D01*
X455535Y297424D01*
X455513Y297372D01*
X455498Y297328D01*
X455487Y297294D01*
X455483Y297280D01*
X455480Y297269D01*
X455476Y297265D01*
Y297261D01*
X455169Y297343D01*
X455195Y297435D01*
X455228Y297516D01*
X455262Y297590D01*
X455291Y297650D01*
X455321Y297698D01*
X455343Y297731D01*
X455358Y297753D01*
X455365Y297761D01*
X455417Y297820D01*
X455472Y297868D01*
X455532Y297912D01*
X455587Y297949D01*
X455639Y297975D01*
X455680Y297997D01*
X455694Y298005D01*
X455705Y298009D01*
X455713Y298012D01*
X455717D01*
X455802Y298042D01*
X455891Y298064D01*
X455972Y298083D01*
X456050Y298094D01*
X456120Y298101D01*
X456149D01*
X456172Y298105D01*
X456290D01*
X456357Y298097D01*
D02*
G37*
G36*
X452046Y295500D02*
X451125D01*
X451040Y295504D01*
X450962Y295507D01*
X450892Y295515D01*
X450833Y295522D01*
X450781Y295530D01*
X450744Y295533D01*
X450733Y295537D01*
X450722Y295541D01*
X450714D01*
X450648Y295559D01*
X450588Y295581D01*
X450537Y295600D01*
X450492Y295622D01*
X450455Y295641D01*
X450429Y295655D01*
X450415Y295667D01*
X450407Y295670D01*
X450359Y295704D01*
X450318Y295744D01*
X450278Y295781D01*
X450244Y295818D01*
X450215Y295851D01*
X450192Y295877D01*
X450178Y295896D01*
X450174Y295903D01*
X450137Y295963D01*
X450100Y296025D01*
X450070Y296085D01*
X450048Y296144D01*
X450026Y296196D01*
X450011Y296236D01*
X450007Y296251D01*
X450004Y296262D01*
X450000Y296270D01*
Y296273D01*
X449978Y296362D01*
X449959Y296451D01*
X449948Y296536D01*
X449937Y296617D01*
X449933Y296688D01*
Y296717D01*
X449930Y296743D01*
Y296762D01*
Y296780D01*
Y296788D01*
Y296791D01*
X449933Y296917D01*
X449945Y297032D01*
X449963Y297135D01*
X449970Y297183D01*
X449982Y297224D01*
X449993Y297265D01*
X450000Y297298D01*
X450007Y297328D01*
X450019Y297354D01*
X450022Y297376D01*
X450030Y297391D01*
X450033Y297398D01*
Y297402D01*
X450074Y297498D01*
X450122Y297583D01*
X450174Y297657D01*
X450222Y297720D01*
X450267Y297772D01*
X450304Y297809D01*
X450318Y297820D01*
X450329Y297831D01*
X450333Y297835D01*
X450337Y297838D01*
X450396Y297886D01*
X450459Y297923D01*
X450522Y297957D01*
X450581Y297983D01*
X450633Y298001D01*
X450673Y298012D01*
X450688Y298020D01*
X450699D01*
X450707Y298023D01*
X450710D01*
X450773Y298035D01*
X450847Y298046D01*
X450921Y298053D01*
X450995Y298057D01*
X451062Y298060D01*
X452046D01*
Y295500D01*
D02*
G37*
G36*
X453902Y306210D02*
X453606Y306169D01*
X453580Y306210D01*
X453547Y306243D01*
X453517Y306276D01*
X453488Y306302D01*
X453458Y306321D01*
X453436Y306339D01*
X453421Y306347D01*
X453417Y306350D01*
X453369Y306373D01*
X453321Y306391D01*
X453277Y306402D01*
X453232Y306413D01*
X453195Y306417D01*
X453166Y306421D01*
X453095D01*
X453051Y306413D01*
X452973Y306395D01*
X452907Y306369D01*
X452848Y306343D01*
X452803Y306313D01*
X452770Y306288D01*
X452751Y306269D01*
X452744Y306265D01*
Y306262D01*
X452692Y306199D01*
X452655Y306132D01*
X452629Y306062D01*
X452611Y305992D01*
X452600Y305932D01*
X452596Y305907D01*
Y305884D01*
X452592Y305866D01*
Y305851D01*
Y305844D01*
Y305840D01*
Y305788D01*
X452600Y305740D01*
X452618Y305647D01*
X452644Y305570D01*
X452670Y305507D01*
X452700Y305455D01*
X452726Y305414D01*
X452737Y305403D01*
X452744Y305392D01*
X452748Y305388D01*
X452751Y305385D01*
X452781Y305355D01*
X452811Y305329D01*
X452877Y305285D01*
X452940Y305255D01*
X453003Y305237D01*
X453055Y305222D01*
X453099Y305218D01*
X453114Y305215D01*
X453136D01*
X453206Y305218D01*
X453269Y305233D01*
X453325Y305252D01*
X453369Y305274D01*
X453410Y305296D01*
X453440Y305314D01*
X453454Y305329D01*
X453462Y305333D01*
X453506Y305385D01*
X453543Y305440D01*
X453573Y305503D01*
X453595Y305559D01*
X453610Y305614D01*
X453621Y305655D01*
X453625Y305673D01*
X453628Y305684D01*
Y305692D01*
Y305696D01*
X453958Y305670D01*
X453950Y305610D01*
X453939Y305555D01*
X453906Y305451D01*
X453865Y305363D01*
X453843Y305322D01*
X453821Y305289D01*
X453802Y305255D01*
X453780Y305226D01*
X453761Y305204D01*
X453743Y305185D01*
X453728Y305170D01*
X453721Y305155D01*
X453713Y305152D01*
X453710Y305148D01*
X453665Y305115D01*
X453621Y305085D01*
X453573Y305059D01*
X453525Y305037D01*
X453432Y305004D01*
X453340Y304981D01*
X453299Y304970D01*
X453258Y304967D01*
X453225Y304963D01*
X453195Y304959D01*
X453169Y304956D01*
X453136D01*
X453058Y304959D01*
X452985Y304970D01*
X452914Y304985D01*
X452851Y305004D01*
X452792Y305030D01*
X452737Y305055D01*
X452685Y305081D01*
X452640Y305111D01*
X452600Y305141D01*
X452563Y305167D01*
X452533Y305196D01*
X452507Y305218D01*
X452489Y305237D01*
X452474Y305252D01*
X452466Y305263D01*
X452463Y305266D01*
X452426Y305314D01*
X452396Y305366D01*
X452367Y305414D01*
X452344Y305466D01*
X452307Y305566D01*
X452285Y305662D01*
X452278Y305703D01*
X452270Y305744D01*
X452267Y305777D01*
X452263Y305807D01*
X452259Y305833D01*
Y305851D01*
Y305862D01*
Y305866D01*
X452263Y305932D01*
X452270Y305995D01*
X452282Y306058D01*
X452296Y306114D01*
X452315Y306166D01*
X452333Y306217D01*
X452355Y306262D01*
X452374Y306302D01*
X452396Y306339D01*
X452418Y306373D01*
X452437Y306399D01*
X452455Y306424D01*
X452470Y306443D01*
X452481Y306454D01*
X452489Y306462D01*
X452492Y306465D01*
X452537Y306506D01*
X452581Y306543D01*
X452629Y306573D01*
X452677Y306598D01*
X452726Y306624D01*
X452774Y306643D01*
X452862Y306669D01*
X452903Y306680D01*
X452940Y306687D01*
X452973Y306691D01*
X453003Y306695D01*
X453025Y306698D01*
X453107D01*
X453151Y306691D01*
X453240Y306672D01*
X453321Y306646D01*
X453395Y306617D01*
X453454Y306587D01*
X453480Y306573D01*
X453503Y306561D01*
X453521Y306550D01*
X453532Y306543D01*
X453540Y306539D01*
X453543Y306536D01*
X453406Y307227D01*
X452381D01*
Y307527D01*
X453654D01*
X453902Y306210D01*
D02*
G37*
G36*
X455304Y306410D02*
X456000D01*
Y306117D01*
X455304D01*
Y305414D01*
X455008D01*
Y306117D01*
X454313D01*
Y306410D01*
X455008D01*
Y307105D01*
X455304D01*
Y306410D01*
D02*
G37*
G36*
X451112Y305000D02*
X450757D01*
X449758Y307560D01*
X450102D01*
X450798Y305699D01*
X450827Y305622D01*
X450853Y305548D01*
X450876Y305477D01*
X450894Y305414D01*
X450913Y305359D01*
X450924Y305318D01*
X450927Y305303D01*
X450931Y305292D01*
X450935Y305285D01*
Y305281D01*
X450979Y305429D01*
X451001Y305500D01*
X451023Y305562D01*
X451042Y305618D01*
X451049Y305640D01*
X451053Y305662D01*
X451060Y305677D01*
X451064Y305688D01*
X451068Y305696D01*
Y305699D01*
X451734Y307560D01*
X452104D01*
X451112Y305000D01*
D02*
G37*
G36*
X451191Y258068D02*
X451253Y258064D01*
X451313Y258053D01*
X451368Y258042D01*
X451420Y258027D01*
X451468Y258012D01*
X451512Y257994D01*
X451553Y257975D01*
X451590Y257957D01*
X451620Y257938D01*
X451646Y257924D01*
X451668Y257909D01*
X451686Y257898D01*
X451697Y257887D01*
X451705Y257883D01*
X451709Y257879D01*
X451746Y257842D01*
X451779Y257801D01*
X451812Y257757D01*
X451838Y257713D01*
X451882Y257624D01*
X451912Y257535D01*
X451923Y257494D01*
X451934Y257454D01*
X451942Y257420D01*
X451949Y257391D01*
X451953Y257365D01*
Y257346D01*
X451956Y257335D01*
Y257331D01*
X451635Y257298D01*
X451627Y257383D01*
X451612Y257457D01*
X451590Y257524D01*
X451564Y257576D01*
X451542Y257620D01*
X451520Y257650D01*
X451505Y257668D01*
X451498Y257676D01*
X451442Y257720D01*
X451383Y257753D01*
X451320Y257779D01*
X451264Y257794D01*
X451213Y257805D01*
X451168Y257809D01*
X451154Y257812D01*
X451131D01*
X451054Y257809D01*
X450983Y257794D01*
X450924Y257772D01*
X450872Y257750D01*
X450832Y257724D01*
X450806Y257705D01*
X450787Y257690D01*
X450780Y257683D01*
X450735Y257631D01*
X450702Y257579D01*
X450676Y257528D01*
X450661Y257476D01*
X450650Y257435D01*
X450647Y257398D01*
X450643Y257376D01*
Y257372D01*
Y257368D01*
X450650Y257302D01*
X450665Y257232D01*
X450691Y257169D01*
X450717Y257109D01*
X450746Y257061D01*
X450772Y257021D01*
X450780Y257006D01*
X450787Y256995D01*
X450795Y256991D01*
Y256987D01*
X450824Y256947D01*
X450861Y256906D01*
X450902Y256862D01*
X450946Y256817D01*
X451039Y256728D01*
X451131Y256640D01*
X451179Y256599D01*
X451220Y256562D01*
X451261Y256529D01*
X451294Y256499D01*
X451320Y256477D01*
X451342Y256458D01*
X451357Y256447D01*
X451361Y256444D01*
X451453Y256366D01*
X451538Y256292D01*
X451609Y256225D01*
X451664Y256170D01*
X451712Y256122D01*
X451746Y256088D01*
X451764Y256066D01*
X451771Y256062D01*
Y256059D01*
X451823Y255996D01*
X451864Y255937D01*
X451901Y255877D01*
X451931Y255826D01*
X451953Y255781D01*
X451967Y255748D01*
X451975Y255726D01*
X451979Y255722D01*
Y255718D01*
X451993Y255678D01*
X452001Y255641D01*
X452008Y255604D01*
X452012Y255570D01*
X452016Y255541D01*
Y255519D01*
Y255504D01*
Y255500D01*
X450317D01*
Y255803D01*
X451579D01*
X451535Y255866D01*
X451512Y255892D01*
X451494Y255918D01*
X451475Y255940D01*
X451461Y255955D01*
X451449Y255966D01*
X451446Y255970D01*
X451427Y255988D01*
X451405Y256007D01*
X451353Y256055D01*
X451294Y256111D01*
X451231Y256166D01*
X451172Y256214D01*
X451146Y256236D01*
X451124Y256259D01*
X451105Y256273D01*
X451091Y256284D01*
X451083Y256292D01*
X451080Y256295D01*
X451020Y256347D01*
X450961Y256395D01*
X450909Y256444D01*
X450861Y256484D01*
X450817Y256525D01*
X450780Y256562D01*
X450743Y256595D01*
X450713Y256625D01*
X450684Y256654D01*
X450661Y256677D01*
X450643Y256695D01*
X450624Y256714D01*
X450606Y256736D01*
X450598Y256743D01*
X450547Y256806D01*
X450502Y256862D01*
X450465Y256917D01*
X450436Y256961D01*
X450414Y257002D01*
X450399Y257032D01*
X450391Y257050D01*
X450388Y257058D01*
X450365Y257113D01*
X450351Y257169D01*
X450336Y257221D01*
X450328Y257265D01*
X450325Y257306D01*
X450321Y257335D01*
Y257354D01*
Y257361D01*
X450325Y257417D01*
X450332Y257468D01*
X450340Y257520D01*
X450354Y257565D01*
X450391Y257653D01*
X450428Y257724D01*
X450451Y257757D01*
X450469Y257783D01*
X450488Y257809D01*
X450506Y257827D01*
X450521Y257842D01*
X450528Y257857D01*
X450536Y257861D01*
X450539Y257864D01*
X450580Y257901D01*
X450624Y257935D01*
X450672Y257961D01*
X450721Y257983D01*
X450817Y258020D01*
X450913Y258046D01*
X450954Y258053D01*
X450994Y258060D01*
X451031Y258064D01*
X451061Y258068D01*
X451087Y258071D01*
X451124D01*
X451191Y258068D01*
D02*
G37*
G36*
X453018Y258009D02*
X453059Y257949D01*
X453107Y257890D01*
X453152Y257838D01*
X453196Y257794D01*
X453229Y257757D01*
X453244Y257746D01*
X453255Y257735D01*
X453259Y257731D01*
X453263Y257727D01*
X453340Y257664D01*
X453418Y257605D01*
X453492Y257554D01*
X453566Y257513D01*
X453629Y257476D01*
X453655Y257461D01*
X453677Y257450D01*
X453695Y257439D01*
X453710Y257435D01*
X453718Y257428D01*
X453721D01*
Y257124D01*
X453666Y257147D01*
X453610Y257172D01*
X453555Y257198D01*
X453503Y257224D01*
X453459Y257246D01*
X453422Y257265D01*
X453399Y257280D01*
X453396Y257283D01*
X453392D01*
X453325Y257324D01*
X453266Y257365D01*
X453214Y257402D01*
X453174Y257435D01*
X453137Y257461D01*
X453115Y257483D01*
X453096Y257498D01*
X453092Y257502D01*
Y255500D01*
X452778D01*
Y258071D01*
X452981D01*
X453018Y258009D01*
D02*
G37*
G36*
X456500Y255500D02*
X456141D01*
X455864Y256277D01*
X454791D01*
X454491Y255500D01*
X454106D01*
X455153Y258060D01*
X455523D01*
X456500Y255500D01*
D02*
G37*
G36*
X453018Y227509D02*
X453059Y227449D01*
X453107Y227390D01*
X453152Y227338D01*
X453196Y227294D01*
X453229Y227257D01*
X453244Y227246D01*
X453255Y227235D01*
X453259Y227231D01*
X453263Y227227D01*
X453340Y227165D01*
X453418Y227105D01*
X453492Y227053D01*
X453566Y227013D01*
X453629Y226976D01*
X453655Y226961D01*
X453677Y226950D01*
X453695Y226939D01*
X453710Y226935D01*
X453718Y226928D01*
X453721D01*
Y226624D01*
X453666Y226646D01*
X453610Y226672D01*
X453555Y226698D01*
X453503Y226724D01*
X453459Y226746D01*
X453422Y226765D01*
X453399Y226780D01*
X453396Y226783D01*
X453392D01*
X453325Y226824D01*
X453266Y226865D01*
X453214Y226902D01*
X453174Y226935D01*
X453137Y226961D01*
X453115Y226983D01*
X453096Y226998D01*
X453092Y227002D01*
Y225000D01*
X452778D01*
Y227572D01*
X452981D01*
X453018Y227509D01*
D02*
G37*
G36*
X451916Y226210D02*
X451620Y226169D01*
X451594Y226210D01*
X451560Y226243D01*
X451531Y226276D01*
X451501Y226302D01*
X451472Y226321D01*
X451449Y226339D01*
X451435Y226347D01*
X451431Y226350D01*
X451383Y226373D01*
X451335Y226391D01*
X451290Y226402D01*
X451246Y226413D01*
X451209Y226417D01*
X451179Y226421D01*
X451109D01*
X451065Y226413D01*
X450987Y226395D01*
X450920Y226369D01*
X450861Y226343D01*
X450817Y226313D01*
X450783Y226288D01*
X450765Y226269D01*
X450758Y226265D01*
Y226262D01*
X450706Y226199D01*
X450669Y226132D01*
X450643Y226062D01*
X450624Y225992D01*
X450613Y225932D01*
X450610Y225906D01*
Y225884D01*
X450606Y225866D01*
Y225851D01*
Y225844D01*
Y225840D01*
Y225788D01*
X450613Y225740D01*
X450632Y225647D01*
X450658Y225570D01*
X450684Y225507D01*
X450713Y225455D01*
X450739Y225414D01*
X450750Y225403D01*
X450758Y225392D01*
X450761Y225389D01*
X450765Y225385D01*
X450795Y225355D01*
X450824Y225329D01*
X450891Y225285D01*
X450954Y225255D01*
X451017Y225237D01*
X451068Y225222D01*
X451113Y225218D01*
X451128Y225215D01*
X451150D01*
X451220Y225218D01*
X451283Y225233D01*
X451338Y225252D01*
X451383Y225274D01*
X451424Y225296D01*
X451453Y225314D01*
X451468Y225329D01*
X451475Y225333D01*
X451520Y225385D01*
X451557Y225440D01*
X451586Y225503D01*
X451609Y225559D01*
X451623Y225614D01*
X451635Y225655D01*
X451638Y225673D01*
X451642Y225684D01*
Y225692D01*
Y225696D01*
X451971Y225670D01*
X451964Y225610D01*
X451953Y225555D01*
X451919Y225451D01*
X451879Y225363D01*
X451857Y225322D01*
X451834Y225289D01*
X451816Y225255D01*
X451794Y225226D01*
X451775Y225203D01*
X451757Y225185D01*
X451742Y225170D01*
X451734Y225155D01*
X451727Y225152D01*
X451723Y225148D01*
X451679Y225115D01*
X451635Y225085D01*
X451586Y225059D01*
X451538Y225037D01*
X451446Y225004D01*
X451353Y224981D01*
X451313Y224970D01*
X451272Y224967D01*
X451239Y224963D01*
X451209Y224959D01*
X451183Y224956D01*
X451150D01*
X451072Y224959D01*
X450998Y224970D01*
X450928Y224985D01*
X450865Y225004D01*
X450806Y225030D01*
X450750Y225056D01*
X450698Y225081D01*
X450654Y225111D01*
X450613Y225141D01*
X450576Y225167D01*
X450547Y225196D01*
X450521Y225218D01*
X450502Y225237D01*
X450488Y225252D01*
X450480Y225263D01*
X450476Y225266D01*
X450439Y225314D01*
X450410Y225366D01*
X450380Y225414D01*
X450358Y225466D01*
X450321Y225566D01*
X450299Y225662D01*
X450291Y225703D01*
X450284Y225744D01*
X450280Y225777D01*
X450277Y225807D01*
X450273Y225833D01*
Y225851D01*
Y225862D01*
Y225866D01*
X450277Y225932D01*
X450284Y225995D01*
X450295Y226058D01*
X450310Y226114D01*
X450328Y226166D01*
X450347Y226217D01*
X450369Y226262D01*
X450388Y226302D01*
X450410Y226339D01*
X450432Y226373D01*
X450451Y226399D01*
X450469Y226425D01*
X450484Y226443D01*
X450495Y226454D01*
X450502Y226462D01*
X450506Y226465D01*
X450550Y226506D01*
X450595Y226543D01*
X450643Y226572D01*
X450691Y226598D01*
X450739Y226624D01*
X450787Y226643D01*
X450876Y226669D01*
X450917Y226680D01*
X450954Y226687D01*
X450987Y226691D01*
X451017Y226695D01*
X451039Y226698D01*
X451120D01*
X451165Y226691D01*
X451253Y226672D01*
X451335Y226646D01*
X451409Y226617D01*
X451468Y226587D01*
X451494Y226572D01*
X451516Y226561D01*
X451535Y226550D01*
X451546Y226543D01*
X451553Y226539D01*
X451557Y226536D01*
X451420Y227227D01*
X450395D01*
Y227527D01*
X451668D01*
X451916Y226210D01*
D02*
G37*
G36*
X456500Y225000D02*
X456141D01*
X455864Y225777D01*
X454791D01*
X454491Y225000D01*
X454106D01*
X455153Y227560D01*
X455523D01*
X456500Y225000D01*
D02*
G37*
G36*
X452518Y268009D02*
X452559Y267949D01*
X452607Y267890D01*
X452652Y267838D01*
X452696Y267794D01*
X452729Y267757D01*
X452744Y267746D01*
X452755Y267735D01*
X452759Y267731D01*
X452763Y267727D01*
X452840Y267665D01*
X452918Y267605D01*
X452992Y267553D01*
X453066Y267513D01*
X453129Y267476D01*
X453155Y267461D01*
X453177Y267450D01*
X453195Y267439D01*
X453210Y267435D01*
X453218Y267428D01*
X453221D01*
Y267124D01*
X453166Y267146D01*
X453110Y267172D01*
X453055Y267198D01*
X453003Y267224D01*
X452959Y267246D01*
X452922Y267265D01*
X452899Y267280D01*
X452896Y267283D01*
X452892D01*
X452825Y267324D01*
X452766Y267365D01*
X452714Y267402D01*
X452674Y267435D01*
X452637Y267461D01*
X452614Y267483D01*
X452596Y267498D01*
X452592Y267502D01*
Y265500D01*
X452278D01*
Y268072D01*
X452481D01*
X452518Y268009D01*
D02*
G37*
G36*
X450528D02*
X450568Y267949D01*
X450617Y267890D01*
X450661Y267838D01*
X450705Y267794D01*
X450739Y267757D01*
X450753Y267746D01*
X450765Y267735D01*
X450768Y267731D01*
X450772Y267727D01*
X450850Y267665D01*
X450927Y267605D01*
X451001Y267553D01*
X451075Y267513D01*
X451138Y267476D01*
X451164Y267461D01*
X451186Y267450D01*
X451205Y267439D01*
X451220Y267435D01*
X451227Y267428D01*
X451231D01*
Y267124D01*
X451175Y267146D01*
X451120Y267172D01*
X451064Y267198D01*
X451012Y267224D01*
X450968Y267246D01*
X450931Y267265D01*
X450909Y267280D01*
X450905Y267283D01*
X450901D01*
X450835Y267324D01*
X450776Y267365D01*
X450724Y267402D01*
X450683Y267435D01*
X450646Y267461D01*
X450624Y267483D01*
X450605Y267498D01*
X450602Y267502D01*
Y265500D01*
X450287D01*
Y268072D01*
X450491D01*
X450528Y268009D01*
D02*
G37*
G36*
X456000Y265500D02*
X455641D01*
X455364Y266277D01*
X454291D01*
X453991Y265500D01*
X453606D01*
X454653Y268060D01*
X455023D01*
X456000Y265500D01*
D02*
G37*
G36*
X451276Y248064D02*
X451375Y248046D01*
X451461Y248016D01*
X451535Y247986D01*
X451568Y247968D01*
X451594Y247953D01*
X451620Y247938D01*
X451638Y247923D01*
X451653Y247912D01*
X451664Y247905D01*
X451672Y247901D01*
X451675Y247898D01*
X451746Y247827D01*
X451801Y247750D01*
X451845Y247668D01*
X451882Y247587D01*
X451905Y247516D01*
X451916Y247487D01*
X451923Y247461D01*
X451927Y247439D01*
X451931Y247424D01*
X451934Y247413D01*
Y247409D01*
X451620Y247354D01*
X451605Y247435D01*
X451583Y247505D01*
X451557Y247565D01*
X451531Y247613D01*
X451505Y247650D01*
X451483Y247676D01*
X451468Y247694D01*
X451464Y247698D01*
X451416Y247735D01*
X451364Y247764D01*
X451316Y247783D01*
X451268Y247798D01*
X451224Y247805D01*
X451191Y247813D01*
X451161D01*
X451094Y247809D01*
X451035Y247794D01*
X450983Y247776D01*
X450939Y247757D01*
X450906Y247735D01*
X450880Y247716D01*
X450861Y247702D01*
X450857Y247698D01*
X450817Y247653D01*
X450787Y247605D01*
X450769Y247557D01*
X450754Y247513D01*
X450746Y247472D01*
X450739Y247443D01*
Y247420D01*
Y247417D01*
Y247413D01*
Y247372D01*
X450746Y247335D01*
X450765Y247272D01*
X450791Y247217D01*
X450820Y247169D01*
X450850Y247135D01*
X450876Y247110D01*
X450894Y247095D01*
X450898Y247091D01*
X450902D01*
X450965Y247058D01*
X451024Y247032D01*
X451087Y247013D01*
X451142Y247002D01*
X451191Y246995D01*
X451231Y246987D01*
X451279D01*
X451294Y246991D01*
X451313D01*
X451350Y246714D01*
X451301Y246725D01*
X451257Y246732D01*
X451220Y246740D01*
X451187Y246743D01*
X451161Y246747D01*
X451128D01*
X451050Y246740D01*
X450980Y246725D01*
X450917Y246703D01*
X450865Y246677D01*
X450824Y246651D01*
X450795Y246628D01*
X450776Y246614D01*
X450769Y246606D01*
X450721Y246551D01*
X450684Y246492D01*
X450658Y246432D01*
X450643Y246373D01*
X450632Y246325D01*
X450628Y246284D01*
X450624Y246270D01*
Y246258D01*
Y246251D01*
Y246247D01*
X450632Y246166D01*
X450650Y246092D01*
X450672Y246029D01*
X450702Y245974D01*
X450732Y245929D01*
X450754Y245896D01*
X450772Y245874D01*
X450780Y245866D01*
X450839Y245814D01*
X450902Y245778D01*
X450965Y245752D01*
X451024Y245733D01*
X451076Y245722D01*
X451117Y245718D01*
X451131Y245715D01*
X451154D01*
X451220Y245718D01*
X451283Y245733D01*
X451338Y245752D01*
X451383Y245774D01*
X451420Y245792D01*
X451449Y245811D01*
X451464Y245826D01*
X451472Y245829D01*
X451516Y245881D01*
X451553Y245940D01*
X451586Y246003D01*
X451612Y246070D01*
X451631Y246125D01*
X451638Y246151D01*
X451642Y246173D01*
X451646Y246192D01*
X451649Y246207D01*
X451653Y246214D01*
Y246218D01*
X451967Y246177D01*
X451960Y246118D01*
X451949Y246062D01*
X451916Y245959D01*
X451875Y245870D01*
X451853Y245833D01*
X451831Y245796D01*
X451808Y245763D01*
X451786Y245737D01*
X451768Y245711D01*
X451749Y245692D01*
X451738Y245678D01*
X451727Y245667D01*
X451720Y245659D01*
X451716Y245655D01*
X451672Y245622D01*
X451627Y245589D01*
X451583Y245563D01*
X451535Y245541D01*
X451442Y245504D01*
X451353Y245481D01*
X451313Y245474D01*
X451276Y245467D01*
X451242Y245463D01*
X451213Y245459D01*
X451191Y245456D01*
X451157D01*
X451087Y245459D01*
X451024Y245467D01*
X450961Y245478D01*
X450902Y245493D01*
X450846Y245511D01*
X450798Y245530D01*
X450750Y245552D01*
X450709Y245574D01*
X450669Y245592D01*
X450635Y245615D01*
X450606Y245633D01*
X450584Y245652D01*
X450565Y245667D01*
X450550Y245678D01*
X450543Y245685D01*
X450539Y245689D01*
X450495Y245733D01*
X450458Y245781D01*
X450425Y245829D01*
X450395Y245877D01*
X450373Y245922D01*
X450351Y245970D01*
X450321Y246059D01*
X450314Y246099D01*
X450306Y246136D01*
X450299Y246170D01*
X450295Y246199D01*
X450291Y246221D01*
Y246240D01*
Y246251D01*
Y246255D01*
X450295Y246344D01*
X450310Y246425D01*
X450332Y246495D01*
X450354Y246554D01*
X450377Y246603D01*
X450399Y246640D01*
X450414Y246662D01*
X450417Y246669D01*
X450469Y246725D01*
X450525Y246773D01*
X450584Y246810D01*
X450643Y246839D01*
X450695Y246862D01*
X450735Y246876D01*
X450750Y246880D01*
X450761Y246884D01*
X450769Y246887D01*
X450772D01*
X450709Y246921D01*
X450658Y246954D01*
X450613Y246991D01*
X450576Y247024D01*
X450547Y247054D01*
X450525Y247080D01*
X450513Y247095D01*
X450510Y247102D01*
X450480Y247154D01*
X450458Y247206D01*
X450439Y247257D01*
X450428Y247306D01*
X450421Y247346D01*
X450417Y247376D01*
Y247398D01*
Y247406D01*
X450421Y247468D01*
X450432Y247531D01*
X450447Y247587D01*
X450465Y247635D01*
X450484Y247676D01*
X450499Y247709D01*
X450510Y247727D01*
X450513Y247735D01*
X450550Y247790D01*
X450595Y247838D01*
X450639Y247879D01*
X450684Y247916D01*
X450721Y247942D01*
X450754Y247964D01*
X450776Y247975D01*
X450780Y247979D01*
X450783D01*
X450850Y248009D01*
X450917Y248031D01*
X450983Y248049D01*
X451043Y248060D01*
X451091Y248068D01*
X451131Y248072D01*
X451224D01*
X451276Y248064D01*
D02*
G37*
G36*
X453018Y248009D02*
X453059Y247949D01*
X453107Y247890D01*
X453152Y247838D01*
X453196Y247794D01*
X453229Y247757D01*
X453244Y247746D01*
X453255Y247735D01*
X453259Y247731D01*
X453263Y247727D01*
X453340Y247664D01*
X453418Y247605D01*
X453492Y247553D01*
X453566Y247513D01*
X453629Y247476D01*
X453655Y247461D01*
X453677Y247450D01*
X453695Y247439D01*
X453710Y247435D01*
X453718Y247428D01*
X453721D01*
Y247124D01*
X453666Y247147D01*
X453610Y247172D01*
X453555Y247198D01*
X453503Y247224D01*
X453459Y247246D01*
X453422Y247265D01*
X453399Y247280D01*
X453396Y247283D01*
X453392D01*
X453325Y247324D01*
X453266Y247365D01*
X453214Y247402D01*
X453174Y247435D01*
X453137Y247461D01*
X453115Y247483D01*
X453096Y247498D01*
X453092Y247502D01*
Y245500D01*
X452778D01*
Y248072D01*
X452981D01*
X453018Y248009D01*
D02*
G37*
G36*
X456500Y245500D02*
X456141D01*
X455864Y246277D01*
X454791D01*
X454491Y245500D01*
X454106D01*
X455153Y248060D01*
X455523D01*
X456500Y245500D01*
D02*
G37*
G36*
X453018Y237509D02*
X453059Y237449D01*
X453107Y237390D01*
X453152Y237338D01*
X453196Y237294D01*
X453229Y237257D01*
X453244Y237246D01*
X453255Y237235D01*
X453259Y237231D01*
X453263Y237227D01*
X453340Y237164D01*
X453418Y237105D01*
X453492Y237053D01*
X453566Y237013D01*
X453629Y236976D01*
X453655Y236961D01*
X453677Y236950D01*
X453695Y236939D01*
X453710Y236935D01*
X453718Y236928D01*
X453721D01*
Y236624D01*
X453666Y236647D01*
X453610Y236672D01*
X453555Y236698D01*
X453503Y236724D01*
X453459Y236746D01*
X453422Y236765D01*
X453399Y236780D01*
X453396Y236783D01*
X453392D01*
X453325Y236824D01*
X453266Y236865D01*
X453214Y236902D01*
X453174Y236935D01*
X453137Y236961D01*
X453115Y236983D01*
X453096Y236998D01*
X453092Y237002D01*
Y235000D01*
X452778D01*
Y237572D01*
X452981D01*
X453018Y237509D01*
D02*
G37*
G36*
X456500Y235000D02*
X456141D01*
X455864Y235777D01*
X454791D01*
X454491Y235000D01*
X454106D01*
X455153Y237560D01*
X455523D01*
X456500Y235000D01*
D02*
G37*
G36*
X452078Y235903D02*
Y235614D01*
X450965D01*
Y235000D01*
X450650D01*
Y235614D01*
X450303D01*
Y235903D01*
X450650D01*
Y237560D01*
X450906D01*
X452078Y235903D01*
D02*
G37*
G36*
X452033Y219564D02*
X452133Y219546D01*
X452218Y219516D01*
X452292Y219486D01*
X452325Y219468D01*
X452351Y219453D01*
X452377Y219438D01*
X452395Y219424D01*
X452410Y219412D01*
X452421Y219405D01*
X452428Y219401D01*
X452432Y219398D01*
X452502Y219327D01*
X452558Y219250D01*
X452602Y219168D01*
X452639Y219087D01*
X452662Y219017D01*
X452673Y218987D01*
X452680Y218961D01*
X452684Y218939D01*
X452688Y218924D01*
X452691Y218913D01*
Y218909D01*
X452377Y218854D01*
X452362Y218935D01*
X452340Y219005D01*
X452314Y219065D01*
X452288Y219113D01*
X452262Y219150D01*
X452240Y219176D01*
X452225Y219194D01*
X452221Y219198D01*
X452173Y219235D01*
X452121Y219264D01*
X452073Y219283D01*
X452025Y219298D01*
X451981Y219305D01*
X451947Y219313D01*
X451918D01*
X451851Y219309D01*
X451792Y219294D01*
X451740Y219275D01*
X451696Y219257D01*
X451663Y219235D01*
X451637Y219216D01*
X451618Y219201D01*
X451615Y219198D01*
X451574Y219153D01*
X451544Y219105D01*
X451526Y219057D01*
X451511Y219013D01*
X451504Y218972D01*
X451496Y218942D01*
Y218920D01*
Y218917D01*
Y218913D01*
Y218872D01*
X451504Y218835D01*
X451522Y218772D01*
X451548Y218717D01*
X451578Y218669D01*
X451607Y218635D01*
X451633Y218609D01*
X451651Y218595D01*
X451655Y218591D01*
X451659D01*
X451722Y218558D01*
X451781Y218532D01*
X451844Y218513D01*
X451899Y218502D01*
X451947Y218495D01*
X451988Y218487D01*
X452036D01*
X452051Y218491D01*
X452070D01*
X452107Y218214D01*
X452059Y218225D01*
X452014Y218232D01*
X451977Y218239D01*
X451944Y218243D01*
X451918Y218247D01*
X451885D01*
X451807Y218239D01*
X451737Y218225D01*
X451674Y218202D01*
X451622Y218177D01*
X451581Y218151D01*
X451552Y218128D01*
X451533Y218114D01*
X451526Y218106D01*
X451478Y218051D01*
X451441Y217992D01*
X451415Y217932D01*
X451400Y217873D01*
X451389Y217825D01*
X451385Y217784D01*
X451381Y217770D01*
Y217758D01*
Y217751D01*
Y217747D01*
X451389Y217666D01*
X451407Y217592D01*
X451430Y217529D01*
X451459Y217474D01*
X451489Y217429D01*
X451511Y217396D01*
X451529Y217374D01*
X451537Y217366D01*
X451596Y217315D01*
X451659Y217278D01*
X451722Y217252D01*
X451781Y217233D01*
X451833Y217222D01*
X451873Y217218D01*
X451888Y217215D01*
X451910D01*
X451977Y217218D01*
X452040Y217233D01*
X452096Y217252D01*
X452140Y217274D01*
X452177Y217292D01*
X452207Y217311D01*
X452221Y217326D01*
X452229Y217329D01*
X452273Y217381D01*
X452310Y217440D01*
X452343Y217503D01*
X452369Y217570D01*
X452388Y217625D01*
X452395Y217651D01*
X452399Y217673D01*
X452403Y217692D01*
X452406Y217707D01*
X452410Y217714D01*
Y217718D01*
X452725Y217677D01*
X452717Y217618D01*
X452706Y217562D01*
X452673Y217459D01*
X452632Y217370D01*
X452610Y217333D01*
X452588Y217296D01*
X452565Y217263D01*
X452543Y217237D01*
X452525Y217211D01*
X452506Y217192D01*
X452495Y217178D01*
X452484Y217166D01*
X452477Y217159D01*
X452473Y217155D01*
X452428Y217122D01*
X452384Y217089D01*
X452340Y217063D01*
X452292Y217041D01*
X452199Y217004D01*
X452110Y216982D01*
X452070Y216974D01*
X452033Y216967D01*
X451999Y216963D01*
X451970Y216959D01*
X451947Y216956D01*
X451914D01*
X451844Y216959D01*
X451781Y216967D01*
X451718Y216978D01*
X451659Y216993D01*
X451603Y217011D01*
X451555Y217030D01*
X451507Y217052D01*
X451467Y217074D01*
X451426Y217092D01*
X451393Y217115D01*
X451363Y217133D01*
X451341Y217152D01*
X451322Y217166D01*
X451307Y217178D01*
X451300Y217185D01*
X451296Y217189D01*
X451252Y217233D01*
X451215Y217281D01*
X451182Y217329D01*
X451152Y217377D01*
X451130Y217422D01*
X451108Y217470D01*
X451078Y217559D01*
X451071Y217599D01*
X451063Y217636D01*
X451056Y217670D01*
X451052Y217699D01*
X451048Y217722D01*
Y217740D01*
Y217751D01*
Y217755D01*
X451052Y217844D01*
X451067Y217925D01*
X451089Y217995D01*
X451111Y218055D01*
X451133Y218103D01*
X451156Y218140D01*
X451170Y218162D01*
X451174Y218169D01*
X451226Y218225D01*
X451281Y218273D01*
X451341Y218310D01*
X451400Y218339D01*
X451452Y218362D01*
X451492Y218376D01*
X451507Y218380D01*
X451518Y218384D01*
X451526Y218388D01*
X451529D01*
X451467Y218421D01*
X451415Y218454D01*
X451370Y218491D01*
X451333Y218524D01*
X451304Y218554D01*
X451281Y218580D01*
X451270Y218595D01*
X451267Y218602D01*
X451237Y218654D01*
X451215Y218706D01*
X451196Y218758D01*
X451185Y218806D01*
X451178Y218846D01*
X451174Y218876D01*
Y218898D01*
Y218905D01*
X451178Y218968D01*
X451189Y219031D01*
X451204Y219087D01*
X451222Y219135D01*
X451241Y219176D01*
X451256Y219209D01*
X451267Y219227D01*
X451270Y219235D01*
X451307Y219290D01*
X451352Y219338D01*
X451396Y219379D01*
X451441Y219416D01*
X451478Y219442D01*
X451511Y219464D01*
X451533Y219475D01*
X451537Y219479D01*
X451541D01*
X451607Y219509D01*
X451674Y219531D01*
X451740Y219549D01*
X451799Y219560D01*
X451848Y219568D01*
X451888Y219571D01*
X451981D01*
X452033Y219564D01*
D02*
G37*
G36*
X455000Y217000D02*
X454023D01*
X453934Y217004D01*
X453857Y217007D01*
X453786Y217015D01*
X453727Y217022D01*
X453679Y217030D01*
X453642Y217033D01*
X453620Y217041D01*
X453613D01*
X453550Y217059D01*
X453498Y217078D01*
X453450Y217100D01*
X453409Y217122D01*
X453376Y217137D01*
X453350Y217152D01*
X453335Y217163D01*
X453331Y217166D01*
X453291Y217200D01*
X453254Y217241D01*
X453224Y217281D01*
X453194Y217318D01*
X453172Y217355D01*
X453157Y217381D01*
X453146Y217400D01*
X453143Y217407D01*
X453117Y217466D01*
X453098Y217525D01*
X453083Y217581D01*
X453076Y217633D01*
X453069Y217677D01*
X453065Y217714D01*
Y217736D01*
Y217740D01*
Y217744D01*
X453069Y217825D01*
X453083Y217899D01*
X453106Y217962D01*
X453128Y218021D01*
X453150Y218066D01*
X453172Y218099D01*
X453187Y218121D01*
X453191Y218128D01*
X453242Y218188D01*
X453298Y218236D01*
X453361Y218277D01*
X453416Y218310D01*
X453468Y218336D01*
X453513Y218351D01*
X453527Y218358D01*
X453539Y218362D01*
X453546Y218365D01*
X453550D01*
X453487Y218402D01*
X453431Y218439D01*
X453387Y218480D01*
X453350Y218517D01*
X453320Y218547D01*
X453298Y218576D01*
X453287Y218591D01*
X453283Y218598D01*
X453254Y218654D01*
X453231Y218706D01*
X453213Y218758D01*
X453202Y218806D01*
X453194Y218846D01*
X453191Y218880D01*
Y218898D01*
Y218905D01*
X453194Y218968D01*
X453205Y219031D01*
X453224Y219087D01*
X453242Y219139D01*
X453261Y219183D01*
X453279Y219213D01*
X453291Y219235D01*
X453294Y219242D01*
X453335Y219298D01*
X453379Y219350D01*
X453428Y219390D01*
X453472Y219424D01*
X453509Y219449D01*
X453542Y219468D01*
X453564Y219479D01*
X453568Y219483D01*
X453572D01*
X453642Y219509D01*
X453720Y219527D01*
X453797Y219542D01*
X453871Y219549D01*
X453938Y219557D01*
X453968D01*
X453994Y219560D01*
X455000D01*
Y217000D01*
D02*
G37*
G36*
X455055Y183445D02*
X454078D01*
X453989Y183449D01*
X453912Y183452D01*
X453841Y183460D01*
X453782Y183467D01*
X453734Y183475D01*
X453697Y183478D01*
X453675Y183486D01*
X453667D01*
X453605Y183504D01*
X453553Y183523D01*
X453505Y183545D01*
X453464Y183567D01*
X453431Y183582D01*
X453405Y183597D01*
X453390Y183608D01*
X453386Y183612D01*
X453346Y183645D01*
X453309Y183686D01*
X453279Y183726D01*
X453249Y183763D01*
X453227Y183800D01*
X453212Y183826D01*
X453201Y183845D01*
X453198Y183852D01*
X453172Y183911D01*
X453153Y183970D01*
X453138Y184026D01*
X453131Y184078D01*
X453124Y184122D01*
X453120Y184159D01*
Y184181D01*
Y184185D01*
Y184189D01*
X453124Y184270D01*
X453138Y184344D01*
X453161Y184407D01*
X453183Y184466D01*
X453205Y184511D01*
X453227Y184544D01*
X453242Y184566D01*
X453246Y184573D01*
X453298Y184633D01*
X453353Y184681D01*
X453416Y184722D01*
X453471Y184755D01*
X453523Y184781D01*
X453568Y184795D01*
X453582Y184803D01*
X453593Y184807D01*
X453601Y184810D01*
X453605D01*
X453542Y184847D01*
X453486Y184884D01*
X453442Y184925D01*
X453405Y184962D01*
X453375Y184992D01*
X453353Y185021D01*
X453342Y185036D01*
X453338Y185043D01*
X453309Y185099D01*
X453286Y185151D01*
X453268Y185203D01*
X453257Y185251D01*
X453249Y185291D01*
X453246Y185325D01*
Y185343D01*
Y185351D01*
X453249Y185413D01*
X453261Y185476D01*
X453279Y185532D01*
X453298Y185584D01*
X453316Y185628D01*
X453335Y185658D01*
X453346Y185680D01*
X453349Y185687D01*
X453390Y185743D01*
X453434Y185794D01*
X453482Y185835D01*
X453527Y185869D01*
X453564Y185894D01*
X453597Y185913D01*
X453619Y185924D01*
X453623Y185928D01*
X453627D01*
X453697Y185954D01*
X453775Y185972D01*
X453853Y185987D01*
X453927Y185994D01*
X453993Y186002D01*
X454023D01*
X454049Y186005D01*
X455055D01*
Y183445D01*
D02*
G37*
G36*
X452761Y185669D02*
X451507D01*
X451595Y185561D01*
X451681Y185447D01*
X451755Y185336D01*
X451825Y185228D01*
X451855Y185180D01*
X451880Y185136D01*
X451906Y185095D01*
X451925Y185062D01*
X451940Y185032D01*
X451951Y185014D01*
X451958Y184999D01*
X451962Y184995D01*
X452036Y184847D01*
X452102Y184699D01*
X452158Y184559D01*
X452180Y184496D01*
X452202Y184433D01*
X452224Y184377D01*
X452239Y184326D01*
X452254Y184281D01*
X452265Y184244D01*
X452276Y184211D01*
X452284Y184189D01*
X452287Y184174D01*
Y184170D01*
X452324Y184019D01*
X452339Y183944D01*
X452350Y183878D01*
X452361Y183815D01*
X452373Y183752D01*
X452380Y183700D01*
X452387Y183649D01*
X452391Y183604D01*
X452395Y183563D01*
X452398Y183526D01*
Y183497D01*
X452402Y183475D01*
Y183460D01*
Y183449D01*
Y183445D01*
X452080D01*
X452069Y183586D01*
X452051Y183715D01*
X452032Y183834D01*
X452021Y183889D01*
X452010Y183941D01*
X452002Y183985D01*
X451991Y184026D01*
X451984Y184063D01*
X451977Y184092D01*
X451969Y184115D01*
X451966Y184133D01*
X451962Y184144D01*
Y184148D01*
X451906Y184318D01*
X451847Y184477D01*
X451818Y184555D01*
X451788Y184629D01*
X451755Y184696D01*
X451725Y184762D01*
X451699Y184821D01*
X451673Y184873D01*
X451651Y184918D01*
X451632Y184958D01*
X451614Y184992D01*
X451603Y185014D01*
X451595Y185029D01*
X451592Y185032D01*
X451547Y185110D01*
X451503Y185188D01*
X451459Y185258D01*
X451414Y185325D01*
X451373Y185384D01*
X451333Y185443D01*
X451292Y185495D01*
X451259Y185539D01*
X451226Y185584D01*
X451196Y185621D01*
X451166Y185650D01*
X451144Y185676D01*
X451129Y185698D01*
X451115Y185713D01*
X451107Y185721D01*
X451103Y185724D01*
Y185972D01*
X452761D01*
Y185669D01*
D02*
G37*
G36*
X453808Y317564D02*
X453908Y317546D01*
X453993Y317516D01*
X454067Y317486D01*
X454100Y317468D01*
X454126Y317453D01*
X454152Y317438D01*
X454171Y317424D01*
X454185Y317412D01*
X454197Y317405D01*
X454204Y317401D01*
X454208Y317398D01*
X454278Y317327D01*
X454333Y317250D01*
X454378Y317168D01*
X454415Y317087D01*
X454437Y317017D01*
X454448Y316987D01*
X454456Y316961D01*
X454459Y316939D01*
X454463Y316924D01*
X454467Y316913D01*
Y316909D01*
X454152Y316854D01*
X454137Y316935D01*
X454115Y317005D01*
X454089Y317065D01*
X454063Y317113D01*
X454038Y317150D01*
X454015Y317176D01*
X454001Y317194D01*
X453997Y317198D01*
X453949Y317235D01*
X453897Y317264D01*
X453849Y317283D01*
X453801Y317298D01*
X453756Y317305D01*
X453723Y317313D01*
X453693D01*
X453627Y317309D01*
X453568Y317294D01*
X453516Y317276D01*
X453471Y317257D01*
X453438Y317235D01*
X453412Y317216D01*
X453394Y317201D01*
X453390Y317198D01*
X453349Y317153D01*
X453320Y317105D01*
X453301Y317057D01*
X453286Y317013D01*
X453279Y316972D01*
X453272Y316943D01*
Y316920D01*
Y316917D01*
Y316913D01*
Y316872D01*
X453279Y316835D01*
X453298Y316772D01*
X453323Y316717D01*
X453353Y316669D01*
X453383Y316635D01*
X453408Y316610D01*
X453427Y316595D01*
X453431Y316591D01*
X453434D01*
X453497Y316558D01*
X453556Y316532D01*
X453619Y316513D01*
X453675Y316502D01*
X453723Y316495D01*
X453764Y316487D01*
X453812D01*
X453827Y316491D01*
X453845D01*
X453882Y316214D01*
X453834Y316225D01*
X453790Y316232D01*
X453753Y316240D01*
X453719Y316243D01*
X453693Y316247D01*
X453660D01*
X453582Y316240D01*
X453512Y316225D01*
X453449Y316202D01*
X453397Y316177D01*
X453357Y316151D01*
X453327Y316128D01*
X453309Y316114D01*
X453301Y316106D01*
X453253Y316051D01*
X453216Y315992D01*
X453190Y315932D01*
X453175Y315873D01*
X453164Y315825D01*
X453161Y315784D01*
X453157Y315770D01*
Y315758D01*
Y315751D01*
Y315747D01*
X453164Y315666D01*
X453183Y315592D01*
X453205Y315529D01*
X453235Y315474D01*
X453264Y315429D01*
X453286Y315396D01*
X453305Y315374D01*
X453312Y315366D01*
X453371Y315315D01*
X453434Y315278D01*
X453497Y315252D01*
X453556Y315233D01*
X453608Y315222D01*
X453649Y315218D01*
X453664Y315215D01*
X453686D01*
X453753Y315218D01*
X453816Y315233D01*
X453871Y315252D01*
X453915Y315274D01*
X453952Y315292D01*
X453982Y315311D01*
X453997Y315326D01*
X454004Y315329D01*
X454049Y315381D01*
X454086Y315440D01*
X454119Y315503D01*
X454145Y315570D01*
X454163Y315625D01*
X454171Y315651D01*
X454174Y315673D01*
X454178Y315692D01*
X454182Y315707D01*
X454185Y315714D01*
Y315718D01*
X454500Y315677D01*
X454493Y315618D01*
X454482Y315562D01*
X454448Y315459D01*
X454408Y315370D01*
X454385Y315333D01*
X454363Y315296D01*
X454341Y315263D01*
X454319Y315237D01*
X454300Y315211D01*
X454282Y315192D01*
X454271Y315178D01*
X454259Y315166D01*
X454252Y315159D01*
X454248Y315155D01*
X454204Y315122D01*
X454160Y315089D01*
X454115Y315063D01*
X454067Y315041D01*
X453975Y315004D01*
X453886Y314982D01*
X453845Y314974D01*
X453808Y314967D01*
X453775Y314963D01*
X453745Y314959D01*
X453723Y314956D01*
X453690D01*
X453619Y314959D01*
X453556Y314967D01*
X453494Y314978D01*
X453434Y314993D01*
X453379Y315011D01*
X453331Y315030D01*
X453283Y315052D01*
X453242Y315074D01*
X453201Y315092D01*
X453168Y315115D01*
X453138Y315133D01*
X453116Y315152D01*
X453098Y315166D01*
X453083Y315178D01*
X453076Y315185D01*
X453072Y315189D01*
X453027Y315233D01*
X452990Y315281D01*
X452957Y315329D01*
X452927Y315377D01*
X452905Y315422D01*
X452883Y315470D01*
X452853Y315559D01*
X452846Y315599D01*
X452839Y315636D01*
X452831Y315670D01*
X452828Y315699D01*
X452824Y315722D01*
Y315740D01*
Y315751D01*
Y315755D01*
X452828Y315844D01*
X452842Y315925D01*
X452865Y315995D01*
X452887Y316055D01*
X452909Y316103D01*
X452931Y316140D01*
X452946Y316162D01*
X452950Y316169D01*
X453001Y316225D01*
X453057Y316273D01*
X453116Y316310D01*
X453175Y316339D01*
X453227Y316362D01*
X453268Y316376D01*
X453283Y316380D01*
X453294Y316384D01*
X453301Y316388D01*
X453305D01*
X453242Y316421D01*
X453190Y316454D01*
X453146Y316491D01*
X453109Y316524D01*
X453079Y316554D01*
X453057Y316580D01*
X453046Y316595D01*
X453042Y316602D01*
X453013Y316654D01*
X452990Y316706D01*
X452972Y316757D01*
X452961Y316806D01*
X452953Y316846D01*
X452950Y316876D01*
Y316898D01*
Y316905D01*
X452953Y316968D01*
X452964Y317031D01*
X452979Y317087D01*
X452998Y317135D01*
X453016Y317176D01*
X453031Y317209D01*
X453042Y317227D01*
X453046Y317235D01*
X453083Y317290D01*
X453127Y317338D01*
X453172Y317379D01*
X453216Y317416D01*
X453253Y317442D01*
X453286Y317464D01*
X453309Y317475D01*
X453312Y317479D01*
X453316D01*
X453383Y317509D01*
X453449Y317531D01*
X453516Y317549D01*
X453575Y317560D01*
X453623Y317568D01*
X453664Y317571D01*
X453756D01*
X453808Y317564D01*
D02*
G37*
G36*
X450822D02*
X450922Y317546D01*
X451007Y317516D01*
X451081Y317486D01*
X451115Y317468D01*
X451140Y317453D01*
X451166Y317438D01*
X451185Y317424D01*
X451200Y317412D01*
X451211Y317405D01*
X451218Y317401D01*
X451222Y317398D01*
X451292Y317327D01*
X451348Y317250D01*
X451392Y317168D01*
X451429Y317087D01*
X451451Y317017D01*
X451462Y316987D01*
X451470Y316961D01*
X451473Y316939D01*
X451477Y316924D01*
X451481Y316913D01*
Y316909D01*
X451166Y316854D01*
X451152Y316935D01*
X451129Y317005D01*
X451103Y317065D01*
X451078Y317113D01*
X451052Y317150D01*
X451029Y317176D01*
X451015Y317194D01*
X451011Y317198D01*
X450963Y317235D01*
X450911Y317264D01*
X450863Y317283D01*
X450815Y317298D01*
X450770Y317305D01*
X450737Y317313D01*
X450707D01*
X450641Y317309D01*
X450582Y317294D01*
X450530Y317276D01*
X450486Y317257D01*
X450452Y317235D01*
X450426Y317216D01*
X450408Y317201D01*
X450404Y317198D01*
X450363Y317153D01*
X450334Y317105D01*
X450315Y317057D01*
X450301Y317013D01*
X450293Y316972D01*
X450286Y316943D01*
Y316920D01*
Y316917D01*
Y316913D01*
Y316872D01*
X450293Y316835D01*
X450312Y316772D01*
X450338Y316717D01*
X450367Y316669D01*
X450397Y316635D01*
X450423Y316610D01*
X450441Y316595D01*
X450445Y316591D01*
X450449D01*
X450511Y316558D01*
X450571Y316532D01*
X450633Y316513D01*
X450689Y316502D01*
X450737Y316495D01*
X450778Y316487D01*
X450826D01*
X450841Y316491D01*
X450859D01*
X450896Y316214D01*
X450848Y316225D01*
X450804Y316232D01*
X450767Y316240D01*
X450733Y316243D01*
X450707Y316247D01*
X450674D01*
X450597Y316240D01*
X450526Y316225D01*
X450463Y316202D01*
X450412Y316177D01*
X450371Y316151D01*
X450341Y316128D01*
X450323Y316114D01*
X450315Y316106D01*
X450267Y316051D01*
X450230Y315992D01*
X450204Y315932D01*
X450189Y315873D01*
X450178Y315825D01*
X450175Y315784D01*
X450171Y315770D01*
Y315758D01*
Y315751D01*
Y315747D01*
X450178Y315666D01*
X450197Y315592D01*
X450219Y315529D01*
X450249Y315474D01*
X450278Y315429D01*
X450301Y315396D01*
X450319Y315374D01*
X450326Y315366D01*
X450386Y315315D01*
X450449Y315278D01*
X450511Y315252D01*
X450571Y315233D01*
X450622Y315222D01*
X450663Y315218D01*
X450678Y315215D01*
X450700D01*
X450767Y315218D01*
X450830Y315233D01*
X450885Y315252D01*
X450929Y315274D01*
X450967Y315292D01*
X450996Y315311D01*
X451011Y315326D01*
X451018Y315329D01*
X451063Y315381D01*
X451100Y315440D01*
X451133Y315503D01*
X451159Y315570D01*
X451177Y315625D01*
X451185Y315651D01*
X451189Y315673D01*
X451192Y315692D01*
X451196Y315707D01*
X451200Y315714D01*
Y315718D01*
X451514Y315677D01*
X451507Y315618D01*
X451496Y315562D01*
X451462Y315459D01*
X451422Y315370D01*
X451399Y315333D01*
X451377Y315296D01*
X451355Y315263D01*
X451333Y315237D01*
X451314Y315211D01*
X451296Y315192D01*
X451285Y315178D01*
X451274Y315166D01*
X451266Y315159D01*
X451263Y315155D01*
X451218Y315122D01*
X451174Y315089D01*
X451129Y315063D01*
X451081Y315041D01*
X450989Y315004D01*
X450900Y314982D01*
X450859Y314974D01*
X450822Y314967D01*
X450789Y314963D01*
X450759Y314959D01*
X450737Y314956D01*
X450704D01*
X450633Y314959D01*
X450571Y314967D01*
X450508Y314978D01*
X450449Y314993D01*
X450393Y315011D01*
X450345Y315030D01*
X450297Y315052D01*
X450256Y315074D01*
X450215Y315092D01*
X450182Y315115D01*
X450152Y315133D01*
X450130Y315152D01*
X450112Y315166D01*
X450097Y315178D01*
X450090Y315185D01*
X450086Y315189D01*
X450041Y315233D01*
X450004Y315281D01*
X449971Y315329D01*
X449942Y315377D01*
X449919Y315422D01*
X449897Y315470D01*
X449868Y315559D01*
X449860Y315599D01*
X449853Y315636D01*
X449845Y315670D01*
X449842Y315699D01*
X449838Y315722D01*
Y315740D01*
Y315751D01*
Y315755D01*
X449842Y315844D01*
X449857Y315925D01*
X449879Y315995D01*
X449901Y316055D01*
X449923Y316103D01*
X449945Y316140D01*
X449960Y316162D01*
X449964Y316169D01*
X450016Y316225D01*
X450071Y316273D01*
X450130Y316310D01*
X450189Y316339D01*
X450241Y316362D01*
X450282Y316376D01*
X450297Y316380D01*
X450308Y316384D01*
X450315Y316388D01*
X450319D01*
X450256Y316421D01*
X450204Y316454D01*
X450160Y316491D01*
X450123Y316524D01*
X450093Y316554D01*
X450071Y316580D01*
X450060Y316595D01*
X450056Y316602D01*
X450027Y316654D01*
X450004Y316706D01*
X449986Y316757D01*
X449975Y316806D01*
X449967Y316846D01*
X449964Y316876D01*
Y316898D01*
Y316905D01*
X449967Y316968D01*
X449979Y317031D01*
X449993Y317087D01*
X450012Y317135D01*
X450030Y317176D01*
X450045Y317209D01*
X450056Y317227D01*
X450060Y317235D01*
X450097Y317290D01*
X450141Y317338D01*
X450186Y317379D01*
X450230Y317416D01*
X450267Y317442D01*
X450301Y317464D01*
X450323Y317475D01*
X450326Y317479D01*
X450330D01*
X450397Y317509D01*
X450463Y317531D01*
X450530Y317549D01*
X450589Y317560D01*
X450637Y317568D01*
X450678Y317571D01*
X450770D01*
X450822Y317564D01*
D02*
G37*
G36*
X452336Y315000D02*
X451977D01*
Y315359D01*
X452336D01*
Y315000D01*
D02*
G37*
G36*
X454500Y286500D02*
X453523D01*
X453434Y286504D01*
X453357Y286507D01*
X453286Y286515D01*
X453227Y286522D01*
X453179Y286530D01*
X453142Y286533D01*
X453120Y286541D01*
X453113D01*
X453050Y286559D01*
X452998Y286578D01*
X452950Y286600D01*
X452909Y286622D01*
X452876Y286637D01*
X452850Y286652D01*
X452835Y286663D01*
X452831Y286666D01*
X452791Y286700D01*
X452754Y286740D01*
X452724Y286781D01*
X452694Y286818D01*
X452672Y286855D01*
X452657Y286881D01*
X452646Y286900D01*
X452643Y286907D01*
X452617Y286966D01*
X452598Y287025D01*
X452583Y287081D01*
X452576Y287133D01*
X452569Y287177D01*
X452565Y287214D01*
Y287236D01*
Y287240D01*
Y287244D01*
X452569Y287325D01*
X452583Y287399D01*
X452606Y287462D01*
X452628Y287521D01*
X452650Y287566D01*
X452672Y287599D01*
X452687Y287621D01*
X452691Y287629D01*
X452742Y287688D01*
X452798Y287736D01*
X452861Y287776D01*
X452916Y287810D01*
X452968Y287836D01*
X453013Y287850D01*
X453027Y287858D01*
X453039Y287862D01*
X453046Y287865D01*
X453050D01*
X452987Y287902D01*
X452931Y287939D01*
X452887Y287980D01*
X452850Y288017D01*
X452820Y288047D01*
X452798Y288076D01*
X452787Y288091D01*
X452783Y288098D01*
X452754Y288154D01*
X452731Y288206D01*
X452713Y288258D01*
X452702Y288306D01*
X452694Y288346D01*
X452691Y288380D01*
Y288398D01*
Y288405D01*
X452694Y288468D01*
X452705Y288531D01*
X452724Y288587D01*
X452742Y288639D01*
X452761Y288683D01*
X452779Y288713D01*
X452791Y288735D01*
X452794Y288742D01*
X452835Y288798D01*
X452879Y288849D01*
X452927Y288890D01*
X452972Y288924D01*
X453009Y288949D01*
X453042Y288968D01*
X453064Y288979D01*
X453068Y288983D01*
X453072D01*
X453142Y289009D01*
X453220Y289027D01*
X453298Y289042D01*
X453371Y289049D01*
X453438Y289057D01*
X453468D01*
X453494Y289060D01*
X454500D01*
Y286500D01*
D02*
G37*
G36*
X451492Y289064D02*
X451584Y289049D01*
X451662Y289023D01*
X451729Y288998D01*
X451784Y288968D01*
X451806Y288957D01*
X451825Y288942D01*
X451840Y288935D01*
X451851Y288927D01*
X451855Y288920D01*
X451858D01*
X451925Y288861D01*
X451980Y288790D01*
X452028Y288720D01*
X452065Y288653D01*
X452095Y288591D01*
X452110Y288565D01*
X452117Y288539D01*
X452125Y288520D01*
X452132Y288505D01*
X452136Y288498D01*
Y288494D01*
X452150Y288439D01*
X452165Y288383D01*
X452187Y288261D01*
X452206Y288139D01*
X452217Y288024D01*
X452221Y287969D01*
X452224Y287921D01*
Y287876D01*
X452228Y287836D01*
Y287806D01*
Y287780D01*
Y287765D01*
Y287762D01*
X452224Y287632D01*
X452217Y287510D01*
X452206Y287399D01*
X452187Y287296D01*
X452169Y287199D01*
X452147Y287114D01*
X452125Y287036D01*
X452102Y286970D01*
X452080Y286911D01*
X452054Y286859D01*
X452036Y286814D01*
X452017Y286781D01*
X451999Y286752D01*
X451988Y286733D01*
X451980Y286722D01*
X451977Y286718D01*
X451936Y286674D01*
X451892Y286633D01*
X451843Y286596D01*
X451795Y286567D01*
X451747Y286541D01*
X451699Y286519D01*
X451651Y286504D01*
X451607Y286489D01*
X451562Y286478D01*
X451521Y286470D01*
X451484Y286463D01*
X451455Y286459D01*
X451429Y286456D01*
X451392D01*
X451292Y286463D01*
X451200Y286478D01*
X451122Y286504D01*
X451055Y286530D01*
X451000Y286556D01*
X450981Y286570D01*
X450963Y286581D01*
X450948Y286589D01*
X450937Y286596D01*
X450933Y286604D01*
X450929D01*
X450863Y286666D01*
X450807Y286733D01*
X450759Y286807D01*
X450722Y286874D01*
X450693Y286937D01*
X450678Y286963D01*
X450670Y286988D01*
X450663Y287007D01*
X450656Y287022D01*
X450652Y287029D01*
Y287033D01*
X450633Y287088D01*
X450619Y287144D01*
X450597Y287262D01*
X450578Y287384D01*
X450567Y287503D01*
X450563Y287555D01*
X450560Y287603D01*
Y287647D01*
X450556Y287688D01*
Y287717D01*
Y287743D01*
Y287758D01*
Y287762D01*
Y287832D01*
X450560Y287899D01*
Y287958D01*
X450563Y288017D01*
X450571Y288069D01*
X450574Y288121D01*
X450578Y288165D01*
X450585Y288206D01*
X450589Y288243D01*
X450597Y288276D01*
X450600Y288302D01*
X450604Y288324D01*
X450608Y288343D01*
X450611Y288354D01*
X450615Y288361D01*
Y288365D01*
X450637Y288446D01*
X450663Y288520D01*
X450693Y288583D01*
X450715Y288639D01*
X450741Y288687D01*
X450756Y288720D01*
X450770Y288738D01*
X450774Y288746D01*
X450815Y288801D01*
X450855Y288849D01*
X450900Y288890D01*
X450941Y288927D01*
X450978Y288953D01*
X451007Y288972D01*
X451026Y288983D01*
X451029Y288986D01*
X451033D01*
X451092Y289016D01*
X451155Y289035D01*
X451214Y289049D01*
X451270Y289060D01*
X451318Y289068D01*
X451359Y289071D01*
X451392D01*
X451492Y289064D01*
D02*
G37*
G36*
X451285Y279009D02*
X451325Y278949D01*
X451373Y278890D01*
X451418Y278838D01*
X451462Y278794D01*
X451496Y278757D01*
X451510Y278746D01*
X451521Y278735D01*
X451525Y278731D01*
X451529Y278727D01*
X451607Y278664D01*
X451684Y278605D01*
X451758Y278554D01*
X451832Y278513D01*
X451895Y278476D01*
X451921Y278461D01*
X451943Y278450D01*
X451962Y278439D01*
X451977Y278435D01*
X451984Y278428D01*
X451988D01*
Y278124D01*
X451932Y278147D01*
X451877Y278172D01*
X451821Y278198D01*
X451769Y278224D01*
X451725Y278246D01*
X451688Y278265D01*
X451666Y278280D01*
X451662Y278283D01*
X451658D01*
X451592Y278324D01*
X451533Y278365D01*
X451481Y278402D01*
X451440Y278435D01*
X451403Y278461D01*
X451381Y278483D01*
X451362Y278498D01*
X451359Y278502D01*
Y276500D01*
X451044D01*
Y279071D01*
X451248D01*
X451285Y279009D01*
D02*
G37*
G36*
X454500Y276500D02*
X453523D01*
X453434Y276504D01*
X453357Y276507D01*
X453286Y276515D01*
X453227Y276522D01*
X453179Y276530D01*
X453142Y276533D01*
X453120Y276541D01*
X453113D01*
X453050Y276559D01*
X452998Y276578D01*
X452950Y276600D01*
X452909Y276622D01*
X452876Y276637D01*
X452850Y276652D01*
X452835Y276663D01*
X452831Y276666D01*
X452791Y276700D01*
X452754Y276741D01*
X452724Y276781D01*
X452694Y276818D01*
X452672Y276855D01*
X452657Y276881D01*
X452646Y276900D01*
X452643Y276907D01*
X452617Y276966D01*
X452598Y277025D01*
X452583Y277081D01*
X452576Y277133D01*
X452569Y277177D01*
X452565Y277214D01*
Y277236D01*
Y277240D01*
Y277244D01*
X452569Y277325D01*
X452583Y277399D01*
X452606Y277462D01*
X452628Y277521D01*
X452650Y277566D01*
X452672Y277599D01*
X452687Y277621D01*
X452691Y277628D01*
X452742Y277688D01*
X452798Y277736D01*
X452861Y277777D01*
X452916Y277810D01*
X452968Y277836D01*
X453013Y277851D01*
X453027Y277858D01*
X453039Y277862D01*
X453046Y277865D01*
X453050D01*
X452987Y277902D01*
X452931Y277939D01*
X452887Y277980D01*
X452850Y278017D01*
X452820Y278047D01*
X452798Y278076D01*
X452787Y278091D01*
X452783Y278098D01*
X452754Y278154D01*
X452731Y278206D01*
X452713Y278257D01*
X452702Y278306D01*
X452694Y278346D01*
X452691Y278380D01*
Y278398D01*
Y278405D01*
X452694Y278468D01*
X452705Y278531D01*
X452724Y278587D01*
X452742Y278639D01*
X452761Y278683D01*
X452779Y278713D01*
X452791Y278735D01*
X452794Y278742D01*
X452835Y278798D01*
X452879Y278850D01*
X452927Y278890D01*
X452972Y278924D01*
X453009Y278949D01*
X453042Y278968D01*
X453064Y278979D01*
X453068Y278983D01*
X453072D01*
X453142Y279009D01*
X453220Y279027D01*
X453298Y279042D01*
X453371Y279049D01*
X453438Y279057D01*
X453468D01*
X453494Y279060D01*
X454500D01*
Y276500D01*
D02*
G37*
G36*
X455000Y200500D02*
X454023D01*
X453934Y200504D01*
X453857Y200507D01*
X453786Y200515D01*
X453727Y200522D01*
X453679Y200530D01*
X453642Y200533D01*
X453620Y200541D01*
X453613D01*
X453550Y200559D01*
X453498Y200578D01*
X453450Y200600D01*
X453409Y200622D01*
X453376Y200637D01*
X453350Y200652D01*
X453335Y200663D01*
X453331Y200666D01*
X453291Y200700D01*
X453254Y200741D01*
X453224Y200781D01*
X453194Y200818D01*
X453172Y200855D01*
X453157Y200881D01*
X453146Y200900D01*
X453143Y200907D01*
X453117Y200966D01*
X453098Y201025D01*
X453083Y201081D01*
X453076Y201133D01*
X453069Y201177D01*
X453065Y201214D01*
Y201236D01*
Y201240D01*
Y201244D01*
X453069Y201325D01*
X453083Y201399D01*
X453106Y201462D01*
X453128Y201521D01*
X453150Y201566D01*
X453172Y201599D01*
X453187Y201621D01*
X453191Y201628D01*
X453242Y201688D01*
X453298Y201736D01*
X453361Y201777D01*
X453416Y201810D01*
X453468Y201836D01*
X453513Y201851D01*
X453527Y201858D01*
X453539Y201862D01*
X453546Y201865D01*
X453550D01*
X453487Y201902D01*
X453431Y201939D01*
X453387Y201980D01*
X453350Y202017D01*
X453320Y202047D01*
X453298Y202076D01*
X453287Y202091D01*
X453283Y202098D01*
X453254Y202154D01*
X453231Y202206D01*
X453213Y202257D01*
X453202Y202306D01*
X453194Y202346D01*
X453191Y202380D01*
Y202398D01*
Y202406D01*
X453194Y202468D01*
X453205Y202531D01*
X453224Y202587D01*
X453242Y202639D01*
X453261Y202683D01*
X453279Y202713D01*
X453291Y202735D01*
X453294Y202742D01*
X453335Y202798D01*
X453379Y202850D01*
X453428Y202890D01*
X453472Y202923D01*
X453509Y202949D01*
X453542Y202968D01*
X453564Y202979D01*
X453568Y202983D01*
X453572D01*
X453642Y203009D01*
X453720Y203027D01*
X453797Y203042D01*
X453871Y203049D01*
X453938Y203057D01*
X453968D01*
X453994Y203060D01*
X455000D01*
Y200500D01*
D02*
G37*
G36*
X452836Y201403D02*
Y201114D01*
X451722D01*
Y200500D01*
X451407D01*
Y201114D01*
X451059D01*
Y201403D01*
X451407D01*
Y203060D01*
X451663D01*
X452836Y201403D01*
D02*
G37*
G36*
X452673Y198710D02*
X452377Y198669D01*
X452351Y198710D01*
X452317Y198743D01*
X452288Y198776D01*
X452258Y198802D01*
X452229Y198821D01*
X452207Y198839D01*
X452192Y198847D01*
X452188Y198851D01*
X452140Y198873D01*
X452092Y198891D01*
X452047Y198902D01*
X452003Y198913D01*
X451966Y198917D01*
X451936Y198921D01*
X451866D01*
X451822Y198913D01*
X451744Y198895D01*
X451677Y198869D01*
X451618Y198843D01*
X451574Y198813D01*
X451541Y198788D01*
X451522Y198769D01*
X451515Y198765D01*
Y198762D01*
X451463Y198699D01*
X451426Y198632D01*
X451400Y198562D01*
X451381Y198492D01*
X451370Y198432D01*
X451367Y198407D01*
Y198384D01*
X451363Y198366D01*
Y198351D01*
Y198344D01*
Y198340D01*
Y198288D01*
X451370Y198240D01*
X451389Y198147D01*
X451415Y198070D01*
X451441Y198007D01*
X451470Y197955D01*
X451496Y197914D01*
X451507Y197903D01*
X451515Y197892D01*
X451518Y197889D01*
X451522Y197885D01*
X451552Y197855D01*
X451581Y197829D01*
X451648Y197785D01*
X451711Y197755D01*
X451774Y197737D01*
X451825Y197722D01*
X451870Y197718D01*
X451885Y197715D01*
X451907D01*
X451977Y197718D01*
X452040Y197733D01*
X452096Y197752D01*
X452140Y197774D01*
X452181Y197796D01*
X452210Y197815D01*
X452225Y197829D01*
X452232Y197833D01*
X452277Y197885D01*
X452314Y197940D01*
X452343Y198003D01*
X452366Y198059D01*
X452380Y198114D01*
X452391Y198155D01*
X452395Y198173D01*
X452399Y198185D01*
Y198192D01*
Y198196D01*
X452728Y198170D01*
X452721Y198110D01*
X452710Y198055D01*
X452676Y197951D01*
X452636Y197863D01*
X452613Y197822D01*
X452591Y197789D01*
X452573Y197755D01*
X452551Y197726D01*
X452532Y197704D01*
X452514Y197685D01*
X452499Y197670D01*
X452491Y197655D01*
X452484Y197652D01*
X452480Y197648D01*
X452436Y197615D01*
X452391Y197585D01*
X452343Y197559D01*
X452295Y197537D01*
X452203Y197504D01*
X452110Y197482D01*
X452070Y197470D01*
X452029Y197467D01*
X451996Y197463D01*
X451966Y197459D01*
X451940Y197456D01*
X451907D01*
X451829Y197459D01*
X451755Y197470D01*
X451685Y197485D01*
X451622Y197504D01*
X451563Y197530D01*
X451507Y197555D01*
X451455Y197581D01*
X451411Y197611D01*
X451370Y197641D01*
X451333Y197667D01*
X451304Y197696D01*
X451278Y197718D01*
X451259Y197737D01*
X451244Y197752D01*
X451237Y197763D01*
X451233Y197766D01*
X451196Y197815D01*
X451167Y197866D01*
X451137Y197914D01*
X451115Y197966D01*
X451078Y198066D01*
X451056Y198162D01*
X451048Y198203D01*
X451041Y198244D01*
X451037Y198277D01*
X451034Y198307D01*
X451030Y198333D01*
Y198351D01*
Y198362D01*
Y198366D01*
X451034Y198432D01*
X451041Y198495D01*
X451052Y198558D01*
X451067Y198614D01*
X451085Y198665D01*
X451104Y198717D01*
X451126Y198762D01*
X451145Y198802D01*
X451167Y198839D01*
X451189Y198873D01*
X451207Y198899D01*
X451226Y198925D01*
X451241Y198943D01*
X451252Y198954D01*
X451259Y198961D01*
X451263Y198965D01*
X451307Y199006D01*
X451352Y199043D01*
X451400Y199073D01*
X451448Y199098D01*
X451496Y199124D01*
X451544Y199143D01*
X451633Y199169D01*
X451674Y199180D01*
X451711Y199187D01*
X451744Y199191D01*
X451774Y199195D01*
X451796Y199198D01*
X451877D01*
X451922Y199191D01*
X452010Y199172D01*
X452092Y199146D01*
X452166Y199117D01*
X452225Y199087D01*
X452251Y199073D01*
X452273Y199061D01*
X452292Y199050D01*
X452303Y199043D01*
X452310Y199039D01*
X452314Y199036D01*
X452177Y199727D01*
X451152D01*
Y200027D01*
X452425D01*
X452673Y198710D01*
D02*
G37*
G36*
X455000Y197500D02*
X454023D01*
X453934Y197504D01*
X453857Y197507D01*
X453786Y197515D01*
X453727Y197522D01*
X453679Y197530D01*
X453642Y197533D01*
X453620Y197541D01*
X453613D01*
X453550Y197559D01*
X453498Y197578D01*
X453450Y197600D01*
X453409Y197622D01*
X453376Y197637D01*
X453350Y197652D01*
X453335Y197663D01*
X453331Y197667D01*
X453291Y197700D01*
X453254Y197740D01*
X453224Y197781D01*
X453194Y197818D01*
X453172Y197855D01*
X453157Y197881D01*
X453146Y197900D01*
X453143Y197907D01*
X453117Y197966D01*
X453098Y198025D01*
X453083Y198081D01*
X453076Y198133D01*
X453069Y198177D01*
X453065Y198214D01*
Y198236D01*
Y198240D01*
Y198244D01*
X453069Y198325D01*
X453083Y198399D01*
X453106Y198462D01*
X453128Y198521D01*
X453150Y198566D01*
X453172Y198599D01*
X453187Y198621D01*
X453191Y198628D01*
X453242Y198688D01*
X453298Y198736D01*
X453361Y198776D01*
X453416Y198810D01*
X453468Y198836D01*
X453513Y198851D01*
X453527Y198858D01*
X453539Y198862D01*
X453546Y198865D01*
X453550D01*
X453487Y198902D01*
X453431Y198939D01*
X453387Y198980D01*
X453350Y199017D01*
X453320Y199047D01*
X453298Y199076D01*
X453287Y199091D01*
X453283Y199098D01*
X453254Y199154D01*
X453231Y199206D01*
X453213Y199258D01*
X453202Y199306D01*
X453194Y199346D01*
X453191Y199380D01*
Y199398D01*
Y199406D01*
X453194Y199468D01*
X453205Y199531D01*
X453224Y199587D01*
X453242Y199639D01*
X453261Y199683D01*
X453279Y199713D01*
X453291Y199735D01*
X453294Y199742D01*
X453335Y199798D01*
X453379Y199849D01*
X453428Y199890D01*
X453472Y199924D01*
X453509Y199949D01*
X453542Y199968D01*
X453564Y199979D01*
X453568Y199983D01*
X453572D01*
X453642Y200009D01*
X453720Y200027D01*
X453797Y200042D01*
X453871Y200049D01*
X453938Y200057D01*
X453968D01*
X453994Y200060D01*
X455000D01*
Y197500D01*
D02*
G37*
G36*
X451896Y197068D02*
X451966Y197060D01*
X452033Y197046D01*
X452096Y197027D01*
X452151Y197001D01*
X452207Y196979D01*
X452255Y196949D01*
X452299Y196923D01*
X452336Y196898D01*
X452373Y196868D01*
X452403Y196846D01*
X452425Y196824D01*
X452443Y196801D01*
X452458Y196787D01*
X452465Y196779D01*
X452469Y196775D01*
X452517Y196709D01*
X452558Y196631D01*
X452595Y196550D01*
X452628Y196465D01*
X452654Y196376D01*
X452676Y196287D01*
X452695Y196195D01*
X452710Y196109D01*
X452721Y196024D01*
X452728Y195947D01*
X452736Y195876D01*
X452739Y195817D01*
Y195765D01*
X452743Y195728D01*
Y195714D01*
Y195703D01*
Y195699D01*
Y195695D01*
X452739Y195577D01*
X452732Y195466D01*
X452721Y195362D01*
X452702Y195266D01*
X452684Y195181D01*
X452665Y195103D01*
X452643Y195033D01*
X452617Y194970D01*
X452595Y194918D01*
X452573Y194870D01*
X452554Y194833D01*
X452532Y194800D01*
X452517Y194774D01*
X452506Y194759D01*
X452499Y194748D01*
X452495Y194744D01*
X452447Y194692D01*
X452395Y194648D01*
X452343Y194611D01*
X452292Y194578D01*
X452236Y194548D01*
X452184Y194526D01*
X452133Y194507D01*
X452081Y194493D01*
X452036Y194482D01*
X451992Y194470D01*
X451955Y194463D01*
X451922Y194459D01*
X451892D01*
X451873Y194456D01*
X451855D01*
X451770Y194459D01*
X451692Y194474D01*
X451622Y194489D01*
X451559Y194511D01*
X451511Y194530D01*
X451474Y194548D01*
X451459Y194552D01*
X451448Y194559D01*
X451444Y194563D01*
X451441D01*
X451378Y194607D01*
X451319Y194659D01*
X451270Y194711D01*
X451230Y194763D01*
X451196Y194811D01*
X451174Y194848D01*
X451167Y194863D01*
X451159Y194874D01*
X451156Y194877D01*
Y194881D01*
X451119Y194959D01*
X451093Y195040D01*
X451074Y195114D01*
X451063Y195185D01*
X451052Y195244D01*
Y195266D01*
X451048Y195288D01*
Y195307D01*
Y195318D01*
Y195325D01*
Y195329D01*
X451052Y195395D01*
X451059Y195458D01*
X451071Y195521D01*
X451082Y195577D01*
X451100Y195628D01*
X451119Y195680D01*
X451137Y195725D01*
X451159Y195765D01*
X451182Y195802D01*
X451200Y195836D01*
X451219Y195862D01*
X451237Y195887D01*
X451248Y195906D01*
X451259Y195917D01*
X451267Y195924D01*
X451270Y195928D01*
X451311Y195969D01*
X451356Y196006D01*
X451404Y196036D01*
X451448Y196061D01*
X451492Y196087D01*
X451537Y196106D01*
X451622Y196132D01*
X451659Y196143D01*
X451696Y196150D01*
X451725Y196154D01*
X451755Y196158D01*
X451777Y196161D01*
X451807D01*
X451873Y196158D01*
X451936Y196147D01*
X451996Y196135D01*
X452047Y196121D01*
X452092Y196102D01*
X452125Y196091D01*
X452147Y196080D01*
X452151Y196076D01*
X452155D01*
X452214Y196039D01*
X452266Y195999D01*
X452314Y195958D01*
X452351Y195913D01*
X452384Y195876D01*
X452410Y195847D01*
X452425Y195825D01*
X452428Y195821D01*
Y195887D01*
X452425Y195954D01*
X452421Y196013D01*
X452414Y196072D01*
X452410Y196124D01*
X452403Y196172D01*
X452395Y196217D01*
X452384Y196257D01*
X452377Y196294D01*
X452369Y196324D01*
X452362Y196350D01*
X452358Y196372D01*
X452351Y196387D01*
X452347Y196398D01*
X452343Y196405D01*
Y196409D01*
X452306Y196483D01*
X452269Y196550D01*
X452229Y196602D01*
X452192Y196646D01*
X452158Y196683D01*
X452133Y196709D01*
X452114Y196724D01*
X452107Y196727D01*
X452062Y196757D01*
X452018Y196775D01*
X451973Y196790D01*
X451929Y196801D01*
X451896Y196809D01*
X451866Y196812D01*
X451840D01*
X451774Y196805D01*
X451711Y196790D01*
X451659Y196768D01*
X451611Y196746D01*
X451574Y196720D01*
X451548Y196698D01*
X451533Y196683D01*
X451526Y196676D01*
X451500Y196642D01*
X451474Y196602D01*
X451452Y196557D01*
X451437Y196513D01*
X451422Y196472D01*
X451411Y196439D01*
X451407Y196417D01*
X451404Y196413D01*
Y196409D01*
X451089Y196435D01*
X451111Y196539D01*
X451145Y196631D01*
X451182Y196713D01*
X451222Y196779D01*
X451263Y196831D01*
X451278Y196853D01*
X451296Y196872D01*
X451307Y196883D01*
X451319Y196894D01*
X451322Y196898D01*
X451326Y196901D01*
X451363Y196931D01*
X451404Y196957D01*
X451485Y197001D01*
X451566Y197031D01*
X451644Y197049D01*
X451714Y197064D01*
X451744Y197068D01*
X451770D01*
X451792Y197072D01*
X451822D01*
X451896Y197068D01*
D02*
G37*
G36*
X455000Y194500D02*
X454023D01*
X453934Y194504D01*
X453857Y194507D01*
X453786Y194515D01*
X453727Y194522D01*
X453679Y194530D01*
X453642Y194533D01*
X453620Y194541D01*
X453613D01*
X453550Y194559D01*
X453498Y194578D01*
X453450Y194600D01*
X453409Y194622D01*
X453376Y194637D01*
X453350Y194652D01*
X453335Y194663D01*
X453331Y194667D01*
X453291Y194700D01*
X453254Y194740D01*
X453224Y194781D01*
X453194Y194818D01*
X453172Y194855D01*
X453157Y194881D01*
X453146Y194900D01*
X453143Y194907D01*
X453117Y194966D01*
X453098Y195025D01*
X453083Y195081D01*
X453076Y195133D01*
X453069Y195177D01*
X453065Y195214D01*
Y195236D01*
Y195240D01*
Y195244D01*
X453069Y195325D01*
X453083Y195399D01*
X453106Y195462D01*
X453128Y195521D01*
X453150Y195566D01*
X453172Y195599D01*
X453187Y195621D01*
X453191Y195628D01*
X453242Y195688D01*
X453298Y195736D01*
X453361Y195776D01*
X453416Y195810D01*
X453468Y195836D01*
X453513Y195851D01*
X453527Y195858D01*
X453539Y195862D01*
X453546Y195865D01*
X453550D01*
X453487Y195902D01*
X453431Y195939D01*
X453387Y195980D01*
X453350Y196017D01*
X453320Y196047D01*
X453298Y196076D01*
X453287Y196091D01*
X453283Y196098D01*
X453254Y196154D01*
X453231Y196206D01*
X453213Y196257D01*
X453202Y196306D01*
X453194Y196346D01*
X453191Y196380D01*
Y196398D01*
Y196405D01*
X453194Y196468D01*
X453205Y196531D01*
X453224Y196587D01*
X453242Y196639D01*
X453261Y196683D01*
X453279Y196713D01*
X453291Y196735D01*
X453294Y196742D01*
X453335Y196798D01*
X453379Y196850D01*
X453428Y196890D01*
X453472Y196923D01*
X453509Y196949D01*
X453542Y196968D01*
X453564Y196979D01*
X453568Y196983D01*
X453572D01*
X453642Y197009D01*
X453720Y197027D01*
X453797Y197042D01*
X453871Y197049D01*
X453938Y197057D01*
X453968D01*
X453994Y197060D01*
X455000D01*
Y194500D01*
D02*
G37*
G36*
X488632Y295500D02*
X488307D01*
Y297509D01*
X486968Y295500D01*
X486616D01*
Y298060D01*
X486942D01*
Y296048D01*
X488285Y298060D01*
X488632D01*
Y295500D01*
D02*
G37*
G36*
X490357Y298097D02*
X490486Y298079D01*
X490545Y298068D01*
X490601Y298053D01*
X490653Y298042D01*
X490701Y298027D01*
X490745Y298012D01*
X490782Y297997D01*
X490815Y297983D01*
X490845Y297972D01*
X490867Y297960D01*
X490882Y297953D01*
X490893Y297949D01*
X490897Y297946D01*
X490949Y297912D01*
X491001Y297879D01*
X491089Y297801D01*
X491167Y297724D01*
X491230Y297642D01*
X491282Y297572D01*
X491300Y297542D01*
X491315Y297513D01*
X491330Y297491D01*
X491337Y297476D01*
X491341Y297465D01*
X491345Y297461D01*
X491396Y297339D01*
X491433Y297217D01*
X491463Y297098D01*
X491470Y297043D01*
X491481Y296991D01*
X491485Y296943D01*
X491493Y296902D01*
X491496Y296862D01*
Y296828D01*
X491500Y296802D01*
Y296784D01*
Y296769D01*
Y296765D01*
X491493Y296628D01*
X491474Y296499D01*
X491463Y296440D01*
X491452Y296384D01*
X491437Y296329D01*
X491422Y296281D01*
X491407Y296236D01*
X491393Y296199D01*
X491382Y296162D01*
X491370Y296136D01*
X491359Y296111D01*
X491352Y296096D01*
X491345Y296085D01*
Y296081D01*
X491278Y295974D01*
X491204Y295881D01*
X491126Y295800D01*
X491052Y295733D01*
X490982Y295681D01*
X490956Y295663D01*
X490930Y295644D01*
X490908Y295633D01*
X490893Y295622D01*
X490882Y295618D01*
X490878Y295615D01*
X490819Y295585D01*
X490760Y295563D01*
X490642Y295522D01*
X490527Y295496D01*
X490420Y295474D01*
X490372Y295470D01*
X490327Y295463D01*
X490286Y295459D01*
X490253D01*
X490227Y295456D01*
X490190D01*
X490087Y295459D01*
X489987Y295470D01*
X489894Y295489D01*
X489813Y295507D01*
X489780Y295515D01*
X489746Y295522D01*
X489717Y295533D01*
X489691Y295541D01*
X489672Y295548D01*
X489657Y295552D01*
X489650Y295555D01*
X489646D01*
X489546Y295596D01*
X489454Y295644D01*
X489365Y295696D01*
X489287Y295744D01*
X489254Y295766D01*
X489221Y295789D01*
X489195Y295807D01*
X489173Y295822D01*
X489154Y295837D01*
X489139Y295848D01*
X489132Y295851D01*
X489128Y295855D01*
Y296806D01*
X490216D01*
Y296503D01*
X489461D01*
Y296022D01*
X489506Y295985D01*
X489558Y295951D01*
X489613Y295922D01*
X489665Y295896D01*
X489709Y295874D01*
X489750Y295855D01*
X489765Y295848D01*
X489772Y295844D01*
X489780Y295840D01*
X489783D01*
X489861Y295814D01*
X489939Y295792D01*
X490009Y295778D01*
X490075Y295770D01*
X490131Y295763D01*
X490153D01*
X490175Y295759D01*
X490212D01*
X490305Y295763D01*
X490394Y295778D01*
X490475Y295796D01*
X490549Y295814D01*
X490608Y295837D01*
X490634Y295844D01*
X490653Y295851D01*
X490671Y295859D01*
X490682Y295866D01*
X490690Y295870D01*
X490693D01*
X490771Y295918D01*
X490841Y295970D01*
X490901Y296025D01*
X490949Y296081D01*
X490989Y296133D01*
X491015Y296173D01*
X491026Y296188D01*
X491030Y296199D01*
X491038Y296207D01*
Y296210D01*
X491075Y296303D01*
X491104Y296399D01*
X491123Y296495D01*
X491137Y296588D01*
X491141Y296628D01*
X491145Y296666D01*
X491149Y296703D01*
Y296732D01*
X491152Y296754D01*
Y296773D01*
Y296784D01*
Y296788D01*
X491149Y296891D01*
X491137Y296984D01*
X491123Y297073D01*
X491104Y297150D01*
X491097Y297183D01*
X491086Y297213D01*
X491078Y297239D01*
X491071Y297261D01*
X491063Y297280D01*
X491060Y297291D01*
X491056Y297298D01*
Y297302D01*
X491030Y297354D01*
X491004Y297402D01*
X490978Y297446D01*
X490952Y297483D01*
X490930Y297513D01*
X490912Y297539D01*
X490897Y297553D01*
X490893Y297557D01*
X490852Y297598D01*
X490808Y297635D01*
X490760Y297664D01*
X490716Y297694D01*
X490679Y297713D01*
X490649Y297731D01*
X490627Y297739D01*
X490619Y297742D01*
X490553Y297768D01*
X490486Y297787D01*
X490416Y297798D01*
X490353Y297809D01*
X490298Y297813D01*
X490275D01*
X490257Y297816D01*
X490216D01*
X490146Y297813D01*
X490079Y297805D01*
X490020Y297794D01*
X489968Y297783D01*
X489924Y297768D01*
X489890Y297757D01*
X489872Y297750D01*
X489865Y297746D01*
X489809Y297720D01*
X489761Y297690D01*
X489717Y297661D01*
X489683Y297631D01*
X489657Y297605D01*
X489635Y297587D01*
X489624Y297572D01*
X489620Y297568D01*
X489587Y297524D01*
X489561Y297472D01*
X489535Y297424D01*
X489513Y297372D01*
X489498Y297328D01*
X489487Y297294D01*
X489483Y297280D01*
X489480Y297269D01*
X489476Y297265D01*
Y297261D01*
X489169Y297343D01*
X489195Y297435D01*
X489228Y297516D01*
X489261Y297590D01*
X489291Y297650D01*
X489321Y297698D01*
X489343Y297731D01*
X489358Y297753D01*
X489365Y297761D01*
X489417Y297820D01*
X489472Y297868D01*
X489532Y297912D01*
X489587Y297949D01*
X489639Y297975D01*
X489680Y297997D01*
X489694Y298005D01*
X489706Y298009D01*
X489713Y298012D01*
X489717D01*
X489802Y298042D01*
X489890Y298064D01*
X489972Y298083D01*
X490050Y298094D01*
X490120Y298101D01*
X490149D01*
X490172Y298105D01*
X490290D01*
X490357Y298097D01*
D02*
G37*
G36*
X486046Y295500D02*
X485125D01*
X485040Y295504D01*
X484962Y295507D01*
X484892Y295515D01*
X484833Y295522D01*
X484781Y295530D01*
X484744Y295533D01*
X484733Y295537D01*
X484722Y295541D01*
X484714D01*
X484648Y295559D01*
X484588Y295581D01*
X484537Y295600D01*
X484492Y295622D01*
X484455Y295641D01*
X484429Y295655D01*
X484414Y295667D01*
X484407Y295670D01*
X484359Y295704D01*
X484318Y295744D01*
X484278Y295781D01*
X484244Y295818D01*
X484215Y295851D01*
X484193Y295877D01*
X484178Y295896D01*
X484174Y295903D01*
X484137Y295963D01*
X484100Y296025D01*
X484070Y296085D01*
X484048Y296144D01*
X484026Y296196D01*
X484011Y296236D01*
X484008Y296251D01*
X484004Y296262D01*
X484000Y296270D01*
Y296273D01*
X483978Y296362D01*
X483959Y296451D01*
X483948Y296536D01*
X483937Y296617D01*
X483933Y296688D01*
Y296717D01*
X483930Y296743D01*
Y296762D01*
Y296780D01*
Y296788D01*
Y296791D01*
X483933Y296917D01*
X483945Y297032D01*
X483963Y297135D01*
X483970Y297183D01*
X483982Y297224D01*
X483993Y297265D01*
X484000Y297298D01*
X484008Y297328D01*
X484019Y297354D01*
X484022Y297376D01*
X484030Y297391D01*
X484033Y297398D01*
Y297402D01*
X484074Y297498D01*
X484122Y297583D01*
X484174Y297657D01*
X484222Y297720D01*
X484267Y297772D01*
X484304Y297809D01*
X484318Y297820D01*
X484329Y297831D01*
X484333Y297835D01*
X484337Y297838D01*
X484396Y297886D01*
X484459Y297923D01*
X484522Y297957D01*
X484581Y297983D01*
X484633Y298001D01*
X484674Y298012D01*
X484688Y298020D01*
X484699D01*
X484707Y298023D01*
X484711D01*
X484773Y298035D01*
X484847Y298046D01*
X484921Y298053D01*
X484995Y298057D01*
X485062Y298060D01*
X486046D01*
Y295500D01*
D02*
G37*
G36*
X491500Y255500D02*
X491141D01*
X490864Y256277D01*
X489791D01*
X489491Y255500D01*
X489106D01*
X490153Y258060D01*
X490523D01*
X491500Y255500D01*
D02*
G37*
G36*
X489069Y256403D02*
Y256114D01*
X487955D01*
Y255500D01*
X487641D01*
Y256114D01*
X487293D01*
Y256403D01*
X487641D01*
Y258060D01*
X487896D01*
X489069Y256403D01*
D02*
G37*
G36*
X491500Y216000D02*
X491141D01*
X490864Y216777D01*
X489791D01*
X489491Y216000D01*
X489106D01*
X490153Y218560D01*
X490523D01*
X491500Y216000D01*
D02*
G37*
G36*
X488226Y218564D02*
X488318Y218549D01*
X488396Y218523D01*
X488462Y218497D01*
X488518Y218468D01*
X488540Y218457D01*
X488558Y218442D01*
X488573Y218435D01*
X488584Y218427D01*
X488588Y218420D01*
X488592D01*
X488658Y218361D01*
X488714Y218290D01*
X488762Y218220D01*
X488799Y218153D01*
X488829Y218091D01*
X488843Y218065D01*
X488851Y218039D01*
X488858Y218020D01*
X488866Y218005D01*
X488869Y217998D01*
Y217994D01*
X488884Y217939D01*
X488899Y217883D01*
X488921Y217761D01*
X488940Y217639D01*
X488951Y217524D01*
X488954Y217469D01*
X488958Y217421D01*
Y217376D01*
X488962Y217336D01*
Y217306D01*
Y217280D01*
Y217265D01*
Y217262D01*
X488958Y217132D01*
X488951Y217010D01*
X488940Y216899D01*
X488921Y216795D01*
X488903Y216699D01*
X488880Y216614D01*
X488858Y216536D01*
X488836Y216470D01*
X488814Y216411D01*
X488788Y216359D01*
X488769Y216315D01*
X488751Y216281D01*
X488732Y216252D01*
X488721Y216233D01*
X488714Y216222D01*
X488710Y216218D01*
X488669Y216174D01*
X488625Y216133D01*
X488577Y216096D01*
X488529Y216067D01*
X488481Y216041D01*
X488433Y216019D01*
X488385Y216004D01*
X488340Y215989D01*
X488296Y215978D01*
X488255Y215970D01*
X488218Y215963D01*
X488189Y215959D01*
X488163Y215956D01*
X488126D01*
X488026Y215963D01*
X487933Y215978D01*
X487855Y216004D01*
X487789Y216030D01*
X487733Y216055D01*
X487715Y216070D01*
X487696Y216081D01*
X487682Y216089D01*
X487671Y216096D01*
X487667Y216104D01*
X487663D01*
X487597Y216166D01*
X487541Y216233D01*
X487493Y216307D01*
X487456Y216374D01*
X487426Y216437D01*
X487411Y216462D01*
X487404Y216488D01*
X487397Y216507D01*
X487389Y216522D01*
X487386Y216529D01*
Y216533D01*
X487367Y216588D01*
X487352Y216644D01*
X487330Y216762D01*
X487312Y216884D01*
X487300Y217003D01*
X487297Y217055D01*
X487293Y217103D01*
Y217147D01*
X487289Y217188D01*
Y217217D01*
Y217243D01*
Y217258D01*
Y217262D01*
Y217332D01*
X487293Y217399D01*
Y217458D01*
X487297Y217517D01*
X487304Y217569D01*
X487308Y217621D01*
X487312Y217665D01*
X487319Y217706D01*
X487323Y217743D01*
X487330Y217776D01*
X487334Y217802D01*
X487337Y217824D01*
X487341Y217843D01*
X487345Y217854D01*
X487349Y217861D01*
Y217865D01*
X487371Y217946D01*
X487397Y218020D01*
X487426Y218083D01*
X487449Y218139D01*
X487474Y218187D01*
X487489Y218220D01*
X487504Y218238D01*
X487508Y218246D01*
X487548Y218301D01*
X487589Y218350D01*
X487634Y218390D01*
X487674Y218427D01*
X487711Y218453D01*
X487741Y218472D01*
X487759Y218483D01*
X487763Y218486D01*
X487767D01*
X487826Y218516D01*
X487889Y218534D01*
X487948Y218549D01*
X488003Y218560D01*
X488052Y218568D01*
X488092Y218571D01*
X488126D01*
X488226Y218564D01*
D02*
G37*
G36*
X491000Y205500D02*
X490660D01*
Y206636D01*
X490223D01*
X490182Y206632D01*
X490153D01*
X490127Y206628D01*
X490108Y206625D01*
X490094D01*
X490086Y206621D01*
X490082D01*
X490023Y206603D01*
X489997Y206592D01*
X489975Y206580D01*
X489953Y206569D01*
X489938Y206562D01*
X489931Y206558D01*
X489927Y206555D01*
X489897Y206532D01*
X489868Y206506D01*
X489812Y206451D01*
X489786Y206425D01*
X489768Y206403D01*
X489757Y206388D01*
X489753Y206384D01*
X489716Y206332D01*
X489675Y206277D01*
X489635Y206218D01*
X489594Y206162D01*
X489561Y206111D01*
X489535Y206070D01*
X489524Y206055D01*
X489516Y206044D01*
X489509Y206036D01*
Y206033D01*
X489172Y205500D01*
X488750D01*
X489191Y206196D01*
X489243Y206270D01*
X489291Y206336D01*
X489339Y206392D01*
X489379Y206444D01*
X489416Y206481D01*
X489446Y206510D01*
X489465Y206529D01*
X489472Y206536D01*
X489501Y206558D01*
X489535Y206584D01*
X489601Y206625D01*
X489631Y206640D01*
X489653Y206654D01*
X489668Y206662D01*
X489675Y206665D01*
X489609Y206677D01*
X489546Y206688D01*
X489490Y206706D01*
X489435Y206721D01*
X489387Y206739D01*
X489342Y206762D01*
X489302Y206780D01*
X489265Y206799D01*
X489235Y206821D01*
X489206Y206839D01*
X489183Y206854D01*
X489165Y206869D01*
X489150Y206880D01*
X489139Y206891D01*
X489135Y206895D01*
X489131Y206899D01*
X489102Y206936D01*
X489072Y206973D01*
X489028Y207050D01*
X488998Y207128D01*
X488976Y207202D01*
X488961Y207265D01*
X488958Y207291D01*
Y207317D01*
X488954Y207335D01*
Y207350D01*
Y207357D01*
Y207361D01*
X488958Y207439D01*
X488969Y207509D01*
X488987Y207576D01*
X489006Y207631D01*
X489028Y207679D01*
X489043Y207716D01*
X489057Y207738D01*
X489061Y207742D01*
Y207746D01*
X489106Y207805D01*
X489150Y207857D01*
X489198Y207901D01*
X489243Y207935D01*
X489283Y207961D01*
X489317Y207975D01*
X489339Y207986D01*
X489342Y207990D01*
X489346D01*
X489379Y208001D01*
X489420Y208012D01*
X489501Y208031D01*
X489590Y208042D01*
X489672Y208053D01*
X489749Y208057D01*
X489783D01*
X489812Y208060D01*
X491000D01*
Y205500D01*
D02*
G37*
G36*
X486227Y207757D02*
X485383D01*
Y205500D01*
X485043D01*
Y207757D01*
X484199D01*
Y208060D01*
X486227D01*
Y207757D01*
D02*
G37*
G36*
X487637Y208101D02*
X487722Y208090D01*
X487803Y208075D01*
X487874Y208060D01*
X487929Y208046D01*
X487955Y208038D01*
X487973Y208031D01*
X487988Y208023D01*
X487999Y208020D01*
X488007Y208016D01*
X488010D01*
X488084Y207979D01*
X488151Y207938D01*
X488206Y207894D01*
X488251Y207853D01*
X488284Y207816D01*
X488310Y207787D01*
X488329Y207764D01*
X488332Y207761D01*
Y207757D01*
X488369Y207694D01*
X488395Y207631D01*
X488414Y207568D01*
X488425Y207513D01*
X488432Y207465D01*
X488440Y207428D01*
Y207413D01*
Y207402D01*
Y207398D01*
Y207394D01*
X488436Y207331D01*
X488425Y207272D01*
X488410Y207217D01*
X488395Y207169D01*
X488380Y207132D01*
X488366Y207102D01*
X488354Y207084D01*
X488351Y207076D01*
X488314Y207024D01*
X488269Y206976D01*
X488225Y206936D01*
X488181Y206902D01*
X488144Y206873D01*
X488110Y206854D01*
X488088Y206839D01*
X488084Y206836D01*
X488081D01*
X488051Y206821D01*
X488018Y206806D01*
X487944Y206780D01*
X487859Y206754D01*
X487777Y206728D01*
X487703Y206706D01*
X487670Y206699D01*
X487640Y206691D01*
X487618Y206684D01*
X487600Y206680D01*
X487589Y206677D01*
X487585D01*
X487522Y206662D01*
X487463Y206647D01*
X487411Y206632D01*
X487367Y206621D01*
X487322Y206610D01*
X487285Y206599D01*
X487252Y206592D01*
X487226Y206580D01*
X487200Y206573D01*
X487182Y206569D01*
X487152Y206558D01*
X487134Y206555D01*
X487130Y206551D01*
X487074Y206529D01*
X487026Y206503D01*
X486985Y206477D01*
X486956Y206455D01*
X486930Y206432D01*
X486915Y206418D01*
X486904Y206406D01*
X486900Y206403D01*
X486874Y206369D01*
X486856Y206332D01*
X486845Y206295D01*
X486834Y206266D01*
X486830Y206236D01*
X486826Y206214D01*
Y206196D01*
Y206192D01*
X486830Y206148D01*
X486837Y206107D01*
X486849Y206070D01*
X486863Y206040D01*
X486878Y206011D01*
X486889Y205992D01*
X486897Y205977D01*
X486900Y205974D01*
X486930Y205937D01*
X486967Y205907D01*
X487004Y205881D01*
X487037Y205855D01*
X487071Y205840D01*
X487097Y205826D01*
X487115Y205818D01*
X487122Y205815D01*
X487178Y205796D01*
X487237Y205781D01*
X487296Y205774D01*
X487348Y205766D01*
X487393Y205763D01*
X487430Y205759D01*
X487463D01*
X487544Y205763D01*
X487618Y205770D01*
X487685Y205781D01*
X487744Y205796D01*
X487792Y205811D01*
X487829Y205822D01*
X487840Y205826D01*
X487851Y205829D01*
X487855Y205833D01*
X487859D01*
X487918Y205863D01*
X487973Y205896D01*
X488014Y205929D01*
X488051Y205962D01*
X488081Y205988D01*
X488099Y206014D01*
X488110Y206029D01*
X488114Y206033D01*
X488140Y206081D01*
X488166Y206133D01*
X488181Y206188D01*
X488195Y206236D01*
X488206Y206284D01*
X488214Y206318D01*
Y206332D01*
X488218Y206344D01*
Y206347D01*
Y206351D01*
X488536Y206321D01*
X488528Y206229D01*
X488514Y206140D01*
X488491Y206062D01*
X488465Y205992D01*
X488440Y205937D01*
X488428Y205914D01*
X488421Y205896D01*
X488410Y205881D01*
X488406Y205870D01*
X488399Y205863D01*
Y205859D01*
X488343Y205789D01*
X488284Y205726D01*
X488221Y205674D01*
X488162Y205629D01*
X488110Y205596D01*
X488066Y205574D01*
X488051Y205567D01*
X488040Y205559D01*
X488033Y205556D01*
X488029D01*
X487936Y205522D01*
X487840Y205496D01*
X487744Y205482D01*
X487651Y205467D01*
X487607Y205463D01*
X487570Y205459D01*
X487537D01*
X487507Y205456D01*
X487448D01*
X487348Y205459D01*
X487256Y205470D01*
X487171Y205489D01*
X487100Y205507D01*
X487041Y205522D01*
X487015Y205533D01*
X486993Y205541D01*
X486978Y205548D01*
X486967Y205552D01*
X486960Y205556D01*
X486956D01*
X486878Y205596D01*
X486812Y205641D01*
X486752Y205689D01*
X486704Y205733D01*
X486667Y205770D01*
X486641Y205803D01*
X486623Y205826D01*
X486619Y205829D01*
Y205833D01*
X486579Y205903D01*
X486549Y205970D01*
X486530Y206033D01*
X486516Y206092D01*
X486508Y206144D01*
X486501Y206185D01*
Y206199D01*
Y206210D01*
Y206214D01*
Y206218D01*
X486505Y206292D01*
X486516Y206362D01*
X486534Y206425D01*
X486553Y206477D01*
X486575Y206521D01*
X486590Y206555D01*
X486604Y206573D01*
X486608Y206580D01*
X486653Y206636D01*
X486704Y206688D01*
X486760Y206732D01*
X486815Y206773D01*
X486863Y206802D01*
X486904Y206825D01*
X486919Y206832D01*
X486930Y206839D01*
X486937Y206843D01*
X486941D01*
X486971Y206858D01*
X487008Y206869D01*
X487048Y206884D01*
X487093Y206899D01*
X487185Y206925D01*
X487282Y206950D01*
X487326Y206961D01*
X487367Y206973D01*
X487407Y206984D01*
X487441Y206991D01*
X487466Y206998D01*
X487489Y207002D01*
X487503Y207006D01*
X487507D01*
X487581Y207024D01*
X487648Y207039D01*
X487707Y207058D01*
X487759Y207072D01*
X487807Y207091D01*
X487848Y207106D01*
X487885Y207121D01*
X487918Y207132D01*
X487944Y207147D01*
X487966Y207158D01*
X487981Y207165D01*
X487996Y207176D01*
X488014Y207187D01*
X488018Y207191D01*
X488051Y207228D01*
X488073Y207265D01*
X488092Y207302D01*
X488103Y207339D01*
X488110Y207368D01*
X488114Y207394D01*
Y207409D01*
Y207417D01*
X488107Y207476D01*
X488092Y207528D01*
X488070Y207572D01*
X488044Y207613D01*
X488022Y207642D01*
X487999Y207668D01*
X487985Y207683D01*
X487977Y207687D01*
X487948Y207705D01*
X487918Y207724D01*
X487848Y207753D01*
X487774Y207772D01*
X487700Y207787D01*
X487633Y207794D01*
X487603Y207798D01*
X487581Y207801D01*
X487529D01*
X487426Y207798D01*
X487333Y207783D01*
X487259Y207761D01*
X487196Y207738D01*
X487148Y207716D01*
X487111Y207694D01*
X487093Y207679D01*
X487085Y207676D01*
X487034Y207624D01*
X486993Y207568D01*
X486960Y207509D01*
X486937Y207450D01*
X486923Y207394D01*
X486911Y207354D01*
X486908Y207335D01*
X486904Y207324D01*
Y207317D01*
Y207313D01*
X486579Y207339D01*
X486586Y207420D01*
X486604Y207494D01*
X486623Y207565D01*
X486649Y207624D01*
X486671Y207672D01*
X486690Y207709D01*
X486697Y207720D01*
X486704Y207731D01*
X486708Y207735D01*
Y207738D01*
X486756Y207801D01*
X486808Y207857D01*
X486863Y207905D01*
X486919Y207942D01*
X486967Y207975D01*
X487004Y207994D01*
X487019Y208001D01*
X487030Y208009D01*
X487037Y208012D01*
X487041D01*
X487122Y208042D01*
X487211Y208064D01*
X487293Y208083D01*
X487370Y208094D01*
X487441Y208101D01*
X487466D01*
X487492Y208105D01*
X487540D01*
X487637Y208101D01*
D02*
G37*
G36*
X491500Y193000D02*
X490523D01*
X490434Y193004D01*
X490357Y193007D01*
X490286Y193015D01*
X490227Y193022D01*
X490179Y193030D01*
X490142Y193033D01*
X490120Y193041D01*
X490112D01*
X490050Y193059D01*
X489998Y193078D01*
X489950Y193100D01*
X489909Y193122D01*
X489876Y193137D01*
X489850Y193152D01*
X489835Y193163D01*
X489831Y193166D01*
X489791Y193200D01*
X489754Y193240D01*
X489724Y193281D01*
X489694Y193318D01*
X489672Y193355D01*
X489657Y193381D01*
X489646Y193400D01*
X489643Y193407D01*
X489617Y193466D01*
X489598Y193525D01*
X489583Y193581D01*
X489576Y193633D01*
X489569Y193677D01*
X489565Y193714D01*
Y193736D01*
Y193740D01*
Y193744D01*
X489569Y193825D01*
X489583Y193899D01*
X489606Y193962D01*
X489628Y194021D01*
X489650Y194066D01*
X489672Y194099D01*
X489687Y194121D01*
X489691Y194129D01*
X489743Y194188D01*
X489798Y194236D01*
X489861Y194276D01*
X489916Y194310D01*
X489968Y194336D01*
X490013Y194351D01*
X490027Y194358D01*
X490038Y194362D01*
X490046Y194365D01*
X490050D01*
X489987Y194402D01*
X489931Y194439D01*
X489887Y194480D01*
X489850Y194517D01*
X489820Y194547D01*
X489798Y194576D01*
X489787Y194591D01*
X489783Y194598D01*
X489754Y194654D01*
X489731Y194706D01*
X489713Y194757D01*
X489702Y194806D01*
X489694Y194846D01*
X489691Y194880D01*
Y194898D01*
Y194905D01*
X489694Y194968D01*
X489706Y195031D01*
X489724Y195087D01*
X489743Y195139D01*
X489761Y195183D01*
X489780Y195213D01*
X489791Y195235D01*
X489794Y195242D01*
X489835Y195298D01*
X489879Y195350D01*
X489927Y195390D01*
X489972Y195423D01*
X490009Y195449D01*
X490042Y195468D01*
X490064Y195479D01*
X490068Y195483D01*
X490072D01*
X490142Y195509D01*
X490220Y195527D01*
X490298Y195542D01*
X490372Y195549D01*
X490438Y195557D01*
X490468D01*
X490494Y195560D01*
X491500D01*
Y193000D01*
D02*
G37*
G36*
X488455Y195568D02*
X488514Y195564D01*
X488618Y195542D01*
X488666Y195527D01*
X488710Y195512D01*
X488751Y195494D01*
X488788Y195475D01*
X488818Y195457D01*
X488847Y195438D01*
X488873Y195423D01*
X488892Y195409D01*
X488906Y195398D01*
X488917Y195387D01*
X488925Y195383D01*
X488929Y195379D01*
X488962Y195342D01*
X488995Y195305D01*
X489021Y195264D01*
X489043Y195224D01*
X489080Y195146D01*
X489102Y195072D01*
X489117Y195009D01*
X489121Y194980D01*
X489125Y194957D01*
X489128Y194935D01*
Y194920D01*
Y194913D01*
Y194909D01*
X489125Y194843D01*
X489114Y194780D01*
X489099Y194724D01*
X489080Y194676D01*
X489065Y194639D01*
X489051Y194609D01*
X489040Y194595D01*
X489036Y194587D01*
X488995Y194543D01*
X488951Y194502D01*
X488903Y194465D01*
X488855Y194436D01*
X488810Y194413D01*
X488777Y194399D01*
X488762Y194391D01*
X488751Y194387D01*
X488747Y194384D01*
X488743D01*
X488829Y194358D01*
X488899Y194325D01*
X488962Y194284D01*
X489014Y194247D01*
X489054Y194210D01*
X489084Y194180D01*
X489099Y194162D01*
X489106Y194158D01*
Y194154D01*
X489147Y194088D01*
X489180Y194018D01*
X489202Y193951D01*
X489217Y193884D01*
X489224Y193825D01*
X489228Y193799D01*
Y193777D01*
X489232Y193762D01*
Y193747D01*
Y193740D01*
Y193736D01*
X489228Y193677D01*
X489221Y193618D01*
X489210Y193562D01*
X489195Y193507D01*
X489158Y193414D01*
X489139Y193370D01*
X489117Y193333D01*
X489095Y193296D01*
X489077Y193266D01*
X489054Y193240D01*
X489040Y193218D01*
X489025Y193200D01*
X489014Y193189D01*
X489006Y193181D01*
X489003Y193178D01*
X488958Y193137D01*
X488910Y193104D01*
X488858Y193074D01*
X488806Y193048D01*
X488758Y193030D01*
X488706Y193011D01*
X488607Y192985D01*
X488562Y192974D01*
X488521Y192967D01*
X488484Y192963D01*
X488451Y192959D01*
X488425Y192956D01*
X488388D01*
X488318Y192959D01*
X488255Y192967D01*
X488192Y192978D01*
X488133Y192989D01*
X488081Y193007D01*
X488029Y193026D01*
X487981Y193044D01*
X487941Y193067D01*
X487904Y193089D01*
X487870Y193107D01*
X487844Y193126D01*
X487818Y193144D01*
X487800Y193155D01*
X487789Y193166D01*
X487781Y193174D01*
X487778Y193178D01*
X487737Y193222D01*
X487700Y193266D01*
X487671Y193311D01*
X487645Y193359D01*
X487619Y193403D01*
X487600Y193451D01*
X487574Y193536D01*
X487563Y193577D01*
X487556Y193614D01*
X487552Y193648D01*
X487548Y193673D01*
X487545Y193696D01*
Y193714D01*
Y193725D01*
Y193729D01*
X487548Y193814D01*
X487563Y193892D01*
X487585Y193962D01*
X487608Y194021D01*
X487630Y194069D01*
X487652Y194106D01*
X487667Y194129D01*
X487671Y194132D01*
Y194136D01*
X487722Y194195D01*
X487778Y194247D01*
X487837Y194288D01*
X487892Y194325D01*
X487944Y194351D01*
X487989Y194369D01*
X488003Y194376D01*
X488015Y194380D01*
X488022Y194384D01*
X488026D01*
X487959Y194413D01*
X487904Y194447D01*
X487855Y194480D01*
X487815Y194513D01*
X487785Y194543D01*
X487763Y194565D01*
X487748Y194580D01*
X487745Y194587D01*
X487711Y194639D01*
X487689Y194691D01*
X487671Y194743D01*
X487659Y194794D01*
X487652Y194835D01*
X487648Y194869D01*
Y194891D01*
Y194894D01*
Y194898D01*
X487652Y194950D01*
X487656Y194998D01*
X487682Y195090D01*
X487715Y195172D01*
X487752Y195242D01*
X487789Y195298D01*
X487807Y195320D01*
X487822Y195342D01*
X487837Y195357D01*
X487848Y195368D01*
X487852Y195372D01*
X487855Y195375D01*
X487896Y195409D01*
X487937Y195442D01*
X487981Y195468D01*
X488026Y195490D01*
X488115Y195523D01*
X488203Y195546D01*
X488240Y195557D01*
X488277Y195560D01*
X488311Y195564D01*
X488340Y195568D01*
X488362Y195571D01*
X488396D01*
X488455Y195568D01*
D02*
G37*
G36*
X491500Y196500D02*
X491160D01*
Y197662D01*
X489957D01*
Y197965D01*
X491160D01*
Y198757D01*
X489768D01*
Y199060D01*
X491500D01*
Y196500D01*
D02*
G37*
G36*
X488721Y199064D02*
X488814Y199049D01*
X488892Y199023D01*
X488958Y198997D01*
X489014Y198968D01*
X489036Y198957D01*
X489054Y198942D01*
X489069Y198935D01*
X489080Y198927D01*
X489084Y198920D01*
X489088D01*
X489154Y198861D01*
X489210Y198790D01*
X489258Y198720D01*
X489295Y198653D01*
X489324Y198591D01*
X489339Y198565D01*
X489347Y198539D01*
X489354Y198520D01*
X489361Y198505D01*
X489365Y198498D01*
Y198494D01*
X489380Y198439D01*
X489395Y198383D01*
X489417Y198261D01*
X489435Y198139D01*
X489446Y198024D01*
X489450Y197969D01*
X489454Y197921D01*
Y197876D01*
X489458Y197836D01*
Y197806D01*
Y197780D01*
Y197765D01*
Y197762D01*
X489454Y197632D01*
X489446Y197510D01*
X489435Y197399D01*
X489417Y197295D01*
X489398Y197199D01*
X489376Y197114D01*
X489354Y197037D01*
X489332Y196970D01*
X489310Y196911D01*
X489284Y196859D01*
X489265Y196815D01*
X489247Y196781D01*
X489228Y196752D01*
X489217Y196733D01*
X489210Y196722D01*
X489206Y196718D01*
X489165Y196674D01*
X489121Y196633D01*
X489073Y196596D01*
X489025Y196567D01*
X488977Y196541D01*
X488929Y196519D01*
X488880Y196504D01*
X488836Y196489D01*
X488792Y196478D01*
X488751Y196470D01*
X488714Y196463D01*
X488684Y196459D01*
X488658Y196456D01*
X488621D01*
X488521Y196463D01*
X488429Y196478D01*
X488351Y196504D01*
X488285Y196530D01*
X488229Y196555D01*
X488211Y196570D01*
X488192Y196581D01*
X488177Y196589D01*
X488166Y196596D01*
X488163Y196604D01*
X488159D01*
X488092Y196667D01*
X488037Y196733D01*
X487989Y196807D01*
X487952Y196874D01*
X487922Y196937D01*
X487907Y196962D01*
X487900Y196988D01*
X487892Y197007D01*
X487885Y197022D01*
X487881Y197029D01*
Y197033D01*
X487863Y197088D01*
X487848Y197144D01*
X487826Y197262D01*
X487807Y197384D01*
X487796Y197503D01*
X487793Y197555D01*
X487789Y197603D01*
Y197647D01*
X487785Y197688D01*
Y197717D01*
Y197743D01*
Y197758D01*
Y197762D01*
Y197832D01*
X487789Y197899D01*
Y197958D01*
X487793Y198017D01*
X487800Y198069D01*
X487804Y198121D01*
X487807Y198165D01*
X487815Y198206D01*
X487818Y198243D01*
X487826Y198276D01*
X487830Y198302D01*
X487833Y198324D01*
X487837Y198343D01*
X487841Y198354D01*
X487844Y198361D01*
Y198365D01*
X487867Y198446D01*
X487892Y198520D01*
X487922Y198583D01*
X487944Y198639D01*
X487970Y198687D01*
X487985Y198720D01*
X488000Y198739D01*
X488003Y198746D01*
X488044Y198801D01*
X488085Y198849D01*
X488129Y198890D01*
X488170Y198927D01*
X488207Y198953D01*
X488237Y198972D01*
X488255Y198983D01*
X488259Y198986D01*
X488263D01*
X488322Y199016D01*
X488385Y199035D01*
X488444Y199049D01*
X488499Y199060D01*
X488547Y199068D01*
X488588Y199072D01*
X488621D01*
X488721Y199064D01*
D02*
G37*
G36*
X490808Y317064D02*
X490908Y317046D01*
X490993Y317016D01*
X491067Y316986D01*
X491100Y316968D01*
X491126Y316953D01*
X491152Y316938D01*
X491171Y316923D01*
X491186Y316912D01*
X491197Y316905D01*
X491204Y316901D01*
X491208Y316898D01*
X491278Y316827D01*
X491333Y316750D01*
X491378Y316668D01*
X491415Y316587D01*
X491437Y316516D01*
X491448Y316487D01*
X491456Y316461D01*
X491459Y316439D01*
X491463Y316424D01*
X491467Y316413D01*
Y316409D01*
X491152Y316354D01*
X491137Y316435D01*
X491115Y316505D01*
X491089Y316565D01*
X491063Y316613D01*
X491038Y316650D01*
X491015Y316676D01*
X491001Y316694D01*
X490997Y316698D01*
X490949Y316735D01*
X490897Y316764D01*
X490849Y316783D01*
X490801Y316798D01*
X490756Y316805D01*
X490723Y316812D01*
X490693D01*
X490627Y316809D01*
X490568Y316794D01*
X490516Y316775D01*
X490471Y316757D01*
X490438Y316735D01*
X490412Y316716D01*
X490394Y316702D01*
X490390Y316698D01*
X490349Y316653D01*
X490320Y316605D01*
X490301Y316557D01*
X490286Y316513D01*
X490279Y316472D01*
X490272Y316442D01*
Y316420D01*
Y316417D01*
Y316413D01*
Y316372D01*
X490279Y316335D01*
X490298Y316272D01*
X490323Y316217D01*
X490353Y316169D01*
X490383Y316135D01*
X490409Y316109D01*
X490427Y316095D01*
X490431Y316091D01*
X490434D01*
X490497Y316058D01*
X490556Y316032D01*
X490619Y316013D01*
X490675Y316002D01*
X490723Y315995D01*
X490764Y315987D01*
X490812D01*
X490827Y315991D01*
X490845D01*
X490882Y315714D01*
X490834Y315725D01*
X490790Y315732D01*
X490753Y315739D01*
X490719Y315743D01*
X490693Y315747D01*
X490660D01*
X490582Y315739D01*
X490512Y315725D01*
X490449Y315703D01*
X490397Y315677D01*
X490357Y315651D01*
X490327Y315629D01*
X490309Y315614D01*
X490301Y315606D01*
X490253Y315551D01*
X490216Y315492D01*
X490190Y315432D01*
X490175Y315373D01*
X490164Y315325D01*
X490161Y315284D01*
X490157Y315270D01*
Y315259D01*
Y315251D01*
Y315247D01*
X490164Y315166D01*
X490183Y315092D01*
X490205Y315029D01*
X490235Y314974D01*
X490264Y314929D01*
X490286Y314896D01*
X490305Y314874D01*
X490312Y314866D01*
X490372Y314814D01*
X490434Y314777D01*
X490497Y314752D01*
X490556Y314733D01*
X490608Y314722D01*
X490649Y314718D01*
X490664Y314715D01*
X490686D01*
X490753Y314718D01*
X490815Y314733D01*
X490871Y314752D01*
X490915Y314774D01*
X490952Y314792D01*
X490982Y314811D01*
X490997Y314826D01*
X491004Y314829D01*
X491049Y314881D01*
X491086Y314940D01*
X491119Y315003D01*
X491145Y315070D01*
X491163Y315125D01*
X491171Y315151D01*
X491174Y315173D01*
X491178Y315192D01*
X491182Y315207D01*
X491186Y315214D01*
Y315218D01*
X491500Y315177D01*
X491493Y315118D01*
X491481Y315062D01*
X491448Y314959D01*
X491407Y314870D01*
X491385Y314833D01*
X491363Y314796D01*
X491341Y314763D01*
X491319Y314737D01*
X491300Y314711D01*
X491282Y314692D01*
X491271Y314678D01*
X491259Y314667D01*
X491252Y314659D01*
X491248Y314655D01*
X491204Y314622D01*
X491160Y314589D01*
X491115Y314563D01*
X491067Y314541D01*
X490975Y314504D01*
X490886Y314481D01*
X490845Y314474D01*
X490808Y314467D01*
X490775Y314463D01*
X490745Y314459D01*
X490723Y314456D01*
X490690D01*
X490619Y314459D01*
X490556Y314467D01*
X490494Y314478D01*
X490434Y314493D01*
X490379Y314511D01*
X490331Y314530D01*
X490283Y314552D01*
X490242Y314574D01*
X490201Y314593D01*
X490168Y314615D01*
X490138Y314633D01*
X490116Y314652D01*
X490098Y314667D01*
X490083Y314678D01*
X490075Y314685D01*
X490072Y314689D01*
X490027Y314733D01*
X489990Y314781D01*
X489957Y314829D01*
X489927Y314877D01*
X489905Y314922D01*
X489883Y314970D01*
X489853Y315059D01*
X489846Y315099D01*
X489839Y315136D01*
X489831Y315170D01*
X489828Y315199D01*
X489824Y315222D01*
Y315240D01*
Y315251D01*
Y315255D01*
X489828Y315344D01*
X489842Y315425D01*
X489865Y315495D01*
X489887Y315554D01*
X489909Y315603D01*
X489931Y315640D01*
X489946Y315662D01*
X489950Y315669D01*
X490001Y315725D01*
X490057Y315773D01*
X490116Y315810D01*
X490175Y315839D01*
X490227Y315862D01*
X490268Y315876D01*
X490283Y315880D01*
X490294Y315884D01*
X490301Y315887D01*
X490305D01*
X490242Y315921D01*
X490190Y315954D01*
X490146Y315991D01*
X490109Y316024D01*
X490079Y316054D01*
X490057Y316080D01*
X490046Y316095D01*
X490042Y316102D01*
X490013Y316154D01*
X489990Y316206D01*
X489972Y316258D01*
X489961Y316306D01*
X489953Y316346D01*
X489950Y316376D01*
Y316398D01*
Y316406D01*
X489953Y316468D01*
X489964Y316531D01*
X489979Y316587D01*
X489998Y316635D01*
X490016Y316676D01*
X490031Y316709D01*
X490042Y316727D01*
X490046Y316735D01*
X490083Y316790D01*
X490127Y316838D01*
X490172Y316879D01*
X490216Y316916D01*
X490253Y316942D01*
X490286Y316964D01*
X490309Y316975D01*
X490312Y316979D01*
X490316D01*
X490383Y317009D01*
X490449Y317031D01*
X490516Y317049D01*
X490575Y317060D01*
X490623Y317068D01*
X490664Y317072D01*
X490756D01*
X490808Y317064D01*
D02*
G37*
G36*
X487822D02*
X487922Y317046D01*
X488007Y317016D01*
X488081Y316986D01*
X488115Y316968D01*
X488140Y316953D01*
X488166Y316938D01*
X488185Y316923D01*
X488200Y316912D01*
X488211Y316905D01*
X488218Y316901D01*
X488222Y316898D01*
X488292Y316827D01*
X488348Y316750D01*
X488392Y316668D01*
X488429Y316587D01*
X488451Y316516D01*
X488462Y316487D01*
X488470Y316461D01*
X488473Y316439D01*
X488477Y316424D01*
X488481Y316413D01*
Y316409D01*
X488166Y316354D01*
X488152Y316435D01*
X488129Y316505D01*
X488103Y316565D01*
X488077Y316613D01*
X488052Y316650D01*
X488029Y316676D01*
X488015Y316694D01*
X488011Y316698D01*
X487963Y316735D01*
X487911Y316764D01*
X487863Y316783D01*
X487815Y316798D01*
X487770Y316805D01*
X487737Y316812D01*
X487708D01*
X487641Y316809D01*
X487582Y316794D01*
X487530Y316775D01*
X487486Y316757D01*
X487452Y316735D01*
X487426Y316716D01*
X487408Y316702D01*
X487404Y316698D01*
X487363Y316653D01*
X487334Y316605D01*
X487315Y316557D01*
X487300Y316513D01*
X487293Y316472D01*
X487286Y316442D01*
Y316420D01*
Y316417D01*
Y316413D01*
Y316372D01*
X487293Y316335D01*
X487312Y316272D01*
X487337Y316217D01*
X487367Y316169D01*
X487397Y316135D01*
X487423Y316109D01*
X487441Y316095D01*
X487445Y316091D01*
X487449D01*
X487511Y316058D01*
X487571Y316032D01*
X487634Y316013D01*
X487689Y316002D01*
X487737Y315995D01*
X487778Y315987D01*
X487826D01*
X487841Y315991D01*
X487859D01*
X487896Y315714D01*
X487848Y315725D01*
X487804Y315732D01*
X487767Y315739D01*
X487733Y315743D01*
X487708Y315747D01*
X487674D01*
X487597Y315739D01*
X487526Y315725D01*
X487463Y315703D01*
X487411Y315677D01*
X487371Y315651D01*
X487341Y315629D01*
X487323Y315614D01*
X487315Y315606D01*
X487267Y315551D01*
X487230Y315492D01*
X487204Y315432D01*
X487189Y315373D01*
X487178Y315325D01*
X487175Y315284D01*
X487171Y315270D01*
Y315259D01*
Y315251D01*
Y315247D01*
X487178Y315166D01*
X487197Y315092D01*
X487219Y315029D01*
X487249Y314974D01*
X487278Y314929D01*
X487300Y314896D01*
X487319Y314874D01*
X487326Y314866D01*
X487386Y314814D01*
X487449Y314777D01*
X487511Y314752D01*
X487571Y314733D01*
X487622Y314722D01*
X487663Y314718D01*
X487678Y314715D01*
X487700D01*
X487767Y314718D01*
X487830Y314733D01*
X487885Y314752D01*
X487929Y314774D01*
X487966Y314792D01*
X487996Y314811D01*
X488011Y314826D01*
X488018Y314829D01*
X488063Y314881D01*
X488100Y314940D01*
X488133Y315003D01*
X488159Y315070D01*
X488177Y315125D01*
X488185Y315151D01*
X488189Y315173D01*
X488192Y315192D01*
X488196Y315207D01*
X488200Y315214D01*
Y315218D01*
X488514Y315177D01*
X488507Y315118D01*
X488496Y315062D01*
X488462Y314959D01*
X488422Y314870D01*
X488399Y314833D01*
X488377Y314796D01*
X488355Y314763D01*
X488333Y314737D01*
X488314Y314711D01*
X488296Y314692D01*
X488285Y314678D01*
X488274Y314667D01*
X488266Y314659D01*
X488263Y314655D01*
X488218Y314622D01*
X488174Y314589D01*
X488129Y314563D01*
X488081Y314541D01*
X487989Y314504D01*
X487900Y314481D01*
X487859Y314474D01*
X487822Y314467D01*
X487789Y314463D01*
X487759Y314459D01*
X487737Y314456D01*
X487704D01*
X487634Y314459D01*
X487571Y314467D01*
X487508Y314478D01*
X487449Y314493D01*
X487393Y314511D01*
X487345Y314530D01*
X487297Y314552D01*
X487256Y314574D01*
X487215Y314593D01*
X487182Y314615D01*
X487152Y314633D01*
X487130Y314652D01*
X487112Y314667D01*
X487097Y314678D01*
X487090Y314685D01*
X487086Y314689D01*
X487042Y314733D01*
X487005Y314781D01*
X486971Y314829D01*
X486942Y314877D01*
X486919Y314922D01*
X486897Y314970D01*
X486868Y315059D01*
X486860Y315099D01*
X486853Y315136D01*
X486845Y315170D01*
X486842Y315199D01*
X486838Y315222D01*
Y315240D01*
Y315251D01*
Y315255D01*
X486842Y315344D01*
X486857Y315425D01*
X486879Y315495D01*
X486901Y315554D01*
X486923Y315603D01*
X486945Y315640D01*
X486960Y315662D01*
X486964Y315669D01*
X487016Y315725D01*
X487071Y315773D01*
X487130Y315810D01*
X487189Y315839D01*
X487241Y315862D01*
X487282Y315876D01*
X487297Y315880D01*
X487308Y315884D01*
X487315Y315887D01*
X487319D01*
X487256Y315921D01*
X487204Y315954D01*
X487160Y315991D01*
X487123Y316024D01*
X487093Y316054D01*
X487071Y316080D01*
X487060Y316095D01*
X487056Y316102D01*
X487027Y316154D01*
X487005Y316206D01*
X486986Y316258D01*
X486975Y316306D01*
X486968Y316346D01*
X486964Y316376D01*
Y316398D01*
Y316406D01*
X486968Y316468D01*
X486979Y316531D01*
X486993Y316587D01*
X487012Y316635D01*
X487030Y316676D01*
X487045Y316709D01*
X487056Y316727D01*
X487060Y316735D01*
X487097Y316790D01*
X487141Y316838D01*
X487186Y316879D01*
X487230Y316916D01*
X487267Y316942D01*
X487300Y316964D01*
X487323Y316975D01*
X487326Y316979D01*
X487330D01*
X487397Y317009D01*
X487463Y317031D01*
X487530Y317049D01*
X487589Y317060D01*
X487637Y317068D01*
X487678Y317072D01*
X487770D01*
X487822Y317064D01*
D02*
G37*
G36*
X489335Y314500D02*
X488977D01*
Y314859D01*
X489335D01*
Y314500D01*
D02*
G37*
G36*
X489402Y306210D02*
X489106Y306169D01*
X489080Y306210D01*
X489047Y306243D01*
X489017Y306276D01*
X488988Y306302D01*
X488958Y306321D01*
X488936Y306339D01*
X488921Y306347D01*
X488917Y306350D01*
X488869Y306373D01*
X488821Y306391D01*
X488777Y306402D01*
X488732Y306413D01*
X488695Y306417D01*
X488666Y306421D01*
X488595D01*
X488551Y306413D01*
X488473Y306395D01*
X488407Y306369D01*
X488348Y306343D01*
X488303Y306313D01*
X488270Y306288D01*
X488251Y306269D01*
X488244Y306265D01*
Y306262D01*
X488192Y306199D01*
X488155Y306132D01*
X488129Y306062D01*
X488111Y305992D01*
X488100Y305932D01*
X488096Y305907D01*
Y305884D01*
X488092Y305866D01*
Y305851D01*
Y305844D01*
Y305840D01*
Y305788D01*
X488100Y305740D01*
X488118Y305647D01*
X488144Y305570D01*
X488170Y305507D01*
X488200Y305455D01*
X488226Y305414D01*
X488237Y305403D01*
X488244Y305392D01*
X488248Y305388D01*
X488251Y305385D01*
X488281Y305355D01*
X488311Y305329D01*
X488377Y305285D01*
X488440Y305255D01*
X488503Y305237D01*
X488555Y305222D01*
X488599Y305218D01*
X488614Y305215D01*
X488636D01*
X488706Y305218D01*
X488769Y305233D01*
X488825Y305252D01*
X488869Y305274D01*
X488910Y305296D01*
X488940Y305314D01*
X488954Y305329D01*
X488962Y305333D01*
X489006Y305385D01*
X489043Y305440D01*
X489073Y305503D01*
X489095Y305559D01*
X489110Y305614D01*
X489121Y305655D01*
X489125Y305673D01*
X489128Y305684D01*
Y305692D01*
Y305696D01*
X489458Y305670D01*
X489450Y305610D01*
X489439Y305555D01*
X489406Y305451D01*
X489365Y305363D01*
X489343Y305322D01*
X489321Y305289D01*
X489302Y305255D01*
X489280Y305226D01*
X489261Y305204D01*
X489243Y305185D01*
X489228Y305170D01*
X489221Y305155D01*
X489213Y305152D01*
X489210Y305148D01*
X489165Y305115D01*
X489121Y305085D01*
X489073Y305059D01*
X489025Y305037D01*
X488932Y305004D01*
X488840Y304981D01*
X488799Y304970D01*
X488758Y304967D01*
X488725Y304963D01*
X488695Y304959D01*
X488669Y304956D01*
X488636D01*
X488558Y304959D01*
X488484Y304970D01*
X488414Y304985D01*
X488351Y305004D01*
X488292Y305030D01*
X488237Y305055D01*
X488185Y305081D01*
X488140Y305111D01*
X488100Y305141D01*
X488063Y305167D01*
X488033Y305196D01*
X488007Y305218D01*
X487989Y305237D01*
X487974Y305252D01*
X487966Y305263D01*
X487963Y305266D01*
X487926Y305314D01*
X487896Y305366D01*
X487867Y305414D01*
X487844Y305466D01*
X487807Y305566D01*
X487785Y305662D01*
X487778Y305703D01*
X487770Y305744D01*
X487767Y305777D01*
X487763Y305807D01*
X487759Y305833D01*
Y305851D01*
Y305862D01*
Y305866D01*
X487763Y305932D01*
X487770Y305995D01*
X487781Y306058D01*
X487796Y306114D01*
X487815Y306166D01*
X487833Y306217D01*
X487855Y306262D01*
X487874Y306302D01*
X487896Y306339D01*
X487918Y306373D01*
X487937Y306399D01*
X487955Y306424D01*
X487970Y306443D01*
X487981Y306454D01*
X487989Y306462D01*
X487992Y306465D01*
X488037Y306506D01*
X488081Y306543D01*
X488129Y306573D01*
X488177Y306598D01*
X488226Y306624D01*
X488274Y306643D01*
X488362Y306669D01*
X488403Y306680D01*
X488440Y306687D01*
X488473Y306691D01*
X488503Y306695D01*
X488525Y306698D01*
X488607D01*
X488651Y306691D01*
X488740Y306672D01*
X488821Y306646D01*
X488895Y306617D01*
X488954Y306587D01*
X488980Y306573D01*
X489003Y306561D01*
X489021Y306550D01*
X489032Y306543D01*
X489040Y306539D01*
X489043Y306536D01*
X488906Y307227D01*
X487881D01*
Y307527D01*
X489154D01*
X489402Y306210D01*
D02*
G37*
G36*
X490804Y306410D02*
X491500D01*
Y306117D01*
X490804D01*
Y305414D01*
X490508D01*
Y306117D01*
X489813D01*
Y306410D01*
X490508D01*
Y307105D01*
X490804D01*
Y306410D01*
D02*
G37*
G36*
X486612Y305000D02*
X486257D01*
X485258Y307560D01*
X485602D01*
X486298Y305699D01*
X486327Y305622D01*
X486353Y305548D01*
X486376Y305477D01*
X486394Y305414D01*
X486412Y305359D01*
X486424Y305318D01*
X486427Y305303D01*
X486431Y305292D01*
X486435Y305285D01*
Y305281D01*
X486479Y305429D01*
X486501Y305500D01*
X486523Y305562D01*
X486542Y305618D01*
X486549Y305640D01*
X486553Y305662D01*
X486560Y305677D01*
X486564Y305688D01*
X486568Y305696D01*
Y305699D01*
X487234Y307560D01*
X487604D01*
X486612Y305000D01*
D02*
G37*
G36*
X491500Y285500D02*
X491141D01*
X490864Y286277D01*
X489791D01*
X489491Y285500D01*
X489106D01*
X490153Y288060D01*
X490523D01*
X491500Y285500D01*
D02*
G37*
G36*
X488940Y287724D02*
X487685D01*
X487774Y287616D01*
X487859Y287502D01*
X487933Y287391D01*
X488003Y287283D01*
X488033Y287235D01*
X488059Y287191D01*
X488085Y287150D01*
X488103Y287117D01*
X488118Y287087D01*
X488129Y287069D01*
X488137Y287054D01*
X488140Y287050D01*
X488214Y286902D01*
X488281Y286754D01*
X488337Y286614D01*
X488359Y286551D01*
X488381Y286488D01*
X488403Y286432D01*
X488418Y286381D01*
X488433Y286336D01*
X488444Y286299D01*
X488455Y286266D01*
X488462Y286244D01*
X488466Y286229D01*
Y286225D01*
X488503Y286073D01*
X488518Y285999D01*
X488529Y285933D01*
X488540Y285870D01*
X488551Y285807D01*
X488558Y285755D01*
X488566Y285703D01*
X488570Y285659D01*
X488573Y285618D01*
X488577Y285581D01*
Y285552D01*
X488581Y285530D01*
Y285515D01*
Y285504D01*
Y285500D01*
X488259D01*
X488248Y285641D01*
X488229Y285770D01*
X488211Y285889D01*
X488200Y285944D01*
X488189Y285996D01*
X488181Y286040D01*
X488170Y286081D01*
X488163Y286118D01*
X488155Y286147D01*
X488148Y286170D01*
X488144Y286188D01*
X488140Y286199D01*
Y286203D01*
X488085Y286373D01*
X488026Y286532D01*
X487996Y286610D01*
X487966Y286684D01*
X487933Y286751D01*
X487904Y286817D01*
X487878Y286876D01*
X487852Y286928D01*
X487830Y286973D01*
X487811Y287013D01*
X487793Y287047D01*
X487781Y287069D01*
X487774Y287084D01*
X487770Y287087D01*
X487726Y287165D01*
X487682Y287243D01*
X487637Y287313D01*
X487593Y287380D01*
X487552Y287439D01*
X487511Y287498D01*
X487471Y287550D01*
X487437Y287594D01*
X487404Y287639D01*
X487374Y287676D01*
X487345Y287705D01*
X487323Y287731D01*
X487308Y287753D01*
X487293Y287768D01*
X487286Y287775D01*
X487282Y287779D01*
Y288027D01*
X488940D01*
Y287724D01*
D02*
G37*
G36*
X488129Y278068D02*
X488200Y278060D01*
X488266Y278046D01*
X488329Y278027D01*
X488385Y278001D01*
X488440Y277979D01*
X488488Y277949D01*
X488533Y277923D01*
X488570Y277898D01*
X488607Y277868D01*
X488636Y277846D01*
X488658Y277824D01*
X488677Y277801D01*
X488692Y277787D01*
X488699Y277779D01*
X488703Y277776D01*
X488751Y277709D01*
X488792Y277631D01*
X488829Y277550D01*
X488862Y277465D01*
X488888Y277376D01*
X488910Y277287D01*
X488929Y277195D01*
X488943Y277110D01*
X488954Y277024D01*
X488962Y276947D01*
X488969Y276876D01*
X488973Y276817D01*
Y276765D01*
X488977Y276728D01*
Y276714D01*
Y276702D01*
Y276699D01*
Y276695D01*
X488973Y276577D01*
X488966Y276466D01*
X488954Y276362D01*
X488936Y276266D01*
X488917Y276181D01*
X488899Y276103D01*
X488877Y276033D01*
X488851Y275970D01*
X488829Y275918D01*
X488806Y275870D01*
X488788Y275833D01*
X488766Y275800D01*
X488751Y275774D01*
X488740Y275759D01*
X488732Y275748D01*
X488729Y275744D01*
X488681Y275692D01*
X488629Y275648D01*
X488577Y275611D01*
X488525Y275578D01*
X488470Y275548D01*
X488418Y275526D01*
X488366Y275507D01*
X488314Y275493D01*
X488270Y275482D01*
X488226Y275470D01*
X488189Y275463D01*
X488155Y275459D01*
X488126D01*
X488107Y275456D01*
X488089D01*
X488003Y275459D01*
X487926Y275474D01*
X487855Y275489D01*
X487793Y275511D01*
X487745Y275530D01*
X487708Y275548D01*
X487693Y275552D01*
X487682Y275559D01*
X487678Y275563D01*
X487674D01*
X487611Y275607D01*
X487552Y275659D01*
X487504Y275711D01*
X487463Y275763D01*
X487430Y275811D01*
X487408Y275848D01*
X487400Y275863D01*
X487393Y275874D01*
X487389Y275877D01*
Y275881D01*
X487352Y275959D01*
X487326Y276040D01*
X487308Y276114D01*
X487297Y276185D01*
X487286Y276244D01*
Y276266D01*
X487282Y276288D01*
Y276307D01*
Y276318D01*
Y276325D01*
Y276329D01*
X487286Y276395D01*
X487293Y276458D01*
X487304Y276521D01*
X487315Y276577D01*
X487334Y276628D01*
X487352Y276680D01*
X487371Y276725D01*
X487393Y276765D01*
X487415Y276802D01*
X487434Y276836D01*
X487452Y276862D01*
X487471Y276887D01*
X487482Y276906D01*
X487493Y276917D01*
X487500Y276924D01*
X487504Y276928D01*
X487545Y276969D01*
X487589Y277006D01*
X487637Y277035D01*
X487682Y277061D01*
X487726Y277087D01*
X487770Y277106D01*
X487855Y277132D01*
X487892Y277143D01*
X487929Y277150D01*
X487959Y277154D01*
X487989Y277158D01*
X488011Y277161D01*
X488040D01*
X488107Y277158D01*
X488170Y277147D01*
X488229Y277135D01*
X488281Y277121D01*
X488325Y277102D01*
X488359Y277091D01*
X488381Y277080D01*
X488385Y277076D01*
X488388D01*
X488448Y277039D01*
X488499Y276998D01*
X488547Y276958D01*
X488584Y276913D01*
X488618Y276876D01*
X488644Y276847D01*
X488658Y276825D01*
X488662Y276821D01*
Y276887D01*
X488658Y276954D01*
X488655Y277013D01*
X488647Y277073D01*
X488644Y277124D01*
X488636Y277172D01*
X488629Y277217D01*
X488618Y277257D01*
X488610Y277294D01*
X488603Y277324D01*
X488595Y277350D01*
X488592Y277372D01*
X488584Y277387D01*
X488581Y277398D01*
X488577Y277406D01*
Y277409D01*
X488540Y277483D01*
X488503Y277550D01*
X488462Y277602D01*
X488425Y277646D01*
X488392Y277683D01*
X488366Y277709D01*
X488348Y277724D01*
X488340Y277727D01*
X488296Y277757D01*
X488251Y277776D01*
X488207Y277790D01*
X488163Y277801D01*
X488129Y277809D01*
X488100Y277813D01*
X488074D01*
X488007Y277805D01*
X487944Y277790D01*
X487892Y277768D01*
X487844Y277746D01*
X487807Y277720D01*
X487781Y277698D01*
X487767Y277683D01*
X487759Y277676D01*
X487733Y277642D01*
X487708Y277602D01*
X487685Y277557D01*
X487671Y277513D01*
X487656Y277472D01*
X487645Y277439D01*
X487641Y277417D01*
X487637Y277413D01*
Y277409D01*
X487323Y277435D01*
X487345Y277539D01*
X487378Y277631D01*
X487415Y277713D01*
X487456Y277779D01*
X487497Y277831D01*
X487511Y277853D01*
X487530Y277872D01*
X487541Y277883D01*
X487552Y277894D01*
X487556Y277898D01*
X487560Y277901D01*
X487597Y277931D01*
X487637Y277957D01*
X487719Y278001D01*
X487800Y278031D01*
X487878Y278049D01*
X487948Y278064D01*
X487978Y278068D01*
X488003D01*
X488026Y278071D01*
X488055D01*
X488129Y278068D01*
D02*
G37*
G36*
X491500Y275500D02*
X491141D01*
X490864Y276277D01*
X489791D01*
X489491Y275500D01*
X489106D01*
X490153Y278060D01*
X490523D01*
X491500Y275500D01*
D02*
G37*
G36*
X488906Y266710D02*
X488610Y266669D01*
X488584Y266710D01*
X488551Y266743D01*
X488521Y266776D01*
X488492Y266802D01*
X488462Y266821D01*
X488440Y266839D01*
X488425Y266847D01*
X488422Y266850D01*
X488374Y266873D01*
X488325Y266891D01*
X488281Y266902D01*
X488237Y266913D01*
X488200Y266917D01*
X488170Y266921D01*
X488100D01*
X488055Y266913D01*
X487978Y266895D01*
X487911Y266869D01*
X487852Y266843D01*
X487807Y266813D01*
X487774Y266788D01*
X487756Y266769D01*
X487748Y266765D01*
Y266762D01*
X487696Y266699D01*
X487659Y266632D01*
X487634Y266562D01*
X487615Y266492D01*
X487604Y266432D01*
X487600Y266406D01*
Y266384D01*
X487597Y266366D01*
Y266351D01*
Y266344D01*
Y266340D01*
Y266288D01*
X487604Y266240D01*
X487622Y266147D01*
X487648Y266070D01*
X487674Y266007D01*
X487704Y265955D01*
X487730Y265914D01*
X487741Y265903D01*
X487748Y265892D01*
X487752Y265889D01*
X487756Y265885D01*
X487785Y265855D01*
X487815Y265829D01*
X487881Y265785D01*
X487944Y265755D01*
X488007Y265737D01*
X488059Y265722D01*
X488103Y265718D01*
X488118Y265715D01*
X488140D01*
X488211Y265718D01*
X488274Y265733D01*
X488329Y265752D01*
X488374Y265774D01*
X488414Y265796D01*
X488444Y265814D01*
X488459Y265829D01*
X488466Y265833D01*
X488510Y265885D01*
X488547Y265940D01*
X488577Y266003D01*
X488599Y266059D01*
X488614Y266114D01*
X488625Y266155D01*
X488629Y266173D01*
X488632Y266184D01*
Y266192D01*
Y266196D01*
X488962Y266170D01*
X488954Y266110D01*
X488943Y266055D01*
X488910Y265951D01*
X488869Y265863D01*
X488847Y265822D01*
X488825Y265789D01*
X488806Y265755D01*
X488784Y265726D01*
X488766Y265704D01*
X488747Y265685D01*
X488732Y265670D01*
X488725Y265655D01*
X488718Y265652D01*
X488714Y265648D01*
X488669Y265615D01*
X488625Y265585D01*
X488577Y265559D01*
X488529Y265537D01*
X488436Y265504D01*
X488344Y265481D01*
X488303Y265470D01*
X488263Y265467D01*
X488229Y265463D01*
X488200Y265459D01*
X488174Y265456D01*
X488140D01*
X488063Y265459D01*
X487989Y265470D01*
X487918Y265485D01*
X487855Y265504D01*
X487796Y265530D01*
X487741Y265556D01*
X487689Y265581D01*
X487645Y265611D01*
X487604Y265641D01*
X487567Y265667D01*
X487537Y265696D01*
X487511Y265718D01*
X487493Y265737D01*
X487478Y265752D01*
X487471Y265763D01*
X487467Y265766D01*
X487430Y265814D01*
X487400Y265866D01*
X487371Y265914D01*
X487349Y265966D01*
X487312Y266066D01*
X487289Y266162D01*
X487282Y266203D01*
X487275Y266244D01*
X487271Y266277D01*
X487267Y266307D01*
X487263Y266333D01*
Y266351D01*
Y266362D01*
Y266366D01*
X487267Y266432D01*
X487275Y266495D01*
X487286Y266558D01*
X487300Y266614D01*
X487319Y266666D01*
X487337Y266717D01*
X487360Y266762D01*
X487378Y266802D01*
X487400Y266839D01*
X487423Y266873D01*
X487441Y266899D01*
X487460Y266925D01*
X487474Y266943D01*
X487486Y266954D01*
X487493Y266962D01*
X487497Y266965D01*
X487541Y267006D01*
X487585Y267043D01*
X487634Y267073D01*
X487682Y267098D01*
X487730Y267124D01*
X487778Y267143D01*
X487867Y267169D01*
X487907Y267180D01*
X487944Y267187D01*
X487978Y267191D01*
X488007Y267195D01*
X488029Y267198D01*
X488111D01*
X488155Y267191D01*
X488244Y267172D01*
X488325Y267146D01*
X488399Y267117D01*
X488459Y267087D01*
X488484Y267073D01*
X488507Y267061D01*
X488525Y267050D01*
X488536Y267043D01*
X488544Y267039D01*
X488547Y267036D01*
X488411Y267727D01*
X487386D01*
Y268027D01*
X488658D01*
X488906Y266710D01*
D02*
G37*
G36*
X491500Y265500D02*
X491141D01*
X490864Y266277D01*
X489791D01*
X489491Y265500D01*
X489106D01*
X490153Y268060D01*
X490523D01*
X491500Y265500D01*
D02*
G37*
G36*
X488266Y248064D02*
X488366Y248046D01*
X488451Y248016D01*
X488525Y247986D01*
X488558Y247968D01*
X488584Y247953D01*
X488610Y247938D01*
X488629Y247923D01*
X488644Y247912D01*
X488655Y247905D01*
X488662Y247901D01*
X488666Y247898D01*
X488736Y247827D01*
X488792Y247750D01*
X488836Y247668D01*
X488873Y247587D01*
X488895Y247516D01*
X488906Y247487D01*
X488914Y247461D01*
X488917Y247439D01*
X488921Y247424D01*
X488925Y247413D01*
Y247409D01*
X488610Y247354D01*
X488595Y247435D01*
X488573Y247505D01*
X488547Y247565D01*
X488521Y247613D01*
X488496Y247650D01*
X488473Y247676D01*
X488459Y247694D01*
X488455Y247698D01*
X488407Y247735D01*
X488355Y247764D01*
X488307Y247783D01*
X488259Y247798D01*
X488214Y247805D01*
X488181Y247813D01*
X488152D01*
X488085Y247809D01*
X488026Y247794D01*
X487974Y247776D01*
X487929Y247757D01*
X487896Y247735D01*
X487870Y247716D01*
X487852Y247702D01*
X487848Y247698D01*
X487807Y247653D01*
X487778Y247605D01*
X487759Y247557D01*
X487745Y247513D01*
X487737Y247472D01*
X487730Y247443D01*
Y247420D01*
Y247417D01*
Y247413D01*
Y247372D01*
X487737Y247335D01*
X487756Y247272D01*
X487781Y247217D01*
X487811Y247169D01*
X487841Y247135D01*
X487867Y247110D01*
X487885Y247095D01*
X487889Y247091D01*
X487892D01*
X487955Y247058D01*
X488015Y247032D01*
X488077Y247013D01*
X488133Y247002D01*
X488181Y246995D01*
X488222Y246987D01*
X488270D01*
X488285Y246991D01*
X488303D01*
X488340Y246714D01*
X488292Y246725D01*
X488248Y246732D01*
X488211Y246740D01*
X488177Y246743D01*
X488152Y246747D01*
X488118D01*
X488040Y246740D01*
X487970Y246725D01*
X487907Y246703D01*
X487855Y246677D01*
X487815Y246651D01*
X487785Y246628D01*
X487767Y246614D01*
X487759Y246606D01*
X487711Y246551D01*
X487674Y246492D01*
X487648Y246432D01*
X487634Y246373D01*
X487622Y246325D01*
X487619Y246284D01*
X487615Y246270D01*
Y246258D01*
Y246251D01*
Y246247D01*
X487622Y246166D01*
X487641Y246092D01*
X487663Y246029D01*
X487693Y245974D01*
X487722Y245929D01*
X487745Y245896D01*
X487763Y245874D01*
X487770Y245866D01*
X487830Y245814D01*
X487892Y245778D01*
X487955Y245752D01*
X488015Y245733D01*
X488066Y245722D01*
X488107Y245718D01*
X488122Y245715D01*
X488144D01*
X488211Y245718D01*
X488274Y245733D01*
X488329Y245752D01*
X488374Y245774D01*
X488411Y245792D01*
X488440Y245811D01*
X488455Y245826D01*
X488462Y245829D01*
X488507Y245881D01*
X488544Y245940D01*
X488577Y246003D01*
X488603Y246070D01*
X488621Y246125D01*
X488629Y246151D01*
X488632Y246173D01*
X488636Y246192D01*
X488640Y246207D01*
X488644Y246214D01*
Y246218D01*
X488958Y246177D01*
X488951Y246118D01*
X488940Y246062D01*
X488906Y245959D01*
X488866Y245870D01*
X488843Y245833D01*
X488821Y245796D01*
X488799Y245763D01*
X488777Y245737D01*
X488758Y245711D01*
X488740Y245692D01*
X488729Y245678D01*
X488718Y245667D01*
X488710Y245659D01*
X488706Y245655D01*
X488662Y245622D01*
X488618Y245589D01*
X488573Y245563D01*
X488525Y245541D01*
X488433Y245504D01*
X488344Y245481D01*
X488303Y245474D01*
X488266Y245467D01*
X488233Y245463D01*
X488203Y245459D01*
X488181Y245456D01*
X488148D01*
X488077Y245459D01*
X488015Y245467D01*
X487952Y245478D01*
X487892Y245493D01*
X487837Y245511D01*
X487789Y245530D01*
X487741Y245552D01*
X487700Y245574D01*
X487659Y245592D01*
X487626Y245615D01*
X487597Y245633D01*
X487574Y245652D01*
X487556Y245667D01*
X487541Y245678D01*
X487534Y245685D01*
X487530Y245689D01*
X487486Y245733D01*
X487449Y245781D01*
X487415Y245829D01*
X487386Y245877D01*
X487363Y245922D01*
X487341Y245970D01*
X487312Y246059D01*
X487304Y246099D01*
X487297Y246136D01*
X487289Y246170D01*
X487286Y246199D01*
X487282Y246221D01*
Y246240D01*
Y246251D01*
Y246255D01*
X487286Y246344D01*
X487300Y246425D01*
X487323Y246495D01*
X487345Y246554D01*
X487367Y246603D01*
X487389Y246640D01*
X487404Y246662D01*
X487408Y246669D01*
X487460Y246725D01*
X487515Y246773D01*
X487574Y246810D01*
X487634Y246839D01*
X487685Y246862D01*
X487726Y246876D01*
X487741Y246880D01*
X487752Y246884D01*
X487759Y246887D01*
X487763D01*
X487700Y246921D01*
X487648Y246954D01*
X487604Y246991D01*
X487567Y247024D01*
X487537Y247054D01*
X487515Y247080D01*
X487504Y247095D01*
X487500Y247102D01*
X487471Y247154D01*
X487449Y247206D01*
X487430Y247257D01*
X487419Y247306D01*
X487411Y247346D01*
X487408Y247376D01*
Y247398D01*
Y247406D01*
X487411Y247468D01*
X487423Y247531D01*
X487437Y247587D01*
X487456Y247635D01*
X487474Y247676D01*
X487489Y247709D01*
X487500Y247727D01*
X487504Y247735D01*
X487541Y247790D01*
X487585Y247838D01*
X487630Y247879D01*
X487674Y247916D01*
X487711Y247942D01*
X487745Y247964D01*
X487767Y247975D01*
X487770Y247979D01*
X487774D01*
X487841Y248009D01*
X487907Y248031D01*
X487974Y248049D01*
X488033Y248060D01*
X488081Y248068D01*
X488122Y248072D01*
X488214D01*
X488266Y248064D01*
D02*
G37*
G36*
X491500Y245500D02*
X491141D01*
X490864Y246277D01*
X489791D01*
X489491Y245500D01*
X489106D01*
X490153Y248060D01*
X490523D01*
X491500Y245500D01*
D02*
G37*
G36*
X488181Y238068D02*
X488244Y238064D01*
X488303Y238053D01*
X488359Y238042D01*
X488411Y238027D01*
X488459Y238012D01*
X488503Y237994D01*
X488544Y237975D01*
X488581Y237957D01*
X488610Y237938D01*
X488636Y237924D01*
X488658Y237909D01*
X488677Y237898D01*
X488688Y237887D01*
X488695Y237883D01*
X488699Y237879D01*
X488736Y237842D01*
X488769Y237801D01*
X488803Y237757D01*
X488829Y237713D01*
X488873Y237624D01*
X488903Y237535D01*
X488914Y237494D01*
X488925Y237454D01*
X488932Y237420D01*
X488940Y237391D01*
X488943Y237365D01*
Y237346D01*
X488947Y237335D01*
Y237332D01*
X488625Y237298D01*
X488618Y237383D01*
X488603Y237457D01*
X488581Y237524D01*
X488555Y237576D01*
X488533Y237620D01*
X488510Y237650D01*
X488496Y237668D01*
X488488Y237676D01*
X488433Y237720D01*
X488374Y237753D01*
X488311Y237779D01*
X488255Y237794D01*
X488203Y237805D01*
X488159Y237809D01*
X488144Y237812D01*
X488122D01*
X488044Y237809D01*
X487974Y237794D01*
X487915Y237772D01*
X487863Y237750D01*
X487822Y237724D01*
X487796Y237705D01*
X487778Y237690D01*
X487770Y237683D01*
X487726Y237631D01*
X487693Y237579D01*
X487667Y237528D01*
X487652Y237476D01*
X487641Y237435D01*
X487637Y237398D01*
X487634Y237376D01*
Y237372D01*
Y237368D01*
X487641Y237302D01*
X487656Y237232D01*
X487682Y237169D01*
X487708Y237109D01*
X487737Y237061D01*
X487763Y237021D01*
X487770Y237006D01*
X487778Y236995D01*
X487785Y236991D01*
Y236987D01*
X487815Y236947D01*
X487852Y236906D01*
X487892Y236862D01*
X487937Y236817D01*
X488029Y236728D01*
X488122Y236640D01*
X488170Y236599D01*
X488211Y236562D01*
X488251Y236529D01*
X488285Y236499D01*
X488311Y236477D01*
X488333Y236458D01*
X488348Y236447D01*
X488351Y236443D01*
X488444Y236366D01*
X488529Y236292D01*
X488599Y236225D01*
X488655Y236170D01*
X488703Y236122D01*
X488736Y236088D01*
X488755Y236066D01*
X488762Y236062D01*
Y236059D01*
X488814Y235996D01*
X488855Y235937D01*
X488892Y235877D01*
X488921Y235826D01*
X488943Y235781D01*
X488958Y235748D01*
X488966Y235726D01*
X488969Y235722D01*
Y235718D01*
X488984Y235678D01*
X488991Y235641D01*
X488999Y235604D01*
X489003Y235570D01*
X489006Y235541D01*
Y235519D01*
Y235504D01*
Y235500D01*
X487308D01*
Y235803D01*
X488570D01*
X488525Y235866D01*
X488503Y235892D01*
X488484Y235918D01*
X488466Y235940D01*
X488451Y235955D01*
X488440Y235966D01*
X488436Y235970D01*
X488418Y235988D01*
X488396Y236007D01*
X488344Y236055D01*
X488285Y236110D01*
X488222Y236166D01*
X488163Y236214D01*
X488137Y236236D01*
X488115Y236259D01*
X488096Y236273D01*
X488081Y236284D01*
X488074Y236292D01*
X488070Y236296D01*
X488011Y236347D01*
X487952Y236395D01*
X487900Y236443D01*
X487852Y236484D01*
X487807Y236525D01*
X487770Y236562D01*
X487733Y236595D01*
X487704Y236625D01*
X487674Y236654D01*
X487652Y236677D01*
X487634Y236695D01*
X487615Y236714D01*
X487597Y236736D01*
X487589Y236743D01*
X487537Y236806D01*
X487493Y236862D01*
X487456Y236917D01*
X487426Y236962D01*
X487404Y237002D01*
X487389Y237032D01*
X487382Y237050D01*
X487378Y237058D01*
X487356Y237113D01*
X487341Y237169D01*
X487326Y237221D01*
X487319Y237265D01*
X487315Y237306D01*
X487312Y237335D01*
Y237354D01*
Y237361D01*
X487315Y237417D01*
X487323Y237468D01*
X487330Y237520D01*
X487345Y237565D01*
X487382Y237653D01*
X487419Y237724D01*
X487441Y237757D01*
X487460Y237783D01*
X487478Y237809D01*
X487497Y237827D01*
X487511Y237842D01*
X487519Y237857D01*
X487526Y237861D01*
X487530Y237864D01*
X487571Y237901D01*
X487615Y237935D01*
X487663Y237961D01*
X487711Y237983D01*
X487807Y238020D01*
X487904Y238046D01*
X487944Y238053D01*
X487985Y238060D01*
X488022Y238064D01*
X488052Y238068D01*
X488077Y238071D01*
X488115D01*
X488181Y238068D01*
D02*
G37*
G36*
X491500Y235500D02*
X491141D01*
X490864Y236277D01*
X489791D01*
X489491Y235500D01*
X489106D01*
X490153Y238060D01*
X490523D01*
X491500Y235500D01*
D02*
G37*
G36*
X488371Y229509D02*
X488411Y229449D01*
X488459Y229390D01*
X488504Y229338D01*
X488548Y229294D01*
X488582Y229257D01*
X488596Y229246D01*
X488607Y229235D01*
X488611Y229231D01*
X488615Y229227D01*
X488693Y229165D01*
X488770Y229105D01*
X488844Y229053D01*
X488918Y229013D01*
X488981Y228976D01*
X489007Y228961D01*
X489029Y228950D01*
X489048Y228939D01*
X489062Y228935D01*
X489070Y228928D01*
X489074D01*
Y228624D01*
X489018Y228646D01*
X488963Y228672D01*
X488907Y228698D01*
X488855Y228724D01*
X488811Y228746D01*
X488774Y228765D01*
X488752Y228780D01*
X488748Y228783D01*
X488744D01*
X488678Y228824D01*
X488619Y228865D01*
X488567Y228902D01*
X488526Y228935D01*
X488489Y228961D01*
X488467Y228983D01*
X488448Y228998D01*
X488445Y229002D01*
Y227000D01*
X488130D01*
Y229572D01*
X488334D01*
X488371Y229509D01*
D02*
G37*
G36*
X491852Y227000D02*
X491493D01*
X491216Y227777D01*
X490143D01*
X489843Y227000D01*
X489458D01*
X490506Y229560D01*
X490875D01*
X491852Y227000D01*
D02*
G37*
G36*
X488514Y203009D02*
X488555Y202949D01*
X488603Y202890D01*
X488647Y202838D01*
X488692Y202794D01*
X488725Y202757D01*
X488740Y202746D01*
X488751Y202735D01*
X488755Y202731D01*
X488758Y202727D01*
X488836Y202664D01*
X488914Y202605D01*
X488988Y202554D01*
X489062Y202513D01*
X489125Y202476D01*
X489150Y202461D01*
X489173Y202450D01*
X489191Y202439D01*
X489206Y202435D01*
X489213Y202428D01*
X489217D01*
Y202124D01*
X489162Y202147D01*
X489106Y202172D01*
X489051Y202198D01*
X488999Y202224D01*
X488954Y202246D01*
X488917Y202265D01*
X488895Y202280D01*
X488892Y202283D01*
X488888D01*
X488821Y202324D01*
X488762Y202365D01*
X488710Y202402D01*
X488669Y202435D01*
X488632Y202461D01*
X488610Y202483D01*
X488592Y202498D01*
X488588Y202502D01*
Y200500D01*
X488274D01*
Y203071D01*
X488477D01*
X488514Y203009D01*
D02*
G37*
G36*
X491500Y200500D02*
X491160D01*
Y201662D01*
X489957D01*
Y201965D01*
X491160D01*
Y202757D01*
X489768D01*
Y203060D01*
X491500D01*
Y200500D01*
D02*
G37*
G36*
X460573Y317989D02*
X460656Y317972D01*
X460812Y317922D01*
X460945Y317861D01*
X461000Y317828D01*
X461056Y317795D01*
X461106Y317761D01*
X461145Y317728D01*
X461184Y317700D01*
X461211Y317673D01*
X461234Y317656D01*
X461250Y317639D01*
X461261Y317628D01*
X461267Y317623D01*
X461317Y317556D01*
X461367Y317489D01*
X461406Y317423D01*
X461439Y317351D01*
X461494Y317212D01*
X461528Y317079D01*
X461539Y317018D01*
X461550Y316962D01*
X461555Y316912D01*
X461561Y316868D01*
X461567Y316834D01*
Y316785D01*
X461561Y316679D01*
X461550Y316585D01*
X461533Y316490D01*
X461511Y316402D01*
X461483Y316318D01*
X461456Y316246D01*
X461422Y316174D01*
X461389Y316113D01*
X461361Y316052D01*
X461328Y316002D01*
X461300Y315958D01*
X461272Y315924D01*
X461250Y315897D01*
X461234Y315874D01*
X461223Y315863D01*
X461217Y315858D01*
X461150Y315791D01*
X461078Y315736D01*
X461006Y315686D01*
X460934Y315641D01*
X460867Y315608D01*
X460795Y315575D01*
X460662Y315530D01*
X460601Y315519D01*
X460545Y315508D01*
X460495Y315497D01*
X460451Y315491D01*
X460418Y315486D01*
X460390D01*
X460373D01*
X460368D01*
X460235Y315491D01*
X460112Y315514D01*
X460007Y315547D01*
X459918Y315580D01*
X459846Y315614D01*
X459791Y315647D01*
X459757Y315669D01*
X459746Y315674D01*
X459663Y315752D01*
X459591Y315835D01*
X459535Y315924D01*
X459491Y316013D01*
X459458Y316091D01*
X459435Y316152D01*
X459430Y316174D01*
X459424Y316191D01*
X459419Y316202D01*
Y316207D01*
X459369Y316113D01*
X459319Y316035D01*
X459263Y315969D01*
X459213Y315913D01*
X459169Y315869D01*
X459130Y315835D01*
X459108Y315819D01*
X459097Y315813D01*
X459019Y315769D01*
X458941Y315736D01*
X458864Y315708D01*
X458792Y315691D01*
X458731Y315680D01*
X458686Y315674D01*
X458653D01*
X458642D01*
X458547Y315680D01*
X458453Y315697D01*
X458370Y315719D01*
X458298Y315747D01*
X458237Y315774D01*
X458187Y315797D01*
X458159Y315813D01*
X458148Y315819D01*
X458065Y315874D01*
X457992Y315941D01*
X457931Y316007D01*
X457876Y316074D01*
X457837Y316130D01*
X457804Y316180D01*
X457787Y316213D01*
X457782Y316218D01*
Y316224D01*
X457737Y316324D01*
X457704Y316424D01*
X457676Y316524D01*
X457659Y316613D01*
X457648Y316685D01*
X457643Y316746D01*
Y316884D01*
X457654Y316962D01*
X457682Y317112D01*
X457726Y317240D01*
X457770Y317351D01*
X457798Y317401D01*
X457820Y317439D01*
X457843Y317478D01*
X457865Y317506D01*
X457881Y317528D01*
X457893Y317545D01*
X457898Y317556D01*
X457904Y317562D01*
X458009Y317667D01*
X458126Y317750D01*
X458248Y317817D01*
X458370Y317872D01*
X458475Y317906D01*
X458520Y317922D01*
X458559Y317933D01*
X458592Y317939D01*
X458614Y317945D01*
X458631Y317950D01*
X458636D01*
X458719Y317478D01*
X458597Y317456D01*
X458492Y317423D01*
X458403Y317384D01*
X458331Y317345D01*
X458276Y317306D01*
X458237Y317273D01*
X458209Y317251D01*
X458203Y317245D01*
X458148Y317173D01*
X458103Y317095D01*
X458076Y317023D01*
X458053Y316951D01*
X458042Y316884D01*
X458031Y316834D01*
Y316790D01*
X458037Y316690D01*
X458059Y316601D01*
X458087Y316524D01*
X458114Y316457D01*
X458148Y316407D01*
X458176Y316368D01*
X458198Y316340D01*
X458203Y316335D01*
X458270Y316274D01*
X458342Y316230D01*
X458414Y316202D01*
X458481Y316180D01*
X458542Y316168D01*
X458586Y316157D01*
X458619D01*
X458625D01*
X458631D01*
X458692D01*
X458747Y316168D01*
X458842Y316196D01*
X458925Y316235D01*
X458997Y316280D01*
X459047Y316324D01*
X459086Y316363D01*
X459108Y316390D01*
X459114Y316396D01*
Y316402D01*
X459164Y316496D01*
X459202Y316585D01*
X459230Y316679D01*
X459247Y316762D01*
X459258Y316834D01*
X459269Y316896D01*
Y316968D01*
X459263Y316990D01*
Y317018D01*
X459680Y317073D01*
X459663Y317001D01*
X459652Y316934D01*
X459641Y316879D01*
X459635Y316829D01*
X459630Y316790D01*
Y316740D01*
X459641Y316624D01*
X459663Y316518D01*
X459696Y316424D01*
X459735Y316346D01*
X459774Y316285D01*
X459807Y316241D01*
X459829Y316213D01*
X459840Y316202D01*
X459924Y316130D01*
X460013Y316074D01*
X460101Y316035D01*
X460190Y316013D01*
X460262Y315997D01*
X460323Y315991D01*
X460346Y315985D01*
X460362D01*
X460373D01*
X460379D01*
X460501Y315997D01*
X460612Y316024D01*
X460706Y316057D01*
X460790Y316102D01*
X460856Y316146D01*
X460906Y316180D01*
X460940Y316207D01*
X460951Y316218D01*
X461028Y316307D01*
X461084Y316402D01*
X461123Y316496D01*
X461150Y316585D01*
X461167Y316662D01*
X461172Y316723D01*
X461178Y316746D01*
Y316779D01*
X461172Y316879D01*
X461150Y316973D01*
X461123Y317056D01*
X461089Y317123D01*
X461061Y317179D01*
X461034Y317223D01*
X461012Y317245D01*
X461006Y317256D01*
X460928Y317323D01*
X460840Y317378D01*
X460745Y317428D01*
X460645Y317467D01*
X460562Y317495D01*
X460523Y317506D01*
X460490Y317512D01*
X460462Y317517D01*
X460440Y317523D01*
X460429Y317528D01*
X460423D01*
X460484Y318000D01*
X460573Y317989D01*
D02*
G37*
G36*
X461500Y314215D02*
X460962D01*
Y314753D01*
X461500D01*
Y314215D01*
D02*
G37*
G36*
X460573Y313510D02*
X460656Y313493D01*
X460812Y313443D01*
X460945Y313382D01*
X461000Y313349D01*
X461056Y313316D01*
X461106Y313282D01*
X461145Y313249D01*
X461184Y313222D01*
X461211Y313194D01*
X461234Y313177D01*
X461250Y313160D01*
X461261Y313149D01*
X461267Y313144D01*
X461317Y313077D01*
X461367Y313011D01*
X461406Y312944D01*
X461439Y312872D01*
X461494Y312733D01*
X461528Y312600D01*
X461539Y312539D01*
X461550Y312483D01*
X461555Y312433D01*
X461561Y312389D01*
X461567Y312356D01*
Y312306D01*
X461561Y312200D01*
X461550Y312106D01*
X461533Y312012D01*
X461511Y311923D01*
X461483Y311840D01*
X461456Y311767D01*
X461422Y311695D01*
X461389Y311634D01*
X461361Y311573D01*
X461328Y311523D01*
X461300Y311479D01*
X461272Y311445D01*
X461250Y311418D01*
X461234Y311396D01*
X461223Y311384D01*
X461217Y311379D01*
X461150Y311312D01*
X461078Y311257D01*
X461006Y311207D01*
X460934Y311162D01*
X460867Y311129D01*
X460795Y311096D01*
X460662Y311051D01*
X460601Y311040D01*
X460545Y311029D01*
X460495Y311018D01*
X460451Y311013D01*
X460418Y311007D01*
X460390D01*
X460373D01*
X460368D01*
X460235Y311013D01*
X460112Y311035D01*
X460007Y311068D01*
X459918Y311101D01*
X459846Y311135D01*
X459791Y311168D01*
X459757Y311190D01*
X459746Y311196D01*
X459663Y311273D01*
X459591Y311357D01*
X459535Y311445D01*
X459491Y311534D01*
X459458Y311612D01*
X459435Y311673D01*
X459430Y311695D01*
X459424Y311712D01*
X459419Y311723D01*
Y311729D01*
X459369Y311634D01*
X459319Y311556D01*
X459263Y311490D01*
X459213Y311434D01*
X459169Y311390D01*
X459130Y311357D01*
X459108Y311340D01*
X459097Y311334D01*
X459019Y311290D01*
X458941Y311257D01*
X458864Y311229D01*
X458792Y311212D01*
X458731Y311201D01*
X458686Y311196D01*
X458653D01*
X458642D01*
X458547Y311201D01*
X458453Y311218D01*
X458370Y311240D01*
X458298Y311268D01*
X458237Y311296D01*
X458187Y311318D01*
X458159Y311334D01*
X458148Y311340D01*
X458065Y311396D01*
X457992Y311462D01*
X457931Y311529D01*
X457876Y311595D01*
X457837Y311651D01*
X457804Y311701D01*
X457787Y311734D01*
X457782Y311740D01*
Y311745D01*
X457737Y311845D01*
X457704Y311945D01*
X457676Y312045D01*
X457659Y312134D01*
X457648Y312206D01*
X457643Y312267D01*
Y312406D01*
X457654Y312483D01*
X457682Y312633D01*
X457726Y312761D01*
X457770Y312872D01*
X457798Y312922D01*
X457820Y312961D01*
X457843Y312999D01*
X457865Y313027D01*
X457881Y313049D01*
X457893Y313066D01*
X457898Y313077D01*
X457904Y313083D01*
X458009Y313188D01*
X458126Y313271D01*
X458248Y313338D01*
X458370Y313393D01*
X458475Y313427D01*
X458520Y313443D01*
X458559Y313455D01*
X458592Y313460D01*
X458614Y313466D01*
X458631Y313471D01*
X458636D01*
X458719Y312999D01*
X458597Y312977D01*
X458492Y312944D01*
X458403Y312905D01*
X458331Y312866D01*
X458276Y312827D01*
X458237Y312794D01*
X458209Y312772D01*
X458203Y312766D01*
X458148Y312694D01*
X458103Y312616D01*
X458076Y312544D01*
X458053Y312472D01*
X458042Y312406D01*
X458031Y312356D01*
Y312311D01*
X458037Y312211D01*
X458059Y312123D01*
X458087Y312045D01*
X458114Y311978D01*
X458148Y311928D01*
X458176Y311889D01*
X458198Y311862D01*
X458203Y311856D01*
X458270Y311795D01*
X458342Y311751D01*
X458414Y311723D01*
X458481Y311701D01*
X458542Y311690D01*
X458586Y311679D01*
X458619D01*
X458625D01*
X458631D01*
X458692D01*
X458747Y311690D01*
X458842Y311717D01*
X458925Y311756D01*
X458997Y311801D01*
X459047Y311845D01*
X459086Y311884D01*
X459108Y311912D01*
X459114Y311917D01*
Y311923D01*
X459164Y312017D01*
X459202Y312106D01*
X459230Y312200D01*
X459247Y312283D01*
X459258Y312356D01*
X459269Y312417D01*
Y312489D01*
X459263Y312511D01*
Y312539D01*
X459680Y312594D01*
X459663Y312522D01*
X459652Y312456D01*
X459641Y312400D01*
X459635Y312350D01*
X459630Y312311D01*
Y312261D01*
X459641Y312145D01*
X459663Y312039D01*
X459696Y311945D01*
X459735Y311867D01*
X459774Y311806D01*
X459807Y311762D01*
X459829Y311734D01*
X459840Y311723D01*
X459924Y311651D01*
X460013Y311595D01*
X460101Y311556D01*
X460190Y311534D01*
X460262Y311518D01*
X460323Y311512D01*
X460346Y311507D01*
X460362D01*
X460373D01*
X460379D01*
X460501Y311518D01*
X460612Y311545D01*
X460706Y311579D01*
X460790Y311623D01*
X460856Y311667D01*
X460906Y311701D01*
X460940Y311729D01*
X460951Y311740D01*
X461028Y311828D01*
X461084Y311923D01*
X461123Y312017D01*
X461150Y312106D01*
X461167Y312184D01*
X461172Y312245D01*
X461178Y312267D01*
Y312300D01*
X461172Y312400D01*
X461150Y312494D01*
X461123Y312578D01*
X461089Y312644D01*
X461061Y312700D01*
X461034Y312744D01*
X461012Y312766D01*
X461006Y312777D01*
X460928Y312844D01*
X460840Y312899D01*
X460745Y312949D01*
X460645Y312988D01*
X460562Y313016D01*
X460523Y313027D01*
X460490Y313033D01*
X460462Y313038D01*
X460440Y313044D01*
X460429Y313049D01*
X460423D01*
X460484Y313521D01*
X460573Y313510D01*
D02*
G37*
G36*
X481231Y317989D02*
X481426Y317961D01*
X481514Y317945D01*
X481598Y317928D01*
X481681Y317906D01*
X481753Y317883D01*
X481820Y317861D01*
X481875Y317839D01*
X481931Y317822D01*
X481969Y317806D01*
X482008Y317789D01*
X482031Y317778D01*
X482047Y317767D01*
X482053D01*
X482214Y317667D01*
X482352Y317556D01*
X482475Y317439D01*
X482574Y317329D01*
X482652Y317223D01*
X482680Y317184D01*
X482708Y317145D01*
X482724Y317112D01*
X482741Y317090D01*
X482747Y317073D01*
X482752Y317068D01*
X482796Y316979D01*
X482830Y316890D01*
X482891Y316712D01*
X482930Y316540D01*
X482963Y316379D01*
X482969Y316307D01*
X482980Y316241D01*
X482985Y316180D01*
Y316130D01*
X482991Y316091D01*
Y316035D01*
X482985Y315880D01*
X482969Y315730D01*
X482941Y315591D01*
X482913Y315469D01*
X482902Y315419D01*
X482891Y315369D01*
X482874Y315325D01*
X482863Y315286D01*
X482852Y315258D01*
X482846Y315236D01*
X482841Y315225D01*
Y315219D01*
X482780Y315070D01*
X482708Y314931D01*
X482630Y314798D01*
X482558Y314681D01*
X482524Y314631D01*
X482491Y314581D01*
X482464Y314542D01*
X482441Y314509D01*
X482419Y314481D01*
X482402Y314459D01*
X482397Y314448D01*
X482391Y314442D01*
X480965D01*
Y316074D01*
X481420D01*
Y314942D01*
X482142D01*
X482197Y315009D01*
X482247Y315086D01*
X482291Y315170D01*
X482330Y315247D01*
X482364Y315314D01*
X482391Y315375D01*
X482402Y315397D01*
X482408Y315408D01*
X482413Y315419D01*
Y315425D01*
X482452Y315541D01*
X482486Y315658D01*
X482508Y315763D01*
X482519Y315863D01*
X482530Y315947D01*
Y315980D01*
X482536Y316013D01*
Y316069D01*
X482530Y316207D01*
X482508Y316340D01*
X482480Y316463D01*
X482452Y316574D01*
X482419Y316662D01*
X482408Y316701D01*
X482397Y316729D01*
X482386Y316757D01*
X482375Y316774D01*
X482369Y316785D01*
Y316790D01*
X482297Y316907D01*
X482219Y317012D01*
X482136Y317101D01*
X482053Y317173D01*
X481975Y317234D01*
X481914Y317273D01*
X481892Y317290D01*
X481875Y317295D01*
X481864Y317306D01*
X481858D01*
X481720Y317362D01*
X481575Y317406D01*
X481431Y317434D01*
X481292Y317456D01*
X481231Y317462D01*
X481176Y317467D01*
X481120Y317473D01*
X481076D01*
X481043Y317478D01*
X481015D01*
X480998D01*
X480993D01*
X480837Y317473D01*
X480698Y317456D01*
X480565Y317434D01*
X480449Y317406D01*
X480399Y317395D01*
X480354Y317378D01*
X480316Y317367D01*
X480282Y317356D01*
X480255Y317345D01*
X480238Y317340D01*
X480227Y317334D01*
X480221D01*
X480143Y317295D01*
X480071Y317256D01*
X480005Y317217D01*
X479949Y317179D01*
X479905Y317145D01*
X479866Y317118D01*
X479844Y317095D01*
X479838Y317090D01*
X479777Y317029D01*
X479722Y316962D01*
X479677Y316890D01*
X479633Y316823D01*
X479605Y316768D01*
X479577Y316723D01*
X479566Y316690D01*
X479561Y316679D01*
X479522Y316579D01*
X479494Y316479D01*
X479478Y316374D01*
X479461Y316280D01*
X479455Y316196D01*
Y316163D01*
X479450Y316135D01*
Y316074D01*
X479455Y315969D01*
X479466Y315869D01*
X479483Y315780D01*
X479500Y315702D01*
X479522Y315636D01*
X479539Y315586D01*
X479550Y315558D01*
X479555Y315547D01*
X479594Y315464D01*
X479638Y315391D01*
X479683Y315325D01*
X479727Y315275D01*
X479766Y315236D01*
X479794Y315203D01*
X479816Y315186D01*
X479822Y315181D01*
X479888Y315131D01*
X479966Y315092D01*
X480038Y315053D01*
X480116Y315020D01*
X480182Y314997D01*
X480232Y314981D01*
X480255Y314975D01*
X480271Y314970D01*
X480277Y314964D01*
X480282D01*
X480160Y314504D01*
X480021Y314542D01*
X479899Y314592D01*
X479788Y314642D01*
X479700Y314687D01*
X479627Y314731D01*
X479577Y314764D01*
X479544Y314787D01*
X479533Y314798D01*
X479444Y314875D01*
X479372Y314959D01*
X479306Y315047D01*
X479250Y315131D01*
X479211Y315208D01*
X479178Y315269D01*
X479167Y315292D01*
X479161Y315308D01*
X479156Y315319D01*
Y315325D01*
X479111Y315453D01*
X479078Y315586D01*
X479050Y315708D01*
X479034Y315824D01*
X479023Y315930D01*
Y315974D01*
X479017Y316007D01*
Y316185D01*
X479028Y316285D01*
X479056Y316479D01*
X479072Y316568D01*
X479095Y316651D01*
X479111Y316729D01*
X479133Y316801D01*
X479156Y316868D01*
X479178Y316923D01*
X479200Y316973D01*
X479217Y317018D01*
X479233Y317051D01*
X479244Y317073D01*
X479250Y317090D01*
X479256Y317095D01*
X479306Y317173D01*
X479355Y317251D01*
X479472Y317384D01*
X479589Y317500D01*
X479711Y317595D01*
X479816Y317673D01*
X479860Y317700D01*
X479905Y317723D01*
X479938Y317745D01*
X479960Y317756D01*
X479977Y317761D01*
X479983Y317767D01*
X480166Y317845D01*
X480349Y317900D01*
X480526Y317945D01*
X480610Y317956D01*
X480687Y317972D01*
X480760Y317978D01*
X480821Y317989D01*
X480882Y317994D01*
X480932D01*
X480970Y318000D01*
X480998D01*
X481020D01*
X481026D01*
X481231Y317989D01*
D02*
G37*
G36*
X482924Y313210D02*
X479911D01*
X482924Y311201D01*
Y310674D01*
X479083D01*
Y311162D01*
X482103D01*
X479083Y313177D01*
Y313699D01*
X482924D01*
Y313210D01*
D02*
G37*
G36*
Y308437D02*
X482919Y308310D01*
X482913Y308193D01*
X482902Y308088D01*
X482891Y307999D01*
X482880Y307921D01*
X482874Y307866D01*
X482869Y307849D01*
X482863Y307832D01*
Y307821D01*
X482835Y307721D01*
X482802Y307633D01*
X482774Y307555D01*
X482741Y307488D01*
X482713Y307433D01*
X482691Y307394D01*
X482674Y307372D01*
X482669Y307361D01*
X482619Y307289D01*
X482558Y307227D01*
X482502Y307166D01*
X482447Y307116D01*
X482397Y307072D01*
X482358Y307039D01*
X482330Y307017D01*
X482319Y307011D01*
X482230Y306956D01*
X482136Y306900D01*
X482047Y306856D01*
X481958Y306822D01*
X481881Y306789D01*
X481820Y306767D01*
X481798Y306761D01*
X481781Y306756D01*
X481770Y306750D01*
X481764D01*
X481631Y306717D01*
X481498Y306689D01*
X481370Y306672D01*
X481248Y306656D01*
X481143Y306650D01*
X481098D01*
X481059Y306645D01*
X481032D01*
X481004D01*
X480993D01*
X480987D01*
X480798Y306650D01*
X480626Y306667D01*
X480471Y306695D01*
X480399Y306706D01*
X480338Y306722D01*
X480277Y306739D01*
X480227Y306750D01*
X480182Y306761D01*
X480143Y306778D01*
X480110Y306783D01*
X480088Y306795D01*
X480077Y306800D01*
X480071D01*
X479927Y306861D01*
X479799Y306933D01*
X479689Y307011D01*
X479594Y307083D01*
X479516Y307150D01*
X479461Y307205D01*
X479444Y307227D01*
X479428Y307244D01*
X479422Y307250D01*
X479417Y307255D01*
X479344Y307344D01*
X479289Y307438D01*
X479239Y307533D01*
X479200Y307622D01*
X479172Y307699D01*
X479156Y307760D01*
X479144Y307783D01*
Y307799D01*
X479139Y307810D01*
Y307816D01*
X479122Y307910D01*
X479106Y308021D01*
X479095Y308132D01*
X479089Y308243D01*
X479083Y308343D01*
Y309819D01*
X482924D01*
Y308437D01*
D02*
G37*
G36*
X474051Y317989D02*
X474245Y317967D01*
X474417Y317939D01*
X474501Y317917D01*
X474573Y317900D01*
X474639Y317883D01*
X474700Y317861D01*
X474756Y317845D01*
X474800Y317833D01*
X474834Y317817D01*
X474861Y317811D01*
X474878Y317800D01*
X474884D01*
X475050Y317717D01*
X475200Y317623D01*
X475328Y317523D01*
X475378Y317473D01*
X475427Y317428D01*
X475472Y317384D01*
X475511Y317339D01*
X475544Y317301D01*
X475566Y317267D01*
X475589Y317245D01*
X475605Y317223D01*
X475611Y317212D01*
X475616Y317206D01*
X475661Y317129D01*
X475700Y317051D01*
X475761Y316884D01*
X475805Y316718D01*
X475833Y316557D01*
X475844Y316479D01*
X475855Y316413D01*
X475860Y316352D01*
Y316302D01*
X475866Y316257D01*
Y316196D01*
X475860Y316085D01*
X475849Y315980D01*
X475838Y315880D01*
X475816Y315786D01*
X475788Y315697D01*
X475761Y315614D01*
X475733Y315536D01*
X475700Y315464D01*
X475672Y315403D01*
X475644Y315341D01*
X475616Y315297D01*
X475589Y315253D01*
X475566Y315225D01*
X475555Y315197D01*
X475544Y315186D01*
X475538Y315181D01*
X475472Y315103D01*
X475405Y315036D01*
X475328Y314975D01*
X475250Y314914D01*
X475095Y314814D01*
X474939Y314737D01*
X474867Y314703D01*
X474800Y314675D01*
X474739Y314653D01*
X474689Y314637D01*
X474645Y314620D01*
X474612Y314609D01*
X474589Y314603D01*
X474584D01*
X474456Y315114D01*
X474545Y315136D01*
X474628Y315164D01*
X474706Y315192D01*
X474778Y315219D01*
X474845Y315253D01*
X474900Y315286D01*
X474956Y315325D01*
X475006Y315358D01*
X475050Y315386D01*
X475083Y315419D01*
X475117Y315447D01*
X475144Y315469D01*
X475161Y315491D01*
X475178Y315508D01*
X475183Y315514D01*
X475189Y315519D01*
X475233Y315575D01*
X475267Y315636D01*
X475328Y315758D01*
X475372Y315874D01*
X475400Y315991D01*
X475422Y316091D01*
X475427Y316130D01*
Y316168D01*
X475433Y316202D01*
Y316241D01*
X475427Y316368D01*
X475405Y316490D01*
X475378Y316601D01*
X475344Y316701D01*
X475311Y316779D01*
X475294Y316812D01*
X475283Y316840D01*
X475272Y316862D01*
X475261Y316879D01*
X475255Y316890D01*
Y316896D01*
X475178Y317001D01*
X475095Y317090D01*
X475000Y317167D01*
X474911Y317229D01*
X474834Y317279D01*
X474767Y317312D01*
X474739Y317323D01*
X474723Y317334D01*
X474712Y317339D01*
X474706D01*
X474562Y317384D01*
X474417Y317417D01*
X474273Y317445D01*
X474140Y317462D01*
X474079Y317467D01*
X474023Y317473D01*
X473973D01*
X473935Y317478D01*
X473901D01*
X473874D01*
X473857D01*
X473851D01*
X473707Y317473D01*
X473574Y317462D01*
X473452Y317439D01*
X473341Y317417D01*
X473246Y317401D01*
X473208Y317389D01*
X473174Y317378D01*
X473146Y317373D01*
X473130Y317367D01*
X473119Y317362D01*
X473113D01*
X472986Y317306D01*
X472869Y317245D01*
X472775Y317179D01*
X472691Y317106D01*
X472625Y317045D01*
X472580Y316995D01*
X472553Y316957D01*
X472542Y316951D01*
Y316946D01*
X472469Y316829D01*
X472414Y316701D01*
X472375Y316579D01*
X472353Y316463D01*
X472336Y316357D01*
X472331Y316313D01*
Y316274D01*
X472325Y316246D01*
Y316202D01*
X472331Y316063D01*
X472353Y315935D01*
X472386Y315830D01*
X472419Y315736D01*
X472458Y315663D01*
X472486Y315608D01*
X472508Y315575D01*
X472519Y315564D01*
X472603Y315475D01*
X472697Y315391D01*
X472797Y315325D01*
X472897Y315269D01*
X472986Y315225D01*
X473030Y315208D01*
X473063Y315197D01*
X473091Y315186D01*
X473113Y315175D01*
X473124Y315170D01*
X473130D01*
X473013Y314670D01*
X472913Y314703D01*
X472825Y314737D01*
X472741Y314781D01*
X472658Y314820D01*
X472586Y314864D01*
X472519Y314914D01*
X472453Y314959D01*
X472397Y315003D01*
X472353Y315047D01*
X472308Y315086D01*
X472270Y315125D01*
X472242Y315153D01*
X472214Y315181D01*
X472197Y315203D01*
X472192Y315214D01*
X472186Y315219D01*
X472136Y315297D01*
X472086Y315375D01*
X472048Y315453D01*
X472014Y315536D01*
X471964Y315702D01*
X471931Y315852D01*
X471914Y315924D01*
X471909Y315985D01*
X471903Y316046D01*
X471898Y316096D01*
X471892Y316135D01*
Y316191D01*
X471903Y316374D01*
X471931Y316551D01*
X471964Y316707D01*
X471986Y316779D01*
X472009Y316846D01*
X472031Y316907D01*
X472053Y316962D01*
X472070Y317006D01*
X472086Y317051D01*
X472103Y317079D01*
X472114Y317101D01*
X472120Y317118D01*
X472125Y317123D01*
X472220Y317273D01*
X472331Y317401D01*
X472442Y317512D01*
X472553Y317606D01*
X472652Y317678D01*
X472697Y317706D01*
X472736Y317728D01*
X472763Y317750D01*
X472786Y317761D01*
X472802Y317767D01*
X472808Y317772D01*
X472980Y317850D01*
X473158Y317906D01*
X473335Y317945D01*
X473496Y317972D01*
X473568Y317983D01*
X473640Y317989D01*
X473696Y317994D01*
X473751D01*
X473790Y318000D01*
X473824D01*
X473846D01*
X473851D01*
X474051Y317989D01*
D02*
G37*
G36*
X475799Y311595D02*
X475344D01*
Y313488D01*
X471959D01*
Y313998D01*
X475799D01*
Y311595D01*
D02*
G37*
G36*
Y310502D02*
X474467D01*
X473862Y309875D01*
X475799Y308509D01*
Y307838D01*
X473518Y309520D01*
X471959Y307910D01*
Y308604D01*
X473868Y310502D01*
X471959D01*
Y311013D01*
X475799D01*
Y310502D01*
D02*
G37*
G36*
X468675Y316618D02*
X468669Y316490D01*
X468664Y316374D01*
X468652Y316268D01*
X468641Y316180D01*
X468630Y316102D01*
X468625Y316046D01*
X468619Y316030D01*
X468614Y316013D01*
Y316002D01*
X468586Y315902D01*
X468553Y315813D01*
X468525Y315736D01*
X468492Y315669D01*
X468464Y315614D01*
X468442Y315575D01*
X468425Y315552D01*
X468419Y315541D01*
X468369Y315469D01*
X468308Y315408D01*
X468253Y315347D01*
X468197Y315297D01*
X468147Y315253D01*
X468109Y315219D01*
X468081Y315197D01*
X468070Y315192D01*
X467981Y315136D01*
X467887Y315081D01*
X467798Y315036D01*
X467709Y315003D01*
X467631Y314970D01*
X467570Y314948D01*
X467548Y314942D01*
X467531Y314936D01*
X467520Y314931D01*
X467515D01*
X467381Y314897D01*
X467248Y314870D01*
X467121Y314853D01*
X466999Y314837D01*
X466893Y314831D01*
X466849D01*
X466810Y314825D01*
X466782D01*
X466754D01*
X466743D01*
X466738D01*
X466549Y314831D01*
X466377Y314848D01*
X466222Y314875D01*
X466149Y314886D01*
X466088Y314903D01*
X466027Y314920D01*
X465977Y314931D01*
X465933Y314942D01*
X465894Y314959D01*
X465861Y314964D01*
X465839Y314975D01*
X465828Y314981D01*
X465822D01*
X465678Y315042D01*
X465550Y315114D01*
X465439Y315192D01*
X465345Y315264D01*
X465267Y315330D01*
X465211Y315386D01*
X465195Y315408D01*
X465178Y315425D01*
X465173Y315430D01*
X465167Y315436D01*
X465095Y315525D01*
X465039Y315619D01*
X464990Y315713D01*
X464951Y315802D01*
X464923Y315880D01*
X464906Y315941D01*
X464895Y315963D01*
Y315980D01*
X464890Y315991D01*
Y315996D01*
X464873Y316091D01*
X464856Y316202D01*
X464845Y316313D01*
X464840Y316424D01*
X464834Y316524D01*
Y318000D01*
X468675D01*
Y316618D01*
D02*
G37*
G36*
Y313532D02*
X464834D01*
Y314043D01*
X468675D01*
Y313532D01*
D02*
G37*
G36*
X466999Y312777D02*
X467171Y312755D01*
X467337Y312722D01*
X467409Y312700D01*
X467481Y312678D01*
X467543Y312661D01*
X467598Y312639D01*
X467648Y312622D01*
X467692Y312605D01*
X467726Y312594D01*
X467748Y312583D01*
X467765Y312572D01*
X467770D01*
X467931Y312478D01*
X468070Y312378D01*
X468192Y312267D01*
X468292Y312161D01*
X468375Y312067D01*
X468408Y312028D01*
X468431Y311995D01*
X468453Y311962D01*
X468469Y311939D01*
X468475Y311928D01*
X468480Y311923D01*
X468525Y311840D01*
X468564Y311756D01*
X468630Y311590D01*
X468675Y311429D01*
X468708Y311279D01*
X468719Y311207D01*
X468725Y311146D01*
X468736Y311090D01*
Y311040D01*
X468741Y311007D01*
Y310951D01*
X468730Y310768D01*
X468702Y310596D01*
X468669Y310435D01*
X468647Y310363D01*
X468625Y310297D01*
X468603Y310236D01*
X468580Y310180D01*
X468564Y310136D01*
X468547Y310097D01*
X468530Y310064D01*
X468519Y310036D01*
X468508Y310025D01*
Y310019D01*
X468408Y309864D01*
X468297Y309731D01*
X468181Y309619D01*
X468070Y309525D01*
X467964Y309447D01*
X467925Y309420D01*
X467887Y309398D01*
X467853Y309375D01*
X467831Y309364D01*
X467814Y309353D01*
X467809D01*
X467720Y309309D01*
X467631Y309275D01*
X467454Y309214D01*
X467276Y309170D01*
X467115Y309142D01*
X467043Y309137D01*
X466976Y309125D01*
X466915Y309120D01*
X466865D01*
X466821Y309114D01*
X466793D01*
X466771D01*
X466765D01*
X466555Y309125D01*
X466360Y309148D01*
X466271Y309164D01*
X466183Y309187D01*
X466105Y309209D01*
X466033Y309225D01*
X465966Y309248D01*
X465905Y309270D01*
X465855Y309286D01*
X465811Y309309D01*
X465778Y309320D01*
X465755Y309331D01*
X465739Y309342D01*
X465733D01*
X465572Y309431D01*
X465428Y309536D01*
X465306Y309647D01*
X465206Y309747D01*
X465128Y309841D01*
X465095Y309886D01*
X465067Y309919D01*
X465051Y309952D01*
X465034Y309975D01*
X465028Y309986D01*
X465023Y309991D01*
X464978Y310075D01*
X464939Y310158D01*
X464873Y310319D01*
X464828Y310485D01*
X464801Y310630D01*
X464790Y310696D01*
X464779Y310763D01*
X464773Y310813D01*
Y310863D01*
X464768Y310901D01*
Y310951D01*
X464773Y311101D01*
X464790Y311240D01*
X464817Y311373D01*
X464851Y311501D01*
X464895Y311617D01*
X464939Y311729D01*
X464990Y311828D01*
X465039Y311917D01*
X465089Y312000D01*
X465139Y312073D01*
X465184Y312134D01*
X465228Y312184D01*
X465261Y312222D01*
X465289Y312256D01*
X465306Y312272D01*
X465311Y312278D01*
X465417Y312367D01*
X465528Y312444D01*
X465650Y312517D01*
X465772Y312572D01*
X465900Y312622D01*
X466022Y312666D01*
X466144Y312700D01*
X466260Y312722D01*
X466371Y312744D01*
X466477Y312761D01*
X466571Y312772D01*
X466649Y312783D01*
X466715D01*
X466765Y312789D01*
X466799D01*
X466804D01*
X466810D01*
X466999Y312777D01*
D02*
G37*
G36*
X451094Y192017D02*
X451175Y191899D01*
X451272Y191780D01*
X451360Y191677D01*
X451449Y191588D01*
X451516Y191514D01*
X451545Y191492D01*
X451568Y191470D01*
X451575Y191462D01*
X451582Y191455D01*
X451738Y191329D01*
X451893Y191211D01*
X452041Y191107D01*
X452189Y191026D01*
X452315Y190952D01*
X452367Y190922D01*
X452411Y190900D01*
X452448Y190878D01*
X452478Y190870D01*
X452493Y190855D01*
X452500D01*
Y190249D01*
X452389Y190293D01*
X452278Y190345D01*
X452167Y190397D01*
X452063Y190448D01*
X451975Y190493D01*
X451901Y190530D01*
X451856Y190559D01*
X451849Y190567D01*
X451841D01*
X451708Y190648D01*
X451590Y190730D01*
X451486Y190804D01*
X451405Y190870D01*
X451331Y190922D01*
X451286Y190966D01*
X451249Y190996D01*
X451242Y191003D01*
Y187000D01*
X450613D01*
Y192143D01*
X451020D01*
X451094Y192017D01*
D02*
G37*
G36*
X489027Y191628D02*
X489212Y191599D01*
X489368Y191547D01*
X489501Y191495D01*
X489612Y191436D01*
X489656Y191414D01*
X489693Y191384D01*
X489723Y191369D01*
X489745Y191354D01*
X489753Y191340D01*
X489760D01*
X489893Y191221D01*
X490004Y191081D01*
X490100Y190940D01*
X490174Y190807D01*
X490234Y190681D01*
X490263Y190629D01*
X490278Y190577D01*
X490293Y190540D01*
X490308Y190511D01*
X490315Y190496D01*
Y190489D01*
X490345Y190378D01*
X490374Y190267D01*
X490419Y190022D01*
X490456Y189778D01*
X490478Y189549D01*
X490485Y189438D01*
X490493Y189342D01*
Y189253D01*
X490500Y189171D01*
Y189112D01*
Y189060D01*
Y189031D01*
Y189023D01*
X490493Y188764D01*
X490478Y188520D01*
X490456Y188298D01*
X490419Y188091D01*
X490382Y187899D01*
X490337Y187728D01*
X490293Y187573D01*
X490248Y187440D01*
X490204Y187321D01*
X490152Y187218D01*
X490115Y187129D01*
X490078Y187062D01*
X490041Y187003D01*
X490019Y186966D01*
X490004Y186944D01*
X489997Y186937D01*
X489915Y186848D01*
X489827Y186766D01*
X489730Y186692D01*
X489634Y186633D01*
X489538Y186581D01*
X489442Y186537D01*
X489346Y186507D01*
X489257Y186478D01*
X489168Y186456D01*
X489087Y186441D01*
X489013Y186426D01*
X488953Y186419D01*
X488902Y186411D01*
X488828D01*
X488628Y186426D01*
X488443Y186456D01*
X488287Y186507D01*
X488154Y186559D01*
X488043Y186611D01*
X488006Y186641D01*
X487969Y186663D01*
X487940Y186678D01*
X487917Y186692D01*
X487910Y186707D01*
X487903D01*
X487769Y186833D01*
X487658Y186966D01*
X487562Y187114D01*
X487488Y187247D01*
X487429Y187373D01*
X487399Y187425D01*
X487385Y187477D01*
X487370Y187514D01*
X487355Y187543D01*
X487348Y187558D01*
Y187566D01*
X487311Y187677D01*
X487281Y187788D01*
X487237Y188024D01*
X487200Y188269D01*
X487177Y188505D01*
X487170Y188609D01*
X487163Y188705D01*
Y188794D01*
X487155Y188875D01*
Y188935D01*
Y188986D01*
Y189016D01*
Y189023D01*
Y189164D01*
X487163Y189297D01*
Y189416D01*
X487170Y189534D01*
X487185Y189638D01*
X487192Y189741D01*
X487200Y189830D01*
X487214Y189911D01*
X487222Y189985D01*
X487237Y190052D01*
X487244Y190104D01*
X487251Y190148D01*
X487259Y190185D01*
X487266Y190207D01*
X487274Y190222D01*
Y190230D01*
X487318Y190392D01*
X487370Y190540D01*
X487429Y190666D01*
X487473Y190777D01*
X487525Y190873D01*
X487555Y190940D01*
X487584Y190977D01*
X487592Y190992D01*
X487673Y191103D01*
X487755Y191199D01*
X487843Y191280D01*
X487925Y191354D01*
X487999Y191406D01*
X488058Y191443D01*
X488095Y191465D01*
X488102Y191473D01*
X488110D01*
X488228Y191532D01*
X488354Y191569D01*
X488472Y191599D01*
X488583Y191621D01*
X488680Y191636D01*
X488761Y191643D01*
X488828D01*
X489027Y191628D01*
D02*
G37*
%LPC*%
G36*
X451706Y297757D02*
X451114D01*
X451066Y297753D01*
X451018D01*
X450973Y297750D01*
X450899Y297739D01*
X450840Y297731D01*
X450792Y297720D01*
X450759Y297709D01*
X450740Y297705D01*
X450733Y297702D01*
X450666Y297668D01*
X450603Y297627D01*
X450548Y297579D01*
X450500Y297531D01*
X450463Y297487D01*
X450433Y297450D01*
X450426Y297435D01*
X450418Y297424D01*
X450411Y297417D01*
Y297413D01*
X450389Y297372D01*
X450366Y297324D01*
X450333Y297228D01*
X450311Y297124D01*
X450292Y297024D01*
X450289Y296980D01*
X450285Y296936D01*
X450281Y296899D01*
Y296865D01*
X450278Y296836D01*
Y296817D01*
Y296802D01*
Y296799D01*
X450281Y296695D01*
X450289Y296599D01*
X450300Y296514D01*
X450311Y296440D01*
X450318Y296410D01*
X450326Y296384D01*
X450333Y296358D01*
X450337Y296340D01*
X450341Y296325D01*
X450344Y296314D01*
X450348Y296307D01*
Y296303D01*
X450374Y296233D01*
X450403Y296170D01*
X450437Y296114D01*
X450466Y296066D01*
X450492Y296029D01*
X450514Y296003D01*
X450529Y295988D01*
X450533Y295981D01*
X450570Y295951D01*
X450607Y295925D01*
X450644Y295903D01*
X450681Y295881D01*
X450714Y295866D01*
X450740Y295855D01*
X450759Y295851D01*
X450766Y295848D01*
X450821Y295833D01*
X450888Y295822D01*
X450955Y295814D01*
X451018Y295811D01*
X451073Y295807D01*
X451099Y295803D01*
X451706D01*
Y297757D01*
D02*
G37*
G36*
X455346Y257794D02*
X455320Y257709D01*
X455290Y257620D01*
X455261Y257531D01*
X455231Y257446D01*
X455216Y257409D01*
X455205Y257372D01*
X455194Y257339D01*
X455183Y257313D01*
X455175Y257291D01*
X455168Y257272D01*
X455164Y257261D01*
Y257258D01*
X454898Y256555D01*
X455764D01*
X455486Y257302D01*
X455453Y257394D01*
X455427Y257483D01*
X455401Y257565D01*
X455383Y257639D01*
X455368Y257701D01*
X455360Y257727D01*
X455357Y257753D01*
X455349Y257768D01*
Y257783D01*
X455346Y257790D01*
Y257794D01*
D02*
G37*
G36*
Y227294D02*
X455320Y227209D01*
X455290Y227120D01*
X455261Y227031D01*
X455231Y226946D01*
X455216Y226909D01*
X455205Y226872D01*
X455194Y226839D01*
X455183Y226813D01*
X455175Y226791D01*
X455168Y226772D01*
X455164Y226761D01*
Y226758D01*
X454898Y226055D01*
X455764D01*
X455486Y226802D01*
X455453Y226894D01*
X455427Y226983D01*
X455401Y227065D01*
X455383Y227139D01*
X455368Y227202D01*
X455360Y227227D01*
X455357Y227253D01*
X455349Y227268D01*
Y227283D01*
X455346Y227290D01*
Y227294D01*
D02*
G37*
G36*
X454846Y267794D02*
X454820Y267709D01*
X454790Y267620D01*
X454761Y267531D01*
X454731Y267446D01*
X454716Y267409D01*
X454705Y267372D01*
X454694Y267339D01*
X454683Y267313D01*
X454675Y267291D01*
X454668Y267272D01*
X454664Y267261D01*
Y267257D01*
X454398Y266554D01*
X455264D01*
X454986Y267302D01*
X454953Y267394D01*
X454927Y267483D01*
X454901Y267565D01*
X454883Y267639D01*
X454868Y267702D01*
X454860Y267727D01*
X454857Y267753D01*
X454849Y267768D01*
Y267783D01*
X454846Y267790D01*
Y267794D01*
D02*
G37*
G36*
X455346Y247794D02*
X455320Y247709D01*
X455290Y247620D01*
X455261Y247531D01*
X455231Y247446D01*
X455216Y247409D01*
X455205Y247372D01*
X455194Y247339D01*
X455183Y247313D01*
X455175Y247291D01*
X455168Y247272D01*
X455164Y247261D01*
Y247257D01*
X454898Y246554D01*
X455764D01*
X455486Y247302D01*
X455453Y247394D01*
X455427Y247483D01*
X455401Y247565D01*
X455383Y247639D01*
X455368Y247702D01*
X455360Y247727D01*
X455357Y247753D01*
X455349Y247768D01*
Y247783D01*
X455346Y247790D01*
Y247794D01*
D02*
G37*
G36*
Y237294D02*
X455320Y237209D01*
X455290Y237120D01*
X455261Y237031D01*
X455231Y236946D01*
X455216Y236909D01*
X455205Y236872D01*
X455194Y236839D01*
X455183Y236813D01*
X455175Y236791D01*
X455168Y236772D01*
X455164Y236761D01*
Y236757D01*
X454898Y236054D01*
X455764D01*
X455486Y236802D01*
X455453Y236894D01*
X455427Y236983D01*
X455401Y237065D01*
X455383Y237139D01*
X455368Y237201D01*
X455360Y237227D01*
X455357Y237253D01*
X455349Y237268D01*
Y237283D01*
X455346Y237290D01*
Y237294D01*
D02*
G37*
G36*
X450965Y237050D02*
Y235903D01*
X451771D01*
X450965Y237050D01*
D02*
G37*
G36*
X454660Y219257D02*
X454053D01*
X453971Y219250D01*
X453908Y219246D01*
X453853Y219238D01*
X453812Y219231D01*
X453786Y219227D01*
X453768Y219220D01*
X453764D01*
X453723Y219205D01*
X453687Y219183D01*
X453657Y219161D01*
X453631Y219139D01*
X453613Y219120D01*
X453598Y219102D01*
X453590Y219091D01*
X453587Y219087D01*
X453564Y219050D01*
X453550Y219013D01*
X453539Y218976D01*
X453531Y218939D01*
X453527Y218909D01*
X453524Y218887D01*
Y218872D01*
Y218865D01*
X453527Y218817D01*
X453535Y218772D01*
X453546Y218735D01*
X453557Y218706D01*
X453568Y218680D01*
X453579Y218658D01*
X453587Y218647D01*
X453590Y218643D01*
X453616Y218613D01*
X453650Y218584D01*
X453683Y218561D01*
X453712Y218547D01*
X453742Y218532D01*
X453764Y218521D01*
X453779Y218517D01*
X453786Y218513D01*
X453827Y218506D01*
X453879Y218498D01*
X453931Y218495D01*
X453982Y218491D01*
X454031Y218487D01*
X454660D01*
Y219257D01*
D02*
G37*
G36*
Y218184D02*
X453986D01*
X453908Y218177D01*
X453846Y218169D01*
X453794Y218162D01*
X453753Y218154D01*
X453720Y218147D01*
X453705Y218143D01*
X453698Y218140D01*
X453650Y218121D01*
X453609Y218099D01*
X453572Y218073D01*
X453542Y218047D01*
X453520Y218025D01*
X453505Y218006D01*
X453494Y217992D01*
X453490Y217988D01*
X453465Y217947D01*
X453446Y217906D01*
X453431Y217866D01*
X453424Y217829D01*
X453416Y217795D01*
X453413Y217766D01*
Y217751D01*
Y217744D01*
X453416Y217699D01*
X453420Y217655D01*
X453428Y217618D01*
X453439Y217588D01*
X453450Y217562D01*
X453457Y217540D01*
X453461Y217529D01*
X453465Y217525D01*
X453487Y217492D01*
X453505Y217462D01*
X453531Y217440D01*
X453550Y217418D01*
X453568Y217403D01*
X453583Y217392D01*
X453594Y217385D01*
X453598Y217381D01*
X453661Y217352D01*
X453723Y217329D01*
X453749Y217322D01*
X453772Y217318D01*
X453786Y217315D01*
X453790D01*
X453820Y217311D01*
X453853Y217307D01*
X453931Y217303D01*
X454660D01*
Y218184D01*
D02*
G37*
G36*
X454715Y185702D02*
X454108D01*
X454026Y185695D01*
X453964Y185691D01*
X453908Y185684D01*
X453867Y185676D01*
X453841Y185672D01*
X453823Y185665D01*
X453819D01*
X453779Y185650D01*
X453742Y185628D01*
X453712Y185606D01*
X453686Y185584D01*
X453667Y185565D01*
X453653Y185547D01*
X453645Y185536D01*
X453642Y185532D01*
X453619Y185495D01*
X453605Y185458D01*
X453593Y185421D01*
X453586Y185384D01*
X453582Y185354D01*
X453579Y185332D01*
Y185317D01*
Y185310D01*
X453582Y185262D01*
X453590Y185217D01*
X453601Y185180D01*
X453612Y185151D01*
X453623Y185125D01*
X453634Y185103D01*
X453642Y185091D01*
X453645Y185088D01*
X453671Y185058D01*
X453705Y185029D01*
X453738Y185006D01*
X453767Y184992D01*
X453797Y184977D01*
X453819Y184966D01*
X453834Y184962D01*
X453841Y184958D01*
X453882Y184951D01*
X453934Y184943D01*
X453986Y184940D01*
X454038Y184936D01*
X454086Y184932D01*
X454715D01*
Y185702D01*
D02*
G37*
G36*
Y184629D02*
X454041D01*
X453964Y184622D01*
X453901Y184614D01*
X453849Y184607D01*
X453808Y184599D01*
X453775Y184592D01*
X453760Y184588D01*
X453753Y184585D01*
X453705Y184566D01*
X453664Y184544D01*
X453627Y184518D01*
X453597Y184492D01*
X453575Y184470D01*
X453560Y184451D01*
X453549Y184437D01*
X453545Y184433D01*
X453519Y184392D01*
X453501Y184352D01*
X453486Y184311D01*
X453479Y184274D01*
X453471Y184240D01*
X453468Y184211D01*
Y184196D01*
Y184189D01*
X453471Y184144D01*
X453475Y184100D01*
X453482Y184063D01*
X453494Y184033D01*
X453505Y184007D01*
X453512Y183985D01*
X453516Y183974D01*
X453519Y183970D01*
X453542Y183937D01*
X453560Y183907D01*
X453586Y183885D01*
X453605Y183863D01*
X453623Y183848D01*
X453638Y183837D01*
X453649Y183830D01*
X453653Y183826D01*
X453716Y183797D01*
X453779Y183774D01*
X453804Y183767D01*
X453827Y183763D01*
X453841Y183759D01*
X453845D01*
X453875Y183756D01*
X453908Y183752D01*
X453986Y183748D01*
X454715D01*
Y184629D01*
D02*
G37*
G36*
X454160Y288757D02*
X453553D01*
X453471Y288750D01*
X453408Y288746D01*
X453353Y288738D01*
X453312Y288731D01*
X453286Y288727D01*
X453268Y288720D01*
X453264D01*
X453224Y288705D01*
X453187Y288683D01*
X453157Y288661D01*
X453131Y288639D01*
X453113Y288620D01*
X453098Y288602D01*
X453090Y288591D01*
X453087Y288587D01*
X453064Y288550D01*
X453050Y288513D01*
X453039Y288476D01*
X453031Y288439D01*
X453027Y288409D01*
X453024Y288387D01*
Y288372D01*
Y288365D01*
X453027Y288317D01*
X453035Y288272D01*
X453046Y288235D01*
X453057Y288206D01*
X453068Y288180D01*
X453079Y288158D01*
X453087Y288146D01*
X453090Y288143D01*
X453116Y288113D01*
X453150Y288084D01*
X453183Y288061D01*
X453212Y288047D01*
X453242Y288032D01*
X453264Y288021D01*
X453279Y288017D01*
X453286Y288013D01*
X453327Y288006D01*
X453379Y287999D01*
X453431Y287995D01*
X453482Y287991D01*
X453531Y287987D01*
X454160D01*
Y288757D01*
D02*
G37*
G36*
Y287684D02*
X453486D01*
X453408Y287677D01*
X453346Y287669D01*
X453294Y287662D01*
X453253Y287654D01*
X453220Y287647D01*
X453205Y287643D01*
X453198Y287640D01*
X453150Y287621D01*
X453109Y287599D01*
X453072Y287573D01*
X453042Y287547D01*
X453020Y287525D01*
X453005Y287506D01*
X452994Y287492D01*
X452990Y287488D01*
X452964Y287447D01*
X452946Y287406D01*
X452931Y287366D01*
X452924Y287329D01*
X452916Y287296D01*
X452913Y287266D01*
Y287251D01*
Y287244D01*
X452916Y287199D01*
X452920Y287155D01*
X452927Y287118D01*
X452939Y287088D01*
X452950Y287062D01*
X452957Y287040D01*
X452961Y287029D01*
X452964Y287025D01*
X452987Y286992D01*
X453005Y286963D01*
X453031Y286940D01*
X453050Y286918D01*
X453068Y286903D01*
X453083Y286892D01*
X453094Y286885D01*
X453098Y286881D01*
X453161Y286852D01*
X453224Y286829D01*
X453249Y286822D01*
X453272Y286818D01*
X453286Y286814D01*
X453290D01*
X453320Y286811D01*
X453353Y286807D01*
X453431Y286803D01*
X454160D01*
Y287684D01*
D02*
G37*
G36*
X451418Y288812D02*
X451396D01*
X451355Y288809D01*
X451314Y288805D01*
X451277Y288794D01*
X451244Y288779D01*
X451181Y288746D01*
X451126Y288709D01*
X451085Y288668D01*
X451052Y288635D01*
X451041Y288620D01*
X451033Y288609D01*
X451026Y288605D01*
Y288602D01*
X451000Y288557D01*
X450978Y288505D01*
X450955Y288446D01*
X450941Y288383D01*
X450926Y288317D01*
X450915Y288246D01*
X450896Y288106D01*
X450889Y288035D01*
X450885Y287973D01*
X450881Y287913D01*
Y287865D01*
X450878Y287821D01*
Y287788D01*
Y287769D01*
Y287765D01*
Y287762D01*
Y287647D01*
X450885Y287543D01*
X450892Y287451D01*
X450900Y287362D01*
X450911Y287288D01*
X450926Y287218D01*
X450941Y287159D01*
X450952Y287103D01*
X450967Y287059D01*
X450981Y287022D01*
X450992Y286988D01*
X451007Y286963D01*
X451015Y286944D01*
X451022Y286933D01*
X451029Y286926D01*
Y286922D01*
X451059Y286885D01*
X451089Y286855D01*
X451118Y286826D01*
X451148Y286803D01*
X451211Y286766D01*
X451266Y286740D01*
X451318Y286726D01*
X451355Y286718D01*
X451370Y286715D01*
X451392D01*
X451433Y286718D01*
X451470Y286722D01*
X451540Y286748D01*
X451603Y286781D01*
X451658Y286818D01*
X451699Y286855D01*
X451732Y286889D01*
X451751Y286914D01*
X451758Y286918D01*
Y286922D01*
X451784Y286966D01*
X451806Y287018D01*
X451829Y287077D01*
X451843Y287140D01*
X451858Y287207D01*
X451869Y287277D01*
X451888Y287421D01*
X451895Y287488D01*
X451899Y287551D01*
X451903Y287610D01*
Y287658D01*
X451906Y287702D01*
Y287736D01*
Y287754D01*
Y287762D01*
X451903Y287876D01*
X451899Y287980D01*
X451892Y288076D01*
X451880Y288165D01*
X451869Y288243D01*
X451855Y288313D01*
X451840Y288376D01*
X451825Y288431D01*
X451810Y288479D01*
X451799Y288520D01*
X451784Y288554D01*
X451773Y288583D01*
X451762Y288602D01*
X451755Y288616D01*
X451747Y288624D01*
Y288628D01*
X451721Y288661D01*
X451695Y288690D01*
X451666Y288713D01*
X451636Y288735D01*
X451577Y288768D01*
X451521Y288790D01*
X451473Y288801D01*
X451433Y288809D01*
X451418Y288812D01*
D02*
G37*
G36*
X454160Y278757D02*
X453553D01*
X453471Y278750D01*
X453408Y278746D01*
X453353Y278738D01*
X453312Y278731D01*
X453286Y278727D01*
X453268Y278720D01*
X453264D01*
X453224Y278705D01*
X453187Y278683D01*
X453157Y278661D01*
X453131Y278639D01*
X453113Y278620D01*
X453098Y278602D01*
X453090Y278590D01*
X453087Y278587D01*
X453064Y278550D01*
X453050Y278513D01*
X453039Y278476D01*
X453031Y278439D01*
X453027Y278409D01*
X453024Y278387D01*
Y278372D01*
Y278365D01*
X453027Y278317D01*
X453035Y278272D01*
X453046Y278235D01*
X453057Y278206D01*
X453068Y278180D01*
X453079Y278158D01*
X453087Y278147D01*
X453090Y278143D01*
X453116Y278113D01*
X453150Y278084D01*
X453183Y278061D01*
X453212Y278047D01*
X453242Y278032D01*
X453264Y278021D01*
X453279Y278017D01*
X453286Y278013D01*
X453327Y278006D01*
X453379Y277998D01*
X453431Y277995D01*
X453482Y277991D01*
X453531Y277987D01*
X454160D01*
Y278757D01*
D02*
G37*
G36*
Y277684D02*
X453486D01*
X453408Y277677D01*
X453346Y277669D01*
X453294Y277662D01*
X453253Y277654D01*
X453220Y277647D01*
X453205Y277643D01*
X453198Y277640D01*
X453150Y277621D01*
X453109Y277599D01*
X453072Y277573D01*
X453042Y277547D01*
X453020Y277525D01*
X453005Y277506D01*
X452994Y277492D01*
X452990Y277488D01*
X452964Y277447D01*
X452946Y277407D01*
X452931Y277366D01*
X452924Y277329D01*
X452916Y277295D01*
X452913Y277266D01*
Y277251D01*
Y277244D01*
X452916Y277199D01*
X452920Y277155D01*
X452927Y277118D01*
X452939Y277088D01*
X452950Y277062D01*
X452957Y277040D01*
X452961Y277029D01*
X452964Y277025D01*
X452987Y276992D01*
X453005Y276962D01*
X453031Y276940D01*
X453050Y276918D01*
X453068Y276903D01*
X453083Y276892D01*
X453094Y276885D01*
X453098Y276881D01*
X453161Y276852D01*
X453224Y276829D01*
X453249Y276822D01*
X453272Y276818D01*
X453286Y276815D01*
X453290D01*
X453320Y276811D01*
X453353Y276807D01*
X453431Y276803D01*
X454160D01*
Y277684D01*
D02*
G37*
G36*
X454660Y202757D02*
X454053D01*
X453971Y202750D01*
X453908Y202746D01*
X453853Y202738D01*
X453812Y202731D01*
X453786Y202727D01*
X453768Y202720D01*
X453764D01*
X453723Y202705D01*
X453687Y202683D01*
X453657Y202661D01*
X453631Y202639D01*
X453613Y202620D01*
X453598Y202602D01*
X453590Y202590D01*
X453587Y202587D01*
X453564Y202550D01*
X453550Y202513D01*
X453539Y202476D01*
X453531Y202439D01*
X453527Y202409D01*
X453524Y202387D01*
Y202372D01*
Y202365D01*
X453527Y202317D01*
X453535Y202272D01*
X453546Y202235D01*
X453557Y202206D01*
X453568Y202180D01*
X453579Y202158D01*
X453587Y202147D01*
X453590Y202143D01*
X453616Y202113D01*
X453650Y202084D01*
X453683Y202061D01*
X453712Y202047D01*
X453742Y202032D01*
X453764Y202021D01*
X453779Y202017D01*
X453786Y202013D01*
X453827Y202006D01*
X453879Y201998D01*
X453931Y201995D01*
X453982Y201991D01*
X454031Y201987D01*
X454660D01*
Y202757D01*
D02*
G37*
G36*
Y201684D02*
X453986D01*
X453908Y201677D01*
X453846Y201669D01*
X453794Y201662D01*
X453753Y201654D01*
X453720Y201647D01*
X453705Y201643D01*
X453698Y201640D01*
X453650Y201621D01*
X453609Y201599D01*
X453572Y201573D01*
X453542Y201547D01*
X453520Y201525D01*
X453505Y201506D01*
X453494Y201492D01*
X453490Y201488D01*
X453465Y201447D01*
X453446Y201407D01*
X453431Y201366D01*
X453424Y201329D01*
X453416Y201295D01*
X453413Y201266D01*
Y201251D01*
Y201244D01*
X453416Y201199D01*
X453420Y201155D01*
X453428Y201118D01*
X453439Y201088D01*
X453450Y201062D01*
X453457Y201040D01*
X453461Y201029D01*
X453465Y201025D01*
X453487Y200992D01*
X453505Y200962D01*
X453531Y200940D01*
X453550Y200918D01*
X453568Y200903D01*
X453583Y200892D01*
X453594Y200885D01*
X453598Y200881D01*
X453661Y200851D01*
X453723Y200829D01*
X453749Y200822D01*
X453772Y200818D01*
X453786Y200815D01*
X453790D01*
X453820Y200811D01*
X453853Y200807D01*
X453931Y200803D01*
X454660D01*
Y201684D01*
D02*
G37*
G36*
X451722Y202550D02*
Y201403D01*
X452528D01*
X451722Y202550D01*
D02*
G37*
G36*
X454660Y199757D02*
X454053D01*
X453971Y199750D01*
X453908Y199746D01*
X453853Y199739D01*
X453812Y199731D01*
X453786Y199727D01*
X453768Y199720D01*
X453764D01*
X453723Y199705D01*
X453687Y199683D01*
X453657Y199661D01*
X453631Y199639D01*
X453613Y199620D01*
X453598Y199602D01*
X453590Y199591D01*
X453587Y199587D01*
X453564Y199550D01*
X453550Y199513D01*
X453539Y199476D01*
X453531Y199439D01*
X453527Y199409D01*
X453524Y199387D01*
Y199372D01*
Y199365D01*
X453527Y199317D01*
X453535Y199272D01*
X453546Y199235D01*
X453557Y199206D01*
X453568Y199180D01*
X453579Y199158D01*
X453587Y199146D01*
X453590Y199143D01*
X453616Y199113D01*
X453650Y199084D01*
X453683Y199061D01*
X453712Y199047D01*
X453742Y199032D01*
X453764Y199021D01*
X453779Y199017D01*
X453786Y199013D01*
X453827Y199006D01*
X453879Y198998D01*
X453931Y198995D01*
X453982Y198991D01*
X454031Y198987D01*
X454660D01*
Y199757D01*
D02*
G37*
G36*
Y198684D02*
X453986D01*
X453908Y198677D01*
X453846Y198669D01*
X453794Y198662D01*
X453753Y198654D01*
X453720Y198647D01*
X453705Y198643D01*
X453698Y198640D01*
X453650Y198621D01*
X453609Y198599D01*
X453572Y198573D01*
X453542Y198547D01*
X453520Y198525D01*
X453505Y198506D01*
X453494Y198492D01*
X453490Y198488D01*
X453465Y198447D01*
X453446Y198407D01*
X453431Y198366D01*
X453424Y198329D01*
X453416Y198295D01*
X453413Y198266D01*
Y198251D01*
Y198244D01*
X453416Y198199D01*
X453420Y198155D01*
X453428Y198118D01*
X453439Y198088D01*
X453450Y198062D01*
X453457Y198040D01*
X453461Y198029D01*
X453465Y198025D01*
X453487Y197992D01*
X453505Y197962D01*
X453531Y197940D01*
X453550Y197918D01*
X453568Y197903D01*
X453583Y197892D01*
X453594Y197885D01*
X453598Y197881D01*
X453661Y197852D01*
X453723Y197829D01*
X453749Y197822D01*
X453772Y197818D01*
X453786Y197815D01*
X453790D01*
X453820Y197811D01*
X453853Y197807D01*
X453931Y197803D01*
X454660D01*
Y198684D01*
D02*
G37*
G36*
X451892Y195884D02*
X451870D01*
X451792Y195876D01*
X451722Y195858D01*
X451663Y195836D01*
X451611Y195806D01*
X451570Y195776D01*
X451541Y195754D01*
X451522Y195736D01*
X451515Y195728D01*
X451467Y195666D01*
X451430Y195599D01*
X451404Y195529D01*
X451389Y195462D01*
X451378Y195403D01*
X451374Y195377D01*
Y195355D01*
X451370Y195336D01*
Y195321D01*
Y195314D01*
Y195310D01*
X451378Y195210D01*
X451393Y195125D01*
X451415Y195051D01*
X451441Y194988D01*
X451470Y194940D01*
X451492Y194903D01*
X451507Y194881D01*
X451515Y194877D01*
Y194874D01*
X451541Y194844D01*
X451570Y194822D01*
X451629Y194781D01*
X451688Y194755D01*
X451740Y194733D01*
X451788Y194722D01*
X451825Y194718D01*
X451840Y194715D01*
X451859D01*
X451910Y194718D01*
X451959Y194726D01*
X452003Y194740D01*
X452040Y194755D01*
X452073Y194766D01*
X452099Y194781D01*
X452114Y194789D01*
X452121Y194792D01*
X452166Y194826D01*
X452203Y194859D01*
X452236Y194900D01*
X452262Y194933D01*
X452284Y194966D01*
X452299Y194992D01*
X452310Y195011D01*
X452314Y195018D01*
X452336Y195073D01*
X452351Y195129D01*
X452366Y195181D01*
X452373Y195229D01*
X452377Y195270D01*
X452380Y195303D01*
Y195321D01*
Y195329D01*
X452373Y195418D01*
X452358Y195495D01*
X452332Y195566D01*
X452306Y195621D01*
X452281Y195669D01*
X452255Y195703D01*
X452240Y195721D01*
X452232Y195728D01*
X452173Y195780D01*
X452114Y195817D01*
X452051Y195847D01*
X451996Y195865D01*
X451944Y195876D01*
X451907Y195880D01*
X451892Y195884D01*
D02*
G37*
G36*
X454660Y196757D02*
X454053D01*
X453971Y196750D01*
X453908Y196746D01*
X453853Y196739D01*
X453812Y196731D01*
X453786Y196727D01*
X453768Y196720D01*
X453764D01*
X453723Y196705D01*
X453687Y196683D01*
X453657Y196661D01*
X453631Y196639D01*
X453613Y196620D01*
X453598Y196602D01*
X453590Y196590D01*
X453587Y196587D01*
X453564Y196550D01*
X453550Y196513D01*
X453539Y196476D01*
X453531Y196439D01*
X453527Y196409D01*
X453524Y196387D01*
Y196372D01*
Y196365D01*
X453527Y196317D01*
X453535Y196272D01*
X453546Y196235D01*
X453557Y196206D01*
X453568Y196180D01*
X453579Y196158D01*
X453587Y196147D01*
X453590Y196143D01*
X453616Y196113D01*
X453650Y196084D01*
X453683Y196061D01*
X453712Y196047D01*
X453742Y196032D01*
X453764Y196021D01*
X453779Y196017D01*
X453786Y196013D01*
X453827Y196006D01*
X453879Y195999D01*
X453931Y195995D01*
X453982Y195991D01*
X454031Y195987D01*
X454660D01*
Y196757D01*
D02*
G37*
G36*
Y195684D02*
X453986D01*
X453908Y195677D01*
X453846Y195669D01*
X453794Y195662D01*
X453753Y195654D01*
X453720Y195647D01*
X453705Y195643D01*
X453698Y195640D01*
X453650Y195621D01*
X453609Y195599D01*
X453572Y195573D01*
X453542Y195547D01*
X453520Y195525D01*
X453505Y195506D01*
X453494Y195492D01*
X453490Y195488D01*
X453465Y195447D01*
X453446Y195406D01*
X453431Y195366D01*
X453424Y195329D01*
X453416Y195296D01*
X453413Y195266D01*
Y195251D01*
Y195244D01*
X453416Y195199D01*
X453420Y195155D01*
X453428Y195118D01*
X453439Y195088D01*
X453450Y195062D01*
X453457Y195040D01*
X453461Y195029D01*
X453465Y195025D01*
X453487Y194992D01*
X453505Y194963D01*
X453531Y194940D01*
X453550Y194918D01*
X453568Y194903D01*
X453583Y194892D01*
X453594Y194885D01*
X453598Y194881D01*
X453661Y194852D01*
X453723Y194829D01*
X453749Y194822D01*
X453772Y194818D01*
X453786Y194815D01*
X453790D01*
X453820Y194811D01*
X453853Y194807D01*
X453931Y194803D01*
X454660D01*
Y195684D01*
D02*
G37*
G36*
X485706Y297757D02*
X485114D01*
X485066Y297753D01*
X485018D01*
X484973Y297750D01*
X484899Y297739D01*
X484840Y297731D01*
X484792Y297720D01*
X484759Y297709D01*
X484740Y297705D01*
X484733Y297702D01*
X484666Y297668D01*
X484603Y297627D01*
X484548Y297579D01*
X484500Y297531D01*
X484463Y297487D01*
X484433Y297450D01*
X484426Y297435D01*
X484418Y297424D01*
X484411Y297417D01*
Y297413D01*
X484389Y297372D01*
X484366Y297324D01*
X484333Y297228D01*
X484311Y297124D01*
X484292Y297024D01*
X484289Y296980D01*
X484285Y296936D01*
X484281Y296899D01*
Y296865D01*
X484278Y296836D01*
Y296817D01*
Y296802D01*
Y296799D01*
X484281Y296695D01*
X484289Y296599D01*
X484300Y296514D01*
X484311Y296440D01*
X484318Y296410D01*
X484326Y296384D01*
X484333Y296358D01*
X484337Y296340D01*
X484340Y296325D01*
X484344Y296314D01*
X484348Y296307D01*
Y296303D01*
X484374Y296233D01*
X484403Y296170D01*
X484437Y296114D01*
X484466Y296066D01*
X484492Y296029D01*
X484514Y296003D01*
X484529Y295988D01*
X484533Y295981D01*
X484570Y295951D01*
X484607Y295925D01*
X484644Y295903D01*
X484681Y295881D01*
X484714Y295866D01*
X484740Y295855D01*
X484759Y295851D01*
X484766Y295848D01*
X484822Y295833D01*
X484888Y295822D01*
X484955Y295814D01*
X485018Y295811D01*
X485073Y295807D01*
X485099Y295803D01*
X485706D01*
Y297757D01*
D02*
G37*
G36*
X490346Y257794D02*
X490320Y257709D01*
X490290Y257620D01*
X490261Y257531D01*
X490231Y257446D01*
X490216Y257409D01*
X490205Y257372D01*
X490194Y257339D01*
X490183Y257313D01*
X490175Y257291D01*
X490168Y257272D01*
X490164Y257261D01*
Y257258D01*
X489898Y256555D01*
X490764D01*
X490486Y257302D01*
X490453Y257394D01*
X490427Y257483D01*
X490401Y257565D01*
X490383Y257639D01*
X490368Y257701D01*
X490360Y257727D01*
X490357Y257753D01*
X490349Y257768D01*
Y257783D01*
X490346Y257790D01*
Y257794D01*
D02*
G37*
G36*
X487955Y257550D02*
Y256403D01*
X488762D01*
X487955Y257550D01*
D02*
G37*
G36*
X490346Y218294D02*
X490320Y218209D01*
X490290Y218120D01*
X490261Y218031D01*
X490231Y217946D01*
X490216Y217909D01*
X490205Y217872D01*
X490194Y217839D01*
X490183Y217813D01*
X490175Y217791D01*
X490168Y217772D01*
X490164Y217761D01*
Y217758D01*
X489898Y217055D01*
X490764D01*
X490486Y217802D01*
X490453Y217894D01*
X490427Y217983D01*
X490401Y218065D01*
X490383Y218139D01*
X490368Y218201D01*
X490360Y218227D01*
X490357Y218253D01*
X490349Y218268D01*
Y218283D01*
X490346Y218290D01*
Y218294D01*
D02*
G37*
G36*
X488152Y218313D02*
X488129D01*
X488089Y218309D01*
X488048Y218305D01*
X488011Y218294D01*
X487978Y218279D01*
X487915Y218246D01*
X487859Y218209D01*
X487818Y218168D01*
X487785Y218135D01*
X487774Y218120D01*
X487767Y218109D01*
X487759Y218105D01*
Y218102D01*
X487733Y218057D01*
X487711Y218005D01*
X487689Y217946D01*
X487674Y217883D01*
X487659Y217817D01*
X487648Y217746D01*
X487630Y217606D01*
X487622Y217535D01*
X487619Y217473D01*
X487615Y217413D01*
Y217365D01*
X487611Y217321D01*
Y217288D01*
Y217269D01*
Y217265D01*
Y217262D01*
Y217147D01*
X487619Y217043D01*
X487626Y216951D01*
X487634Y216862D01*
X487645Y216788D01*
X487659Y216718D01*
X487674Y216659D01*
X487685Y216603D01*
X487700Y216559D01*
X487715Y216522D01*
X487726Y216488D01*
X487741Y216462D01*
X487748Y216444D01*
X487756Y216433D01*
X487763Y216425D01*
Y216422D01*
X487793Y216385D01*
X487822Y216355D01*
X487852Y216326D01*
X487881Y216303D01*
X487944Y216266D01*
X488000Y216241D01*
X488052Y216226D01*
X488089Y216218D01*
X488103Y216215D01*
X488126D01*
X488166Y216218D01*
X488203Y216222D01*
X488274Y216248D01*
X488337Y216281D01*
X488392Y216318D01*
X488433Y216355D01*
X488466Y216389D01*
X488484Y216414D01*
X488492Y216418D01*
Y216422D01*
X488518Y216466D01*
X488540Y216518D01*
X488562Y216577D01*
X488577Y216640D01*
X488592Y216707D01*
X488603Y216777D01*
X488621Y216921D01*
X488629Y216988D01*
X488632Y217051D01*
X488636Y217110D01*
Y217158D01*
X488640Y217202D01*
Y217236D01*
Y217254D01*
Y217262D01*
X488636Y217376D01*
X488632Y217480D01*
X488625Y217576D01*
X488614Y217665D01*
X488603Y217743D01*
X488588Y217813D01*
X488573Y217876D01*
X488558Y217931D01*
X488544Y217980D01*
X488533Y218020D01*
X488518Y218054D01*
X488507Y218083D01*
X488496Y218102D01*
X488488Y218116D01*
X488481Y218124D01*
Y218127D01*
X488455Y218161D01*
X488429Y218190D01*
X488399Y218213D01*
X488370Y218235D01*
X488311Y218268D01*
X488255Y218290D01*
X488207Y218301D01*
X488166Y218309D01*
X488152Y218313D01*
D02*
G37*
G36*
X490660Y207775D02*
X489853D01*
X489753Y207772D01*
X489668Y207757D01*
X489594Y207738D01*
X489538Y207716D01*
X489490Y207694D01*
X489461Y207676D01*
X489442Y207661D01*
X489435Y207657D01*
X489391Y207609D01*
X489357Y207561D01*
X489335Y207509D01*
X489317Y207465D01*
X489309Y207420D01*
X489305Y207387D01*
X489302Y207365D01*
Y207361D01*
Y207357D01*
X489305Y207313D01*
X489313Y207269D01*
X489324Y207232D01*
X489335Y207198D01*
X489350Y207169D01*
X489361Y207147D01*
X489368Y207132D01*
X489372Y207128D01*
X489398Y207091D01*
X489431Y207058D01*
X489465Y207032D01*
X489498Y207010D01*
X489527Y206995D01*
X489550Y206984D01*
X489564Y206976D01*
X489572Y206973D01*
X489624Y206958D01*
X489683Y206947D01*
X489742Y206939D01*
X489801Y206936D01*
X489853Y206932D01*
X489897Y206928D01*
X490660D01*
Y207775D01*
D02*
G37*
G36*
X491160Y195257D02*
X490553D01*
X490471Y195250D01*
X490409Y195246D01*
X490353Y195238D01*
X490312Y195231D01*
X490286Y195227D01*
X490268Y195220D01*
X490264D01*
X490224Y195205D01*
X490187Y195183D01*
X490157Y195161D01*
X490131Y195139D01*
X490112Y195120D01*
X490098Y195102D01*
X490090Y195090D01*
X490087Y195087D01*
X490064Y195050D01*
X490050Y195013D01*
X490038Y194976D01*
X490031Y194939D01*
X490027Y194909D01*
X490024Y194887D01*
Y194872D01*
Y194865D01*
X490027Y194817D01*
X490035Y194772D01*
X490046Y194735D01*
X490057Y194706D01*
X490068Y194680D01*
X490079Y194658D01*
X490087Y194647D01*
X490090Y194643D01*
X490116Y194613D01*
X490149Y194584D01*
X490183Y194561D01*
X490212Y194547D01*
X490242Y194532D01*
X490264Y194521D01*
X490279Y194517D01*
X490286Y194513D01*
X490327Y194506D01*
X490379Y194499D01*
X490431Y194495D01*
X490483Y194491D01*
X490531Y194487D01*
X491160D01*
Y195257D01*
D02*
G37*
G36*
Y194184D02*
X490486D01*
X490409Y194177D01*
X490346Y194169D01*
X490294Y194162D01*
X490253Y194154D01*
X490220Y194147D01*
X490205Y194143D01*
X490198Y194140D01*
X490149Y194121D01*
X490109Y194099D01*
X490072Y194073D01*
X490042Y194047D01*
X490020Y194025D01*
X490005Y194006D01*
X489994Y193992D01*
X489990Y193988D01*
X489964Y193947D01*
X489946Y193906D01*
X489931Y193866D01*
X489924Y193829D01*
X489916Y193796D01*
X489913Y193766D01*
Y193751D01*
Y193744D01*
X489916Y193699D01*
X489920Y193655D01*
X489927Y193618D01*
X489939Y193588D01*
X489950Y193562D01*
X489957Y193540D01*
X489961Y193529D01*
X489964Y193525D01*
X489987Y193492D01*
X490005Y193463D01*
X490031Y193440D01*
X490050Y193418D01*
X490068Y193403D01*
X490083Y193392D01*
X490094Y193385D01*
X490098Y193381D01*
X490161Y193351D01*
X490224Y193329D01*
X490249Y193322D01*
X490272Y193318D01*
X490286Y193315D01*
X490290D01*
X490320Y193311D01*
X490353Y193307D01*
X490431Y193303D01*
X491160D01*
Y194184D01*
D02*
G37*
G36*
X488418Y195312D02*
X488388D01*
X488325Y195309D01*
X488266Y195294D01*
X488218Y195275D01*
X488174Y195253D01*
X488140Y195231D01*
X488115Y195213D01*
X488096Y195198D01*
X488092Y195194D01*
X488052Y195146D01*
X488022Y195098D01*
X488000Y195050D01*
X487985Y195005D01*
X487978Y194965D01*
X487970Y194931D01*
Y194909D01*
Y194905D01*
Y194902D01*
X487974Y194843D01*
X487989Y194787D01*
X488007Y194739D01*
X488029Y194698D01*
X488052Y194665D01*
X488070Y194643D01*
X488085Y194624D01*
X488089Y194621D01*
X488133Y194584D01*
X488185Y194554D01*
X488233Y194536D01*
X488281Y194521D01*
X488325Y194513D01*
X488359Y194510D01*
X488381Y194506D01*
X488388D01*
X488455Y194510D01*
X488514Y194524D01*
X488566Y194543D01*
X488610Y194565D01*
X488644Y194584D01*
X488669Y194602D01*
X488688Y194617D01*
X488692Y194621D01*
X488729Y194665D01*
X488758Y194717D01*
X488777Y194765D01*
X488792Y194813D01*
X488799Y194854D01*
X488803Y194887D01*
X488806Y194909D01*
Y194913D01*
Y194917D01*
X488803Y194976D01*
X488788Y195028D01*
X488769Y195076D01*
X488747Y195116D01*
X488729Y195150D01*
X488710Y195176D01*
X488695Y195190D01*
X488692Y195194D01*
X488644Y195235D01*
X488595Y195264D01*
X488544Y195283D01*
X488496Y195298D01*
X488451Y195305D01*
X488418Y195312D01*
D02*
G37*
G36*
X488422Y194251D02*
X488399D01*
X488318Y194243D01*
X488244Y194228D01*
X488177Y194202D01*
X488122Y194177D01*
X488077Y194147D01*
X488044Y194121D01*
X488026Y194106D01*
X488018Y194099D01*
X487966Y194040D01*
X487929Y193977D01*
X487904Y193914D01*
X487885Y193858D01*
X487874Y193803D01*
X487870Y193762D01*
X487867Y193747D01*
Y193736D01*
Y193729D01*
Y193725D01*
X487874Y193648D01*
X487889Y193573D01*
X487915Y193511D01*
X487941Y193459D01*
X487966Y193418D01*
X487992Y193385D01*
X488007Y193366D01*
X488015Y193359D01*
X488074Y193311D01*
X488133Y193274D01*
X488196Y193252D01*
X488255Y193233D01*
X488307Y193222D01*
X488351Y193218D01*
X488366Y193215D01*
X488388D01*
X488440Y193218D01*
X488492Y193226D01*
X488540Y193237D01*
X488581Y193248D01*
X488614Y193259D01*
X488640Y193270D01*
X488655Y193278D01*
X488662Y193281D01*
X488706Y193311D01*
X488743Y193340D01*
X488777Y193374D01*
X488803Y193407D01*
X488825Y193433D01*
X488840Y193455D01*
X488847Y193474D01*
X488851Y193477D01*
X488869Y193525D01*
X488884Y193570D01*
X488895Y193614D01*
X488903Y193655D01*
X488906Y193688D01*
X488910Y193714D01*
Y193729D01*
Y193736D01*
X488903Y193814D01*
X488888Y193884D01*
X488866Y193947D01*
X488836Y194003D01*
X488810Y194043D01*
X488788Y194077D01*
X488773Y194095D01*
X488766Y194103D01*
X488710Y194151D01*
X488647Y194188D01*
X488588Y194214D01*
X488529Y194232D01*
X488477Y194243D01*
X488436Y194247D01*
X488422Y194251D01*
D02*
G37*
G36*
X488647Y198812D02*
X488625D01*
X488584Y198809D01*
X488544Y198805D01*
X488507Y198794D01*
X488473Y198779D01*
X488411Y198746D01*
X488355Y198709D01*
X488314Y198668D01*
X488281Y198635D01*
X488270Y198620D01*
X488263Y198609D01*
X488255Y198605D01*
Y198602D01*
X488229Y198557D01*
X488207Y198505D01*
X488185Y198446D01*
X488170Y198383D01*
X488155Y198317D01*
X488144Y198246D01*
X488126Y198106D01*
X488118Y198036D01*
X488115Y197973D01*
X488111Y197913D01*
Y197865D01*
X488107Y197821D01*
Y197788D01*
Y197769D01*
Y197765D01*
Y197762D01*
Y197647D01*
X488115Y197543D01*
X488122Y197451D01*
X488129Y197362D01*
X488140Y197288D01*
X488155Y197218D01*
X488170Y197159D01*
X488181Y197103D01*
X488196Y197059D01*
X488211Y197022D01*
X488222Y196988D01*
X488237Y196962D01*
X488244Y196944D01*
X488251Y196933D01*
X488259Y196925D01*
Y196922D01*
X488288Y196885D01*
X488318Y196855D01*
X488348Y196826D01*
X488377Y196803D01*
X488440Y196766D01*
X488496Y196740D01*
X488547Y196726D01*
X488584Y196718D01*
X488599Y196715D01*
X488621D01*
X488662Y196718D01*
X488699Y196722D01*
X488769Y196748D01*
X488832Y196781D01*
X488888Y196818D01*
X488929Y196855D01*
X488962Y196888D01*
X488980Y196914D01*
X488988Y196918D01*
Y196922D01*
X489014Y196966D01*
X489036Y197018D01*
X489058Y197077D01*
X489073Y197140D01*
X489088Y197207D01*
X489099Y197277D01*
X489117Y197421D01*
X489125Y197488D01*
X489128Y197551D01*
X489132Y197610D01*
Y197658D01*
X489136Y197703D01*
Y197736D01*
Y197754D01*
Y197762D01*
X489132Y197876D01*
X489128Y197980D01*
X489121Y198076D01*
X489110Y198165D01*
X489099Y198243D01*
X489084Y198313D01*
X489069Y198376D01*
X489054Y198431D01*
X489040Y198479D01*
X489028Y198520D01*
X489014Y198554D01*
X489003Y198583D01*
X488991Y198602D01*
X488984Y198616D01*
X488977Y198624D01*
Y198627D01*
X488951Y198661D01*
X488925Y198690D01*
X488895Y198713D01*
X488866Y198735D01*
X488806Y198768D01*
X488751Y198790D01*
X488703Y198801D01*
X488662Y198809D01*
X488647Y198812D01*
D02*
G37*
G36*
X490346Y287794D02*
X490320Y287709D01*
X490290Y287620D01*
X490261Y287531D01*
X490231Y287446D01*
X490216Y287409D01*
X490205Y287372D01*
X490194Y287339D01*
X490183Y287313D01*
X490175Y287291D01*
X490168Y287272D01*
X490164Y287261D01*
Y287258D01*
X489898Y286555D01*
X490764D01*
X490486Y287302D01*
X490453Y287394D01*
X490427Y287483D01*
X490401Y287565D01*
X490383Y287639D01*
X490368Y287702D01*
X490360Y287727D01*
X490357Y287753D01*
X490349Y287768D01*
Y287783D01*
X490346Y287790D01*
Y287794D01*
D02*
G37*
G36*
X488126Y276884D02*
X488103D01*
X488026Y276876D01*
X487955Y276858D01*
X487896Y276836D01*
X487844Y276806D01*
X487804Y276777D01*
X487774Y276754D01*
X487756Y276736D01*
X487748Y276728D01*
X487700Y276665D01*
X487663Y276599D01*
X487637Y276529D01*
X487622Y276462D01*
X487611Y276403D01*
X487608Y276377D01*
Y276355D01*
X487604Y276336D01*
Y276321D01*
Y276314D01*
Y276310D01*
X487611Y276210D01*
X487626Y276125D01*
X487648Y276051D01*
X487674Y275988D01*
X487704Y275940D01*
X487726Y275903D01*
X487741Y275881D01*
X487748Y275877D01*
Y275874D01*
X487774Y275844D01*
X487804Y275822D01*
X487863Y275781D01*
X487922Y275755D01*
X487974Y275733D01*
X488022Y275722D01*
X488059Y275718D01*
X488074Y275715D01*
X488092D01*
X488144Y275718D01*
X488192Y275726D01*
X488237Y275741D01*
X488274Y275755D01*
X488307Y275766D01*
X488333Y275781D01*
X488348Y275789D01*
X488355Y275792D01*
X488399Y275826D01*
X488436Y275859D01*
X488470Y275900D01*
X488496Y275933D01*
X488518Y275966D01*
X488533Y275992D01*
X488544Y276011D01*
X488547Y276018D01*
X488570Y276074D01*
X488584Y276129D01*
X488599Y276181D01*
X488607Y276229D01*
X488610Y276270D01*
X488614Y276303D01*
Y276321D01*
Y276329D01*
X488607Y276418D01*
X488592Y276495D01*
X488566Y276566D01*
X488540Y276621D01*
X488514Y276669D01*
X488488Y276702D01*
X488473Y276721D01*
X488466Y276728D01*
X488407Y276780D01*
X488348Y276817D01*
X488285Y276847D01*
X488229Y276865D01*
X488177Y276876D01*
X488140Y276880D01*
X488126Y276884D01*
D02*
G37*
G36*
X490346Y277794D02*
X490320Y277709D01*
X490290Y277620D01*
X490261Y277531D01*
X490231Y277446D01*
X490216Y277409D01*
X490205Y277372D01*
X490194Y277339D01*
X490183Y277313D01*
X490175Y277291D01*
X490168Y277272D01*
X490164Y277261D01*
Y277257D01*
X489898Y276554D01*
X490764D01*
X490486Y277302D01*
X490453Y277394D01*
X490427Y277483D01*
X490401Y277565D01*
X490383Y277639D01*
X490368Y277701D01*
X490360Y277727D01*
X490357Y277753D01*
X490349Y277768D01*
Y277783D01*
X490346Y277790D01*
Y277794D01*
D02*
G37*
G36*
Y267794D02*
X490320Y267709D01*
X490290Y267620D01*
X490261Y267531D01*
X490231Y267446D01*
X490216Y267409D01*
X490205Y267372D01*
X490194Y267339D01*
X490183Y267313D01*
X490175Y267291D01*
X490168Y267272D01*
X490164Y267261D01*
Y267257D01*
X489898Y266554D01*
X490764D01*
X490486Y267302D01*
X490453Y267394D01*
X490427Y267483D01*
X490401Y267565D01*
X490383Y267639D01*
X490368Y267702D01*
X490360Y267727D01*
X490357Y267753D01*
X490349Y267768D01*
Y267783D01*
X490346Y267790D01*
Y267794D01*
D02*
G37*
G36*
Y247794D02*
X490320Y247709D01*
X490290Y247620D01*
X490261Y247531D01*
X490231Y247446D01*
X490216Y247409D01*
X490205Y247372D01*
X490194Y247339D01*
X490183Y247313D01*
X490175Y247291D01*
X490168Y247272D01*
X490164Y247261D01*
Y247257D01*
X489898Y246554D01*
X490764D01*
X490486Y247302D01*
X490453Y247394D01*
X490427Y247483D01*
X490401Y247565D01*
X490383Y247639D01*
X490368Y247702D01*
X490360Y247727D01*
X490357Y247753D01*
X490349Y247768D01*
Y247783D01*
X490346Y247790D01*
Y247794D01*
D02*
G37*
G36*
Y237794D02*
X490320Y237709D01*
X490290Y237620D01*
X490261Y237531D01*
X490231Y237446D01*
X490216Y237409D01*
X490205Y237372D01*
X490194Y237339D01*
X490183Y237313D01*
X490175Y237291D01*
X490168Y237272D01*
X490164Y237261D01*
Y237258D01*
X489898Y236555D01*
X490764D01*
X490486Y237302D01*
X490453Y237394D01*
X490427Y237483D01*
X490401Y237565D01*
X490383Y237639D01*
X490368Y237702D01*
X490360Y237727D01*
X490357Y237753D01*
X490349Y237768D01*
Y237783D01*
X490346Y237790D01*
Y237794D01*
D02*
G37*
G36*
X490698Y229294D02*
X490672Y229209D01*
X490642Y229120D01*
X490613Y229031D01*
X490583Y228946D01*
X490568Y228909D01*
X490557Y228872D01*
X490546Y228839D01*
X490535Y228813D01*
X490528Y228791D01*
X490520Y228772D01*
X490517Y228761D01*
Y228758D01*
X490250Y228054D01*
X491116D01*
X490838Y228802D01*
X490805Y228894D01*
X490779Y228983D01*
X490753Y229065D01*
X490735Y229139D01*
X490720Y229202D01*
X490713Y229227D01*
X490709Y229253D01*
X490702Y229268D01*
Y229283D01*
X490698Y229290D01*
Y229294D01*
D02*
G37*
G36*
X482469Y309309D02*
X479539D01*
Y308421D01*
X479544Y308348D01*
Y308276D01*
X479550Y308210D01*
X479566Y308099D01*
X479577Y308010D01*
X479594Y307938D01*
X479611Y307888D01*
X479616Y307860D01*
X479622Y307849D01*
X479672Y307749D01*
X479733Y307655D01*
X479805Y307572D01*
X479877Y307499D01*
X479944Y307444D01*
X479999Y307400D01*
X480021Y307388D01*
X480038Y307377D01*
X480049Y307366D01*
X480055D01*
X480116Y307333D01*
X480188Y307300D01*
X480332Y307250D01*
X480488Y307216D01*
X480638Y307189D01*
X480704Y307183D01*
X480771Y307177D01*
X480826Y307172D01*
X480876D01*
X480921Y307166D01*
X480948D01*
X480970D01*
X480976D01*
X481132Y307172D01*
X481276Y307183D01*
X481403Y307200D01*
X481514Y307216D01*
X481559Y307227D01*
X481598Y307239D01*
X481636Y307250D01*
X481664Y307255D01*
X481686Y307261D01*
X481703Y307266D01*
X481714Y307272D01*
X481720D01*
X481825Y307311D01*
X481919Y307355D01*
X482003Y307405D01*
X482075Y307449D01*
X482130Y307488D01*
X482169Y307522D01*
X482192Y307544D01*
X482203Y307549D01*
X482247Y307605D01*
X482286Y307660D01*
X482319Y307716D01*
X482352Y307771D01*
X482375Y307821D01*
X482391Y307860D01*
X482397Y307888D01*
X482402Y307899D01*
X482425Y307982D01*
X482441Y308082D01*
X482452Y308182D01*
X482458Y308276D01*
X482464Y308360D01*
X482469Y308399D01*
Y309309D01*
D02*
G37*
G36*
X468220Y317489D02*
X465289D01*
Y316601D01*
X465295Y316529D01*
Y316457D01*
X465300Y316390D01*
X465317Y316280D01*
X465328Y316191D01*
X465345Y316119D01*
X465361Y316069D01*
X465367Y316041D01*
X465372Y316030D01*
X465422Y315930D01*
X465483Y315835D01*
X465556Y315752D01*
X465628Y315680D01*
X465694Y315625D01*
X465750Y315580D01*
X465772Y315569D01*
X465789Y315558D01*
X465800Y315547D01*
X465805D01*
X465866Y315514D01*
X465939Y315480D01*
X466083Y315430D01*
X466238Y315397D01*
X466388Y315369D01*
X466455Y315364D01*
X466521Y315358D01*
X466577Y315353D01*
X466627D01*
X466671Y315347D01*
X466699D01*
X466721D01*
X466727D01*
X466882Y315353D01*
X467026Y315364D01*
X467154Y315380D01*
X467265Y315397D01*
X467309Y315408D01*
X467348Y315419D01*
X467387Y315430D01*
X467415Y315436D01*
X467437Y315441D01*
X467454Y315447D01*
X467465Y315453D01*
X467470D01*
X467576Y315491D01*
X467670Y315536D01*
X467753Y315586D01*
X467826Y315630D01*
X467881Y315669D01*
X467920Y315702D01*
X467942Y315724D01*
X467953Y315730D01*
X467998Y315786D01*
X468036Y315841D01*
X468070Y315897D01*
X468103Y315952D01*
X468125Y316002D01*
X468142Y316041D01*
X468147Y316069D01*
X468153Y316080D01*
X468175Y316163D01*
X468192Y316263D01*
X468203Y316363D01*
X468209Y316457D01*
X468214Y316540D01*
X468220Y316579D01*
Y317489D01*
D02*
G37*
G36*
X466882Y312267D02*
X466843D01*
X466821D01*
X466815D01*
X466660Y312261D01*
X466516Y312250D01*
X466377Y312233D01*
X466255Y312206D01*
X466144Y312178D01*
X466044Y312145D01*
X465950Y312106D01*
X465872Y312073D01*
X465800Y312034D01*
X465739Y312000D01*
X465689Y311967D01*
X465650Y311939D01*
X465617Y311912D01*
X465594Y311895D01*
X465583Y311884D01*
X465578Y311878D01*
X465511Y311806D01*
X465456Y311729D01*
X465406Y311651D01*
X465361Y311567D01*
X465328Y311490D01*
X465295Y311412D01*
X465250Y311268D01*
X465239Y311201D01*
X465228Y311140D01*
X465217Y311090D01*
X465211Y311040D01*
X465206Y311001D01*
Y310951D01*
X465211Y310813D01*
X465234Y310680D01*
X465267Y310563D01*
X465300Y310463D01*
X465339Y310380D01*
X465356Y310347D01*
X465367Y310319D01*
X465383Y310291D01*
X465389Y310274D01*
X465400Y310269D01*
Y310263D01*
X465478Y310158D01*
X465567Y310064D01*
X465656Y309980D01*
X465744Y309914D01*
X465822Y309864D01*
X465889Y309825D01*
X465911Y309814D01*
X465927Y309803D01*
X465939Y309797D01*
X465944D01*
X466077Y309742D01*
X466222Y309703D01*
X466355Y309675D01*
X466482Y309658D01*
X466543Y309647D01*
X466593Y309642D01*
X466643D01*
X466682Y309636D01*
X466715D01*
X466738D01*
X466754D01*
X466760D01*
X466893Y309642D01*
X467021Y309653D01*
X467143Y309669D01*
X467254Y309692D01*
X467354Y309725D01*
X467448Y309753D01*
X467537Y309786D01*
X467615Y309819D01*
X467681Y309858D01*
X467742Y309891D01*
X467792Y309919D01*
X467831Y309947D01*
X467864Y309975D01*
X467892Y309991D01*
X467903Y310002D01*
X467909Y310008D01*
X467981Y310080D01*
X468042Y310158D01*
X468092Y310236D01*
X468142Y310313D01*
X468181Y310391D01*
X468209Y310474D01*
X468236Y310546D01*
X468258Y310624D01*
X468275Y310691D01*
X468286Y310757D01*
X468297Y310813D01*
X468303Y310863D01*
Y310901D01*
X468308Y310929D01*
Y310957D01*
X468303Y311063D01*
X468292Y311162D01*
X468269Y311251D01*
X468247Y311340D01*
X468214Y311423D01*
X468181Y311501D01*
X468147Y311573D01*
X468109Y311640D01*
X468070Y311695D01*
X468036Y311745D01*
X468003Y311789D01*
X467970Y311828D01*
X467948Y311856D01*
X467925Y311878D01*
X467914Y311889D01*
X467909Y311895D01*
X467831Y311962D01*
X467748Y312017D01*
X467659Y312067D01*
X467570Y312111D01*
X467476Y312145D01*
X467387Y312178D01*
X467209Y312222D01*
X467132Y312233D01*
X467054Y312245D01*
X466988Y312256D01*
X466932Y312261D01*
X466882Y312267D01*
D02*
G37*
G36*
X488879Y191125D02*
X488835D01*
X488754Y191118D01*
X488672Y191110D01*
X488598Y191088D01*
X488532Y191058D01*
X488406Y190992D01*
X488295Y190918D01*
X488213Y190836D01*
X488147Y190770D01*
X488125Y190740D01*
X488110Y190718D01*
X488095Y190711D01*
Y190703D01*
X488043Y190614D01*
X487999Y190511D01*
X487954Y190392D01*
X487925Y190267D01*
X487895Y190133D01*
X487873Y189993D01*
X487836Y189712D01*
X487821Y189571D01*
X487814Y189445D01*
X487806Y189327D01*
Y189231D01*
X487799Y189142D01*
Y189075D01*
Y189038D01*
Y189031D01*
Y189023D01*
Y188794D01*
X487814Y188587D01*
X487829Y188402D01*
X487843Y188224D01*
X487866Y188076D01*
X487895Y187936D01*
X487925Y187817D01*
X487947Y187706D01*
X487977Y187617D01*
X488006Y187543D01*
X488028Y187477D01*
X488058Y187425D01*
X488073Y187388D01*
X488088Y187366D01*
X488102Y187351D01*
Y187344D01*
X488162Y187270D01*
X488221Y187210D01*
X488280Y187151D01*
X488339Y187107D01*
X488465Y187033D01*
X488576Y186981D01*
X488680Y186951D01*
X488754Y186937D01*
X488783Y186929D01*
X488828D01*
X488909Y186937D01*
X488983Y186944D01*
X489124Y186996D01*
X489249Y187062D01*
X489360Y187136D01*
X489442Y187210D01*
X489508Y187277D01*
X489545Y187329D01*
X489560Y187336D01*
Y187344D01*
X489612Y187432D01*
X489656Y187536D01*
X489701Y187654D01*
X489730Y187780D01*
X489760Y187913D01*
X489782Y188054D01*
X489819Y188343D01*
X489834Y188476D01*
X489841Y188602D01*
X489849Y188720D01*
Y188816D01*
X489856Y188905D01*
Y188972D01*
Y189009D01*
Y189023D01*
X489849Y189253D01*
X489841Y189460D01*
X489827Y189652D01*
X489804Y189830D01*
X489782Y189985D01*
X489753Y190126D01*
X489723Y190252D01*
X489693Y190363D01*
X489664Y190459D01*
X489642Y190540D01*
X489612Y190607D01*
X489590Y190666D01*
X489568Y190703D01*
X489553Y190733D01*
X489538Y190748D01*
Y190755D01*
X489486Y190822D01*
X489434Y190881D01*
X489375Y190925D01*
X489316Y190970D01*
X489198Y191036D01*
X489087Y191081D01*
X488990Y191103D01*
X488909Y191118D01*
X488879Y191125D01*
D02*
G37*
%LPD*%
D12*
X457229Y253465D02*
G03*
X458804Y251890I1575J0D01*
G01*
Y258110D02*
G03*
X457229Y256535I0J-1575D01*
G01*
X469315Y256535D02*
G03*
X467741Y258110I-1575J0D01*
G01*
X467741Y251890D02*
G03*
X469315Y253465I-0J1575D01*
G01*
X473304Y275071D02*
G03*
X471729Y273496I0J-1575D01*
G01*
X471729Y270425D02*
G03*
X473304Y268850I1575J0D01*
G01*
X482241Y268850D02*
G03*
X483815Y270425I-0J1575D01*
G01*
Y273496D02*
G03*
X482241Y275071I-1575J0D01*
G01*
X467741Y259193D02*
G03*
X469315Y260768I-0J1575D01*
G01*
X469315Y263839D02*
G03*
X467741Y265413I-1575J0D01*
G01*
X458804Y265413D02*
G03*
X457229Y263839I0J-1575D01*
G01*
Y260768D02*
G03*
X458804Y259193I1575J0D01*
G01*
X474083Y205256D02*
G03*
X475658Y203681I1575J0D01*
G01*
X478728Y203681D02*
G03*
X480303Y205256I0J1575D01*
G01*
X480303Y214193D02*
G03*
X478728Y215768I-1575J-0D01*
G01*
X475658D02*
G03*
X474083Y214193I0J-1575D01*
G01*
X460697Y205532D02*
G03*
X462272Y203957I1575J0D01*
G01*
X465343Y203957D02*
G03*
X466917Y205532I0J1575D01*
G01*
X466917Y214469D02*
G03*
X465343Y216043I-1575J-0D01*
G01*
X462272D02*
G03*
X460697Y214469I0J-1575D01*
G01*
X486850Y215905D02*
X487610Y215118D01*
X481390D02*
X482150Y215905D01*
X481390Y211575D02*
Y215118D01*
Y203957D02*
X487610D01*
X482150Y215905D02*
X486850D01*
X481390Y203957D02*
Y208425D01*
X487610Y211575D02*
Y215118D01*
Y203957D02*
Y208425D01*
X479347Y289110D02*
X483815D01*
X471729Y282890D02*
Y289110D01*
X483815Y282890D02*
Y289110D01*
X471729D02*
X476197D01*
X479347Y282890D02*
X483815D01*
X471729D02*
X476197D01*
X457229D02*
X461697D01*
X469315D02*
Y289110D01*
X457229Y282890D02*
Y289110D01*
X464847Y282890D02*
X469315D01*
X457229Y289110D02*
X461697D01*
X464847D02*
X469315D01*
X458804Y258110D02*
X461697D01*
X464847Y258110D02*
X467741D01*
X464847Y251890D02*
X467741D01*
X457229Y253465D02*
Y256535D01*
X469315Y253465D02*
Y256535D01*
X458804Y251890D02*
X461697D01*
X457229Y275890D02*
X461697D01*
X464847D02*
X469315D01*
X457229Y282110D02*
X461697D01*
X469315Y275890D02*
Y282110D01*
X457229Y275890D02*
Y282110D01*
X464847D02*
X469315D01*
X471729Y275890D02*
X476197D01*
X483815D02*
Y282110D01*
X471729Y275890D02*
Y282110D01*
X479347Y275890D02*
X483815D01*
X471729Y282110D02*
X476197D01*
X479347D02*
X483815D01*
X479347Y275071D02*
X482241D01*
X471729Y270425D02*
Y273496D01*
X483815Y270425D02*
Y273496D01*
X473304Y275071D02*
X476197D01*
X473304Y268850D02*
X476197D01*
X479347Y268850D02*
X482241D01*
X458804Y259193D02*
X461697D01*
X469315Y260768D02*
Y263839D01*
X457229Y260768D02*
Y263839D01*
X464847Y259193D02*
X467741D01*
X464847Y265413D02*
X467741D01*
X458804Y265413D02*
X461697D01*
X453390Y211606D02*
Y216075D01*
Y203988D02*
X459610D01*
X453390Y216075D02*
X459610D01*
X453390Y203988D02*
Y208457D01*
X459610Y211606D02*
Y216075D01*
Y203988D02*
Y208457D01*
X474083Y211299D02*
Y214193D01*
X475658Y203681D02*
X478728D01*
X475658Y215768D02*
X478728D01*
X474083Y205256D02*
Y208150D01*
X480303Y205256D02*
Y208150D01*
X480303Y211299D02*
Y214193D01*
X460697Y211575D02*
Y214469D01*
X462272Y203957D02*
X465343D01*
X462272Y216043D02*
X465343D01*
X460697Y205532D02*
Y208425D01*
X466917Y205532D02*
Y208425D01*
X466917Y211575D02*
Y214469D01*
X457229Y268850D02*
X461697D01*
X469315D02*
Y275071D01*
X457229Y268850D02*
Y275071D01*
X464847Y268850D02*
X469315D01*
X457229Y275071D02*
X461697D01*
X464847D02*
X469315D01*
D64*
X471968Y265512D02*
G03*
X471968Y265512I-276J0D01*
G01*
D65*
X484500Y217185D02*
D03*
M02*
