G04*
G04 #@! TF.GenerationSoftware,Altium Limited,Altium Designer,19.0.4 (130)*
G04*
G04 Layer_Color=255*
%FSLAX25Y25*%
%MOIN*%
G70*
G01*
G75*
%ADD15R,0.02362X0.04528*%
%ADD16R,0.01181X0.04528*%
%ADD17P,0.00557X4X180.0*%
G04:AMPARAMS|DCode=18|XSize=21.65mil|YSize=11.81mil|CornerRadius=0mil|HoleSize=0mil|Usage=FLASHONLY|Rotation=135.000|XOffset=0mil|YOffset=0mil|HoleType=Round|Shape=Rectangle|*
%AMROTATEDRECTD18*
4,1,4,0.01183,-0.00348,0.00348,-0.01183,-0.01183,0.00348,-0.00348,0.01183,0.01183,-0.00348,0.0*
%
%ADD18ROTATEDRECTD18*%

%ADD19P,0.00557X4X270.0*%
G04:AMPARAMS|DCode=20|XSize=21.65mil|YSize=11.81mil|CornerRadius=0mil|HoleSize=0mil|Usage=FLASHONLY|Rotation=225.000|XOffset=0mil|YOffset=0mil|HoleType=Round|Shape=Rectangle|*
%AMROTATEDRECTD20*
4,1,4,0.00348,0.01183,0.01183,0.00348,-0.00348,-0.01183,-0.01183,-0.00348,0.00348,0.01183,0.0*
%
%ADD20ROTATEDRECTD20*%

%ADD21R,0.06299X0.03937*%
%ADD22R,0.04528X0.05512*%
%ADD41C,0.05906*%
%ADD42R,0.05906X0.05906*%
%ADD43O,0.03937X0.07874*%
%ADD44O,0.04134X0.08268*%
%ADD45C,0.02559*%
%ADD46R,0.06000X0.07000*%
%ADD47O,0.06000X0.07000*%
D15*
X483091Y292736D02*
D03*
X457894D02*
D03*
X479941D02*
D03*
X461043D02*
D03*
D16*
X469508D02*
D03*
X471476D02*
D03*
X467539D02*
D03*
X465571D02*
D03*
X463602D02*
D03*
X473445D02*
D03*
X475413D02*
D03*
X477382D02*
D03*
D17*
X471613Y225035D02*
D03*
X479965Y233387D02*
D03*
X469387Y243965D02*
D03*
X461035Y235613D02*
D03*
D18*
X472936Y226496D02*
D03*
X474328Y227888D02*
D03*
X475720Y229280D02*
D03*
X477112Y230672D02*
D03*
X478504Y232064D02*
D03*
X468064Y242504D02*
D03*
X466672Y241112D02*
D03*
X465280Y239720D02*
D03*
X463888Y238328D02*
D03*
X462496Y236936D02*
D03*
D19*
X479965Y235613D02*
D03*
X471613Y243965D02*
D03*
X461035Y233387D02*
D03*
X469387Y225035D02*
D03*
D20*
X478504Y236936D02*
D03*
X477112Y238328D02*
D03*
X475720Y239720D02*
D03*
X474328Y241112D02*
D03*
X472936Y242504D02*
D03*
X462496Y232064D02*
D03*
X463888Y230672D02*
D03*
X465280Y229280D02*
D03*
X466672Y227888D02*
D03*
X468064Y226496D02*
D03*
D21*
X483098Y257020D02*
D03*
X457902D02*
D03*
X483098Y271980D02*
D03*
X457902D02*
D03*
D22*
X467350Y214331D02*
D03*
X473650Y205669D02*
D03*
X467350D02*
D03*
X473650Y214331D02*
D03*
D41*
X497500Y176500D02*
D03*
Y186500D02*
D03*
Y196500D02*
D03*
Y206500D02*
D03*
Y216500D02*
D03*
Y226500D02*
D03*
Y236500D02*
D03*
Y246500D02*
D03*
Y256500D02*
D03*
Y266500D02*
D03*
Y276500D02*
D03*
Y286500D02*
D03*
Y296500D02*
D03*
Y306500D02*
D03*
X443500Y176500D02*
D03*
Y186500D02*
D03*
Y196500D02*
D03*
Y206500D02*
D03*
Y216500D02*
D03*
Y226500D02*
D03*
Y236500D02*
D03*
Y246500D02*
D03*
Y256500D02*
D03*
Y266500D02*
D03*
Y276500D02*
D03*
Y286500D02*
D03*
Y296500D02*
D03*
Y306500D02*
D03*
D42*
X497500Y316500D02*
D03*
X443500D02*
D03*
D43*
X487500Y311457D02*
D03*
X453484D02*
D03*
D44*
X487500Y295000D02*
D03*
X453484D02*
D03*
D45*
X459114Y296969D02*
D03*
X481870D02*
D03*
D46*
X480000Y189500D02*
D03*
X485000Y176500D02*
D03*
D47*
X470000Y189500D02*
D03*
X460000D02*
D03*
X455000Y176500D02*
D03*
X465000D02*
D03*
X475000D02*
D03*
M02*
