G04*
G04 #@! TF.GenerationSoftware,Altium Limited,Altium Designer,19.0.4 (130)*
G04*
G04 Layer_Color=128*
%FSLAX25Y25*%
%MOIN*%
G70*
G01*
G75*
%ADD51R,0.03858X0.03661*%
G04:AMPARAMS|DCode=52|XSize=61.42mil|YSize=16.14mil|CornerRadius=2.02mil|HoleSize=0mil|Usage=FLASHONLY|Rotation=180.000|XOffset=0mil|YOffset=0mil|HoleType=Round|Shape=RoundedRectangle|*
%AMROUNDEDRECTD52*
21,1,0.06142,0.01211,0,0,180.0*
21,1,0.05738,0.01614,0,0,180.0*
1,1,0.00404,-0.02869,0.00605*
1,1,0.00404,0.02869,0.00605*
1,1,0.00404,0.02869,-0.00605*
1,1,0.00404,-0.02869,-0.00605*
%
%ADD52ROUNDEDRECTD52*%
%ADD53R,0.03661X0.03858*%
G04:AMPARAMS|DCode=54|XSize=26.38mil|YSize=46.06mil|CornerRadius=1.58mil|HoleSize=0mil|Usage=FLASHONLY|Rotation=0.000|XOffset=0mil|YOffset=0mil|HoleType=Round|Shape=RoundedRectangle|*
%AMROUNDEDRECTD54*
21,1,0.02638,0.04290,0,0,0.0*
21,1,0.02321,0.04606,0,0,0.0*
1,1,0.00317,0.01161,-0.02145*
1,1,0.00317,-0.01161,-0.02145*
1,1,0.00317,-0.01161,0.02145*
1,1,0.00317,0.01161,0.02145*
%
%ADD54ROUNDEDRECTD54*%
D51*
X484500Y213032D02*
D03*
Y206968D02*
D03*
X456500Y213063D02*
D03*
Y207000D02*
D03*
X477193Y212756D02*
D03*
Y206693D02*
D03*
X463807Y213032D02*
D03*
Y206968D02*
D03*
D52*
X481839Y225484D02*
D03*
Y228043D02*
D03*
Y230602D02*
D03*
Y233161D02*
D03*
Y235720D02*
D03*
Y238280D02*
D03*
Y240839D02*
D03*
Y243398D02*
D03*
Y245957D02*
D03*
Y248516D02*
D03*
X459161D02*
D03*
Y245957D02*
D03*
Y243398D02*
D03*
Y240839D02*
D03*
Y238280D02*
D03*
Y235720D02*
D03*
Y233161D02*
D03*
Y230602D02*
D03*
Y228043D02*
D03*
Y225484D02*
D03*
D53*
X480803Y286000D02*
D03*
X474741D02*
D03*
X460241D02*
D03*
X466304D02*
D03*
X466303Y255000D02*
D03*
X460241D02*
D03*
Y279000D02*
D03*
X466303D02*
D03*
X474741D02*
D03*
X480804D02*
D03*
X480804Y271961D02*
D03*
X474741D02*
D03*
X460241Y262303D02*
D03*
X466304D02*
D03*
X460241Y271961D02*
D03*
X466304D02*
D03*
D54*
X474291Y255197D02*
D03*
X481693D02*
D03*
Y264803D02*
D03*
X477992D02*
D03*
X474291D02*
D03*
M02*
