G04*
G04 #@! TF.GenerationSoftware,Altium Limited,Altium Designer,19.0.4 (130)*
G04*
G04 Layer_Color=65535*
%FSLAX25Y25*%
%MOIN*%
G70*
G01*
G75*
%ADD10C,0.01181*%
%ADD11C,0.00500*%
%ADD12C,0.00787*%
%ADD13C,0.01000*%
%ADD14C,0.00800*%
G36*
X451851Y297601D02*
X451880D01*
X451950Y297594D01*
X452028Y297583D01*
X452109Y297564D01*
X452198Y297542D01*
X452283Y297512D01*
X452287D01*
X452294Y297509D01*
X452306Y297505D01*
X452320Y297498D01*
X452361Y297475D01*
X452413Y297449D01*
X452468Y297412D01*
X452528Y297368D01*
X452583Y297320D01*
X452635Y297261D01*
X452642Y297253D01*
X452657Y297231D01*
X452679Y297198D01*
X452709Y297150D01*
X452739Y297091D01*
X452772Y297017D01*
X452805Y296935D01*
X452831Y296843D01*
X452524Y296761D01*
Y296765D01*
X452520Y296769D01*
X452517Y296780D01*
X452513Y296795D01*
X452502Y296828D01*
X452487Y296872D01*
X452465Y296924D01*
X452439Y296972D01*
X452413Y297024D01*
X452380Y297068D01*
X452376Y297072D01*
X452365Y297087D01*
X452343Y297105D01*
X452317Y297131D01*
X452283Y297161D01*
X452239Y297190D01*
X452191Y297220D01*
X452135Y297246D01*
X452128Y297250D01*
X452109Y297257D01*
X452076Y297268D01*
X452032Y297283D01*
X451980Y297294D01*
X451921Y297305D01*
X451854Y297312D01*
X451784Y297316D01*
X451743D01*
X451725Y297312D01*
X451702D01*
X451647Y297309D01*
X451584Y297298D01*
X451514Y297287D01*
X451447Y297268D01*
X451381Y297242D01*
X451373Y297238D01*
X451351Y297231D01*
X451321Y297213D01*
X451284Y297194D01*
X451240Y297165D01*
X451192Y297135D01*
X451148Y297098D01*
X451107Y297057D01*
X451103Y297054D01*
X451088Y297039D01*
X451070Y297013D01*
X451048Y296983D01*
X451022Y296946D01*
X450996Y296902D01*
X450970Y296854D01*
X450944Y296802D01*
Y296798D01*
X450940Y296791D01*
X450937Y296780D01*
X450929Y296761D01*
X450922Y296739D01*
X450914Y296713D01*
X450903Y296684D01*
X450896Y296650D01*
X450877Y296572D01*
X450863Y296484D01*
X450851Y296391D01*
X450848Y296288D01*
Y296284D01*
Y296273D01*
Y296254D01*
X450851Y296232D01*
Y296202D01*
X450855Y296165D01*
X450859Y296129D01*
X450863Y296088D01*
X450877Y295995D01*
X450896Y295899D01*
X450925Y295803D01*
X450962Y295710D01*
Y295707D01*
X450970Y295699D01*
X450974Y295688D01*
X450985Y295673D01*
X451011Y295633D01*
X451051Y295581D01*
X451099Y295525D01*
X451159Y295470D01*
X451229Y295418D01*
X451307Y295370D01*
X451310D01*
X451318Y295366D01*
X451329Y295359D01*
X451347Y295352D01*
X451366Y295344D01*
X451392Y295337D01*
X451451Y295315D01*
X451525Y295296D01*
X451606Y295278D01*
X451695Y295263D01*
X451788Y295259D01*
X451825D01*
X451847Y295263D01*
X451869D01*
X451925Y295270D01*
X451991Y295278D01*
X452061Y295292D01*
X452139Y295315D01*
X452217Y295340D01*
X452220D01*
X452228Y295344D01*
X452235Y295348D01*
X452250Y295355D01*
X452291Y295374D01*
X452335Y295396D01*
X452387Y295422D01*
X452443Y295451D01*
X452494Y295485D01*
X452539Y295522D01*
Y296003D01*
X451784D01*
Y296306D01*
X452872D01*
Y295355D01*
X452868Y295352D01*
X452861Y295348D01*
X452846Y295337D01*
X452827Y295322D01*
X452805Y295307D01*
X452779Y295289D01*
X452746Y295266D01*
X452713Y295244D01*
X452635Y295196D01*
X452546Y295144D01*
X452454Y295096D01*
X452354Y295056D01*
X452350D01*
X452343Y295052D01*
X452328Y295048D01*
X452309Y295041D01*
X452283Y295033D01*
X452254Y295022D01*
X452220Y295015D01*
X452187Y295007D01*
X452106Y294989D01*
X452013Y294970D01*
X451913Y294959D01*
X451810Y294956D01*
X451773D01*
X451747Y294959D01*
X451714D01*
X451673Y294963D01*
X451628Y294970D01*
X451580Y294974D01*
X451473Y294996D01*
X451358Y295022D01*
X451240Y295063D01*
X451181Y295085D01*
X451122Y295115D01*
X451118Y295118D01*
X451107Y295122D01*
X451092Y295133D01*
X451070Y295144D01*
X451044Y295163D01*
X451018Y295181D01*
X450948Y295233D01*
X450874Y295300D01*
X450796Y295381D01*
X450722Y295474D01*
X450655Y295581D01*
Y295585D01*
X450648Y295596D01*
X450641Y295610D01*
X450630Y295636D01*
X450618Y295662D01*
X450607Y295699D01*
X450593Y295736D01*
X450578Y295781D01*
X450563Y295829D01*
X450548Y295884D01*
X450537Y295940D01*
X450526Y295999D01*
X450507Y296129D01*
X450500Y296265D01*
Y296269D01*
Y296284D01*
Y296302D01*
X450504Y296328D01*
Y296362D01*
X450507Y296402D01*
X450515Y296443D01*
X450519Y296491D01*
X450530Y296543D01*
X450537Y296598D01*
X450567Y296717D01*
X450604Y296839D01*
X450655Y296961D01*
X450659Y296965D01*
X450663Y296976D01*
X450670Y296991D01*
X450685Y297013D01*
X450700Y297042D01*
X450718Y297072D01*
X450770Y297142D01*
X450833Y297224D01*
X450911Y297301D01*
X450999Y297379D01*
X451051Y297412D01*
X451103Y297446D01*
X451107Y297449D01*
X451118Y297453D01*
X451133Y297461D01*
X451155Y297472D01*
X451185Y297483D01*
X451218Y297498D01*
X451255Y297512D01*
X451299Y297527D01*
X451347Y297542D01*
X451399Y297553D01*
X451455Y297568D01*
X451514Y297579D01*
X451643Y297597D01*
X451710Y297605D01*
X451828D01*
X451851Y297601D01*
D02*
G37*
G36*
X455384Y295000D02*
X455032D01*
X453693Y297009D01*
Y295000D01*
X453368D01*
Y297560D01*
X453715D01*
X455058Y295548D01*
Y297560D01*
X455384D01*
Y295000D01*
D02*
G37*
G36*
X457005Y297557D02*
X457079Y297553D01*
X457153Y297546D01*
X457227Y297534D01*
X457290Y297523D01*
X457293D01*
X457301Y297520D01*
X457312D01*
X457327Y297512D01*
X457367Y297501D01*
X457419Y297483D01*
X457478Y297457D01*
X457541Y297424D01*
X457604Y297387D01*
X457663Y297338D01*
X457667Y297335D01*
X457671Y297331D01*
X457682Y297320D01*
X457696Y297309D01*
X457733Y297272D01*
X457778Y297220D01*
X457826Y297157D01*
X457878Y297083D01*
X457926Y296998D01*
X457967Y296902D01*
Y296898D01*
X457970Y296891D01*
X457978Y296876D01*
X457981Y296854D01*
X457993Y296828D01*
X458000Y296798D01*
X458007Y296765D01*
X458018Y296724D01*
X458030Y296684D01*
X458037Y296635D01*
X458055Y296532D01*
X458067Y296417D01*
X458070Y296291D01*
Y296288D01*
Y296280D01*
Y296262D01*
Y296243D01*
X458067Y296217D01*
Y296188D01*
X458063Y296117D01*
X458052Y296036D01*
X458041Y295951D01*
X458022Y295862D01*
X458000Y295773D01*
Y295770D01*
X457996Y295762D01*
X457993Y295751D01*
X457989Y295736D01*
X457974Y295696D01*
X457952Y295644D01*
X457930Y295585D01*
X457900Y295525D01*
X457863Y295462D01*
X457826Y295403D01*
X457822Y295396D01*
X457807Y295377D01*
X457785Y295352D01*
X457756Y295318D01*
X457722Y295281D01*
X457682Y295244D01*
X457641Y295203D01*
X457593Y295170D01*
X457585Y295166D01*
X457571Y295155D01*
X457545Y295141D01*
X457508Y295122D01*
X457463Y295100D01*
X457412Y295081D01*
X457352Y295059D01*
X457286Y295041D01*
X457278D01*
X457267Y295037D01*
X457256Y295033D01*
X457219Y295030D01*
X457167Y295022D01*
X457108Y295015D01*
X457038Y295007D01*
X456960Y295004D01*
X456875Y295000D01*
X455954D01*
Y297560D01*
X456938D01*
X457005Y297557D01*
D02*
G37*
G36*
X452032Y288057D02*
X452062D01*
X452129Y288049D01*
X452203Y288042D01*
X452280Y288027D01*
X452358Y288009D01*
X452428Y287983D01*
X452432D01*
X452436Y287979D01*
X452458Y287968D01*
X452491Y287949D01*
X452528Y287924D01*
X452572Y287890D01*
X452621Y287849D01*
X452665Y287798D01*
X452706Y287742D01*
X452709Y287735D01*
X452720Y287713D01*
X452739Y287683D01*
X452758Y287639D01*
X452776Y287587D01*
X452795Y287531D01*
X452806Y287468D01*
X452809Y287405D01*
Y287398D01*
Y287380D01*
X452806Y287346D01*
X452798Y287306D01*
X452787Y287258D01*
X452769Y287206D01*
X452746Y287154D01*
X452717Y287098D01*
X452713Y287091D01*
X452702Y287076D01*
X452680Y287047D01*
X452650Y287017D01*
X452613Y286980D01*
X452569Y286939D01*
X452513Y286902D01*
X452450Y286865D01*
X452454D01*
X452461Y286862D01*
X452473Y286858D01*
X452487Y286851D01*
X452532Y286836D01*
X452584Y286810D01*
X452639Y286776D01*
X452702Y286736D01*
X452758Y286688D01*
X452809Y286629D01*
X452813Y286621D01*
X452828Y286599D01*
X452850Y286566D01*
X452872Y286521D01*
X452894Y286462D01*
X452917Y286399D01*
X452931Y286325D01*
X452935Y286244D01*
Y286240D01*
Y286236D01*
Y286214D01*
X452931Y286177D01*
X452924Y286133D01*
X452917Y286081D01*
X452902Y286025D01*
X452883Y285966D01*
X452857Y285907D01*
X452854Y285900D01*
X452843Y285881D01*
X452828Y285855D01*
X452806Y285818D01*
X452776Y285781D01*
X452746Y285740D01*
X452709Y285700D01*
X452669Y285666D01*
X452665Y285663D01*
X452650Y285652D01*
X452624Y285637D01*
X452591Y285622D01*
X452550Y285600D01*
X452502Y285578D01*
X452450Y285559D01*
X452388Y285541D01*
X452380D01*
X452358Y285533D01*
X452321Y285530D01*
X452273Y285522D01*
X452214Y285515D01*
X452143Y285507D01*
X452066Y285504D01*
X451977Y285500D01*
X451000D01*
Y288060D01*
X452006D01*
X452032Y288057D01*
D02*
G37*
G36*
X454182Y288068D02*
X454230Y288060D01*
X454286Y288049D01*
X454345Y288035D01*
X454408Y288016D01*
X454467Y287986D01*
X454471D01*
X454474Y287983D01*
X454493Y287972D01*
X454522Y287953D01*
X454559Y287927D01*
X454600Y287890D01*
X454644Y287849D01*
X454685Y287801D01*
X454726Y287746D01*
X454730Y287738D01*
X454744Y287720D01*
X454759Y287687D01*
X454785Y287639D01*
X454807Y287583D01*
X454837Y287520D01*
X454863Y287446D01*
X454885Y287365D01*
Y287361D01*
X454889Y287354D01*
X454892Y287343D01*
X454896Y287324D01*
X454900Y287302D01*
X454904Y287276D01*
X454911Y287243D01*
X454915Y287206D01*
X454922Y287165D01*
X454926Y287121D01*
X454929Y287069D01*
X454937Y287017D01*
X454941Y286958D01*
Y286899D01*
X454944Y286832D01*
Y286762D01*
Y286758D01*
Y286743D01*
Y286717D01*
Y286688D01*
X454941Y286647D01*
Y286603D01*
X454937Y286555D01*
X454933Y286503D01*
X454922Y286384D01*
X454904Y286262D01*
X454881Y286144D01*
X454867Y286088D01*
X454848Y286033D01*
Y286029D01*
X454844Y286022D01*
X454837Y286007D01*
X454830Y285988D01*
X454822Y285963D01*
X454807Y285937D01*
X454778Y285874D01*
X454741Y285807D01*
X454693Y285733D01*
X454637Y285666D01*
X454570Y285604D01*
X454567D01*
X454563Y285596D01*
X454552Y285589D01*
X454537Y285581D01*
X454519Y285570D01*
X454500Y285556D01*
X454445Y285530D01*
X454378Y285504D01*
X454300Y285478D01*
X454208Y285463D01*
X454108Y285456D01*
X454071D01*
X454045Y285459D01*
X454015Y285463D01*
X453978Y285470D01*
X453938Y285478D01*
X453893Y285489D01*
X453849Y285504D01*
X453801Y285519D01*
X453753Y285541D01*
X453705Y285567D01*
X453657Y285596D01*
X453609Y285633D01*
X453564Y285674D01*
X453523Y285718D01*
X453520Y285722D01*
X453512Y285733D01*
X453501Y285752D01*
X453483Y285781D01*
X453464Y285814D01*
X453446Y285859D01*
X453420Y285911D01*
X453398Y285970D01*
X453375Y286036D01*
X453353Y286114D01*
X453331Y286199D01*
X453312Y286296D01*
X453294Y286399D01*
X453283Y286510D01*
X453275Y286632D01*
X453272Y286762D01*
Y286765D01*
Y286780D01*
Y286806D01*
Y286836D01*
X453275Y286876D01*
Y286921D01*
X453279Y286969D01*
X453283Y287024D01*
X453294Y287139D01*
X453312Y287261D01*
X453335Y287383D01*
X453349Y287439D01*
X453364Y287494D01*
Y287498D01*
X453368Y287505D01*
X453375Y287520D01*
X453383Y287539D01*
X453390Y287565D01*
X453405Y287591D01*
X453435Y287653D01*
X453472Y287720D01*
X453520Y287790D01*
X453575Y287861D01*
X453642Y287920D01*
X453646D01*
X453649Y287927D01*
X453660Y287935D01*
X453675Y287942D01*
X453694Y287957D01*
X453716Y287968D01*
X453771Y287998D01*
X453838Y288023D01*
X453916Y288049D01*
X454008Y288064D01*
X454108Y288071D01*
X454141D01*
X454182Y288068D01*
D02*
G37*
G36*
X455909Y248634D02*
X455958Y248627D01*
X456017Y248616D01*
X456083Y248597D01*
X456150Y248575D01*
X456216Y248546D01*
X456220D01*
X456224Y248542D01*
X456246Y248531D01*
X456279Y248509D01*
X456316Y248483D01*
X456361Y248446D01*
X456405Y248405D01*
X456450Y248357D01*
X456487Y248301D01*
X456490Y248294D01*
X456501Y248275D01*
X456516Y248242D01*
X456535Y248201D01*
X456553Y248153D01*
X456568Y248098D01*
X456579Y248035D01*
X456583Y247972D01*
Y247965D01*
Y247942D01*
X456579Y247913D01*
X456572Y247872D01*
X456561Y247824D01*
X456542Y247772D01*
X456520Y247721D01*
X456490Y247669D01*
X456487Y247661D01*
X456475Y247646D01*
X456453Y247621D01*
X456424Y247591D01*
X456387Y247558D01*
X456342Y247521D01*
X456290Y247487D01*
X456228Y247454D01*
X456231D01*
X456239Y247450D01*
X456250Y247447D01*
X456265Y247443D01*
X456305Y247428D01*
X456357Y247406D01*
X456416Y247376D01*
X456475Y247339D01*
X456531Y247291D01*
X456583Y247236D01*
X456587Y247228D01*
X456601Y247206D01*
X456624Y247169D01*
X456646Y247121D01*
X456668Y247062D01*
X456690Y246992D01*
X456705Y246910D01*
X456709Y246821D01*
Y246818D01*
Y246807D01*
Y246788D01*
X456705Y246766D01*
X456701Y246736D01*
X456694Y246703D01*
X456686Y246666D01*
X456679Y246625D01*
X456649Y246536D01*
X456627Y246488D01*
X456605Y246444D01*
X456575Y246396D01*
X456542Y246348D01*
X456505Y246300D01*
X456461Y246255D01*
X456457Y246252D01*
X456450Y246244D01*
X456435Y246233D01*
X456416Y246218D01*
X456394Y246200D01*
X456364Y246181D01*
X456331Y246159D01*
X456290Y246141D01*
X456250Y246118D01*
X456202Y246096D01*
X456154Y246078D01*
X456098Y246059D01*
X456039Y246044D01*
X455976Y246033D01*
X455913Y246026D01*
X455843Y246022D01*
X455809D01*
X455787Y246026D01*
X455758Y246030D01*
X455724Y246033D01*
X455687Y246041D01*
X455647Y246048D01*
X455558Y246070D01*
X455465Y246107D01*
X455417Y246129D01*
X455373Y246155D01*
X455329Y246189D01*
X455284Y246222D01*
X455280Y246226D01*
X455273Y246233D01*
X455262Y246244D01*
X455251Y246259D01*
X455232Y246277D01*
X455214Y246303D01*
X455192Y246329D01*
X455169Y246363D01*
X455147Y246400D01*
X455125Y246437D01*
X455084Y246525D01*
X455051Y246629D01*
X455040Y246685D01*
X455032Y246744D01*
X455347Y246784D01*
Y246781D01*
X455351Y246773D01*
X455354Y246759D01*
X455358Y246740D01*
X455362Y246718D01*
X455369Y246692D01*
X455388Y246636D01*
X455414Y246570D01*
X455447Y246507D01*
X455484Y246448D01*
X455528Y246396D01*
X455536Y246392D01*
X455550Y246377D01*
X455580Y246359D01*
X455617Y246340D01*
X455661Y246318D01*
X455717Y246300D01*
X455780Y246285D01*
X455847Y246281D01*
X455869D01*
X455884Y246285D01*
X455924Y246289D01*
X455976Y246300D01*
X456035Y246318D01*
X456098Y246344D01*
X456161Y246381D01*
X456220Y246433D01*
X456228Y246440D01*
X456246Y246462D01*
X456268Y246496D01*
X456298Y246540D01*
X456327Y246596D01*
X456350Y246659D01*
X456368Y246733D01*
X456376Y246814D01*
Y246818D01*
Y246825D01*
Y246836D01*
X456372Y246851D01*
X456368Y246892D01*
X456357Y246940D01*
X456342Y246999D01*
X456316Y247058D01*
X456279Y247117D01*
X456231Y247173D01*
X456224Y247180D01*
X456205Y247195D01*
X456176Y247217D01*
X456135Y247243D01*
X456083Y247269D01*
X456020Y247291D01*
X455950Y247306D01*
X455872Y247313D01*
X455839D01*
X455813Y247310D01*
X455780Y247306D01*
X455743Y247299D01*
X455698Y247291D01*
X455650Y247280D01*
X455687Y247558D01*
X455706D01*
X455721Y247554D01*
X455769D01*
X455809Y247561D01*
X455858Y247569D01*
X455913Y247580D01*
X455976Y247598D01*
X456035Y247624D01*
X456098Y247658D01*
X456102D01*
X456106Y247661D01*
X456124Y247676D01*
X456150Y247702D01*
X456180Y247735D01*
X456209Y247783D01*
X456235Y247839D01*
X456253Y247902D01*
X456261Y247939D01*
Y247979D01*
Y247983D01*
Y247987D01*
Y248009D01*
X456253Y248039D01*
X456246Y248079D01*
X456231Y248124D01*
X456213Y248172D01*
X456183Y248220D01*
X456143Y248264D01*
X456139Y248268D01*
X456120Y248283D01*
X456094Y248301D01*
X456061Y248324D01*
X456017Y248342D01*
X455965Y248361D01*
X455906Y248375D01*
X455839Y248379D01*
X455809D01*
X455776Y248372D01*
X455732Y248364D01*
X455684Y248349D01*
X455636Y248331D01*
X455584Y248301D01*
X455536Y248264D01*
X455532Y248261D01*
X455517Y248242D01*
X455495Y248216D01*
X455469Y248179D01*
X455443Y248131D01*
X455417Y248072D01*
X455395Y248002D01*
X455380Y247920D01*
X455066Y247976D01*
Y247979D01*
X455069Y247991D01*
X455073Y248005D01*
X455077Y248028D01*
X455084Y248054D01*
X455095Y248083D01*
X455118Y248153D01*
X455155Y248235D01*
X455199Y248316D01*
X455255Y248394D01*
X455325Y248464D01*
X455329Y248468D01*
X455336Y248472D01*
X455347Y248479D01*
X455362Y248490D01*
X455380Y248505D01*
X455406Y248520D01*
X455432Y248534D01*
X455465Y248553D01*
X455539Y248583D01*
X455624Y248612D01*
X455724Y248631D01*
X455776Y248638D01*
X455869D01*
X455909Y248634D01*
D02*
G37*
G36*
X454222Y246067D02*
X453908D01*
Y248068D01*
X453904Y248065D01*
X453886Y248050D01*
X453863Y248028D01*
X453826Y248002D01*
X453786Y247968D01*
X453734Y247931D01*
X453675Y247891D01*
X453608Y247850D01*
X453604D01*
X453601Y247846D01*
X453578Y247832D01*
X453541Y247813D01*
X453497Y247791D01*
X453445Y247765D01*
X453390Y247739D01*
X453334Y247713D01*
X453279Y247691D01*
Y247994D01*
X453282D01*
X453290Y248002D01*
X453305Y248005D01*
X453323Y248017D01*
X453345Y248028D01*
X453371Y248042D01*
X453434Y248079D01*
X453508Y248120D01*
X453582Y248172D01*
X453660Y248231D01*
X453737Y248294D01*
X453741Y248298D01*
X453745Y248301D01*
X453756Y248312D01*
X453771Y248324D01*
X453804Y248361D01*
X453849Y248405D01*
X453893Y248457D01*
X453941Y248516D01*
X453982Y248575D01*
X454019Y248638D01*
X454222D01*
Y246067D01*
D02*
G37*
G36*
X452894D02*
X452509D01*
X452209Y246844D01*
X451136D01*
X450859Y246067D01*
X450500D01*
X451477Y248627D01*
X451847D01*
X452894Y246067D01*
D02*
G37*
G36*
X453652Y218068D02*
X453700Y218060D01*
X453760Y218049D01*
X453826Y218031D01*
X453893Y218009D01*
X453960Y217979D01*
X453963D01*
X453967Y217975D01*
X453989Y217964D01*
X454022Y217942D01*
X454059Y217916D01*
X454104Y217879D01*
X454148Y217838D01*
X454193Y217790D01*
X454230Y217735D01*
X454233Y217727D01*
X454244Y217709D01*
X454259Y217676D01*
X454278Y217635D01*
X454296Y217587D01*
X454311Y217531D01*
X454322Y217468D01*
X454326Y217406D01*
Y217398D01*
Y217376D01*
X454322Y217346D01*
X454315Y217306D01*
X454304Y217257D01*
X454285Y217206D01*
X454263Y217154D01*
X454233Y217102D01*
X454230Y217095D01*
X454218Y217080D01*
X454196Y217054D01*
X454167Y217024D01*
X454130Y216991D01*
X454085Y216954D01*
X454034Y216921D01*
X453971Y216887D01*
X453974D01*
X453982Y216884D01*
X453993Y216880D01*
X454008Y216876D01*
X454048Y216862D01*
X454100Y216839D01*
X454159Y216810D01*
X454218Y216773D01*
X454274Y216725D01*
X454326Y216669D01*
X454329Y216662D01*
X454344Y216640D01*
X454366Y216603D01*
X454389Y216554D01*
X454411Y216495D01*
X454433Y216425D01*
X454448Y216344D01*
X454452Y216255D01*
Y216251D01*
Y216240D01*
Y216221D01*
X454448Y216199D01*
X454444Y216170D01*
X454437Y216136D01*
X454429Y216099D01*
X454422Y216059D01*
X454392Y215970D01*
X454370Y215922D01*
X454348Y215877D01*
X454318Y215829D01*
X454285Y215781D01*
X454248Y215733D01*
X454204Y215689D01*
X454200Y215685D01*
X454193Y215678D01*
X454178Y215667D01*
X454159Y215652D01*
X454137Y215633D01*
X454108Y215615D01*
X454074Y215593D01*
X454034Y215574D01*
X453993Y215552D01*
X453945Y215530D01*
X453897Y215511D01*
X453841Y215493D01*
X453782Y215478D01*
X453719Y215467D01*
X453656Y215459D01*
X453586Y215456D01*
X453552D01*
X453530Y215459D01*
X453501Y215463D01*
X453467Y215467D01*
X453430Y215474D01*
X453390Y215481D01*
X453301Y215504D01*
X453208Y215541D01*
X453160Y215563D01*
X453116Y215589D01*
X453071Y215622D01*
X453027Y215655D01*
X453023Y215659D01*
X453016Y215667D01*
X453005Y215678D01*
X452994Y215692D01*
X452975Y215711D01*
X452957Y215737D01*
X452935Y215763D01*
X452912Y215796D01*
X452890Y215833D01*
X452868Y215870D01*
X452827Y215959D01*
X452794Y216062D01*
X452783Y216118D01*
X452775Y216177D01*
X453090Y216218D01*
Y216214D01*
X453094Y216207D01*
X453097Y216192D01*
X453101Y216173D01*
X453105Y216151D01*
X453112Y216125D01*
X453131Y216070D01*
X453157Y216003D01*
X453190Y215940D01*
X453227Y215881D01*
X453271Y215829D01*
X453279Y215826D01*
X453294Y215811D01*
X453323Y215792D01*
X453360Y215774D01*
X453405Y215752D01*
X453460Y215733D01*
X453523Y215718D01*
X453589Y215715D01*
X453612D01*
X453626Y215718D01*
X453667Y215722D01*
X453719Y215733D01*
X453778Y215752D01*
X453841Y215777D01*
X453904Y215814D01*
X453963Y215866D01*
X453971Y215874D01*
X453989Y215896D01*
X454011Y215929D01*
X454041Y215974D01*
X454071Y216029D01*
X454093Y216092D01*
X454111Y216166D01*
X454119Y216247D01*
Y216251D01*
Y216259D01*
Y216270D01*
X454115Y216284D01*
X454111Y216325D01*
X454100Y216373D01*
X454085Y216432D01*
X454059Y216492D01*
X454022Y216551D01*
X453974Y216606D01*
X453967Y216614D01*
X453948Y216629D01*
X453919Y216651D01*
X453878Y216677D01*
X453826Y216703D01*
X453763Y216725D01*
X453693Y216740D01*
X453615Y216747D01*
X453582D01*
X453556Y216743D01*
X453523Y216740D01*
X453486Y216732D01*
X453441Y216725D01*
X453393Y216714D01*
X453430Y216991D01*
X453449D01*
X453464Y216987D01*
X453512D01*
X453552Y216995D01*
X453601Y217002D01*
X453656Y217013D01*
X453719Y217032D01*
X453778Y217058D01*
X453841Y217091D01*
X453845D01*
X453849Y217095D01*
X453867Y217109D01*
X453893Y217135D01*
X453923Y217169D01*
X453952Y217217D01*
X453978Y217272D01*
X453997Y217335D01*
X454004Y217372D01*
Y217413D01*
Y217417D01*
Y217420D01*
Y217442D01*
X453997Y217472D01*
X453989Y217513D01*
X453974Y217557D01*
X453956Y217605D01*
X453926Y217653D01*
X453886Y217698D01*
X453882Y217702D01*
X453863Y217716D01*
X453837Y217735D01*
X453804Y217757D01*
X453760Y217776D01*
X453708Y217794D01*
X453649Y217809D01*
X453582Y217812D01*
X453552D01*
X453519Y217805D01*
X453475Y217798D01*
X453427Y217783D01*
X453379Y217764D01*
X453327Y217735D01*
X453279Y217698D01*
X453275Y217694D01*
X453260Y217676D01*
X453238Y217650D01*
X453212Y217613D01*
X453186Y217565D01*
X453160Y217505D01*
X453138Y217435D01*
X453123Y217354D01*
X452809Y217409D01*
Y217413D01*
X452812Y217424D01*
X452816Y217439D01*
X452820Y217461D01*
X452827Y217487D01*
X452838Y217516D01*
X452861Y217587D01*
X452898Y217668D01*
X452942Y217750D01*
X452997Y217827D01*
X453068Y217898D01*
X453071Y217901D01*
X453079Y217905D01*
X453090Y217912D01*
X453105Y217923D01*
X453123Y217938D01*
X453149Y217953D01*
X453175Y217968D01*
X453208Y217986D01*
X453282Y218016D01*
X453368Y218046D01*
X453467Y218064D01*
X453519Y218072D01*
X453612D01*
X453652Y218068D01*
D02*
G37*
G36*
X451532Y218057D02*
X451562D01*
X451628Y218049D01*
X451702Y218042D01*
X451780Y218027D01*
X451858Y218009D01*
X451928Y217983D01*
X451932D01*
X451936Y217979D01*
X451958Y217968D01*
X451991Y217949D01*
X452028Y217923D01*
X452072Y217890D01*
X452121Y217849D01*
X452165Y217798D01*
X452206Y217742D01*
X452209Y217735D01*
X452220Y217713D01*
X452239Y217683D01*
X452257Y217639D01*
X452276Y217587D01*
X452294Y217531D01*
X452306Y217468D01*
X452309Y217406D01*
Y217398D01*
Y217380D01*
X452306Y217346D01*
X452298Y217306D01*
X452287Y217257D01*
X452269Y217206D01*
X452246Y217154D01*
X452217Y217098D01*
X452213Y217091D01*
X452202Y217076D01*
X452180Y217047D01*
X452150Y217017D01*
X452113Y216980D01*
X452069Y216939D01*
X452013Y216902D01*
X451950Y216865D01*
X451954D01*
X451962Y216862D01*
X451973Y216858D01*
X451987Y216850D01*
X452032Y216836D01*
X452084Y216810D01*
X452139Y216776D01*
X452202Y216736D01*
X452257Y216688D01*
X452309Y216629D01*
X452313Y216621D01*
X452328Y216599D01*
X452350Y216566D01*
X452372Y216521D01*
X452394Y216462D01*
X452417Y216399D01*
X452431Y216325D01*
X452435Y216244D01*
Y216240D01*
Y216236D01*
Y216214D01*
X452431Y216177D01*
X452424Y216133D01*
X452417Y216081D01*
X452402Y216025D01*
X452383Y215966D01*
X452357Y215907D01*
X452354Y215900D01*
X452343Y215881D01*
X452328Y215855D01*
X452306Y215818D01*
X452276Y215781D01*
X452246Y215740D01*
X452209Y215700D01*
X452169Y215667D01*
X452165Y215663D01*
X452150Y215652D01*
X452124Y215637D01*
X452091Y215622D01*
X452050Y215600D01*
X452002Y215578D01*
X451950Y215559D01*
X451888Y215541D01*
X451880D01*
X451858Y215533D01*
X451821Y215530D01*
X451773Y215522D01*
X451714Y215515D01*
X451643Y215507D01*
X451566Y215504D01*
X451477Y215500D01*
X450500D01*
Y218060D01*
X451506D01*
X451532Y218057D01*
D02*
G37*
G36*
X454060Y206057D02*
X454408D01*
Y205768D01*
X454060D01*
Y205154D01*
X453745D01*
Y205768D01*
X452632D01*
Y206057D01*
X453804Y207715D01*
X454060D01*
Y206057D01*
D02*
G37*
G36*
X451499Y207711D02*
X451529D01*
X451596Y207703D01*
X451670Y207696D01*
X451747Y207681D01*
X451825Y207663D01*
X451895Y207637D01*
X451899D01*
X451903Y207633D01*
X451925Y207622D01*
X451958Y207604D01*
X451995Y207578D01*
X452040Y207544D01*
X452088Y207504D01*
X452132Y207452D01*
X452173Y207396D01*
X452177Y207389D01*
X452188Y207367D01*
X452206Y207337D01*
X452225Y207293D01*
X452243Y207241D01*
X452262Y207185D01*
X452273Y207122D01*
X452276Y207060D01*
Y207052D01*
Y207034D01*
X452273Y207000D01*
X452265Y206960D01*
X452254Y206912D01*
X452236Y206860D01*
X452213Y206808D01*
X452184Y206752D01*
X452180Y206745D01*
X452169Y206730D01*
X452147Y206701D01*
X452117Y206671D01*
X452080Y206634D01*
X452036Y206593D01*
X451980Y206556D01*
X451918Y206519D01*
X451921D01*
X451929Y206516D01*
X451940Y206512D01*
X451955Y206505D01*
X451999Y206490D01*
X452051Y206464D01*
X452106Y206431D01*
X452169Y206390D01*
X452225Y206342D01*
X452276Y206283D01*
X452280Y206275D01*
X452295Y206253D01*
X452317Y206220D01*
X452339Y206175D01*
X452361Y206116D01*
X452384Y206053D01*
X452398Y205979D01*
X452402Y205898D01*
Y205894D01*
Y205890D01*
Y205868D01*
X452398Y205831D01*
X452391Y205787D01*
X452384Y205735D01*
X452369Y205679D01*
X452350Y205620D01*
X452324Y205561D01*
X452321Y205554D01*
X452310Y205535D01*
X452295Y205509D01*
X452273Y205472D01*
X452243Y205435D01*
X452213Y205395D01*
X452177Y205354D01*
X452136Y205321D01*
X452132Y205317D01*
X452117Y205306D01*
X452091Y205291D01*
X452058Y205276D01*
X452017Y205254D01*
X451969Y205232D01*
X451918Y205213D01*
X451855Y205195D01*
X451847D01*
X451825Y205187D01*
X451788Y205184D01*
X451740Y205176D01*
X451681Y205169D01*
X451610Y205161D01*
X451533Y205158D01*
X451444Y205154D01*
X450467D01*
Y207715D01*
X451474D01*
X451499Y207711D01*
D02*
G37*
G36*
X453848Y197727D02*
X452823D01*
X452686Y197036D01*
X452690Y197039D01*
X452697Y197043D01*
X452708Y197050D01*
X452727Y197061D01*
X452749Y197073D01*
X452775Y197087D01*
X452834Y197117D01*
X452908Y197146D01*
X452990Y197172D01*
X453078Y197191D01*
X453123Y197198D01*
X453204D01*
X453226Y197195D01*
X453256Y197191D01*
X453289Y197187D01*
X453326Y197180D01*
X453367Y197169D01*
X453456Y197143D01*
X453504Y197124D01*
X453552Y197098D01*
X453600Y197073D01*
X453648Y197043D01*
X453693Y197006D01*
X453737Y196965D01*
X453741Y196961D01*
X453748Y196954D01*
X453759Y196943D01*
X453774Y196924D01*
X453792Y196899D01*
X453811Y196873D01*
X453833Y196839D01*
X453855Y196802D01*
X453874Y196762D01*
X453896Y196717D01*
X453915Y196666D01*
X453933Y196614D01*
X453948Y196558D01*
X453959Y196495D01*
X453966Y196432D01*
X453970Y196366D01*
Y196362D01*
Y196351D01*
Y196333D01*
X453966Y196307D01*
X453963Y196277D01*
X453959Y196244D01*
X453952Y196203D01*
X453944Y196162D01*
X453922Y196066D01*
X453885Y195966D01*
X453863Y195914D01*
X453833Y195866D01*
X453804Y195815D01*
X453767Y195766D01*
X453763Y195763D01*
X453756Y195752D01*
X453741Y195737D01*
X453722Y195718D01*
X453696Y195696D01*
X453667Y195667D01*
X453630Y195641D01*
X453589Y195611D01*
X453545Y195581D01*
X453493Y195555D01*
X453437Y195530D01*
X453378Y195504D01*
X453315Y195485D01*
X453245Y195470D01*
X453171Y195459D01*
X453093Y195456D01*
X453060D01*
X453034Y195459D01*
X453004Y195463D01*
X452971Y195467D01*
X452930Y195470D01*
X452890Y195482D01*
X452797Y195504D01*
X452705Y195537D01*
X452657Y195559D01*
X452608Y195585D01*
X452564Y195615D01*
X452520Y195648D01*
X452516Y195652D01*
X452509Y195655D01*
X452501Y195670D01*
X452486Y195685D01*
X452468Y195703D01*
X452449Y195726D01*
X452427Y195755D01*
X452409Y195789D01*
X452387Y195822D01*
X452364Y195863D01*
X452324Y195951D01*
X452290Y196055D01*
X452279Y196110D01*
X452272Y196170D01*
X452601Y196196D01*
Y196192D01*
Y196185D01*
X452605Y196173D01*
X452608Y196155D01*
X452620Y196114D01*
X452634Y196059D01*
X452657Y196003D01*
X452686Y195940D01*
X452723Y195885D01*
X452768Y195833D01*
X452775Y195829D01*
X452790Y195815D01*
X452819Y195796D01*
X452860Y195774D01*
X452905Y195752D01*
X452960Y195733D01*
X453023Y195718D01*
X453093Y195715D01*
X453115D01*
X453130Y195718D01*
X453175Y195722D01*
X453226Y195737D01*
X453289Y195755D01*
X453352Y195785D01*
X453419Y195829D01*
X453448Y195855D01*
X453478Y195885D01*
X453482Y195888D01*
X453485Y195892D01*
X453493Y195903D01*
X453504Y195914D01*
X453530Y195955D01*
X453559Y196007D01*
X453585Y196070D01*
X453611Y196148D01*
X453630Y196240D01*
X453637Y196288D01*
Y196340D01*
Y196344D01*
Y196351D01*
Y196366D01*
X453633Y196384D01*
Y196406D01*
X453630Y196432D01*
X453619Y196492D01*
X453600Y196562D01*
X453574Y196632D01*
X453537Y196699D01*
X453485Y196762D01*
Y196765D01*
X453478Y196769D01*
X453460Y196788D01*
X453426Y196813D01*
X453382Y196843D01*
X453323Y196869D01*
X453256Y196895D01*
X453178Y196913D01*
X453134Y196921D01*
X453064D01*
X453034Y196917D01*
X452997Y196913D01*
X452953Y196902D01*
X452908Y196891D01*
X452860Y196873D01*
X452812Y196851D01*
X452808Y196847D01*
X452794Y196839D01*
X452771Y196821D01*
X452742Y196802D01*
X452712Y196776D01*
X452682Y196743D01*
X452649Y196710D01*
X452623Y196669D01*
X452327Y196710D01*
X452575Y198027D01*
X453848D01*
Y197727D01*
D02*
G37*
G36*
X451032Y198057D02*
X451062D01*
X451128Y198049D01*
X451202Y198042D01*
X451280Y198027D01*
X451358Y198009D01*
X451428Y197983D01*
X451432D01*
X451436Y197979D01*
X451458Y197968D01*
X451491Y197949D01*
X451528Y197924D01*
X451573Y197890D01*
X451621Y197850D01*
X451665Y197798D01*
X451706Y197742D01*
X451709Y197735D01*
X451721Y197713D01*
X451739Y197683D01*
X451757Y197639D01*
X451776Y197587D01*
X451794Y197531D01*
X451806Y197468D01*
X451809Y197406D01*
Y197398D01*
Y197380D01*
X451806Y197346D01*
X451798Y197306D01*
X451787Y197257D01*
X451769Y197206D01*
X451746Y197154D01*
X451717Y197098D01*
X451713Y197091D01*
X451702Y197076D01*
X451680Y197047D01*
X451650Y197017D01*
X451613Y196980D01*
X451569Y196939D01*
X451513Y196902D01*
X451450Y196865D01*
X451454D01*
X451462Y196862D01*
X451473Y196858D01*
X451487Y196851D01*
X451532Y196836D01*
X451584Y196810D01*
X451639Y196776D01*
X451702Y196736D01*
X451757Y196688D01*
X451809Y196628D01*
X451813Y196621D01*
X451828Y196599D01*
X451850Y196566D01*
X451872Y196521D01*
X451894Y196462D01*
X451917Y196399D01*
X451931Y196325D01*
X451935Y196244D01*
Y196240D01*
Y196236D01*
Y196214D01*
X451931Y196177D01*
X451924Y196133D01*
X451917Y196081D01*
X451902Y196025D01*
X451883Y195966D01*
X451857Y195907D01*
X451854Y195900D01*
X451843Y195881D01*
X451828Y195855D01*
X451806Y195818D01*
X451776Y195781D01*
X451746Y195740D01*
X451709Y195700D01*
X451669Y195667D01*
X451665Y195663D01*
X451650Y195652D01*
X451624Y195637D01*
X451591Y195622D01*
X451550Y195600D01*
X451502Y195578D01*
X451450Y195559D01*
X451388Y195541D01*
X451380D01*
X451358Y195533D01*
X451321Y195530D01*
X451273Y195522D01*
X451214Y195515D01*
X451143Y195507D01*
X451066Y195504D01*
X450977Y195500D01*
X450000D01*
Y198060D01*
X451006D01*
X451032Y198057D01*
D02*
G37*
G36*
X453952Y185779D02*
X453948Y185775D01*
X453940Y185768D01*
X453926Y185753D01*
X453911Y185731D01*
X453889Y185705D01*
X453859Y185676D01*
X453829Y185639D01*
X453796Y185594D01*
X453763Y185550D01*
X453722Y185498D01*
X453682Y185439D01*
X453641Y185380D01*
X453596Y185313D01*
X453552Y185243D01*
X453508Y185165D01*
X453463Y185087D01*
X453460Y185084D01*
X453452Y185069D01*
X453441Y185047D01*
X453422Y185013D01*
X453404Y184973D01*
X453382Y184928D01*
X453356Y184876D01*
X453330Y184817D01*
X453300Y184751D01*
X453267Y184684D01*
X453237Y184610D01*
X453208Y184532D01*
X453149Y184373D01*
X453093Y184203D01*
Y184199D01*
X453090Y184188D01*
X453086Y184170D01*
X453078Y184148D01*
X453071Y184118D01*
X453064Y184081D01*
X453053Y184040D01*
X453045Y183996D01*
X453034Y183944D01*
X453023Y183888D01*
X453004Y183770D01*
X452986Y183641D01*
X452975Y183500D01*
X452653D01*
Y183504D01*
Y183515D01*
Y183530D01*
X452657Y183552D01*
Y183581D01*
X452660Y183618D01*
X452664Y183659D01*
X452668Y183703D01*
X452675Y183755D01*
X452682Y183807D01*
X452694Y183870D01*
X452705Y183933D01*
X452716Y184000D01*
X452731Y184073D01*
X452768Y184225D01*
Y184229D01*
X452771Y184244D01*
X452779Y184266D01*
X452790Y184299D01*
X452801Y184336D01*
X452816Y184381D01*
X452831Y184432D01*
X452853Y184488D01*
X452875Y184551D01*
X452897Y184614D01*
X452953Y184754D01*
X453019Y184902D01*
X453093Y185050D01*
X453097Y185054D01*
X453104Y185069D01*
X453115Y185087D01*
X453130Y185117D01*
X453149Y185150D01*
X453175Y185191D01*
X453200Y185235D01*
X453230Y185283D01*
X453300Y185391D01*
X453374Y185502D01*
X453460Y185616D01*
X453548Y185724D01*
X452294D01*
Y186027D01*
X453952D01*
Y185779D01*
D02*
G37*
G36*
X451032Y186057D02*
X451062D01*
X451128Y186049D01*
X451202Y186042D01*
X451280Y186027D01*
X451358Y186009D01*
X451428Y185983D01*
X451432D01*
X451436Y185979D01*
X451458Y185968D01*
X451491Y185949D01*
X451528Y185924D01*
X451573Y185890D01*
X451621Y185849D01*
X451665Y185798D01*
X451706Y185742D01*
X451709Y185735D01*
X451721Y185713D01*
X451739Y185683D01*
X451757Y185639D01*
X451776Y185587D01*
X451794Y185531D01*
X451806Y185468D01*
X451809Y185406D01*
Y185398D01*
Y185380D01*
X451806Y185346D01*
X451798Y185306D01*
X451787Y185257D01*
X451769Y185206D01*
X451746Y185154D01*
X451717Y185098D01*
X451713Y185091D01*
X451702Y185076D01*
X451680Y185047D01*
X451650Y185017D01*
X451613Y184980D01*
X451569Y184939D01*
X451513Y184902D01*
X451450Y184865D01*
X451454D01*
X451462Y184862D01*
X451473Y184858D01*
X451487Y184851D01*
X451532Y184836D01*
X451584Y184810D01*
X451639Y184776D01*
X451702Y184736D01*
X451757Y184688D01*
X451809Y184628D01*
X451813Y184621D01*
X451828Y184599D01*
X451850Y184566D01*
X451872Y184521D01*
X451894Y184462D01*
X451917Y184399D01*
X451931Y184325D01*
X451935Y184244D01*
Y184240D01*
Y184236D01*
Y184214D01*
X451931Y184177D01*
X451924Y184133D01*
X451917Y184081D01*
X451902Y184025D01*
X451883Y183966D01*
X451857Y183907D01*
X451854Y183900D01*
X451843Y183881D01*
X451828Y183855D01*
X451806Y183818D01*
X451776Y183781D01*
X451746Y183740D01*
X451709Y183700D01*
X451669Y183667D01*
X451665Y183663D01*
X451650Y183652D01*
X451624Y183637D01*
X451591Y183622D01*
X451550Y183600D01*
X451502Y183578D01*
X451450Y183559D01*
X451388Y183541D01*
X451380D01*
X451358Y183533D01*
X451321Y183530D01*
X451273Y183522D01*
X451214Y183515D01*
X451143Y183507D01*
X451066Y183504D01*
X450977Y183500D01*
X450000D01*
Y186060D01*
X451006D01*
X451032Y186057D01*
D02*
G37*
G36*
X454863Y317568D02*
X454911Y317560D01*
X454970Y317549D01*
X455037Y317531D01*
X455103Y317509D01*
X455170Y317479D01*
X455174D01*
X455177Y317475D01*
X455199Y317464D01*
X455233Y317442D01*
X455270Y317416D01*
X455314Y317379D01*
X455359Y317338D01*
X455403Y317290D01*
X455440Y317235D01*
X455444Y317227D01*
X455455Y317209D01*
X455470Y317176D01*
X455488Y317135D01*
X455507Y317087D01*
X455521Y317031D01*
X455533Y316968D01*
X455536Y316905D01*
Y316898D01*
Y316876D01*
X455533Y316846D01*
X455525Y316806D01*
X455514Y316757D01*
X455496Y316706D01*
X455473Y316654D01*
X455444Y316602D01*
X455440Y316595D01*
X455429Y316580D01*
X455407Y316554D01*
X455377Y316524D01*
X455340Y316491D01*
X455296Y316454D01*
X455244Y316421D01*
X455181Y316388D01*
X455185D01*
X455192Y316384D01*
X455203Y316380D01*
X455218Y316376D01*
X455259Y316362D01*
X455310Y316339D01*
X455370Y316310D01*
X455429Y316273D01*
X455484Y316225D01*
X455536Y316169D01*
X455540Y316162D01*
X455555Y316140D01*
X455577Y316103D01*
X455599Y316055D01*
X455621Y315995D01*
X455644Y315925D01*
X455658Y315844D01*
X455662Y315755D01*
Y315751D01*
Y315740D01*
Y315722D01*
X455658Y315699D01*
X455655Y315670D01*
X455647Y315636D01*
X455640Y315599D01*
X455632Y315559D01*
X455603Y315470D01*
X455581Y315422D01*
X455558Y315377D01*
X455529Y315329D01*
X455496Y315281D01*
X455458Y315233D01*
X455414Y315189D01*
X455410Y315185D01*
X455403Y315178D01*
X455388Y315166D01*
X455370Y315152D01*
X455347Y315133D01*
X455318Y315115D01*
X455285Y315092D01*
X455244Y315074D01*
X455203Y315052D01*
X455155Y315030D01*
X455107Y315011D01*
X455052Y314993D01*
X454992Y314978D01*
X454929Y314967D01*
X454867Y314959D01*
X454796Y314956D01*
X454763D01*
X454741Y314959D01*
X454711Y314963D01*
X454678Y314967D01*
X454641Y314974D01*
X454600Y314982D01*
X454511Y315004D01*
X454419Y315041D01*
X454371Y315063D01*
X454326Y315089D01*
X454282Y315122D01*
X454238Y315155D01*
X454234Y315159D01*
X454226Y315166D01*
X454215Y315178D01*
X454204Y315192D01*
X454186Y315211D01*
X454167Y315237D01*
X454145Y315263D01*
X454123Y315296D01*
X454101Y315333D01*
X454078Y315370D01*
X454038Y315459D01*
X454004Y315562D01*
X453993Y315618D01*
X453986Y315677D01*
X454300Y315718D01*
Y315714D01*
X454304Y315707D01*
X454308Y315692D01*
X454312Y315673D01*
X454315Y315651D01*
X454323Y315625D01*
X454341Y315570D01*
X454367Y315503D01*
X454400Y315440D01*
X454437Y315381D01*
X454482Y315329D01*
X454489Y315326D01*
X454504Y315311D01*
X454533Y315292D01*
X454570Y315274D01*
X454615Y315252D01*
X454670Y315233D01*
X454733Y315218D01*
X454800Y315215D01*
X454822D01*
X454837Y315218D01*
X454878Y315222D01*
X454929Y315233D01*
X454989Y315252D01*
X455052Y315278D01*
X455114Y315315D01*
X455174Y315366D01*
X455181Y315374D01*
X455199Y315396D01*
X455222Y315429D01*
X455251Y315474D01*
X455281Y315529D01*
X455303Y315592D01*
X455322Y315666D01*
X455329Y315747D01*
Y315751D01*
Y315758D01*
Y315770D01*
X455325Y315784D01*
X455322Y315825D01*
X455310Y315873D01*
X455296Y315932D01*
X455270Y315992D01*
X455233Y316051D01*
X455185Y316106D01*
X455177Y316114D01*
X455159Y316128D01*
X455129Y316151D01*
X455089Y316177D01*
X455037Y316202D01*
X454974Y316225D01*
X454904Y316240D01*
X454826Y316247D01*
X454792D01*
X454767Y316243D01*
X454733Y316240D01*
X454696Y316232D01*
X454652Y316225D01*
X454604Y316214D01*
X454641Y316491D01*
X454659D01*
X454674Y316487D01*
X454722D01*
X454763Y316495D01*
X454811Y316502D01*
X454867Y316513D01*
X454929Y316532D01*
X454989Y316558D01*
X455052Y316591D01*
X455055D01*
X455059Y316595D01*
X455077Y316610D01*
X455103Y316635D01*
X455133Y316669D01*
X455162Y316717D01*
X455188Y316772D01*
X455207Y316835D01*
X455214Y316872D01*
Y316913D01*
Y316917D01*
Y316920D01*
Y316943D01*
X455207Y316972D01*
X455199Y317013D01*
X455185Y317057D01*
X455166Y317105D01*
X455137Y317153D01*
X455096Y317198D01*
X455092Y317201D01*
X455074Y317216D01*
X455048Y317235D01*
X455015Y317257D01*
X454970Y317276D01*
X454918Y317294D01*
X454859Y317309D01*
X454792Y317313D01*
X454763D01*
X454730Y317305D01*
X454685Y317298D01*
X454637Y317283D01*
X454589Y317264D01*
X454537Y317235D01*
X454489Y317198D01*
X454485Y317194D01*
X454471Y317176D01*
X454448Y317150D01*
X454423Y317113D01*
X454397Y317065D01*
X454371Y317005D01*
X454349Y316935D01*
X454334Y316854D01*
X454019Y316909D01*
Y316913D01*
X454023Y316924D01*
X454027Y316939D01*
X454030Y316961D01*
X454038Y316987D01*
X454049Y317017D01*
X454071Y317087D01*
X454108Y317168D01*
X454152Y317250D01*
X454208Y317327D01*
X454278Y317398D01*
X454282Y317401D01*
X454289Y317405D01*
X454300Y317412D01*
X454315Y317424D01*
X454334Y317438D01*
X454360Y317453D01*
X454386Y317468D01*
X454419Y317486D01*
X454493Y317516D01*
X454578Y317546D01*
X454678Y317564D01*
X454730Y317571D01*
X454822D01*
X454863Y317568D01*
D02*
G37*
G36*
X451877D02*
X451925Y317560D01*
X451984Y317549D01*
X452051Y317531D01*
X452117Y317509D01*
X452184Y317479D01*
X452188D01*
X452191Y317475D01*
X452214Y317464D01*
X452247Y317442D01*
X452284Y317416D01*
X452328Y317379D01*
X452373Y317338D01*
X452417Y317290D01*
X452454Y317235D01*
X452458Y317227D01*
X452469Y317209D01*
X452484Y317176D01*
X452502Y317135D01*
X452521Y317087D01*
X452535Y317031D01*
X452547Y316968D01*
X452550Y316905D01*
Y316898D01*
Y316876D01*
X452547Y316846D01*
X452539Y316806D01*
X452528Y316757D01*
X452510Y316706D01*
X452487Y316654D01*
X452458Y316602D01*
X452454Y316595D01*
X452443Y316580D01*
X452421Y316554D01*
X452391Y316524D01*
X452354Y316491D01*
X452310Y316454D01*
X452258Y316421D01*
X452195Y316388D01*
X452199D01*
X452206Y316384D01*
X452217Y316380D01*
X452232Y316376D01*
X452273Y316362D01*
X452325Y316339D01*
X452384Y316310D01*
X452443Y316273D01*
X452498Y316225D01*
X452550Y316169D01*
X452554Y316162D01*
X452569Y316140D01*
X452591Y316103D01*
X452613Y316055D01*
X452635Y315995D01*
X452658Y315925D01*
X452672Y315844D01*
X452676Y315755D01*
Y315751D01*
Y315740D01*
Y315722D01*
X452672Y315699D01*
X452669Y315670D01*
X452661Y315636D01*
X452654Y315599D01*
X452646Y315559D01*
X452617Y315470D01*
X452595Y315422D01*
X452572Y315377D01*
X452543Y315329D01*
X452510Y315281D01*
X452473Y315233D01*
X452428Y315189D01*
X452424Y315185D01*
X452417Y315178D01*
X452402Y315166D01*
X452384Y315152D01*
X452362Y315133D01*
X452332Y315115D01*
X452299Y315092D01*
X452258Y315074D01*
X452217Y315052D01*
X452169Y315030D01*
X452121Y315011D01*
X452066Y314993D01*
X452006Y314978D01*
X451943Y314967D01*
X451881Y314959D01*
X451810Y314956D01*
X451777D01*
X451755Y314959D01*
X451725Y314963D01*
X451692Y314967D01*
X451655Y314974D01*
X451614Y314982D01*
X451525Y315004D01*
X451433Y315041D01*
X451385Y315063D01*
X451340Y315089D01*
X451296Y315122D01*
X451252Y315155D01*
X451248Y315159D01*
X451240Y315166D01*
X451229Y315178D01*
X451218Y315192D01*
X451200Y315211D01*
X451181Y315237D01*
X451159Y315263D01*
X451137Y315296D01*
X451115Y315333D01*
X451092Y315370D01*
X451052Y315459D01*
X451018Y315562D01*
X451007Y315618D01*
X451000Y315677D01*
X451314Y315718D01*
Y315714D01*
X451318Y315707D01*
X451322Y315692D01*
X451326Y315673D01*
X451329Y315651D01*
X451337Y315625D01*
X451355Y315570D01*
X451381Y315503D01*
X451414Y315440D01*
X451451Y315381D01*
X451496Y315329D01*
X451503Y315326D01*
X451518Y315311D01*
X451548Y315292D01*
X451585Y315274D01*
X451629Y315252D01*
X451685Y315233D01*
X451747Y315218D01*
X451814Y315215D01*
X451836D01*
X451851Y315218D01*
X451892Y315222D01*
X451943Y315233D01*
X452003Y315252D01*
X452066Y315278D01*
X452129Y315315D01*
X452188Y315366D01*
X452195Y315374D01*
X452214Y315396D01*
X452236Y315429D01*
X452265Y315474D01*
X452295Y315529D01*
X452317Y315592D01*
X452336Y315666D01*
X452343Y315747D01*
Y315751D01*
Y315758D01*
Y315770D01*
X452339Y315784D01*
X452336Y315825D01*
X452325Y315873D01*
X452310Y315932D01*
X452284Y315992D01*
X452247Y316051D01*
X452199Y316106D01*
X452191Y316114D01*
X452173Y316128D01*
X452143Y316151D01*
X452103Y316177D01*
X452051Y316202D01*
X451988Y316225D01*
X451918Y316240D01*
X451840Y316247D01*
X451807D01*
X451781Y316243D01*
X451747Y316240D01*
X451710Y316232D01*
X451666Y316225D01*
X451618Y316214D01*
X451655Y316491D01*
X451673D01*
X451688Y316487D01*
X451736D01*
X451777Y316495D01*
X451825Y316502D01*
X451881Y316513D01*
X451943Y316532D01*
X452003Y316558D01*
X452066Y316591D01*
X452069D01*
X452073Y316595D01*
X452092Y316610D01*
X452117Y316635D01*
X452147Y316669D01*
X452177Y316717D01*
X452203Y316772D01*
X452221Y316835D01*
X452228Y316872D01*
Y316913D01*
Y316917D01*
Y316920D01*
Y316943D01*
X452221Y316972D01*
X452214Y317013D01*
X452199Y317057D01*
X452180Y317105D01*
X452151Y317153D01*
X452110Y317198D01*
X452106Y317201D01*
X452088Y317216D01*
X452062Y317235D01*
X452029Y317257D01*
X451984Y317276D01*
X451932Y317294D01*
X451873Y317309D01*
X451807Y317313D01*
X451777D01*
X451744Y317305D01*
X451699Y317298D01*
X451651Y317283D01*
X451603Y317264D01*
X451551Y317235D01*
X451503Y317198D01*
X451500Y317194D01*
X451485Y317176D01*
X451463Y317150D01*
X451437Y317113D01*
X451411Y317065D01*
X451385Y317005D01*
X451363Y316935D01*
X451348Y316854D01*
X451033Y316909D01*
Y316913D01*
X451037Y316924D01*
X451041Y316939D01*
X451044Y316961D01*
X451052Y316987D01*
X451063Y317017D01*
X451085Y317087D01*
X451122Y317168D01*
X451166Y317250D01*
X451222Y317327D01*
X451292Y317398D01*
X451296Y317401D01*
X451303Y317405D01*
X451314Y317412D01*
X451329Y317424D01*
X451348Y317438D01*
X451374Y317453D01*
X451400Y317468D01*
X451433Y317486D01*
X451507Y317516D01*
X451592Y317546D01*
X451692Y317564D01*
X451744Y317571D01*
X451836D01*
X451877Y317568D01*
D02*
G37*
G36*
X453523Y315000D02*
X453164D01*
Y315359D01*
X453523D01*
Y315000D01*
D02*
G37*
G36*
X451492Y305910D02*
X452187D01*
Y305617D01*
X451492D01*
Y304914D01*
X451196D01*
Y305617D01*
X450500D01*
Y305910D01*
X451196D01*
Y306605D01*
X451492D01*
Y305910D01*
D02*
G37*
G36*
X455743Y304500D02*
X455388D01*
X454396Y307060D01*
X454766D01*
X455432Y305199D01*
Y305196D01*
X455436Y305188D01*
X455440Y305177D01*
X455447Y305162D01*
X455451Y305140D01*
X455458Y305118D01*
X455477Y305062D01*
X455499Y304999D01*
X455521Y304929D01*
X455565Y304781D01*
Y304785D01*
X455569Y304792D01*
X455573Y304803D01*
X455576Y304818D01*
X455587Y304859D01*
X455606Y304914D01*
X455624Y304977D01*
X455647Y305048D01*
X455673Y305122D01*
X455702Y305199D01*
X456398Y307060D01*
X456742D01*
X455743Y304500D01*
D02*
G37*
G36*
X454119Y306727D02*
X453094D01*
X452957Y306035D01*
X452960Y306039D01*
X452968Y306043D01*
X452979Y306050D01*
X452997Y306061D01*
X453020Y306072D01*
X453046Y306087D01*
X453105Y306117D01*
X453179Y306147D01*
X453260Y306172D01*
X453349Y306191D01*
X453393Y306198D01*
X453475D01*
X453497Y306195D01*
X453527Y306191D01*
X453560Y306187D01*
X453597Y306180D01*
X453638Y306169D01*
X453726Y306143D01*
X453774Y306124D01*
X453823Y306098D01*
X453871Y306072D01*
X453919Y306043D01*
X453963Y306006D01*
X454008Y305965D01*
X454011Y305961D01*
X454019Y305954D01*
X454030Y305943D01*
X454045Y305925D01*
X454063Y305899D01*
X454082Y305873D01*
X454104Y305839D01*
X454126Y305802D01*
X454144Y305762D01*
X454167Y305717D01*
X454185Y305665D01*
X454204Y305614D01*
X454218Y305558D01*
X454230Y305495D01*
X454237Y305432D01*
X454241Y305366D01*
Y305362D01*
Y305351D01*
Y305332D01*
X454237Y305307D01*
X454233Y305277D01*
X454230Y305244D01*
X454222Y305203D01*
X454215Y305162D01*
X454193Y305066D01*
X454156Y304966D01*
X454133Y304914D01*
X454104Y304866D01*
X454074Y304815D01*
X454037Y304766D01*
X454034Y304763D01*
X454026Y304752D01*
X454011Y304737D01*
X453993Y304718D01*
X453967Y304696D01*
X453937Y304666D01*
X453900Y304641D01*
X453860Y304611D01*
X453815Y304581D01*
X453763Y304556D01*
X453708Y304530D01*
X453649Y304504D01*
X453586Y304485D01*
X453515Y304470D01*
X453441Y304459D01*
X453364Y304456D01*
X453331D01*
X453305Y304459D01*
X453275Y304463D01*
X453242Y304467D01*
X453201Y304470D01*
X453160Y304482D01*
X453068Y304504D01*
X452975Y304537D01*
X452927Y304559D01*
X452879Y304585D01*
X452835Y304615D01*
X452790Y304648D01*
X452787Y304652D01*
X452779Y304655D01*
X452772Y304670D01*
X452757Y304685D01*
X452739Y304703D01*
X452720Y304726D01*
X452698Y304755D01*
X452679Y304789D01*
X452657Y304822D01*
X452635Y304863D01*
X452594Y304951D01*
X452561Y305055D01*
X452550Y305111D01*
X452542Y305170D01*
X452872Y305196D01*
Y305192D01*
Y305185D01*
X452875Y305173D01*
X452879Y305155D01*
X452890Y305114D01*
X452905Y305059D01*
X452927Y305003D01*
X452957Y304940D01*
X452994Y304885D01*
X453038Y304833D01*
X453046Y304829D01*
X453060Y304815D01*
X453090Y304796D01*
X453131Y304774D01*
X453175Y304752D01*
X453231Y304733D01*
X453294Y304718D01*
X453364Y304715D01*
X453386D01*
X453401Y304718D01*
X453445Y304722D01*
X453497Y304737D01*
X453560Y304755D01*
X453623Y304785D01*
X453689Y304829D01*
X453719Y304855D01*
X453749Y304885D01*
X453752Y304889D01*
X453756Y304892D01*
X453763Y304903D01*
X453774Y304914D01*
X453800Y304955D01*
X453830Y305007D01*
X453856Y305070D01*
X453882Y305148D01*
X453900Y305240D01*
X453908Y305288D01*
Y305340D01*
Y305344D01*
Y305351D01*
Y305366D01*
X453904Y305384D01*
Y305406D01*
X453900Y305432D01*
X453889Y305492D01*
X453871Y305562D01*
X453845Y305632D01*
X453808Y305699D01*
X453756Y305762D01*
Y305765D01*
X453749Y305769D01*
X453730Y305788D01*
X453697Y305814D01*
X453652Y305843D01*
X453593Y305869D01*
X453527Y305895D01*
X453449Y305913D01*
X453405Y305921D01*
X453334D01*
X453305Y305917D01*
X453268Y305913D01*
X453223Y305902D01*
X453179Y305891D01*
X453131Y305873D01*
X453083Y305851D01*
X453079Y305847D01*
X453064Y305839D01*
X453042Y305821D01*
X453012Y305802D01*
X452983Y305777D01*
X452953Y305743D01*
X452920Y305710D01*
X452894Y305669D01*
X452598Y305710D01*
X452846Y307027D01*
X454119D01*
Y306727D01*
D02*
G37*
G36*
X454456Y275500D02*
X454141D01*
Y277502D01*
X454138Y277498D01*
X454119Y277483D01*
X454097Y277461D01*
X454060Y277435D01*
X454019Y277402D01*
X453967Y277365D01*
X453908Y277324D01*
X453842Y277283D01*
X453838D01*
X453834Y277280D01*
X453812Y277265D01*
X453775Y277246D01*
X453731Y277224D01*
X453679Y277198D01*
X453623Y277172D01*
X453568Y277147D01*
X453512Y277124D01*
Y277428D01*
X453516D01*
X453523Y277435D01*
X453538Y277439D01*
X453557Y277450D01*
X453579Y277461D01*
X453605Y277476D01*
X453668Y277513D01*
X453742Y277554D01*
X453816Y277605D01*
X453893Y277664D01*
X453971Y277727D01*
X453975Y277731D01*
X453978Y277735D01*
X453990Y277746D01*
X454004Y277757D01*
X454038Y277794D01*
X454082Y277838D01*
X454127Y277890D01*
X454175Y277949D01*
X454215Y278009D01*
X454252Y278071D01*
X454456D01*
Y275500D01*
D02*
G37*
G36*
X452032Y278057D02*
X452062D01*
X452129Y278049D01*
X452203Y278042D01*
X452280Y278027D01*
X452358Y278009D01*
X452428Y277983D01*
X452432D01*
X452436Y277979D01*
X452458Y277968D01*
X452491Y277949D01*
X452528Y277923D01*
X452572Y277890D01*
X452621Y277850D01*
X452665Y277798D01*
X452706Y277742D01*
X452709Y277735D01*
X452720Y277713D01*
X452739Y277683D01*
X452758Y277639D01*
X452776Y277587D01*
X452795Y277531D01*
X452806Y277468D01*
X452809Y277406D01*
Y277398D01*
Y277380D01*
X452806Y277346D01*
X452798Y277306D01*
X452787Y277257D01*
X452769Y277206D01*
X452746Y277154D01*
X452717Y277098D01*
X452713Y277091D01*
X452702Y277076D01*
X452680Y277047D01*
X452650Y277017D01*
X452613Y276980D01*
X452569Y276939D01*
X452513Y276902D01*
X452450Y276865D01*
X452454D01*
X452461Y276862D01*
X452473Y276858D01*
X452487Y276851D01*
X452532Y276836D01*
X452584Y276810D01*
X452639Y276777D01*
X452702Y276736D01*
X452758Y276688D01*
X452809Y276628D01*
X452813Y276621D01*
X452828Y276599D01*
X452850Y276566D01*
X452872Y276521D01*
X452894Y276462D01*
X452917Y276399D01*
X452931Y276325D01*
X452935Y276244D01*
Y276240D01*
Y276236D01*
Y276214D01*
X452931Y276177D01*
X452924Y276133D01*
X452917Y276081D01*
X452902Y276025D01*
X452883Y275966D01*
X452857Y275907D01*
X452854Y275900D01*
X452843Y275881D01*
X452828Y275855D01*
X452806Y275818D01*
X452776Y275781D01*
X452746Y275741D01*
X452709Y275700D01*
X452669Y275666D01*
X452665Y275663D01*
X452650Y275652D01*
X452624Y275637D01*
X452591Y275622D01*
X452550Y275600D01*
X452502Y275578D01*
X452450Y275559D01*
X452388Y275541D01*
X452380D01*
X452358Y275533D01*
X452321Y275530D01*
X452273Y275522D01*
X452214Y275515D01*
X452143Y275507D01*
X452066Y275504D01*
X451977Y275500D01*
X451000D01*
Y278060D01*
X452006D01*
X452032Y278057D01*
D02*
G37*
G36*
X456213Y265000D02*
X455898D01*
Y267002D01*
X455895Y266998D01*
X455876Y266983D01*
X455854Y266961D01*
X455817Y266935D01*
X455776Y266902D01*
X455724Y266865D01*
X455665Y266824D01*
X455599Y266783D01*
X455595D01*
X455591Y266780D01*
X455569Y266765D01*
X455532Y266746D01*
X455488Y266724D01*
X455436Y266698D01*
X455380Y266672D01*
X455325Y266647D01*
X455269Y266624D01*
Y266928D01*
X455273D01*
X455280Y266935D01*
X455295Y266939D01*
X455314Y266950D01*
X455336Y266961D01*
X455362Y266976D01*
X455425Y267013D01*
X455499Y267054D01*
X455573Y267105D01*
X455650Y267164D01*
X455728Y267227D01*
X455732Y267231D01*
X455735Y267235D01*
X455747Y267246D01*
X455761Y267257D01*
X455795Y267294D01*
X455839Y267338D01*
X455884Y267390D01*
X455932Y267449D01*
X455972Y267509D01*
X456009Y267571D01*
X456213D01*
Y265000D01*
D02*
G37*
G36*
X454222D02*
X453908D01*
Y267002D01*
X453904Y266998D01*
X453886Y266983D01*
X453863Y266961D01*
X453826Y266935D01*
X453786Y266902D01*
X453734Y266865D01*
X453675Y266824D01*
X453608Y266783D01*
X453604D01*
X453601Y266780D01*
X453578Y266765D01*
X453541Y266746D01*
X453497Y266724D01*
X453445Y266698D01*
X453390Y266672D01*
X453334Y266647D01*
X453279Y266624D01*
Y266928D01*
X453282D01*
X453290Y266935D01*
X453305Y266939D01*
X453323Y266950D01*
X453345Y266961D01*
X453371Y266976D01*
X453434Y267013D01*
X453508Y267054D01*
X453582Y267105D01*
X453660Y267164D01*
X453737Y267227D01*
X453741Y267231D01*
X453745Y267235D01*
X453756Y267246D01*
X453771Y267257D01*
X453804Y267294D01*
X453849Y267338D01*
X453893Y267390D01*
X453941Y267449D01*
X453982Y267509D01*
X454019Y267571D01*
X454222D01*
Y265000D01*
D02*
G37*
G36*
X452894D02*
X452509D01*
X452209Y265777D01*
X451136D01*
X450859Y265000D01*
X450500D01*
X451477Y267560D01*
X451847D01*
X452894Y265000D01*
D02*
G37*
G36*
X455939Y258068D02*
X455969Y258064D01*
X456006Y258060D01*
X456046Y258053D01*
X456087Y258046D01*
X456183Y258020D01*
X456279Y257983D01*
X456327Y257961D01*
X456376Y257935D01*
X456420Y257901D01*
X456461Y257864D01*
X456464Y257861D01*
X456472Y257857D01*
X456479Y257842D01*
X456494Y257827D01*
X456512Y257809D01*
X456531Y257783D01*
X456550Y257757D01*
X456572Y257724D01*
X456609Y257653D01*
X456646Y257565D01*
X456661Y257520D01*
X456668Y257468D01*
X456675Y257417D01*
X456679Y257361D01*
Y257354D01*
Y257335D01*
X456675Y257306D01*
X456672Y257265D01*
X456664Y257221D01*
X456649Y257169D01*
X456635Y257113D01*
X456612Y257058D01*
X456609Y257050D01*
X456601Y257032D01*
X456587Y257002D01*
X456564Y256961D01*
X456535Y256917D01*
X456498Y256862D01*
X456453Y256806D01*
X456401Y256743D01*
X456394Y256736D01*
X456376Y256714D01*
X456357Y256695D01*
X456339Y256677D01*
X456316Y256654D01*
X456287Y256625D01*
X456257Y256595D01*
X456220Y256562D01*
X456183Y256525D01*
X456139Y256484D01*
X456091Y256444D01*
X456039Y256395D01*
X455980Y256347D01*
X455921Y256295D01*
X455917Y256292D01*
X455909Y256284D01*
X455895Y256273D01*
X455876Y256259D01*
X455854Y256236D01*
X455828Y256214D01*
X455769Y256166D01*
X455706Y256111D01*
X455647Y256055D01*
X455595Y256007D01*
X455573Y255988D01*
X455554Y255970D01*
X455550Y255966D01*
X455539Y255955D01*
X455525Y255940D01*
X455506Y255918D01*
X455488Y255892D01*
X455465Y255866D01*
X455421Y255803D01*
X456683D01*
Y255500D01*
X454984D01*
Y255504D01*
Y255519D01*
Y255541D01*
X454988Y255570D01*
X454992Y255604D01*
X454999Y255641D01*
X455007Y255678D01*
X455021Y255718D01*
Y255722D01*
X455025Y255726D01*
X455032Y255748D01*
X455047Y255781D01*
X455069Y255826D01*
X455099Y255877D01*
X455136Y255937D01*
X455177Y255996D01*
X455229Y256059D01*
Y256062D01*
X455236Y256066D01*
X455255Y256088D01*
X455288Y256122D01*
X455336Y256170D01*
X455391Y256225D01*
X455462Y256292D01*
X455547Y256366D01*
X455639Y256444D01*
X455643Y256447D01*
X455658Y256458D01*
X455680Y256477D01*
X455706Y256499D01*
X455739Y256529D01*
X455780Y256562D01*
X455821Y256599D01*
X455869Y256640D01*
X455961Y256728D01*
X456054Y256817D01*
X456098Y256862D01*
X456139Y256906D01*
X456176Y256947D01*
X456205Y256987D01*
Y256991D01*
X456213Y256995D01*
X456220Y257006D01*
X456228Y257021D01*
X456253Y257061D01*
X456283Y257109D01*
X456309Y257169D01*
X456335Y257232D01*
X456350Y257302D01*
X456357Y257368D01*
Y257372D01*
Y257376D01*
X456353Y257398D01*
X456350Y257435D01*
X456339Y257476D01*
X456324Y257528D01*
X456298Y257579D01*
X456265Y257631D01*
X456220Y257683D01*
X456213Y257690D01*
X456194Y257705D01*
X456168Y257724D01*
X456128Y257750D01*
X456076Y257772D01*
X456017Y257794D01*
X455946Y257809D01*
X455869Y257812D01*
X455847D01*
X455832Y257809D01*
X455787Y257805D01*
X455735Y257794D01*
X455680Y257779D01*
X455617Y257753D01*
X455558Y257720D01*
X455502Y257676D01*
X455495Y257668D01*
X455480Y257650D01*
X455458Y257620D01*
X455436Y257576D01*
X455410Y257524D01*
X455388Y257457D01*
X455373Y257383D01*
X455366Y257298D01*
X455044Y257331D01*
Y257335D01*
X455047Y257346D01*
Y257365D01*
X455051Y257391D01*
X455058Y257420D01*
X455066Y257454D01*
X455077Y257494D01*
X455088Y257535D01*
X455118Y257624D01*
X455162Y257713D01*
X455188Y257757D01*
X455221Y257801D01*
X455255Y257842D01*
X455292Y257879D01*
X455295Y257883D01*
X455303Y257887D01*
X455314Y257898D01*
X455332Y257909D01*
X455354Y257924D01*
X455380Y257938D01*
X455410Y257957D01*
X455447Y257975D01*
X455488Y257994D01*
X455532Y258012D01*
X455580Y258027D01*
X455632Y258042D01*
X455687Y258053D01*
X455747Y258064D01*
X455809Y258068D01*
X455876Y258071D01*
X455913D01*
X455939Y258068D01*
D02*
G37*
G36*
X454222Y255500D02*
X453908D01*
Y257502D01*
X453904Y257498D01*
X453886Y257483D01*
X453863Y257461D01*
X453826Y257435D01*
X453786Y257402D01*
X453734Y257365D01*
X453675Y257324D01*
X453608Y257283D01*
X453604D01*
X453601Y257280D01*
X453578Y257265D01*
X453541Y257246D01*
X453497Y257224D01*
X453445Y257198D01*
X453390Y257172D01*
X453334Y257147D01*
X453279Y257124D01*
Y257428D01*
X453282D01*
X453290Y257435D01*
X453305Y257439D01*
X453323Y257450D01*
X453345Y257461D01*
X453371Y257476D01*
X453434Y257513D01*
X453508Y257554D01*
X453582Y257605D01*
X453660Y257664D01*
X453737Y257727D01*
X453741Y257731D01*
X453745Y257735D01*
X453756Y257746D01*
X453771Y257757D01*
X453804Y257794D01*
X453849Y257838D01*
X453893Y257890D01*
X453941Y257949D01*
X453982Y258009D01*
X454019Y258071D01*
X454222D01*
Y255500D01*
D02*
G37*
G36*
X452894D02*
X452509D01*
X452209Y256277D01*
X451136D01*
X450859Y255500D01*
X450500D01*
X451477Y258060D01*
X451847D01*
X452894Y255500D01*
D02*
G37*
G36*
X456350Y235903D02*
X456698D01*
Y235614D01*
X456350D01*
Y235000D01*
X456035D01*
Y235614D01*
X454921D01*
Y235903D01*
X456094Y237560D01*
X456350D01*
Y235903D01*
D02*
G37*
G36*
X454222Y235000D02*
X453908D01*
Y237002D01*
X453904Y236998D01*
X453886Y236983D01*
X453863Y236961D01*
X453826Y236935D01*
X453786Y236902D01*
X453734Y236865D01*
X453675Y236824D01*
X453608Y236783D01*
X453604D01*
X453601Y236780D01*
X453578Y236765D01*
X453541Y236746D01*
X453497Y236724D01*
X453445Y236698D01*
X453390Y236672D01*
X453334Y236647D01*
X453279Y236624D01*
Y236928D01*
X453282D01*
X453290Y236935D01*
X453305Y236939D01*
X453323Y236950D01*
X453345Y236961D01*
X453371Y236976D01*
X453434Y237013D01*
X453508Y237053D01*
X453582Y237105D01*
X453660Y237164D01*
X453737Y237227D01*
X453741Y237231D01*
X453745Y237235D01*
X453756Y237246D01*
X453771Y237257D01*
X453804Y237294D01*
X453849Y237338D01*
X453893Y237390D01*
X453941Y237449D01*
X453982Y237509D01*
X454019Y237572D01*
X454222D01*
Y235000D01*
D02*
G37*
G36*
X452894D02*
X452509D01*
X452209Y235777D01*
X451136D01*
X450859Y235000D01*
X450500D01*
X451477Y237560D01*
X451847D01*
X452894Y235000D01*
D02*
G37*
G36*
X456605Y226727D02*
X455580D01*
X455443Y226035D01*
X455447Y226039D01*
X455454Y226043D01*
X455465Y226050D01*
X455484Y226061D01*
X455506Y226073D01*
X455532Y226087D01*
X455591Y226117D01*
X455665Y226147D01*
X455747Y226172D01*
X455835Y226191D01*
X455880Y226198D01*
X455961D01*
X455983Y226195D01*
X456013Y226191D01*
X456046Y226187D01*
X456083Y226180D01*
X456124Y226169D01*
X456213Y226143D01*
X456261Y226124D01*
X456309Y226098D01*
X456357Y226073D01*
X456405Y226043D01*
X456450Y226006D01*
X456494Y225965D01*
X456498Y225961D01*
X456505Y225954D01*
X456516Y225943D01*
X456531Y225924D01*
X456550Y225899D01*
X456568Y225873D01*
X456590Y225839D01*
X456612Y225802D01*
X456631Y225762D01*
X456653Y225717D01*
X456672Y225665D01*
X456690Y225614D01*
X456705Y225558D01*
X456716Y225495D01*
X456723Y225432D01*
X456727Y225366D01*
Y225362D01*
Y225351D01*
Y225332D01*
X456723Y225307D01*
X456720Y225277D01*
X456716Y225244D01*
X456709Y225203D01*
X456701Y225162D01*
X456679Y225066D01*
X456642Y224966D01*
X456620Y224914D01*
X456590Y224866D01*
X456561Y224815D01*
X456524Y224766D01*
X456520Y224763D01*
X456512Y224752D01*
X456498Y224737D01*
X456479Y224718D01*
X456453Y224696D01*
X456424Y224667D01*
X456387Y224641D01*
X456346Y224611D01*
X456302Y224581D01*
X456250Y224555D01*
X456194Y224530D01*
X456135Y224504D01*
X456072Y224485D01*
X456002Y224470D01*
X455928Y224459D01*
X455850Y224456D01*
X455817D01*
X455791Y224459D01*
X455761Y224463D01*
X455728Y224467D01*
X455687Y224470D01*
X455647Y224482D01*
X455554Y224504D01*
X455462Y224537D01*
X455414Y224559D01*
X455366Y224585D01*
X455321Y224615D01*
X455277Y224648D01*
X455273Y224652D01*
X455266Y224655D01*
X455258Y224670D01*
X455243Y224685D01*
X455225Y224704D01*
X455206Y224726D01*
X455184Y224755D01*
X455166Y224789D01*
X455143Y224822D01*
X455121Y224863D01*
X455081Y224951D01*
X455047Y225055D01*
X455036Y225111D01*
X455029Y225170D01*
X455358Y225196D01*
Y225192D01*
Y225184D01*
X455362Y225173D01*
X455366Y225155D01*
X455377Y225114D01*
X455391Y225059D01*
X455414Y225003D01*
X455443Y224940D01*
X455480Y224885D01*
X455525Y224833D01*
X455532Y224829D01*
X455547Y224815D01*
X455576Y224796D01*
X455617Y224774D01*
X455661Y224752D01*
X455717Y224733D01*
X455780Y224718D01*
X455850Y224715D01*
X455872D01*
X455887Y224718D01*
X455932Y224722D01*
X455983Y224737D01*
X456046Y224755D01*
X456109Y224785D01*
X456176Y224829D01*
X456205Y224855D01*
X456235Y224885D01*
X456239Y224888D01*
X456242Y224892D01*
X456250Y224903D01*
X456261Y224914D01*
X456287Y224955D01*
X456316Y225007D01*
X456342Y225070D01*
X456368Y225148D01*
X456387Y225240D01*
X456394Y225288D01*
Y225340D01*
Y225344D01*
Y225351D01*
Y225366D01*
X456390Y225384D01*
Y225407D01*
X456387Y225432D01*
X456376Y225492D01*
X456357Y225562D01*
X456331Y225632D01*
X456294Y225699D01*
X456242Y225762D01*
Y225765D01*
X456235Y225769D01*
X456216Y225788D01*
X456183Y225814D01*
X456139Y225843D01*
X456080Y225869D01*
X456013Y225895D01*
X455935Y225913D01*
X455891Y225921D01*
X455821D01*
X455791Y225917D01*
X455754Y225913D01*
X455710Y225902D01*
X455665Y225891D01*
X455617Y225873D01*
X455569Y225851D01*
X455565Y225847D01*
X455550Y225839D01*
X455528Y225821D01*
X455499Y225802D01*
X455469Y225777D01*
X455440Y225743D01*
X455406Y225710D01*
X455380Y225669D01*
X455084Y225710D01*
X455332Y227027D01*
X456605D01*
Y226727D01*
D02*
G37*
G36*
X454222Y224500D02*
X453908D01*
Y226502D01*
X453904Y226498D01*
X453886Y226483D01*
X453863Y226461D01*
X453826Y226435D01*
X453786Y226402D01*
X453734Y226365D01*
X453675Y226324D01*
X453608Y226283D01*
X453604D01*
X453601Y226280D01*
X453578Y226265D01*
X453541Y226246D01*
X453497Y226224D01*
X453445Y226198D01*
X453390Y226172D01*
X453334Y226147D01*
X453279Y226124D01*
Y226428D01*
X453282D01*
X453290Y226435D01*
X453305Y226439D01*
X453323Y226450D01*
X453345Y226461D01*
X453371Y226476D01*
X453434Y226513D01*
X453508Y226554D01*
X453582Y226605D01*
X453660Y226664D01*
X453737Y226727D01*
X453741Y226731D01*
X453745Y226735D01*
X453756Y226746D01*
X453771Y226757D01*
X453804Y226794D01*
X453849Y226838D01*
X453893Y226890D01*
X453941Y226949D01*
X453982Y227009D01*
X454019Y227071D01*
X454222D01*
Y224500D01*
D02*
G37*
G36*
X452894D02*
X452509D01*
X452209Y225277D01*
X451136D01*
X450859Y224500D01*
X450500D01*
X451477Y227060D01*
X451847D01*
X452894Y224500D01*
D02*
G37*
G36*
X453230Y192068D02*
X453256D01*
X453286Y192064D01*
X453356Y192049D01*
X453434Y192031D01*
X453515Y192001D01*
X453596Y191957D01*
X453637Y191931D01*
X453674Y191901D01*
X453678Y191898D01*
X453682Y191894D01*
X453693Y191883D01*
X453704Y191872D01*
X453722Y191853D01*
X453737Y191831D01*
X453778Y191779D01*
X453818Y191713D01*
X453855Y191631D01*
X453889Y191539D01*
X453911Y191435D01*
X453596Y191409D01*
Y191413D01*
X453593Y191417D01*
X453589Y191439D01*
X453578Y191472D01*
X453563Y191513D01*
X453548Y191557D01*
X453526Y191602D01*
X453500Y191642D01*
X453474Y191676D01*
X453467Y191683D01*
X453452Y191698D01*
X453426Y191720D01*
X453389Y191746D01*
X453341Y191768D01*
X453289Y191790D01*
X453226Y191805D01*
X453160Y191813D01*
X453134D01*
X453104Y191809D01*
X453071Y191801D01*
X453027Y191790D01*
X452982Y191776D01*
X452938Y191757D01*
X452893Y191727D01*
X452886Y191724D01*
X452868Y191709D01*
X452842Y191683D01*
X452808Y191646D01*
X452771Y191602D01*
X452731Y191550D01*
X452694Y191483D01*
X452657Y191409D01*
Y191405D01*
X452653Y191398D01*
X452649Y191387D01*
X452642Y191372D01*
X452638Y191350D01*
X452631Y191324D01*
X452623Y191295D01*
X452616Y191258D01*
X452605Y191217D01*
X452597Y191172D01*
X452590Y191124D01*
X452586Y191072D01*
X452579Y191013D01*
X452575Y190954D01*
X452571Y190887D01*
Y190821D01*
X452575Y190825D01*
X452590Y190847D01*
X452616Y190876D01*
X452649Y190913D01*
X452686Y190958D01*
X452734Y190998D01*
X452786Y191039D01*
X452845Y191076D01*
X452849D01*
X452853Y191080D01*
X452875Y191091D01*
X452908Y191102D01*
X452953Y191121D01*
X453004Y191135D01*
X453064Y191147D01*
X453126Y191158D01*
X453193Y191161D01*
X453223D01*
X453245Y191158D01*
X453274Y191154D01*
X453304Y191150D01*
X453341Y191143D01*
X453378Y191132D01*
X453463Y191106D01*
X453508Y191087D01*
X453552Y191061D01*
X453596Y191035D01*
X453645Y191006D01*
X453689Y190969D01*
X453730Y190928D01*
X453733Y190925D01*
X453741Y190917D01*
X453752Y190906D01*
X453763Y190887D01*
X453781Y190862D01*
X453800Y190836D01*
X453818Y190802D01*
X453841Y190765D01*
X453863Y190725D01*
X453881Y190680D01*
X453900Y190629D01*
X453918Y190577D01*
X453929Y190521D01*
X453940Y190458D01*
X453948Y190395D01*
X453952Y190329D01*
Y190325D01*
Y190318D01*
Y190307D01*
Y190288D01*
X453948Y190266D01*
Y190244D01*
X453937Y190184D01*
X453926Y190114D01*
X453907Y190040D01*
X453881Y189959D01*
X453844Y189881D01*
Y189877D01*
X453841Y189874D01*
X453833Y189863D01*
X453826Y189848D01*
X453804Y189811D01*
X453770Y189763D01*
X453730Y189711D01*
X453682Y189659D01*
X453622Y189607D01*
X453559Y189563D01*
X453556D01*
X453552Y189559D01*
X453541Y189552D01*
X453526Y189548D01*
X453489Y189530D01*
X453441Y189511D01*
X453378Y189489D01*
X453308Y189474D01*
X453230Y189459D01*
X453145Y189456D01*
X453126D01*
X453108Y189459D01*
X453078D01*
X453045Y189463D01*
X453008Y189470D01*
X452964Y189481D01*
X452919Y189493D01*
X452868Y189507D01*
X452816Y189526D01*
X452764Y189548D01*
X452708Y189578D01*
X452657Y189611D01*
X452605Y189648D01*
X452553Y189692D01*
X452505Y189744D01*
X452501Y189748D01*
X452494Y189759D01*
X452483Y189774D01*
X452468Y189800D01*
X452446Y189833D01*
X452427Y189870D01*
X452405Y189918D01*
X452383Y189970D01*
X452357Y190033D01*
X452335Y190103D01*
X452316Y190181D01*
X452298Y190266D01*
X452279Y190362D01*
X452268Y190466D01*
X452261Y190577D01*
X452257Y190695D01*
Y190699D01*
Y190702D01*
Y190714D01*
Y190728D01*
X452261Y190765D01*
Y190817D01*
X452264Y190876D01*
X452272Y190947D01*
X452279Y191024D01*
X452290Y191110D01*
X452305Y191195D01*
X452324Y191287D01*
X452346Y191376D01*
X452372Y191465D01*
X452405Y191550D01*
X452442Y191631D01*
X452483Y191709D01*
X452531Y191776D01*
X452534Y191779D01*
X452542Y191787D01*
X452557Y191801D01*
X452575Y191824D01*
X452597Y191846D01*
X452627Y191868D01*
X452664Y191898D01*
X452701Y191923D01*
X452745Y191949D01*
X452794Y191979D01*
X452849Y192001D01*
X452905Y192027D01*
X452967Y192046D01*
X453034Y192060D01*
X453104Y192068D01*
X453178Y192071D01*
X453208D01*
X453230Y192068D01*
D02*
G37*
G36*
X451032Y192057D02*
X451062D01*
X451128Y192049D01*
X451202Y192042D01*
X451280Y192027D01*
X451358Y192009D01*
X451428Y191983D01*
X451432D01*
X451436Y191979D01*
X451458Y191968D01*
X451491Y191949D01*
X451528Y191923D01*
X451573Y191890D01*
X451621Y191850D01*
X451665Y191798D01*
X451706Y191742D01*
X451709Y191735D01*
X451721Y191713D01*
X451739Y191683D01*
X451757Y191639D01*
X451776Y191587D01*
X451794Y191531D01*
X451806Y191468D01*
X451809Y191405D01*
Y191398D01*
Y191380D01*
X451806Y191346D01*
X451798Y191306D01*
X451787Y191258D01*
X451769Y191206D01*
X451746Y191154D01*
X451717Y191098D01*
X451713Y191091D01*
X451702Y191076D01*
X451680Y191047D01*
X451650Y191017D01*
X451613Y190980D01*
X451569Y190939D01*
X451513Y190902D01*
X451450Y190865D01*
X451454D01*
X451462Y190862D01*
X451473Y190858D01*
X451487Y190850D01*
X451532Y190836D01*
X451584Y190810D01*
X451639Y190777D01*
X451702Y190736D01*
X451757Y190688D01*
X451809Y190629D01*
X451813Y190621D01*
X451828Y190599D01*
X451850Y190566D01*
X451872Y190521D01*
X451894Y190462D01*
X451917Y190399D01*
X451931Y190325D01*
X451935Y190244D01*
Y190240D01*
Y190236D01*
Y190214D01*
X451931Y190177D01*
X451924Y190133D01*
X451917Y190081D01*
X451902Y190025D01*
X451883Y189966D01*
X451857Y189907D01*
X451854Y189900D01*
X451843Y189881D01*
X451828Y189855D01*
X451806Y189818D01*
X451776Y189781D01*
X451746Y189741D01*
X451709Y189700D01*
X451669Y189666D01*
X451665Y189663D01*
X451650Y189652D01*
X451624Y189637D01*
X451591Y189622D01*
X451550Y189600D01*
X451502Y189578D01*
X451450Y189559D01*
X451388Y189541D01*
X451380D01*
X451358Y189533D01*
X451321Y189530D01*
X451273Y189522D01*
X451214Y189515D01*
X451143Y189507D01*
X451066Y189504D01*
X450977Y189500D01*
X450000D01*
Y192060D01*
X451006D01*
X451032Y192057D01*
D02*
G37*
G36*
X489996Y277568D02*
X490022D01*
X490052Y277564D01*
X490122Y277549D01*
X490200Y277531D01*
X490281Y277501D01*
X490363Y277457D01*
X490404Y277431D01*
X490441Y277401D01*
X490444Y277398D01*
X490448Y277394D01*
X490459Y277383D01*
X490470Y277372D01*
X490489Y277353D01*
X490503Y277331D01*
X490544Y277279D01*
X490585Y277213D01*
X490622Y277131D01*
X490655Y277039D01*
X490677Y276935D01*
X490363Y276909D01*
Y276913D01*
X490359Y276917D01*
X490355Y276939D01*
X490344Y276972D01*
X490330Y277013D01*
X490315Y277057D01*
X490293Y277102D01*
X490267Y277142D01*
X490241Y277176D01*
X490233Y277183D01*
X490218Y277198D01*
X490193Y277220D01*
X490156Y277246D01*
X490107Y277268D01*
X490056Y277290D01*
X489993Y277305D01*
X489926Y277312D01*
X489900D01*
X489871Y277309D01*
X489837Y277301D01*
X489793Y277290D01*
X489749Y277275D01*
X489704Y277257D01*
X489660Y277227D01*
X489652Y277224D01*
X489634Y277209D01*
X489608Y277183D01*
X489575Y277146D01*
X489538Y277102D01*
X489497Y277050D01*
X489460Y276983D01*
X489423Y276909D01*
Y276905D01*
X489419Y276898D01*
X489416Y276887D01*
X489408Y276872D01*
X489404Y276850D01*
X489397Y276824D01*
X489390Y276795D01*
X489382Y276758D01*
X489371Y276717D01*
X489364Y276672D01*
X489356Y276624D01*
X489353Y276572D01*
X489345Y276513D01*
X489342Y276454D01*
X489338Y276388D01*
Y276321D01*
X489342Y276325D01*
X489356Y276347D01*
X489382Y276376D01*
X489416Y276413D01*
X489453Y276458D01*
X489501Y276499D01*
X489552Y276539D01*
X489612Y276576D01*
X489615D01*
X489619Y276580D01*
X489641Y276591D01*
X489675Y276602D01*
X489719Y276621D01*
X489771Y276635D01*
X489830Y276646D01*
X489893Y276658D01*
X489959Y276661D01*
X489989D01*
X490011Y276658D01*
X490041Y276654D01*
X490070Y276650D01*
X490107Y276643D01*
X490144Y276632D01*
X490230Y276606D01*
X490274Y276587D01*
X490318Y276561D01*
X490363Y276536D01*
X490411Y276506D01*
X490455Y276469D01*
X490496Y276428D01*
X490500Y276425D01*
X490507Y276417D01*
X490518Y276406D01*
X490529Y276388D01*
X490548Y276362D01*
X490566Y276336D01*
X490585Y276302D01*
X490607Y276265D01*
X490629Y276225D01*
X490648Y276180D01*
X490666Y276129D01*
X490685Y276077D01*
X490696Y276021D01*
X490707Y275958D01*
X490714Y275895D01*
X490718Y275829D01*
Y275825D01*
Y275818D01*
Y275807D01*
Y275788D01*
X490714Y275766D01*
Y275744D01*
X490703Y275684D01*
X490692Y275614D01*
X490674Y275540D01*
X490648Y275459D01*
X490611Y275381D01*
Y275377D01*
X490607Y275374D01*
X490600Y275363D01*
X490592Y275348D01*
X490570Y275311D01*
X490537Y275263D01*
X490496Y275211D01*
X490448Y275159D01*
X490389Y275107D01*
X490326Y275063D01*
X490322D01*
X490318Y275059D01*
X490307Y275052D01*
X490293Y275048D01*
X490255Y275030D01*
X490207Y275011D01*
X490144Y274989D01*
X490074Y274974D01*
X489996Y274959D01*
X489911Y274956D01*
X489893D01*
X489874Y274959D01*
X489845D01*
X489812Y274963D01*
X489775Y274970D01*
X489730Y274981D01*
X489686Y274993D01*
X489634Y275007D01*
X489582Y275026D01*
X489530Y275048D01*
X489475Y275078D01*
X489423Y275111D01*
X489371Y275148D01*
X489319Y275192D01*
X489271Y275244D01*
X489268Y275248D01*
X489260Y275259D01*
X489249Y275274D01*
X489234Y275300D01*
X489212Y275333D01*
X489194Y275370D01*
X489171Y275418D01*
X489149Y275470D01*
X489123Y275533D01*
X489101Y275603D01*
X489083Y275681D01*
X489064Y275766D01*
X489046Y275862D01*
X489035Y275966D01*
X489027Y276077D01*
X489023Y276195D01*
Y276199D01*
Y276203D01*
Y276214D01*
Y276228D01*
X489027Y276265D01*
Y276317D01*
X489031Y276376D01*
X489038Y276447D01*
X489046Y276524D01*
X489057Y276609D01*
X489072Y276695D01*
X489090Y276787D01*
X489112Y276876D01*
X489138Y276965D01*
X489171Y277050D01*
X489208Y277131D01*
X489249Y277209D01*
X489297Y277275D01*
X489301Y277279D01*
X489308Y277287D01*
X489323Y277301D01*
X489342Y277324D01*
X489364Y277346D01*
X489393Y277368D01*
X489430Y277398D01*
X489467Y277424D01*
X489512Y277449D01*
X489560Y277479D01*
X489615Y277501D01*
X489671Y277527D01*
X489734Y277546D01*
X489800Y277560D01*
X489871Y277568D01*
X489945Y277572D01*
X489974D01*
X489996Y277568D01*
D02*
G37*
G36*
X488894Y275000D02*
X488509D01*
X488209Y275777D01*
X487136D01*
X486859Y275000D01*
X486500D01*
X487477Y277560D01*
X487847D01*
X488894Y275000D01*
D02*
G37*
G36*
X490614Y267227D02*
X489590D01*
X489453Y266535D01*
X489456Y266539D01*
X489464Y266543D01*
X489475Y266550D01*
X489493Y266561D01*
X489515Y266572D01*
X489541Y266587D01*
X489601Y266617D01*
X489675Y266647D01*
X489756Y266672D01*
X489845Y266691D01*
X489889Y266698D01*
X489971D01*
X489993Y266695D01*
X490022Y266691D01*
X490056Y266687D01*
X490093Y266680D01*
X490133Y266669D01*
X490222Y266643D01*
X490270Y266624D01*
X490318Y266598D01*
X490367Y266572D01*
X490415Y266543D01*
X490459Y266506D01*
X490503Y266465D01*
X490507Y266461D01*
X490515Y266454D01*
X490526Y266443D01*
X490540Y266424D01*
X490559Y266399D01*
X490577Y266373D01*
X490600Y266339D01*
X490622Y266302D01*
X490640Y266262D01*
X490662Y266217D01*
X490681Y266165D01*
X490699Y266114D01*
X490714Y266058D01*
X490725Y265995D01*
X490733Y265932D01*
X490736Y265866D01*
Y265862D01*
Y265851D01*
Y265832D01*
X490733Y265807D01*
X490729Y265777D01*
X490725Y265744D01*
X490718Y265703D01*
X490711Y265662D01*
X490688Y265566D01*
X490651Y265466D01*
X490629Y265414D01*
X490600Y265366D01*
X490570Y265315D01*
X490533Y265266D01*
X490529Y265263D01*
X490522Y265252D01*
X490507Y265237D01*
X490489Y265218D01*
X490463Y265196D01*
X490433Y265166D01*
X490396Y265141D01*
X490355Y265111D01*
X490311Y265081D01*
X490259Y265055D01*
X490204Y265030D01*
X490144Y265004D01*
X490082Y264985D01*
X490011Y264970D01*
X489937Y264959D01*
X489860Y264956D01*
X489826D01*
X489800Y264959D01*
X489771Y264963D01*
X489738Y264967D01*
X489697Y264970D01*
X489656Y264982D01*
X489564Y265004D01*
X489471Y265037D01*
X489423Y265059D01*
X489375Y265085D01*
X489330Y265115D01*
X489286Y265148D01*
X489282Y265152D01*
X489275Y265155D01*
X489268Y265170D01*
X489253Y265185D01*
X489234Y265203D01*
X489216Y265226D01*
X489194Y265255D01*
X489175Y265289D01*
X489153Y265322D01*
X489131Y265363D01*
X489090Y265451D01*
X489057Y265555D01*
X489046Y265611D01*
X489038Y265670D01*
X489367Y265696D01*
Y265692D01*
Y265685D01*
X489371Y265673D01*
X489375Y265655D01*
X489386Y265614D01*
X489401Y265559D01*
X489423Y265503D01*
X489453Y265440D01*
X489490Y265385D01*
X489534Y265333D01*
X489541Y265329D01*
X489556Y265315D01*
X489586Y265296D01*
X489627Y265274D01*
X489671Y265252D01*
X489726Y265233D01*
X489789Y265218D01*
X489860Y265215D01*
X489882D01*
X489897Y265218D01*
X489941Y265222D01*
X489993Y265237D01*
X490056Y265255D01*
X490119Y265285D01*
X490185Y265329D01*
X490215Y265355D01*
X490244Y265385D01*
X490248Y265388D01*
X490252Y265392D01*
X490259Y265403D01*
X490270Y265414D01*
X490296Y265455D01*
X490326Y265507D01*
X490352Y265570D01*
X490378Y265648D01*
X490396Y265740D01*
X490404Y265788D01*
Y265840D01*
Y265844D01*
Y265851D01*
Y265866D01*
X490400Y265884D01*
Y265907D01*
X490396Y265932D01*
X490385Y265992D01*
X490367Y266062D01*
X490341Y266132D01*
X490304Y266199D01*
X490252Y266262D01*
Y266265D01*
X490244Y266269D01*
X490226Y266288D01*
X490193Y266314D01*
X490148Y266343D01*
X490089Y266369D01*
X490022Y266395D01*
X489945Y266413D01*
X489900Y266421D01*
X489830D01*
X489800Y266417D01*
X489763Y266413D01*
X489719Y266402D01*
X489675Y266391D01*
X489627Y266373D01*
X489578Y266351D01*
X489575Y266347D01*
X489560Y266339D01*
X489538Y266321D01*
X489508Y266302D01*
X489478Y266277D01*
X489449Y266243D01*
X489416Y266210D01*
X489390Y266169D01*
X489094Y266210D01*
X489342Y267527D01*
X490614D01*
Y267227D01*
D02*
G37*
G36*
X488894Y265000D02*
X488509D01*
X488209Y265777D01*
X487136D01*
X486859Y265000D01*
X486500D01*
X487477Y267560D01*
X487847D01*
X488894Y265000D01*
D02*
G37*
G36*
X489919Y247568D02*
X489967Y247560D01*
X490026Y247549D01*
X490093Y247531D01*
X490159Y247509D01*
X490226Y247479D01*
X490230D01*
X490233Y247475D01*
X490255Y247464D01*
X490289Y247442D01*
X490326Y247416D01*
X490370Y247379D01*
X490415Y247338D01*
X490459Y247290D01*
X490496Y247235D01*
X490500Y247227D01*
X490511Y247209D01*
X490526Y247176D01*
X490544Y247135D01*
X490563Y247087D01*
X490577Y247031D01*
X490589Y246968D01*
X490592Y246905D01*
Y246898D01*
Y246876D01*
X490589Y246846D01*
X490581Y246806D01*
X490570Y246758D01*
X490552Y246706D01*
X490529Y246654D01*
X490500Y246602D01*
X490496Y246595D01*
X490485Y246580D01*
X490463Y246554D01*
X490433Y246524D01*
X490396Y246491D01*
X490352Y246454D01*
X490300Y246421D01*
X490237Y246388D01*
X490241D01*
X490248Y246384D01*
X490259Y246380D01*
X490274Y246376D01*
X490315Y246362D01*
X490367Y246339D01*
X490426Y246310D01*
X490485Y246273D01*
X490540Y246225D01*
X490592Y246169D01*
X490596Y246162D01*
X490611Y246140D01*
X490633Y246103D01*
X490655Y246055D01*
X490677Y245995D01*
X490699Y245925D01*
X490714Y245844D01*
X490718Y245755D01*
Y245751D01*
Y245740D01*
Y245722D01*
X490714Y245699D01*
X490711Y245670D01*
X490703Y245636D01*
X490696Y245599D01*
X490688Y245559D01*
X490659Y245470D01*
X490637Y245422D01*
X490614Y245377D01*
X490585Y245329D01*
X490552Y245281D01*
X490515Y245233D01*
X490470Y245189D01*
X490466Y245185D01*
X490459Y245178D01*
X490444Y245166D01*
X490426Y245152D01*
X490404Y245133D01*
X490374Y245115D01*
X490341Y245093D01*
X490300Y245074D01*
X490259Y245052D01*
X490211Y245030D01*
X490163Y245011D01*
X490107Y244993D01*
X490048Y244978D01*
X489985Y244967D01*
X489923Y244959D01*
X489852Y244956D01*
X489819D01*
X489797Y244959D01*
X489767Y244963D01*
X489734Y244967D01*
X489697Y244974D01*
X489656Y244982D01*
X489567Y245004D01*
X489475Y245041D01*
X489427Y245063D01*
X489382Y245089D01*
X489338Y245122D01*
X489293Y245155D01*
X489290Y245159D01*
X489282Y245166D01*
X489271Y245178D01*
X489260Y245192D01*
X489242Y245211D01*
X489223Y245237D01*
X489201Y245263D01*
X489179Y245296D01*
X489157Y245333D01*
X489134Y245370D01*
X489094Y245459D01*
X489060Y245562D01*
X489049Y245618D01*
X489042Y245677D01*
X489356Y245718D01*
Y245714D01*
X489360Y245707D01*
X489364Y245692D01*
X489367Y245673D01*
X489371Y245651D01*
X489379Y245625D01*
X489397Y245570D01*
X489423Y245503D01*
X489456Y245440D01*
X489493Y245381D01*
X489538Y245329D01*
X489545Y245326D01*
X489560Y245311D01*
X489590Y245292D01*
X489627Y245274D01*
X489671Y245252D01*
X489726Y245233D01*
X489789Y245218D01*
X489856Y245215D01*
X489878D01*
X489893Y245218D01*
X489934Y245222D01*
X489985Y245233D01*
X490045Y245252D01*
X490107Y245278D01*
X490170Y245315D01*
X490230Y245366D01*
X490237Y245374D01*
X490255Y245396D01*
X490278Y245429D01*
X490307Y245474D01*
X490337Y245529D01*
X490359Y245592D01*
X490378Y245666D01*
X490385Y245747D01*
Y245751D01*
Y245759D01*
Y245770D01*
X490381Y245784D01*
X490378Y245825D01*
X490367Y245873D01*
X490352Y245932D01*
X490326Y245992D01*
X490289Y246051D01*
X490241Y246106D01*
X490233Y246114D01*
X490215Y246129D01*
X490185Y246151D01*
X490144Y246177D01*
X490093Y246202D01*
X490030Y246225D01*
X489959Y246239D01*
X489882Y246247D01*
X489849D01*
X489823Y246243D01*
X489789Y246239D01*
X489752Y246232D01*
X489708Y246225D01*
X489660Y246214D01*
X489697Y246491D01*
X489715D01*
X489730Y246487D01*
X489778D01*
X489819Y246495D01*
X489867Y246502D01*
X489923Y246513D01*
X489985Y246532D01*
X490045Y246558D01*
X490107Y246591D01*
X490111D01*
X490115Y246595D01*
X490133Y246609D01*
X490159Y246635D01*
X490189Y246669D01*
X490218Y246717D01*
X490244Y246772D01*
X490263Y246835D01*
X490270Y246872D01*
Y246913D01*
Y246917D01*
Y246920D01*
Y246942D01*
X490263Y246972D01*
X490255Y247013D01*
X490241Y247057D01*
X490222Y247105D01*
X490193Y247153D01*
X490152Y247198D01*
X490148Y247201D01*
X490130Y247216D01*
X490104Y247235D01*
X490070Y247257D01*
X490026Y247275D01*
X489974Y247294D01*
X489915Y247309D01*
X489849Y247312D01*
X489819D01*
X489786Y247305D01*
X489741Y247298D01*
X489693Y247283D01*
X489645Y247264D01*
X489593Y247235D01*
X489545Y247198D01*
X489541Y247194D01*
X489527Y247176D01*
X489504Y247150D01*
X489478Y247113D01*
X489453Y247065D01*
X489427Y247005D01*
X489404Y246935D01*
X489390Y246854D01*
X489075Y246909D01*
Y246913D01*
X489079Y246924D01*
X489083Y246939D01*
X489086Y246961D01*
X489094Y246987D01*
X489105Y247017D01*
X489127Y247087D01*
X489164Y247168D01*
X489208Y247250D01*
X489264Y247327D01*
X489334Y247398D01*
X489338Y247401D01*
X489345Y247405D01*
X489356Y247412D01*
X489371Y247424D01*
X489390Y247438D01*
X489416Y247453D01*
X489441Y247468D01*
X489475Y247486D01*
X489549Y247516D01*
X489634Y247546D01*
X489734Y247564D01*
X489786Y247571D01*
X489878D01*
X489919Y247568D01*
D02*
G37*
G36*
X488894Y245000D02*
X488509D01*
X488209Y245777D01*
X487136D01*
X486859Y245000D01*
X486500D01*
X487477Y247560D01*
X487847D01*
X488894Y245000D01*
D02*
G37*
G36*
X489948Y237568D02*
X489978Y237564D01*
X490015Y237560D01*
X490056Y237553D01*
X490096Y237546D01*
X490193Y237520D01*
X490289Y237483D01*
X490337Y237460D01*
X490385Y237435D01*
X490429Y237401D01*
X490470Y237364D01*
X490474Y237361D01*
X490481Y237357D01*
X490489Y237342D01*
X490503Y237327D01*
X490522Y237309D01*
X490540Y237283D01*
X490559Y237257D01*
X490581Y237224D01*
X490618Y237153D01*
X490655Y237065D01*
X490670Y237020D01*
X490677Y236968D01*
X490685Y236917D01*
X490688Y236861D01*
Y236854D01*
Y236835D01*
X490685Y236806D01*
X490681Y236765D01*
X490674Y236720D01*
X490659Y236669D01*
X490644Y236613D01*
X490622Y236558D01*
X490618Y236550D01*
X490611Y236532D01*
X490596Y236502D01*
X490574Y236461D01*
X490544Y236417D01*
X490507Y236362D01*
X490463Y236306D01*
X490411Y236243D01*
X490404Y236236D01*
X490385Y236214D01*
X490367Y236195D01*
X490348Y236177D01*
X490326Y236154D01*
X490296Y236125D01*
X490267Y236095D01*
X490230Y236062D01*
X490193Y236025D01*
X490148Y235984D01*
X490100Y235944D01*
X490048Y235895D01*
X489989Y235847D01*
X489930Y235795D01*
X489926Y235792D01*
X489919Y235784D01*
X489904Y235773D01*
X489886Y235758D01*
X489863Y235736D01*
X489837Y235714D01*
X489778Y235666D01*
X489715Y235611D01*
X489656Y235555D01*
X489604Y235507D01*
X489582Y235488D01*
X489564Y235470D01*
X489560Y235466D01*
X489549Y235455D01*
X489534Y235440D01*
X489515Y235418D01*
X489497Y235392D01*
X489475Y235366D01*
X489430Y235303D01*
X490692D01*
Y235000D01*
X488994D01*
Y235004D01*
Y235018D01*
Y235041D01*
X488998Y235070D01*
X489001Y235104D01*
X489009Y235141D01*
X489016Y235178D01*
X489031Y235218D01*
Y235222D01*
X489035Y235226D01*
X489042Y235248D01*
X489057Y235281D01*
X489079Y235326D01*
X489109Y235377D01*
X489146Y235437D01*
X489186Y235496D01*
X489238Y235559D01*
Y235562D01*
X489245Y235566D01*
X489264Y235588D01*
X489297Y235622D01*
X489345Y235670D01*
X489401Y235725D01*
X489471Y235792D01*
X489556Y235866D01*
X489649Y235944D01*
X489652Y235947D01*
X489667Y235958D01*
X489689Y235977D01*
X489715Y235999D01*
X489749Y236029D01*
X489789Y236062D01*
X489830Y236099D01*
X489878Y236140D01*
X489971Y236228D01*
X490063Y236317D01*
X490107Y236362D01*
X490148Y236406D01*
X490185Y236447D01*
X490215Y236487D01*
Y236491D01*
X490222Y236495D01*
X490230Y236506D01*
X490237Y236521D01*
X490263Y236561D01*
X490293Y236610D01*
X490318Y236669D01*
X490344Y236732D01*
X490359Y236802D01*
X490367Y236869D01*
Y236872D01*
Y236876D01*
X490363Y236898D01*
X490359Y236935D01*
X490348Y236976D01*
X490333Y237028D01*
X490307Y237079D01*
X490274Y237131D01*
X490230Y237183D01*
X490222Y237190D01*
X490204Y237205D01*
X490178Y237224D01*
X490137Y237250D01*
X490085Y237272D01*
X490026Y237294D01*
X489956Y237309D01*
X489878Y237313D01*
X489856D01*
X489841Y237309D01*
X489797Y237305D01*
X489745Y237294D01*
X489689Y237279D01*
X489627Y237253D01*
X489567Y237220D01*
X489512Y237176D01*
X489504Y237168D01*
X489490Y237150D01*
X489467Y237120D01*
X489445Y237076D01*
X489419Y237024D01*
X489397Y236957D01*
X489382Y236883D01*
X489375Y236798D01*
X489053Y236831D01*
Y236835D01*
X489057Y236846D01*
Y236865D01*
X489060Y236891D01*
X489068Y236920D01*
X489075Y236954D01*
X489086Y236994D01*
X489097Y237035D01*
X489127Y237124D01*
X489171Y237213D01*
X489197Y237257D01*
X489231Y237301D01*
X489264Y237342D01*
X489301Y237379D01*
X489305Y237383D01*
X489312Y237386D01*
X489323Y237398D01*
X489342Y237409D01*
X489364Y237423D01*
X489390Y237438D01*
X489419Y237457D01*
X489456Y237475D01*
X489497Y237494D01*
X489541Y237512D01*
X489590Y237527D01*
X489641Y237542D01*
X489697Y237553D01*
X489756Y237564D01*
X489819Y237568D01*
X489886Y237572D01*
X489923D01*
X489948Y237568D01*
D02*
G37*
G36*
X488894Y235000D02*
X488509D01*
X488209Y235777D01*
X487136D01*
X486859Y235000D01*
X486500D01*
X487477Y237560D01*
X487847D01*
X488894Y235000D01*
D02*
G37*
G36*
X488033Y208101D02*
X488059D01*
X488130Y208094D01*
X488207Y208083D01*
X488289Y208064D01*
X488378Y208042D01*
X488459Y208012D01*
X488463D01*
X488470Y208009D01*
X488481Y208001D01*
X488496Y207994D01*
X488533Y207975D01*
X488581Y207942D01*
X488637Y207905D01*
X488692Y207857D01*
X488744Y207801D01*
X488792Y207738D01*
Y207735D01*
X488796Y207731D01*
X488803Y207720D01*
X488810Y207709D01*
X488829Y207672D01*
X488851Y207624D01*
X488877Y207565D01*
X488896Y207494D01*
X488914Y207420D01*
X488921Y207339D01*
X488596Y207313D01*
Y207317D01*
Y207324D01*
X488592Y207335D01*
X488588Y207354D01*
X488577Y207394D01*
X488563Y207450D01*
X488540Y207509D01*
X488507Y207568D01*
X488466Y207624D01*
X488415Y207676D01*
X488407Y207679D01*
X488389Y207694D01*
X488352Y207716D01*
X488304Y207738D01*
X488241Y207761D01*
X488167Y207783D01*
X488074Y207798D01*
X487971Y207801D01*
X487919D01*
X487897Y207798D01*
X487867Y207794D01*
X487800Y207787D01*
X487726Y207772D01*
X487652Y207753D01*
X487582Y207724D01*
X487552Y207705D01*
X487523Y207687D01*
X487515Y207683D01*
X487501Y207668D01*
X487478Y207642D01*
X487456Y207613D01*
X487430Y207572D01*
X487408Y207528D01*
X487393Y207476D01*
X487386Y207417D01*
Y207409D01*
Y207394D01*
X487390Y207368D01*
X487397Y207339D01*
X487408Y207302D01*
X487427Y207265D01*
X487449Y207228D01*
X487482Y207191D01*
X487486Y207187D01*
X487504Y207176D01*
X487519Y207165D01*
X487534Y207158D01*
X487556Y207147D01*
X487582Y207132D01*
X487615Y207121D01*
X487652Y207106D01*
X487693Y207091D01*
X487741Y207072D01*
X487793Y207058D01*
X487852Y207039D01*
X487919Y207024D01*
X487993Y207006D01*
X487996D01*
X488011Y207002D01*
X488033Y206998D01*
X488059Y206991D01*
X488093Y206984D01*
X488133Y206973D01*
X488174Y206961D01*
X488218Y206950D01*
X488315Y206925D01*
X488407Y206899D01*
X488452Y206884D01*
X488492Y206869D01*
X488529Y206858D01*
X488559Y206843D01*
X488563D01*
X488570Y206839D01*
X488581Y206832D01*
X488596Y206825D01*
X488637Y206802D01*
X488685Y206773D01*
X488740Y206732D01*
X488796Y206688D01*
X488847Y206636D01*
X488892Y206580D01*
X488896Y206573D01*
X488910Y206555D01*
X488925Y206521D01*
X488947Y206477D01*
X488966Y206425D01*
X488984Y206362D01*
X488996Y206292D01*
X488999Y206218D01*
Y206214D01*
Y206210D01*
Y206199D01*
Y206185D01*
X488992Y206144D01*
X488984Y206092D01*
X488970Y206033D01*
X488951Y205970D01*
X488921Y205903D01*
X488881Y205833D01*
Y205829D01*
X488877Y205826D01*
X488859Y205803D01*
X488833Y205770D01*
X488796Y205733D01*
X488748Y205689D01*
X488688Y205641D01*
X488622Y205596D01*
X488544Y205556D01*
X488540D01*
X488533Y205552D01*
X488522Y205548D01*
X488507Y205541D01*
X488485Y205533D01*
X488459Y205522D01*
X488400Y205507D01*
X488330Y205489D01*
X488244Y205470D01*
X488152Y205459D01*
X488052Y205456D01*
X487993D01*
X487963Y205459D01*
X487930D01*
X487893Y205463D01*
X487849Y205467D01*
X487756Y205482D01*
X487660Y205496D01*
X487564Y205522D01*
X487471Y205556D01*
X487467D01*
X487460Y205559D01*
X487449Y205567D01*
X487434Y205574D01*
X487390Y205596D01*
X487338Y205629D01*
X487279Y205674D01*
X487216Y205726D01*
X487157Y205789D01*
X487101Y205859D01*
Y205863D01*
X487094Y205870D01*
X487090Y205881D01*
X487079Y205896D01*
X487072Y205914D01*
X487060Y205937D01*
X487035Y205992D01*
X487009Y206062D01*
X486986Y206140D01*
X486972Y206229D01*
X486964Y206321D01*
X487282Y206351D01*
Y206347D01*
Y206344D01*
X487286Y206332D01*
Y206318D01*
X487293Y206284D01*
X487305Y206236D01*
X487319Y206188D01*
X487334Y206133D01*
X487360Y206081D01*
X487386Y206033D01*
X487390Y206029D01*
X487401Y206014D01*
X487419Y205988D01*
X487449Y205962D01*
X487486Y205929D01*
X487527Y205896D01*
X487582Y205863D01*
X487641Y205833D01*
X487645D01*
X487649Y205829D01*
X487660Y205826D01*
X487671Y205822D01*
X487708Y205811D01*
X487756Y205796D01*
X487815Y205781D01*
X487882Y205770D01*
X487956Y205763D01*
X488037Y205759D01*
X488070D01*
X488107Y205763D01*
X488152Y205766D01*
X488204Y205774D01*
X488263Y205781D01*
X488322Y205796D01*
X488378Y205815D01*
X488385Y205818D01*
X488404Y205826D01*
X488429Y205840D01*
X488463Y205855D01*
X488496Y205881D01*
X488533Y205907D01*
X488570Y205937D01*
X488600Y205974D01*
X488603Y205977D01*
X488611Y205992D01*
X488622Y206011D01*
X488637Y206040D01*
X488651Y206070D01*
X488662Y206107D01*
X488670Y206148D01*
X488674Y206192D01*
Y206196D01*
Y206214D01*
X488670Y206236D01*
X488666Y206266D01*
X488655Y206295D01*
X488644Y206332D01*
X488625Y206369D01*
X488600Y206403D01*
X488596Y206406D01*
X488585Y206418D01*
X488570Y206432D01*
X488544Y206455D01*
X488515Y206477D01*
X488474Y206503D01*
X488426Y206529D01*
X488370Y206551D01*
X488367Y206555D01*
X488348Y206558D01*
X488318Y206569D01*
X488300Y206573D01*
X488274Y206580D01*
X488248Y206592D01*
X488215Y206599D01*
X488178Y206610D01*
X488133Y206621D01*
X488089Y206632D01*
X488037Y206647D01*
X487978Y206662D01*
X487915Y206677D01*
X487911D01*
X487900Y206680D01*
X487882Y206684D01*
X487860Y206691D01*
X487830Y206699D01*
X487797Y206706D01*
X487723Y206728D01*
X487641Y206754D01*
X487556Y206780D01*
X487482Y206806D01*
X487449Y206821D01*
X487419Y206836D01*
X487416D01*
X487412Y206839D01*
X487390Y206854D01*
X487356Y206873D01*
X487319Y206902D01*
X487275Y206936D01*
X487231Y206976D01*
X487186Y207024D01*
X487149Y207076D01*
X487146Y207084D01*
X487134Y207102D01*
X487120Y207132D01*
X487105Y207169D01*
X487090Y207217D01*
X487075Y207272D01*
X487064Y207331D01*
X487060Y207394D01*
Y207398D01*
Y207402D01*
Y207413D01*
Y207428D01*
X487068Y207465D01*
X487075Y207513D01*
X487086Y207568D01*
X487105Y207631D01*
X487131Y207694D01*
X487168Y207757D01*
Y207761D01*
X487171Y207764D01*
X487190Y207787D01*
X487216Y207816D01*
X487249Y207853D01*
X487293Y207894D01*
X487349Y207938D01*
X487416Y207979D01*
X487490Y208016D01*
X487493D01*
X487501Y208020D01*
X487512Y208023D01*
X487527Y208031D01*
X487545Y208038D01*
X487571Y208046D01*
X487627Y208060D01*
X487697Y208075D01*
X487778Y208090D01*
X487863Y208101D01*
X487959Y208105D01*
X488008D01*
X488033Y208101D01*
D02*
G37*
G36*
X491301Y207757D02*
X490457D01*
Y205500D01*
X490117D01*
Y207757D01*
X489273D01*
Y208060D01*
X491301D01*
Y207757D01*
D02*
G37*
G36*
X485717Y208057D02*
X485751D01*
X485828Y208053D01*
X485910Y208042D01*
X485998Y208031D01*
X486080Y208012D01*
X486121Y208001D01*
X486154Y207990D01*
X486158D01*
X486161Y207986D01*
X486184Y207975D01*
X486217Y207961D01*
X486258Y207935D01*
X486302Y207901D01*
X486350Y207857D01*
X486394Y207805D01*
X486439Y207746D01*
Y207742D01*
X486443Y207738D01*
X486457Y207716D01*
X486472Y207679D01*
X486494Y207631D01*
X486513Y207576D01*
X486531Y207509D01*
X486542Y207439D01*
X486546Y207361D01*
Y207357D01*
Y207350D01*
Y207335D01*
X486542Y207317D01*
Y207291D01*
X486539Y207265D01*
X486524Y207202D01*
X486502Y207128D01*
X486472Y207050D01*
X486428Y206973D01*
X486398Y206936D01*
X486369Y206899D01*
X486365Y206895D01*
X486361Y206891D01*
X486350Y206880D01*
X486335Y206869D01*
X486317Y206854D01*
X486295Y206839D01*
X486265Y206821D01*
X486235Y206799D01*
X486198Y206780D01*
X486158Y206762D01*
X486113Y206739D01*
X486065Y206721D01*
X486010Y206706D01*
X485954Y206688D01*
X485891Y206677D01*
X485825Y206665D01*
X485832Y206662D01*
X485847Y206654D01*
X485869Y206640D01*
X485899Y206625D01*
X485965Y206584D01*
X485998Y206558D01*
X486028Y206536D01*
X486035Y206529D01*
X486054Y206510D01*
X486084Y206481D01*
X486121Y206444D01*
X486161Y206392D01*
X486209Y206336D01*
X486258Y206270D01*
X486309Y206196D01*
X486750Y205500D01*
X486328D01*
X485991Y206033D01*
Y206036D01*
X485984Y206044D01*
X485976Y206055D01*
X485965Y206070D01*
X485939Y206111D01*
X485906Y206162D01*
X485865Y206218D01*
X485825Y206277D01*
X485784Y206332D01*
X485747Y206384D01*
X485743Y206388D01*
X485732Y206403D01*
X485714Y206425D01*
X485688Y206451D01*
X485632Y206506D01*
X485603Y206532D01*
X485573Y206555D01*
X485569Y206558D01*
X485562Y206562D01*
X485547Y206569D01*
X485525Y206580D01*
X485503Y206592D01*
X485477Y206603D01*
X485418Y206621D01*
X485414D01*
X485406Y206625D01*
X485392D01*
X485373Y206628D01*
X485347Y206632D01*
X485318D01*
X485277Y206636D01*
X484840D01*
Y205500D01*
X484500D01*
Y208060D01*
X485688D01*
X485717Y208057D01*
D02*
G37*
G36*
X490226Y195500D02*
X489912D01*
Y197502D01*
X489908Y197498D01*
X489890Y197483D01*
X489867Y197461D01*
X489830Y197435D01*
X489790Y197402D01*
X489738Y197365D01*
X489679Y197324D01*
X489612Y197283D01*
X489608D01*
X489605Y197280D01*
X489583Y197265D01*
X489546Y197246D01*
X489501Y197224D01*
X489449Y197198D01*
X489394Y197172D01*
X489338Y197146D01*
X489283Y197124D01*
Y197428D01*
X489287D01*
X489294Y197435D01*
X489309Y197439D01*
X489327Y197450D01*
X489350Y197461D01*
X489375Y197476D01*
X489438Y197513D01*
X489512Y197554D01*
X489586Y197605D01*
X489664Y197664D01*
X489742Y197727D01*
X489745Y197731D01*
X489749Y197735D01*
X489760Y197746D01*
X489775Y197757D01*
X489808Y197794D01*
X489853Y197838D01*
X489897Y197890D01*
X489945Y197949D01*
X489986Y198009D01*
X490023Y198072D01*
X490226D01*
Y195500D01*
D02*
G37*
G36*
X488732Y197757D02*
X487340D01*
Y196965D01*
X488543D01*
Y196662D01*
X487340D01*
Y195500D01*
X487000D01*
Y198060D01*
X488732D01*
Y197757D01*
D02*
G37*
G36*
X491363Y316568D02*
X491411Y316560D01*
X491470Y316549D01*
X491537Y316531D01*
X491603Y316509D01*
X491670Y316479D01*
X491674D01*
X491677Y316475D01*
X491700Y316464D01*
X491733Y316442D01*
X491770Y316416D01*
X491814Y316379D01*
X491859Y316338D01*
X491903Y316290D01*
X491940Y316235D01*
X491944Y316227D01*
X491955Y316209D01*
X491970Y316176D01*
X491988Y316135D01*
X492007Y316087D01*
X492021Y316031D01*
X492032Y315968D01*
X492036Y315905D01*
Y315898D01*
Y315876D01*
X492032Y315846D01*
X492025Y315806D01*
X492014Y315757D01*
X491995Y315706D01*
X491973Y315654D01*
X491944Y315602D01*
X491940Y315595D01*
X491929Y315580D01*
X491907Y315554D01*
X491877Y315524D01*
X491840Y315491D01*
X491796Y315454D01*
X491744Y315421D01*
X491681Y315388D01*
X491685D01*
X491692Y315384D01*
X491703Y315380D01*
X491718Y315376D01*
X491759Y315362D01*
X491811Y315339D01*
X491870Y315310D01*
X491929Y315273D01*
X491984Y315225D01*
X492036Y315169D01*
X492040Y315162D01*
X492055Y315140D01*
X492077Y315103D01*
X492099Y315054D01*
X492121Y314995D01*
X492143Y314925D01*
X492158Y314844D01*
X492162Y314755D01*
Y314751D01*
Y314740D01*
Y314721D01*
X492158Y314699D01*
X492155Y314670D01*
X492147Y314636D01*
X492140Y314599D01*
X492132Y314559D01*
X492103Y314470D01*
X492081Y314422D01*
X492058Y314377D01*
X492029Y314329D01*
X491995Y314281D01*
X491959Y314233D01*
X491914Y314189D01*
X491910Y314185D01*
X491903Y314178D01*
X491888Y314166D01*
X491870Y314152D01*
X491848Y314133D01*
X491818Y314115D01*
X491785Y314092D01*
X491744Y314074D01*
X491703Y314052D01*
X491655Y314030D01*
X491607Y314011D01*
X491551Y313993D01*
X491492Y313978D01*
X491429Y313967D01*
X491366Y313959D01*
X491296Y313956D01*
X491263D01*
X491241Y313959D01*
X491211Y313963D01*
X491178Y313967D01*
X491141Y313974D01*
X491100Y313982D01*
X491011Y314004D01*
X490919Y314041D01*
X490871Y314063D01*
X490826Y314089D01*
X490782Y314122D01*
X490737Y314155D01*
X490734Y314159D01*
X490726Y314166D01*
X490715Y314178D01*
X490704Y314192D01*
X490686Y314211D01*
X490667Y314237D01*
X490645Y314263D01*
X490623Y314296D01*
X490601Y314333D01*
X490578Y314370D01*
X490538Y314459D01*
X490504Y314562D01*
X490493Y314618D01*
X490486Y314677D01*
X490800Y314718D01*
Y314714D01*
X490804Y314707D01*
X490808Y314692D01*
X490811Y314673D01*
X490815Y314651D01*
X490823Y314625D01*
X490841Y314570D01*
X490867Y314503D01*
X490900Y314440D01*
X490937Y314381D01*
X490982Y314329D01*
X490989Y314326D01*
X491004Y314311D01*
X491034Y314292D01*
X491071Y314274D01*
X491115Y314252D01*
X491170Y314233D01*
X491233Y314218D01*
X491300Y314215D01*
X491322D01*
X491337Y314218D01*
X491378Y314222D01*
X491429Y314233D01*
X491489Y314252D01*
X491551Y314278D01*
X491614Y314315D01*
X491674Y314366D01*
X491681Y314374D01*
X491700Y314396D01*
X491722Y314429D01*
X491751Y314474D01*
X491781Y314529D01*
X491803Y314592D01*
X491822Y314666D01*
X491829Y314747D01*
Y314751D01*
Y314758D01*
Y314770D01*
X491825Y314784D01*
X491822Y314825D01*
X491811Y314873D01*
X491796Y314932D01*
X491770Y314992D01*
X491733Y315051D01*
X491685Y315106D01*
X491677Y315114D01*
X491659Y315128D01*
X491629Y315151D01*
X491588Y315177D01*
X491537Y315202D01*
X491474Y315225D01*
X491403Y315240D01*
X491326Y315247D01*
X491292D01*
X491267Y315243D01*
X491233Y315240D01*
X491196Y315232D01*
X491152Y315225D01*
X491104Y315214D01*
X491141Y315491D01*
X491159D01*
X491174Y315487D01*
X491222D01*
X491263Y315495D01*
X491311Y315502D01*
X491366Y315513D01*
X491429Y315532D01*
X491489Y315558D01*
X491551Y315591D01*
X491555D01*
X491559Y315595D01*
X491577Y315610D01*
X491603Y315635D01*
X491633Y315669D01*
X491663Y315717D01*
X491688Y315772D01*
X491707Y315835D01*
X491714Y315872D01*
Y315913D01*
Y315917D01*
Y315920D01*
Y315943D01*
X491707Y315972D01*
X491700Y316013D01*
X491685Y316057D01*
X491666Y316105D01*
X491637Y316153D01*
X491596Y316198D01*
X491592Y316201D01*
X491574Y316216D01*
X491548Y316235D01*
X491514Y316257D01*
X491470Y316276D01*
X491418Y316294D01*
X491359Y316309D01*
X491292Y316313D01*
X491263D01*
X491230Y316305D01*
X491185Y316298D01*
X491137Y316283D01*
X491089Y316264D01*
X491037Y316235D01*
X490989Y316198D01*
X490985Y316194D01*
X490971Y316176D01*
X490948Y316150D01*
X490922Y316113D01*
X490897Y316065D01*
X490871Y316005D01*
X490848Y315935D01*
X490834Y315854D01*
X490519Y315909D01*
Y315913D01*
X490523Y315924D01*
X490527Y315939D01*
X490530Y315961D01*
X490538Y315987D01*
X490549Y316017D01*
X490571Y316087D01*
X490608Y316168D01*
X490652Y316250D01*
X490708Y316327D01*
X490778Y316398D01*
X490782Y316401D01*
X490789Y316405D01*
X490800Y316412D01*
X490815Y316424D01*
X490834Y316438D01*
X490860Y316453D01*
X490885Y316468D01*
X490919Y316486D01*
X490993Y316516D01*
X491078Y316546D01*
X491178Y316564D01*
X491230Y316571D01*
X491322D01*
X491363Y316568D01*
D02*
G37*
G36*
X488377D02*
X488425Y316560D01*
X488484Y316549D01*
X488551Y316531D01*
X488617Y316509D01*
X488684Y316479D01*
X488688D01*
X488691Y316475D01*
X488714Y316464D01*
X488747Y316442D01*
X488784Y316416D01*
X488828Y316379D01*
X488873Y316338D01*
X488917Y316290D01*
X488954Y316235D01*
X488958Y316227D01*
X488969Y316209D01*
X488984Y316176D01*
X489002Y316135D01*
X489021Y316087D01*
X489036Y316031D01*
X489047Y315968D01*
X489050Y315905D01*
Y315898D01*
Y315876D01*
X489047Y315846D01*
X489039Y315806D01*
X489028Y315757D01*
X489010Y315706D01*
X488987Y315654D01*
X488958Y315602D01*
X488954Y315595D01*
X488943Y315580D01*
X488921Y315554D01*
X488891Y315524D01*
X488854Y315491D01*
X488810Y315454D01*
X488758Y315421D01*
X488695Y315388D01*
X488699D01*
X488706Y315384D01*
X488717Y315380D01*
X488732Y315376D01*
X488773Y315362D01*
X488825Y315339D01*
X488884Y315310D01*
X488943Y315273D01*
X488999Y315225D01*
X489050Y315169D01*
X489054Y315162D01*
X489069Y315140D01*
X489091Y315103D01*
X489113Y315054D01*
X489135Y314995D01*
X489158Y314925D01*
X489172Y314844D01*
X489176Y314755D01*
Y314751D01*
Y314740D01*
Y314721D01*
X489172Y314699D01*
X489169Y314670D01*
X489161Y314636D01*
X489154Y314599D01*
X489147Y314559D01*
X489117Y314470D01*
X489095Y314422D01*
X489073Y314377D01*
X489043Y314329D01*
X489010Y314281D01*
X488973Y314233D01*
X488928Y314189D01*
X488925Y314185D01*
X488917Y314178D01*
X488902Y314166D01*
X488884Y314152D01*
X488862Y314133D01*
X488832Y314115D01*
X488799Y314092D01*
X488758Y314074D01*
X488717Y314052D01*
X488669Y314030D01*
X488621Y314011D01*
X488566Y313993D01*
X488506Y313978D01*
X488444Y313967D01*
X488381Y313959D01*
X488310Y313956D01*
X488277D01*
X488255Y313959D01*
X488225Y313963D01*
X488192Y313967D01*
X488155Y313974D01*
X488114Y313982D01*
X488025Y314004D01*
X487933Y314041D01*
X487885Y314063D01*
X487840Y314089D01*
X487796Y314122D01*
X487752Y314155D01*
X487748Y314159D01*
X487741Y314166D01*
X487729Y314178D01*
X487718Y314192D01*
X487700Y314211D01*
X487681Y314237D01*
X487659Y314263D01*
X487637Y314296D01*
X487615Y314333D01*
X487593Y314370D01*
X487552Y314459D01*
X487519Y314562D01*
X487507Y314618D01*
X487500Y314677D01*
X487815Y314718D01*
Y314714D01*
X487818Y314707D01*
X487822Y314692D01*
X487826Y314673D01*
X487829Y314651D01*
X487837Y314625D01*
X487855Y314570D01*
X487881Y314503D01*
X487914Y314440D01*
X487951Y314381D01*
X487996Y314329D01*
X488003Y314326D01*
X488018Y314311D01*
X488048Y314292D01*
X488085Y314274D01*
X488129Y314252D01*
X488184Y314233D01*
X488247Y314218D01*
X488314Y314215D01*
X488336D01*
X488351Y314218D01*
X488392Y314222D01*
X488444Y314233D01*
X488503Y314252D01*
X488566Y314278D01*
X488628Y314315D01*
X488688Y314366D01*
X488695Y314374D01*
X488714Y314396D01*
X488736Y314429D01*
X488765Y314474D01*
X488795Y314529D01*
X488817Y314592D01*
X488836Y314666D01*
X488843Y314747D01*
Y314751D01*
Y314758D01*
Y314770D01*
X488839Y314784D01*
X488836Y314825D01*
X488825Y314873D01*
X488810Y314932D01*
X488784Y314992D01*
X488747Y315051D01*
X488699Y315106D01*
X488691Y315114D01*
X488673Y315128D01*
X488643Y315151D01*
X488603Y315177D01*
X488551Y315202D01*
X488488Y315225D01*
X488418Y315240D01*
X488340Y315247D01*
X488307D01*
X488281Y315243D01*
X488247Y315240D01*
X488210Y315232D01*
X488166Y315225D01*
X488118Y315214D01*
X488155Y315491D01*
X488173D01*
X488188Y315487D01*
X488236D01*
X488277Y315495D01*
X488325Y315502D01*
X488381Y315513D01*
X488444Y315532D01*
X488503Y315558D01*
X488566Y315591D01*
X488569D01*
X488573Y315595D01*
X488591Y315610D01*
X488617Y315635D01*
X488647Y315669D01*
X488677Y315717D01*
X488702Y315772D01*
X488721Y315835D01*
X488728Y315872D01*
Y315913D01*
Y315917D01*
Y315920D01*
Y315943D01*
X488721Y315972D01*
X488714Y316013D01*
X488699Y316057D01*
X488680Y316105D01*
X488651Y316153D01*
X488610Y316198D01*
X488606Y316201D01*
X488588Y316216D01*
X488562Y316235D01*
X488529Y316257D01*
X488484Y316276D01*
X488432Y316294D01*
X488373Y316309D01*
X488307Y316313D01*
X488277D01*
X488244Y316305D01*
X488199Y316298D01*
X488151Y316283D01*
X488103Y316264D01*
X488051Y316235D01*
X488003Y316198D01*
X487999Y316194D01*
X487985Y316176D01*
X487962Y316150D01*
X487937Y316113D01*
X487911Y316065D01*
X487885Y316005D01*
X487863Y315935D01*
X487848Y315854D01*
X487533Y315909D01*
Y315913D01*
X487537Y315924D01*
X487541Y315939D01*
X487544Y315961D01*
X487552Y315987D01*
X487563Y316017D01*
X487585Y316087D01*
X487622Y316168D01*
X487667Y316250D01*
X487722Y316327D01*
X487792Y316398D01*
X487796Y316401D01*
X487803Y316405D01*
X487815Y316412D01*
X487829Y316424D01*
X487848Y316438D01*
X487874Y316453D01*
X487900Y316468D01*
X487933Y316486D01*
X488007Y316516D01*
X488092Y316546D01*
X488192Y316564D01*
X488244Y316571D01*
X488336D01*
X488377Y316568D01*
D02*
G37*
G36*
X490023Y314000D02*
X489665D01*
Y314359D01*
X490023D01*
Y314000D01*
D02*
G37*
G36*
X485992Y305910D02*
X486687D01*
Y305617D01*
X485992D01*
Y304914D01*
X485696D01*
Y305617D01*
X485000D01*
Y305910D01*
X485696D01*
Y306605D01*
X485992D01*
Y305910D01*
D02*
G37*
G36*
X490243Y304500D02*
X489888D01*
X488896Y307060D01*
X489266D01*
X489932Y305199D01*
Y305196D01*
X489936Y305188D01*
X489939Y305177D01*
X489947Y305162D01*
X489951Y305140D01*
X489958Y305118D01*
X489977Y305062D01*
X489999Y304999D01*
X490021Y304929D01*
X490065Y304781D01*
Y304785D01*
X490069Y304792D01*
X490073Y304803D01*
X490076Y304818D01*
X490088Y304859D01*
X490106Y304914D01*
X490125Y304977D01*
X490147Y305048D01*
X490173Y305122D01*
X490202Y305199D01*
X490898Y307060D01*
X491242D01*
X490243Y304500D01*
D02*
G37*
G36*
X488619Y306727D02*
X487594D01*
X487457Y306035D01*
X487461Y306039D01*
X487468Y306043D01*
X487479Y306050D01*
X487498Y306061D01*
X487520Y306072D01*
X487546Y306087D01*
X487605Y306117D01*
X487679Y306147D01*
X487760Y306172D01*
X487849Y306191D01*
X487893Y306198D01*
X487975D01*
X487997Y306195D01*
X488027Y306191D01*
X488060Y306187D01*
X488097Y306180D01*
X488138Y306169D01*
X488226Y306143D01*
X488274Y306124D01*
X488323Y306098D01*
X488371Y306072D01*
X488419Y306043D01*
X488463Y306006D01*
X488508Y305965D01*
X488511Y305961D01*
X488519Y305954D01*
X488530Y305943D01*
X488545Y305925D01*
X488563Y305899D01*
X488582Y305873D01*
X488604Y305839D01*
X488626Y305802D01*
X488645Y305762D01*
X488667Y305717D01*
X488685Y305665D01*
X488704Y305614D01*
X488719Y305558D01*
X488730Y305495D01*
X488737Y305432D01*
X488741Y305366D01*
Y305362D01*
Y305351D01*
Y305332D01*
X488737Y305307D01*
X488733Y305277D01*
X488730Y305244D01*
X488722Y305203D01*
X488715Y305162D01*
X488693Y305066D01*
X488656Y304966D01*
X488633Y304914D01*
X488604Y304866D01*
X488574Y304815D01*
X488537Y304766D01*
X488533Y304763D01*
X488526Y304752D01*
X488511Y304737D01*
X488493Y304718D01*
X488467Y304696D01*
X488437Y304666D01*
X488400Y304641D01*
X488360Y304611D01*
X488315Y304581D01*
X488263Y304556D01*
X488208Y304530D01*
X488149Y304504D01*
X488086Y304485D01*
X488016Y304470D01*
X487942Y304459D01*
X487864Y304456D01*
X487830D01*
X487805Y304459D01*
X487775Y304463D01*
X487742Y304467D01*
X487701Y304470D01*
X487660Y304482D01*
X487568Y304504D01*
X487475Y304537D01*
X487427Y304559D01*
X487379Y304585D01*
X487335Y304615D01*
X487290Y304648D01*
X487287Y304652D01*
X487279Y304655D01*
X487272Y304670D01*
X487257Y304685D01*
X487239Y304703D01*
X487220Y304726D01*
X487198Y304755D01*
X487179Y304789D01*
X487157Y304822D01*
X487135Y304863D01*
X487094Y304951D01*
X487061Y305055D01*
X487050Y305111D01*
X487042Y305170D01*
X487372Y305196D01*
Y305192D01*
Y305185D01*
X487375Y305173D01*
X487379Y305155D01*
X487390Y305114D01*
X487405Y305059D01*
X487427Y305003D01*
X487457Y304940D01*
X487494Y304885D01*
X487538Y304833D01*
X487546Y304829D01*
X487560Y304815D01*
X487590Y304796D01*
X487631Y304774D01*
X487675Y304752D01*
X487731Y304733D01*
X487793Y304718D01*
X487864Y304715D01*
X487886D01*
X487901Y304718D01*
X487945Y304722D01*
X487997Y304737D01*
X488060Y304755D01*
X488123Y304785D01*
X488189Y304829D01*
X488219Y304855D01*
X488249Y304885D01*
X488252Y304889D01*
X488256Y304892D01*
X488263Y304903D01*
X488274Y304914D01*
X488300Y304955D01*
X488330Y305007D01*
X488356Y305070D01*
X488382Y305148D01*
X488400Y305240D01*
X488408Y305288D01*
Y305340D01*
Y305344D01*
Y305351D01*
Y305366D01*
X488404Y305384D01*
Y305406D01*
X488400Y305432D01*
X488389Y305492D01*
X488371Y305562D01*
X488345Y305632D01*
X488308Y305699D01*
X488256Y305762D01*
Y305765D01*
X488249Y305769D01*
X488230Y305788D01*
X488197Y305814D01*
X488152Y305843D01*
X488093Y305869D01*
X488027Y305895D01*
X487949Y305913D01*
X487905Y305921D01*
X487834D01*
X487805Y305917D01*
X487768Y305913D01*
X487723Y305902D01*
X487679Y305891D01*
X487631Y305873D01*
X487583Y305851D01*
X487579Y305847D01*
X487564Y305839D01*
X487542Y305821D01*
X487512Y305802D01*
X487483Y305777D01*
X487453Y305743D01*
X487420Y305710D01*
X487394Y305669D01*
X487098Y305710D01*
X487346Y307027D01*
X488619D01*
Y306727D01*
D02*
G37*
G36*
X484421Y297601D02*
X484451D01*
X484521Y297594D01*
X484599Y297583D01*
X484680Y297564D01*
X484769Y297542D01*
X484854Y297512D01*
X484858D01*
X484865Y297509D01*
X484876Y297505D01*
X484891Y297498D01*
X484932Y297475D01*
X484984Y297449D01*
X485039Y297412D01*
X485099Y297368D01*
X485154Y297320D01*
X485206Y297261D01*
X485213Y297253D01*
X485228Y297231D01*
X485250Y297198D01*
X485280Y297150D01*
X485309Y297091D01*
X485343Y297017D01*
X485376Y296935D01*
X485402Y296843D01*
X485095Y296761D01*
Y296765D01*
X485091Y296769D01*
X485087Y296780D01*
X485084Y296795D01*
X485073Y296828D01*
X485058Y296872D01*
X485036Y296924D01*
X485010Y296972D01*
X484984Y297024D01*
X484950Y297068D01*
X484947Y297072D01*
X484936Y297087D01*
X484913Y297105D01*
X484888Y297131D01*
X484854Y297161D01*
X484810Y297190D01*
X484762Y297220D01*
X484706Y297246D01*
X484699Y297250D01*
X484680Y297257D01*
X484647Y297268D01*
X484603Y297283D01*
X484551Y297294D01*
X484492Y297305D01*
X484425Y297312D01*
X484355Y297316D01*
X484314D01*
X484296Y297312D01*
X484273D01*
X484218Y297309D01*
X484155Y297298D01*
X484085Y297287D01*
X484018Y297268D01*
X483952Y297242D01*
X483944Y297238D01*
X483922Y297231D01*
X483892Y297213D01*
X483855Y297194D01*
X483811Y297165D01*
X483763Y297135D01*
X483718Y297098D01*
X483678Y297057D01*
X483674Y297054D01*
X483659Y297039D01*
X483641Y297013D01*
X483618Y296983D01*
X483593Y296946D01*
X483567Y296902D01*
X483541Y296854D01*
X483515Y296802D01*
Y296798D01*
X483511Y296791D01*
X483507Y296780D01*
X483500Y296761D01*
X483493Y296739D01*
X483485Y296713D01*
X483474Y296684D01*
X483467Y296650D01*
X483448Y296572D01*
X483433Y296484D01*
X483422Y296391D01*
X483419Y296288D01*
Y296284D01*
Y296273D01*
Y296254D01*
X483422Y296232D01*
Y296202D01*
X483426Y296165D01*
X483430Y296129D01*
X483433Y296088D01*
X483448Y295995D01*
X483467Y295899D01*
X483496Y295803D01*
X483533Y295710D01*
Y295707D01*
X483541Y295699D01*
X483544Y295688D01*
X483556Y295673D01*
X483581Y295633D01*
X483622Y295581D01*
X483670Y295525D01*
X483730Y295470D01*
X483800Y295418D01*
X483878Y295370D01*
X483881D01*
X483889Y295366D01*
X483900Y295359D01*
X483918Y295352D01*
X483937Y295344D01*
X483963Y295337D01*
X484022Y295315D01*
X484096Y295296D01*
X484177Y295278D01*
X484266Y295263D01*
X484359Y295259D01*
X484396D01*
X484418Y295263D01*
X484440D01*
X484495Y295270D01*
X484562Y295278D01*
X484632Y295292D01*
X484710Y295315D01*
X484788Y295340D01*
X484791D01*
X484799Y295344D01*
X484806Y295348D01*
X484821Y295355D01*
X484862Y295374D01*
X484906Y295396D01*
X484958Y295422D01*
X485013Y295451D01*
X485065Y295485D01*
X485110Y295522D01*
Y296003D01*
X484355D01*
Y296306D01*
X485443D01*
Y295355D01*
X485439Y295352D01*
X485431Y295348D01*
X485417Y295337D01*
X485398Y295322D01*
X485376Y295307D01*
X485350Y295289D01*
X485317Y295266D01*
X485284Y295244D01*
X485206Y295196D01*
X485117Y295144D01*
X485024Y295096D01*
X484925Y295056D01*
X484921D01*
X484913Y295052D01*
X484899Y295048D01*
X484880Y295041D01*
X484854Y295033D01*
X484825Y295022D01*
X484791Y295015D01*
X484758Y295007D01*
X484677Y294989D01*
X484584Y294970D01*
X484484Y294959D01*
X484381Y294956D01*
X484344D01*
X484318Y294959D01*
X484284D01*
X484244Y294963D01*
X484199Y294970D01*
X484151Y294974D01*
X484044Y294996D01*
X483929Y295022D01*
X483811Y295063D01*
X483752Y295085D01*
X483693Y295115D01*
X483689Y295118D01*
X483678Y295122D01*
X483663Y295133D01*
X483641Y295144D01*
X483615Y295163D01*
X483589Y295181D01*
X483519Y295233D01*
X483445Y295300D01*
X483367Y295381D01*
X483293Y295474D01*
X483226Y295581D01*
Y295585D01*
X483219Y295596D01*
X483212Y295610D01*
X483200Y295636D01*
X483189Y295662D01*
X483178Y295699D01*
X483163Y295736D01*
X483149Y295781D01*
X483134Y295829D01*
X483119Y295884D01*
X483108Y295940D01*
X483097Y295999D01*
X483078Y296129D01*
X483071Y296265D01*
Y296269D01*
Y296284D01*
Y296302D01*
X483075Y296328D01*
Y296362D01*
X483078Y296402D01*
X483086Y296443D01*
X483089Y296491D01*
X483101Y296543D01*
X483108Y296598D01*
X483138Y296717D01*
X483175Y296839D01*
X483226Y296961D01*
X483230Y296965D01*
X483234Y296976D01*
X483241Y296991D01*
X483256Y297013D01*
X483271Y297042D01*
X483289Y297072D01*
X483341Y297142D01*
X483404Y297224D01*
X483482Y297301D01*
X483570Y297379D01*
X483622Y297412D01*
X483674Y297446D01*
X483678Y297449D01*
X483689Y297453D01*
X483704Y297461D01*
X483726Y297472D01*
X483755Y297483D01*
X483789Y297498D01*
X483826Y297512D01*
X483870Y297527D01*
X483918Y297542D01*
X483970Y297553D01*
X484025Y297568D01*
X484085Y297579D01*
X484214Y297597D01*
X484281Y297605D01*
X484399D01*
X484421Y297601D01*
D02*
G37*
G36*
X487955Y295000D02*
X487603D01*
X486264Y297009D01*
Y295000D01*
X485938D01*
Y297560D01*
X486286D01*
X487629Y295548D01*
Y297560D01*
X487955D01*
Y295000D01*
D02*
G37*
G36*
X489575Y297557D02*
X489649Y297553D01*
X489723Y297546D01*
X489797Y297534D01*
X489860Y297523D01*
X489864D01*
X489872Y297520D01*
X489883D01*
X489897Y297512D01*
X489938Y297501D01*
X489990Y297483D01*
X490049Y297457D01*
X490112Y297424D01*
X490175Y297387D01*
X490234Y297338D01*
X490238Y297335D01*
X490241Y297331D01*
X490253Y297320D01*
X490267Y297309D01*
X490304Y297272D01*
X490349Y297220D01*
X490397Y297157D01*
X490449Y297083D01*
X490497Y296998D01*
X490538Y296902D01*
Y296898D01*
X490541Y296891D01*
X490549Y296876D01*
X490552Y296854D01*
X490563Y296828D01*
X490571Y296798D01*
X490578Y296765D01*
X490589Y296724D01*
X490600Y296684D01*
X490608Y296635D01*
X490626Y296532D01*
X490637Y296417D01*
X490641Y296291D01*
Y296288D01*
Y296280D01*
Y296262D01*
Y296243D01*
X490637Y296217D01*
Y296188D01*
X490634Y296117D01*
X490623Y296036D01*
X490612Y295951D01*
X490593Y295862D01*
X490571Y295773D01*
Y295770D01*
X490567Y295762D01*
X490563Y295751D01*
X490560Y295736D01*
X490545Y295696D01*
X490523Y295644D01*
X490500Y295585D01*
X490471Y295525D01*
X490434Y295462D01*
X490397Y295403D01*
X490393Y295396D01*
X490378Y295377D01*
X490356Y295352D01*
X490327Y295318D01*
X490293Y295281D01*
X490253Y295244D01*
X490212Y295203D01*
X490164Y295170D01*
X490156Y295166D01*
X490142Y295155D01*
X490116Y295141D01*
X490079Y295122D01*
X490034Y295100D01*
X489983Y295081D01*
X489923Y295059D01*
X489857Y295041D01*
X489849D01*
X489838Y295037D01*
X489827Y295033D01*
X489790Y295030D01*
X489738Y295022D01*
X489679Y295015D01*
X489609Y295007D01*
X489531Y295004D01*
X489446Y295000D01*
X488525D01*
Y297560D01*
X489509D01*
X489575Y297557D01*
D02*
G37*
G36*
X490718Y287279D02*
X490714Y287276D01*
X490707Y287268D01*
X490692Y287253D01*
X490677Y287231D01*
X490655Y287205D01*
X490625Y287176D01*
X490596Y287139D01*
X490563Y287094D01*
X490529Y287050D01*
X490489Y286998D01*
X490448Y286939D01*
X490407Y286880D01*
X490363Y286813D01*
X490318Y286743D01*
X490274Y286665D01*
X490230Y286587D01*
X490226Y286584D01*
X490218Y286569D01*
X490207Y286547D01*
X490189Y286513D01*
X490170Y286473D01*
X490148Y286428D01*
X490122Y286376D01*
X490096Y286317D01*
X490067Y286251D01*
X490033Y286184D01*
X490004Y286110D01*
X489974Y286032D01*
X489915Y285873D01*
X489860Y285703D01*
Y285699D01*
X489856Y285688D01*
X489852Y285670D01*
X489845Y285648D01*
X489837Y285618D01*
X489830Y285581D01*
X489819Y285540D01*
X489812Y285496D01*
X489800Y285444D01*
X489789Y285388D01*
X489771Y285270D01*
X489752Y285141D01*
X489741Y285000D01*
X489419D01*
Y285004D01*
Y285015D01*
Y285030D01*
X489423Y285052D01*
Y285081D01*
X489427Y285118D01*
X489430Y285159D01*
X489434Y285204D01*
X489441Y285255D01*
X489449Y285307D01*
X489460Y285370D01*
X489471Y285433D01*
X489482Y285500D01*
X489497Y285574D01*
X489534Y285725D01*
Y285729D01*
X489538Y285744D01*
X489545Y285766D01*
X489556Y285799D01*
X489567Y285836D01*
X489582Y285881D01*
X489597Y285932D01*
X489619Y285988D01*
X489641Y286051D01*
X489664Y286114D01*
X489719Y286254D01*
X489786Y286402D01*
X489860Y286550D01*
X489863Y286554D01*
X489871Y286569D01*
X489882Y286587D01*
X489897Y286617D01*
X489915Y286650D01*
X489941Y286691D01*
X489967Y286735D01*
X489996Y286783D01*
X490067Y286891D01*
X490141Y287002D01*
X490226Y287116D01*
X490315Y287224D01*
X489060D01*
Y287527D01*
X490718D01*
Y287279D01*
D02*
G37*
G36*
X488894Y285000D02*
X488509D01*
X488209Y285777D01*
X487136D01*
X486859Y285000D01*
X486500D01*
X487477Y287560D01*
X487847D01*
X488894Y285000D01*
D02*
G37*
G36*
X490359Y255903D02*
X490707D01*
Y255614D01*
X490359D01*
Y255000D01*
X490045D01*
Y255614D01*
X488931D01*
Y255903D01*
X490104Y257560D01*
X490359D01*
Y255903D01*
D02*
G37*
G36*
X488894Y255000D02*
X488509D01*
X488209Y255777D01*
X487136D01*
X486859Y255000D01*
X486500D01*
X487477Y257560D01*
X487847D01*
X488894Y255000D01*
D02*
G37*
G36*
X490722Y225000D02*
X490408D01*
Y227002D01*
X490404Y226998D01*
X490385Y226983D01*
X490363Y226961D01*
X490326Y226935D01*
X490286Y226902D01*
X490234Y226865D01*
X490175Y226824D01*
X490108Y226783D01*
X490104D01*
X490101Y226780D01*
X490078Y226765D01*
X490041Y226746D01*
X489997Y226724D01*
X489945Y226698D01*
X489890Y226672D01*
X489834Y226646D01*
X489779Y226624D01*
Y226928D01*
X489782D01*
X489790Y226935D01*
X489805Y226939D01*
X489823Y226950D01*
X489845Y226961D01*
X489871Y226976D01*
X489934Y227013D01*
X490008Y227053D01*
X490082Y227105D01*
X490160Y227165D01*
X490238Y227227D01*
X490241Y227231D01*
X490245Y227235D01*
X490256Y227246D01*
X490271Y227257D01*
X490304Y227294D01*
X490348Y227338D01*
X490393Y227390D01*
X490441Y227449D01*
X490482Y227509D01*
X490519Y227572D01*
X490722D01*
Y225000D01*
D02*
G37*
G36*
X489394D02*
X489009D01*
X488709Y225777D01*
X487636D01*
X487359Y225000D01*
X487000D01*
X487977Y227560D01*
X488347D01*
X489394Y225000D01*
D02*
G37*
G36*
X488894Y215000D02*
X488509D01*
X488209Y215777D01*
X487136D01*
X486859Y215000D01*
X486500D01*
X487477Y217560D01*
X487847D01*
X488894Y215000D01*
D02*
G37*
G36*
X489948Y217568D02*
X489996Y217560D01*
X490052Y217549D01*
X490111Y217534D01*
X490174Y217516D01*
X490233Y217486D01*
X490237D01*
X490241Y217483D01*
X490259Y217472D01*
X490289Y217453D01*
X490326Y217427D01*
X490367Y217390D01*
X490411Y217350D01*
X490452Y217301D01*
X490492Y217246D01*
X490496Y217238D01*
X490511Y217220D01*
X490526Y217187D01*
X490552Y217139D01*
X490574Y217083D01*
X490603Y217020D01*
X490629Y216946D01*
X490651Y216865D01*
Y216861D01*
X490655Y216854D01*
X490659Y216843D01*
X490662Y216824D01*
X490666Y216802D01*
X490670Y216776D01*
X490677Y216743D01*
X490681Y216706D01*
X490688Y216665D01*
X490692Y216621D01*
X490696Y216569D01*
X490703Y216517D01*
X490707Y216458D01*
Y216399D01*
X490711Y216332D01*
Y216262D01*
Y216258D01*
Y216243D01*
Y216217D01*
Y216188D01*
X490707Y216147D01*
Y216103D01*
X490703Y216055D01*
X490699Y216003D01*
X490688Y215884D01*
X490670Y215762D01*
X490648Y215644D01*
X490633Y215588D01*
X490614Y215533D01*
Y215529D01*
X490611Y215522D01*
X490603Y215507D01*
X490596Y215488D01*
X490589Y215462D01*
X490574Y215437D01*
X490544Y215374D01*
X490507Y215307D01*
X490459Y215233D01*
X490404Y215166D01*
X490337Y215104D01*
X490333D01*
X490330Y215096D01*
X490318Y215089D01*
X490304Y215081D01*
X490285Y215070D01*
X490267Y215055D01*
X490211Y215030D01*
X490144Y215004D01*
X490067Y214978D01*
X489974Y214963D01*
X489874Y214956D01*
X489837D01*
X489812Y214959D01*
X489782Y214963D01*
X489745Y214970D01*
X489704Y214978D01*
X489660Y214989D01*
X489615Y215004D01*
X489567Y215019D01*
X489519Y215041D01*
X489471Y215067D01*
X489423Y215096D01*
X489375Y215133D01*
X489330Y215174D01*
X489290Y215218D01*
X489286Y215222D01*
X489279Y215233D01*
X489268Y215252D01*
X489249Y215281D01*
X489231Y215315D01*
X489212Y215359D01*
X489186Y215411D01*
X489164Y215470D01*
X489142Y215536D01*
X489120Y215614D01*
X489097Y215699D01*
X489079Y215795D01*
X489060Y215899D01*
X489049Y216010D01*
X489042Y216132D01*
X489038Y216262D01*
Y216265D01*
Y216280D01*
Y216306D01*
Y216336D01*
X489042Y216376D01*
Y216421D01*
X489046Y216469D01*
X489049Y216524D01*
X489060Y216639D01*
X489079Y216761D01*
X489101Y216883D01*
X489116Y216939D01*
X489131Y216994D01*
Y216998D01*
X489134Y217005D01*
X489142Y217020D01*
X489149Y217039D01*
X489157Y217065D01*
X489171Y217091D01*
X489201Y217153D01*
X489238Y217220D01*
X489286Y217290D01*
X489342Y217361D01*
X489408Y217420D01*
X489412D01*
X489416Y217427D01*
X489427Y217435D01*
X489441Y217442D01*
X489460Y217457D01*
X489482Y217468D01*
X489538Y217497D01*
X489604Y217523D01*
X489682Y217549D01*
X489775Y217564D01*
X489874Y217571D01*
X489908D01*
X489948Y217568D01*
D02*
G37*
G36*
X488732Y191757D02*
X487340D01*
Y190965D01*
X488543D01*
Y190662D01*
X487340D01*
Y189500D01*
X487000D01*
Y192060D01*
X488732D01*
Y191757D01*
D02*
G37*
G36*
X489953Y192068D02*
X490001Y192060D01*
X490056Y192049D01*
X490115Y192034D01*
X490178Y192016D01*
X490238Y191986D01*
X490241D01*
X490245Y191983D01*
X490263Y191972D01*
X490293Y191953D01*
X490330Y191927D01*
X490371Y191890D01*
X490415Y191850D01*
X490456Y191801D01*
X490496Y191746D01*
X490500Y191738D01*
X490515Y191720D01*
X490530Y191687D01*
X490556Y191639D01*
X490578Y191583D01*
X490608Y191520D01*
X490633Y191446D01*
X490656Y191365D01*
Y191361D01*
X490659Y191354D01*
X490663Y191343D01*
X490667Y191324D01*
X490670Y191302D01*
X490674Y191276D01*
X490682Y191243D01*
X490685Y191206D01*
X490693Y191165D01*
X490696Y191121D01*
X490700Y191069D01*
X490707Y191017D01*
X490711Y190958D01*
Y190899D01*
X490715Y190832D01*
Y190762D01*
Y190758D01*
Y190743D01*
Y190717D01*
Y190688D01*
X490711Y190647D01*
Y190603D01*
X490707Y190554D01*
X490704Y190503D01*
X490693Y190384D01*
X490674Y190262D01*
X490652Y190144D01*
X490637Y190088D01*
X490619Y190033D01*
Y190029D01*
X490615Y190022D01*
X490608Y190007D01*
X490600Y189988D01*
X490593Y189962D01*
X490578Y189937D01*
X490548Y189874D01*
X490511Y189807D01*
X490463Y189733D01*
X490408Y189666D01*
X490341Y189604D01*
X490337D01*
X490334Y189596D01*
X490323Y189589D01*
X490308Y189581D01*
X490289Y189570D01*
X490271Y189556D01*
X490215Y189530D01*
X490149Y189504D01*
X490071Y189478D01*
X489979Y189463D01*
X489879Y189456D01*
X489842D01*
X489816Y189459D01*
X489786Y189463D01*
X489749Y189470D01*
X489708Y189478D01*
X489664Y189489D01*
X489620Y189504D01*
X489572Y189518D01*
X489523Y189541D01*
X489475Y189567D01*
X489427Y189596D01*
X489379Y189633D01*
X489335Y189674D01*
X489294Y189718D01*
X489290Y189722D01*
X489283Y189733D01*
X489272Y189752D01*
X489253Y189781D01*
X489235Y189814D01*
X489216Y189859D01*
X489190Y189911D01*
X489168Y189970D01*
X489146Y190036D01*
X489124Y190114D01*
X489102Y190199D01*
X489083Y190296D01*
X489065Y190399D01*
X489053Y190510D01*
X489046Y190632D01*
X489042Y190762D01*
Y190765D01*
Y190780D01*
Y190806D01*
Y190836D01*
X489046Y190876D01*
Y190921D01*
X489050Y190969D01*
X489053Y191024D01*
X489065Y191139D01*
X489083Y191261D01*
X489105Y191383D01*
X489120Y191439D01*
X489135Y191494D01*
Y191498D01*
X489139Y191505D01*
X489146Y191520D01*
X489153Y191539D01*
X489161Y191565D01*
X489176Y191590D01*
X489205Y191653D01*
X489242Y191720D01*
X489290Y191790D01*
X489346Y191861D01*
X489412Y191920D01*
X489416D01*
X489420Y191927D01*
X489431Y191935D01*
X489446Y191942D01*
X489464Y191957D01*
X489486Y191968D01*
X489542Y191998D01*
X489608Y192023D01*
X489686Y192049D01*
X489779Y192064D01*
X489879Y192071D01*
X489912D01*
X489953Y192068D01*
D02*
G37*
G36*
X488032Y186057D02*
X488062D01*
X488129Y186049D01*
X488202Y186042D01*
X488280Y186027D01*
X488358Y186009D01*
X488428Y185983D01*
X488432D01*
X488436Y185979D01*
X488458Y185968D01*
X488491Y185949D01*
X488528Y185924D01*
X488573Y185890D01*
X488621Y185849D01*
X488665Y185798D01*
X488706Y185742D01*
X488709Y185735D01*
X488721Y185713D01*
X488739Y185683D01*
X488758Y185639D01*
X488776Y185587D01*
X488795Y185531D01*
X488806Y185468D01*
X488809Y185406D01*
Y185398D01*
Y185380D01*
X488806Y185346D01*
X488798Y185306D01*
X488787Y185257D01*
X488769Y185206D01*
X488746Y185154D01*
X488717Y185098D01*
X488713Y185091D01*
X488702Y185076D01*
X488680Y185047D01*
X488650Y185017D01*
X488613Y184980D01*
X488569Y184939D01*
X488513Y184902D01*
X488450Y184865D01*
X488454D01*
X488461Y184862D01*
X488473Y184858D01*
X488487Y184851D01*
X488532Y184836D01*
X488584Y184810D01*
X488639Y184776D01*
X488702Y184736D01*
X488758Y184688D01*
X488809Y184628D01*
X488813Y184621D01*
X488828Y184599D01*
X488850Y184566D01*
X488872Y184521D01*
X488894Y184462D01*
X488917Y184399D01*
X488931Y184325D01*
X488935Y184244D01*
Y184240D01*
Y184236D01*
Y184214D01*
X488931Y184177D01*
X488924Y184133D01*
X488917Y184081D01*
X488902Y184025D01*
X488883Y183966D01*
X488857Y183907D01*
X488854Y183900D01*
X488843Y183881D01*
X488828Y183855D01*
X488806Y183818D01*
X488776Y183781D01*
X488746Y183740D01*
X488709Y183700D01*
X488669Y183667D01*
X488665Y183663D01*
X488650Y183652D01*
X488624Y183637D01*
X488591Y183622D01*
X488550Y183600D01*
X488502Y183578D01*
X488450Y183559D01*
X488387Y183541D01*
X488380D01*
X488358Y183533D01*
X488321Y183530D01*
X488273Y183522D01*
X488214Y183515D01*
X488143Y183507D01*
X488066Y183504D01*
X487977Y183500D01*
X487000D01*
Y186060D01*
X488006D01*
X488032Y186057D01*
D02*
G37*
G36*
X490160Y186068D02*
X490189Y186064D01*
X490223Y186060D01*
X490260Y186057D01*
X490297Y186046D01*
X490385Y186023D01*
X490474Y185990D01*
X490519Y185968D01*
X490563Y185942D01*
X490604Y185909D01*
X490645Y185875D01*
X490648Y185872D01*
X490652Y185868D01*
X490663Y185857D01*
X490678Y185842D01*
X490693Y185820D01*
X490711Y185798D01*
X490748Y185742D01*
X490785Y185672D01*
X490818Y185591D01*
X490844Y185498D01*
X490848Y185450D01*
X490852Y185398D01*
Y185394D01*
Y185391D01*
Y185369D01*
X490848Y185335D01*
X490841Y185294D01*
X490830Y185243D01*
X490811Y185191D01*
X490789Y185139D01*
X490756Y185087D01*
X490752Y185080D01*
X490737Y185065D01*
X490715Y185043D01*
X490685Y185013D01*
X490645Y184980D01*
X490596Y184947D01*
X490541Y184913D01*
X490474Y184884D01*
X490478D01*
X490485Y184880D01*
X490496Y184876D01*
X490511Y184869D01*
X490556Y184851D01*
X490608Y184825D01*
X490663Y184788D01*
X490722Y184747D01*
X490778Y184695D01*
X490830Y184636D01*
Y184632D01*
X490833Y184628D01*
X490848Y184606D01*
X490870Y184569D01*
X490892Y184521D01*
X490915Y184462D01*
X490937Y184392D01*
X490952Y184314D01*
X490955Y184229D01*
Y184225D01*
Y184214D01*
Y184196D01*
X490952Y184173D01*
X490948Y184148D01*
X490944Y184114D01*
X490937Y184077D01*
X490926Y184037D01*
X490900Y183951D01*
X490881Y183903D01*
X490855Y183859D01*
X490830Y183811D01*
X490800Y183766D01*
X490763Y183722D01*
X490722Y183678D01*
X490719Y183674D01*
X490711Y183667D01*
X490700Y183655D01*
X490682Y183644D01*
X490656Y183626D01*
X490630Y183607D01*
X490596Y183589D01*
X490559Y183567D01*
X490519Y183544D01*
X490471Y183526D01*
X490419Y183507D01*
X490367Y183489D01*
X490308Y183478D01*
X490245Y183467D01*
X490182Y183459D01*
X490112Y183456D01*
X490075D01*
X490049Y183459D01*
X490016Y183463D01*
X489979Y183467D01*
X489938Y183474D01*
X489893Y183485D01*
X489793Y183511D01*
X489742Y183530D01*
X489694Y183548D01*
X489642Y183574D01*
X489590Y183604D01*
X489542Y183637D01*
X489498Y183678D01*
X489494Y183681D01*
X489486Y183689D01*
X489475Y183700D01*
X489461Y183718D01*
X489446Y183740D01*
X489424Y183766D01*
X489405Y183796D01*
X489383Y183833D01*
X489361Y183870D01*
X489342Y183914D01*
X489305Y184007D01*
X489290Y184062D01*
X489279Y184118D01*
X489272Y184177D01*
X489268Y184236D01*
Y184240D01*
Y184247D01*
Y184262D01*
X489272Y184277D01*
Y184299D01*
X489276Y184325D01*
X489283Y184384D01*
X489298Y184451D01*
X489320Y184518D01*
X489353Y184588D01*
X489394Y184654D01*
Y184658D01*
X489401Y184662D01*
X489416Y184680D01*
X489446Y184710D01*
X489486Y184747D01*
X489538Y184784D01*
X489601Y184825D01*
X489671Y184858D01*
X489756Y184884D01*
X489753D01*
X489749Y184888D01*
X489738Y184891D01*
X489723Y184899D01*
X489690Y184913D01*
X489645Y184936D01*
X489597Y184965D01*
X489549Y185002D01*
X489505Y185043D01*
X489464Y185087D01*
X489461Y185095D01*
X489449Y185109D01*
X489435Y185139D01*
X489420Y185176D01*
X489401Y185224D01*
X489387Y185280D01*
X489375Y185343D01*
X489372Y185409D01*
Y185413D01*
Y185420D01*
Y185435D01*
X489375Y185457D01*
X489379Y185479D01*
X489383Y185509D01*
X489398Y185572D01*
X489420Y185646D01*
X489457Y185724D01*
X489479Y185764D01*
X489505Y185805D01*
X489538Y185842D01*
X489572Y185879D01*
X489575Y185883D01*
X489583Y185887D01*
X489594Y185898D01*
X489608Y185909D01*
X489627Y185924D01*
X489653Y185938D01*
X489682Y185957D01*
X489712Y185975D01*
X489749Y185994D01*
X489790Y186012D01*
X489834Y186027D01*
X489882Y186042D01*
X489986Y186064D01*
X490045Y186068D01*
X490104Y186072D01*
X490138D01*
X490160Y186068D01*
D02*
G37*
%LPC*%
G36*
X456886Y297257D02*
X456294D01*
Y295303D01*
X456901D01*
X456927Y295307D01*
X456982Y295311D01*
X457045Y295315D01*
X457112Y295322D01*
X457178Y295333D01*
X457234Y295348D01*
X457241Y295352D01*
X457260Y295355D01*
X457286Y295366D01*
X457319Y295381D01*
X457356Y295403D01*
X457393Y295426D01*
X457430Y295451D01*
X457467Y295481D01*
X457471Y295488D01*
X457486Y295503D01*
X457508Y295529D01*
X457534Y295566D01*
X457563Y295614D01*
X457597Y295670D01*
X457626Y295733D01*
X457652Y295803D01*
Y295807D01*
X457656Y295814D01*
X457659Y295825D01*
X457663Y295840D01*
X457667Y295858D01*
X457674Y295884D01*
X457682Y295910D01*
X457689Y295940D01*
X457700Y296014D01*
X457711Y296099D01*
X457719Y296195D01*
X457722Y296299D01*
Y296302D01*
Y296317D01*
Y296336D01*
X457719Y296365D01*
Y296399D01*
X457715Y296436D01*
X457711Y296480D01*
X457708Y296524D01*
X457689Y296624D01*
X457667Y296728D01*
X457634Y296824D01*
X457611Y296872D01*
X457589Y296913D01*
Y296917D01*
X457582Y296924D01*
X457574Y296935D01*
X457567Y296950D01*
X457537Y296987D01*
X457500Y297031D01*
X457452Y297079D01*
X457397Y297128D01*
X457334Y297168D01*
X457267Y297201D01*
X457260Y297205D01*
X457241Y297209D01*
X457208Y297220D01*
X457160Y297231D01*
X457101Y297238D01*
X457027Y297250D01*
X456982Y297253D01*
X456934D01*
X456886Y297257D01*
D02*
G37*
G36*
X451947Y287757D02*
X451340D01*
Y286987D01*
X451969D01*
X452017Y286991D01*
X452069Y286995D01*
X452121Y286999D01*
X452173Y287006D01*
X452214Y287013D01*
X452221Y287017D01*
X452236Y287021D01*
X452258Y287032D01*
X452288Y287047D01*
X452317Y287061D01*
X452351Y287084D01*
X452384Y287113D01*
X452410Y287143D01*
X452413Y287146D01*
X452421Y287158D01*
X452432Y287180D01*
X452443Y287206D01*
X452454Y287235D01*
X452465Y287272D01*
X452473Y287317D01*
X452476Y287365D01*
Y287372D01*
Y287387D01*
X452473Y287409D01*
X452469Y287439D01*
X452461Y287476D01*
X452450Y287513D01*
X452436Y287550D01*
X452413Y287587D01*
X452410Y287591D01*
X452402Y287602D01*
X452388Y287620D01*
X452369Y287639D01*
X452343Y287661D01*
X452314Y287683D01*
X452277Y287705D01*
X452236Y287720D01*
X452232D01*
X452214Y287727D01*
X452188Y287731D01*
X452147Y287738D01*
X452092Y287746D01*
X452029Y287750D01*
X451947Y287757D01*
D02*
G37*
G36*
X452014Y286684D02*
X451340D01*
Y285803D01*
X452069D01*
X452147Y285807D01*
X452180Y285811D01*
X452210Y285814D01*
X452214D01*
X452228Y285818D01*
X452251Y285822D01*
X452277Y285829D01*
X452339Y285852D01*
X452402Y285881D01*
X452406Y285885D01*
X452417Y285892D01*
X452432Y285903D01*
X452450Y285918D01*
X452469Y285940D01*
X452495Y285963D01*
X452513Y285992D01*
X452535Y286025D01*
X452539Y286029D01*
X452543Y286040D01*
X452550Y286062D01*
X452561Y286088D01*
X452572Y286118D01*
X452580Y286155D01*
X452584Y286199D01*
X452587Y286244D01*
Y286251D01*
Y286266D01*
X452584Y286296D01*
X452576Y286329D01*
X452569Y286366D01*
X452554Y286406D01*
X452535Y286447D01*
X452510Y286488D01*
X452506Y286492D01*
X452495Y286506D01*
X452480Y286525D01*
X452458Y286547D01*
X452428Y286573D01*
X452391Y286599D01*
X452351Y286621D01*
X452302Y286640D01*
X452295Y286643D01*
X452280Y286647D01*
X452247Y286654D01*
X452206Y286662D01*
X452154Y286669D01*
X452092Y286677D01*
X452014Y286684D01*
D02*
G37*
G36*
X454104Y287812D02*
X454082D01*
X454067Y287809D01*
X454027Y287801D01*
X453978Y287790D01*
X453923Y287768D01*
X453864Y287735D01*
X453834Y287713D01*
X453805Y287690D01*
X453779Y287661D01*
X453753Y287628D01*
Y287624D01*
X453745Y287616D01*
X453738Y287602D01*
X453727Y287583D01*
X453716Y287554D01*
X453701Y287520D01*
X453690Y287479D01*
X453675Y287431D01*
X453660Y287376D01*
X453646Y287313D01*
X453631Y287243D01*
X453620Y287165D01*
X453609Y287076D01*
X453601Y286980D01*
X453597Y286876D01*
X453594Y286762D01*
Y286754D01*
Y286736D01*
Y286702D01*
X453597Y286658D01*
Y286610D01*
X453601Y286551D01*
X453605Y286488D01*
X453612Y286421D01*
X453631Y286277D01*
X453642Y286207D01*
X453657Y286140D01*
X453671Y286077D01*
X453694Y286018D01*
X453716Y285966D01*
X453742Y285922D01*
Y285918D01*
X453749Y285914D01*
X453768Y285889D01*
X453801Y285855D01*
X453842Y285818D01*
X453897Y285781D01*
X453960Y285748D01*
X454030Y285722D01*
X454067Y285718D01*
X454108Y285715D01*
X454130D01*
X454145Y285718D01*
X454182Y285726D01*
X454234Y285740D01*
X454289Y285766D01*
X454352Y285803D01*
X454382Y285826D01*
X454411Y285855D01*
X454441Y285885D01*
X454471Y285922D01*
Y285926D01*
X454478Y285933D01*
X454485Y285944D01*
X454493Y285963D01*
X454508Y285988D01*
X454519Y286022D01*
X454533Y286059D01*
X454548Y286103D01*
X454559Y286159D01*
X454574Y286218D01*
X454589Y286288D01*
X454600Y286362D01*
X454607Y286451D01*
X454615Y286543D01*
X454622Y286647D01*
Y286762D01*
Y286765D01*
Y286769D01*
Y286788D01*
Y286821D01*
X454619Y286865D01*
Y286913D01*
X454615Y286973D01*
X454611Y287035D01*
X454604Y287106D01*
X454585Y287246D01*
X454574Y287317D01*
X454559Y287383D01*
X454545Y287446D01*
X454522Y287505D01*
X454500Y287557D01*
X454474Y287602D01*
Y287605D01*
X454467Y287609D01*
X454459Y287620D01*
X454448Y287635D01*
X454415Y287668D01*
X454374Y287709D01*
X454319Y287746D01*
X454256Y287779D01*
X454223Y287794D01*
X454186Y287805D01*
X454145Y287809D01*
X454104Y287812D01*
D02*
G37*
G36*
X451654Y248361D02*
Y248357D01*
X451651Y248349D01*
Y248335D01*
X451643Y248320D01*
X451640Y248294D01*
X451632Y248268D01*
X451617Y248205D01*
X451599Y248131D01*
X451573Y248050D01*
X451547Y247961D01*
X451514Y247868D01*
X451236Y247121D01*
X452102D01*
X451836Y247824D01*
Y247828D01*
X451832Y247839D01*
X451825Y247857D01*
X451817Y247880D01*
X451806Y247905D01*
X451795Y247939D01*
X451784Y247976D01*
X451769Y248013D01*
X451740Y248098D01*
X451710Y248187D01*
X451680Y248275D01*
X451654Y248361D01*
D02*
G37*
G36*
X451447Y217757D02*
X450840D01*
Y216987D01*
X451469D01*
X451517Y216991D01*
X451569Y216995D01*
X451621Y216999D01*
X451673Y217006D01*
X451714Y217013D01*
X451721Y217017D01*
X451736Y217021D01*
X451758Y217032D01*
X451788Y217047D01*
X451817Y217061D01*
X451851Y217084D01*
X451884Y217113D01*
X451910Y217143D01*
X451913Y217146D01*
X451921Y217158D01*
X451932Y217180D01*
X451943Y217206D01*
X451954Y217235D01*
X451965Y217272D01*
X451973Y217317D01*
X451976Y217365D01*
Y217372D01*
Y217387D01*
X451973Y217409D01*
X451969Y217439D01*
X451962Y217476D01*
X451950Y217513D01*
X451936Y217550D01*
X451913Y217587D01*
X451910Y217590D01*
X451902Y217602D01*
X451888Y217620D01*
X451869Y217639D01*
X451843Y217661D01*
X451814Y217683D01*
X451777Y217705D01*
X451736Y217720D01*
X451732D01*
X451714Y217727D01*
X451688Y217731D01*
X451647Y217739D01*
X451591Y217746D01*
X451529Y217750D01*
X451447Y217757D01*
D02*
G37*
G36*
X451514Y216684D02*
X450840D01*
Y215803D01*
X451569D01*
X451647Y215807D01*
X451680Y215811D01*
X451710Y215814D01*
X451714D01*
X451728Y215818D01*
X451751Y215822D01*
X451777Y215829D01*
X451839Y215851D01*
X451902Y215881D01*
X451906Y215885D01*
X451917Y215892D01*
X451932Y215903D01*
X451950Y215918D01*
X451969Y215940D01*
X451995Y215963D01*
X452013Y215992D01*
X452036Y216025D01*
X452039Y216029D01*
X452043Y216040D01*
X452050Y216062D01*
X452061Y216088D01*
X452072Y216118D01*
X452080Y216155D01*
X452084Y216199D01*
X452087Y216244D01*
Y216251D01*
Y216266D01*
X452084Y216296D01*
X452076Y216329D01*
X452069Y216366D01*
X452054Y216406D01*
X452036Y216447D01*
X452010Y216488D01*
X452006Y216492D01*
X451995Y216506D01*
X451980Y216525D01*
X451958Y216547D01*
X451928Y216573D01*
X451891Y216599D01*
X451851Y216621D01*
X451802Y216640D01*
X451795Y216643D01*
X451780Y216647D01*
X451747Y216654D01*
X451706Y216662D01*
X451654Y216669D01*
X451591Y216677D01*
X451514Y216684D01*
D02*
G37*
G36*
X453745Y207204D02*
X452939Y206057D01*
X453745D01*
Y207204D01*
D02*
G37*
G36*
X451414Y207411D02*
X450808D01*
Y206642D01*
X451437D01*
X451485Y206645D01*
X451536Y206649D01*
X451588Y206653D01*
X451640Y206660D01*
X451681Y206667D01*
X451688Y206671D01*
X451703Y206675D01*
X451725Y206686D01*
X451755Y206701D01*
X451784Y206715D01*
X451818Y206738D01*
X451851Y206767D01*
X451877Y206797D01*
X451881Y206801D01*
X451888Y206812D01*
X451899Y206834D01*
X451910Y206860D01*
X451921Y206889D01*
X451932Y206926D01*
X451940Y206971D01*
X451943Y207019D01*
Y207026D01*
Y207041D01*
X451940Y207063D01*
X451936Y207093D01*
X451929Y207130D01*
X451918Y207167D01*
X451903Y207204D01*
X451881Y207241D01*
X451877Y207245D01*
X451869Y207256D01*
X451855Y207274D01*
X451836Y207293D01*
X451810Y207315D01*
X451781Y207337D01*
X451744Y207359D01*
X451703Y207374D01*
X451699D01*
X451681Y207382D01*
X451655Y207385D01*
X451614Y207393D01*
X451559Y207400D01*
X451496Y207404D01*
X451414Y207411D01*
D02*
G37*
G36*
X451481Y206338D02*
X450808D01*
Y205457D01*
X451536D01*
X451614Y205461D01*
X451647Y205465D01*
X451677Y205469D01*
X451681D01*
X451695Y205472D01*
X451718Y205476D01*
X451744Y205483D01*
X451806Y205506D01*
X451869Y205535D01*
X451873Y205539D01*
X451884Y205546D01*
X451899Y205557D01*
X451918Y205572D01*
X451936Y205594D01*
X451962Y205617D01*
X451980Y205646D01*
X452003Y205679D01*
X452006Y205683D01*
X452010Y205694D01*
X452017Y205716D01*
X452029Y205742D01*
X452040Y205772D01*
X452047Y205809D01*
X452051Y205853D01*
X452054Y205898D01*
Y205905D01*
Y205920D01*
X452051Y205950D01*
X452043Y205983D01*
X452036Y206020D01*
X452021Y206061D01*
X452003Y206101D01*
X451977Y206142D01*
X451973Y206146D01*
X451962Y206160D01*
X451947Y206179D01*
X451925Y206201D01*
X451895Y206227D01*
X451858Y206253D01*
X451818Y206275D01*
X451769Y206294D01*
X451762Y206297D01*
X451747Y206301D01*
X451714Y206309D01*
X451673Y206316D01*
X451621Y206323D01*
X451559Y206331D01*
X451481Y206338D01*
D02*
G37*
G36*
X450947Y197757D02*
X450340D01*
Y196987D01*
X450969D01*
X451018Y196991D01*
X451069Y196995D01*
X451121Y196999D01*
X451173Y197006D01*
X451214Y197013D01*
X451221Y197017D01*
X451236Y197021D01*
X451258Y197032D01*
X451288Y197047D01*
X451317Y197061D01*
X451350Y197084D01*
X451384Y197113D01*
X451410Y197143D01*
X451413Y197146D01*
X451421Y197158D01*
X451432Y197180D01*
X451443Y197206D01*
X451454Y197235D01*
X451465Y197272D01*
X451473Y197317D01*
X451476Y197365D01*
Y197372D01*
Y197387D01*
X451473Y197409D01*
X451469Y197439D01*
X451462Y197476D01*
X451450Y197513D01*
X451436Y197550D01*
X451413Y197587D01*
X451410Y197590D01*
X451402Y197602D01*
X451388Y197620D01*
X451369Y197639D01*
X451343Y197661D01*
X451313Y197683D01*
X451276Y197705D01*
X451236Y197720D01*
X451232D01*
X451214Y197727D01*
X451188Y197731D01*
X451147Y197739D01*
X451091Y197746D01*
X451029Y197750D01*
X450947Y197757D01*
D02*
G37*
G36*
X451014Y196684D02*
X450340D01*
Y195803D01*
X451069D01*
X451147Y195807D01*
X451180Y195811D01*
X451210Y195815D01*
X451214D01*
X451228Y195818D01*
X451251Y195822D01*
X451276Y195829D01*
X451339Y195852D01*
X451402Y195881D01*
X451406Y195885D01*
X451417Y195892D01*
X451432Y195903D01*
X451450Y195918D01*
X451469Y195940D01*
X451495Y195963D01*
X451513Y195992D01*
X451536Y196025D01*
X451539Y196029D01*
X451543Y196040D01*
X451550Y196062D01*
X451561Y196088D01*
X451573Y196118D01*
X451580Y196155D01*
X451584Y196199D01*
X451587Y196244D01*
Y196251D01*
Y196266D01*
X451584Y196295D01*
X451576Y196329D01*
X451569Y196366D01*
X451554Y196406D01*
X451536Y196447D01*
X451510Y196488D01*
X451506Y196492D01*
X451495Y196506D01*
X451480Y196525D01*
X451458Y196547D01*
X451428Y196573D01*
X451391Y196599D01*
X451350Y196621D01*
X451302Y196640D01*
X451295Y196643D01*
X451280Y196647D01*
X451247Y196654D01*
X451206Y196662D01*
X451154Y196669D01*
X451091Y196677D01*
X451014Y196684D01*
D02*
G37*
G36*
X450947Y185757D02*
X450340D01*
Y184987D01*
X450969D01*
X451018Y184991D01*
X451069Y184995D01*
X451121Y184999D01*
X451173Y185006D01*
X451214Y185013D01*
X451221Y185017D01*
X451236Y185021D01*
X451258Y185032D01*
X451288Y185047D01*
X451317Y185061D01*
X451350Y185084D01*
X451384Y185113D01*
X451410Y185143D01*
X451413Y185146D01*
X451421Y185158D01*
X451432Y185180D01*
X451443Y185206D01*
X451454Y185235D01*
X451465Y185272D01*
X451473Y185317D01*
X451476Y185365D01*
Y185372D01*
Y185387D01*
X451473Y185409D01*
X451469Y185439D01*
X451462Y185476D01*
X451450Y185513D01*
X451436Y185550D01*
X451413Y185587D01*
X451410Y185591D01*
X451402Y185602D01*
X451388Y185620D01*
X451369Y185639D01*
X451343Y185661D01*
X451313Y185683D01*
X451276Y185705D01*
X451236Y185720D01*
X451232D01*
X451214Y185727D01*
X451188Y185731D01*
X451147Y185739D01*
X451091Y185746D01*
X451029Y185750D01*
X450947Y185757D01*
D02*
G37*
G36*
X451014Y184684D02*
X450340D01*
Y183803D01*
X451069D01*
X451147Y183807D01*
X451180Y183811D01*
X451210Y183815D01*
X451214D01*
X451228Y183818D01*
X451251Y183822D01*
X451276Y183829D01*
X451339Y183852D01*
X451402Y183881D01*
X451406Y183885D01*
X451417Y183892D01*
X451432Y183903D01*
X451450Y183918D01*
X451469Y183940D01*
X451495Y183963D01*
X451513Y183992D01*
X451536Y184025D01*
X451539Y184029D01*
X451543Y184040D01*
X451550Y184062D01*
X451561Y184088D01*
X451573Y184118D01*
X451580Y184155D01*
X451584Y184199D01*
X451587Y184244D01*
Y184251D01*
Y184266D01*
X451584Y184295D01*
X451576Y184329D01*
X451569Y184366D01*
X451554Y184406D01*
X451536Y184447D01*
X451510Y184488D01*
X451506Y184492D01*
X451495Y184506D01*
X451480Y184525D01*
X451458Y184547D01*
X451428Y184573D01*
X451391Y184599D01*
X451350Y184621D01*
X451302Y184640D01*
X451295Y184643D01*
X451280Y184647D01*
X451247Y184654D01*
X451206Y184662D01*
X451154Y184669D01*
X451091Y184677D01*
X451014Y184684D01*
D02*
G37*
G36*
X451947Y277757D02*
X451340D01*
Y276987D01*
X451969D01*
X452017Y276991D01*
X452069Y276995D01*
X452121Y276998D01*
X452173Y277006D01*
X452214Y277013D01*
X452221Y277017D01*
X452236Y277021D01*
X452258Y277032D01*
X452288Y277047D01*
X452317Y277061D01*
X452351Y277084D01*
X452384Y277113D01*
X452410Y277143D01*
X452413Y277147D01*
X452421Y277158D01*
X452432Y277180D01*
X452443Y277206D01*
X452454Y277235D01*
X452465Y277272D01*
X452473Y277317D01*
X452476Y277365D01*
Y277372D01*
Y277387D01*
X452473Y277409D01*
X452469Y277439D01*
X452461Y277476D01*
X452450Y277513D01*
X452436Y277550D01*
X452413Y277587D01*
X452410Y277590D01*
X452402Y277602D01*
X452388Y277620D01*
X452369Y277639D01*
X452343Y277661D01*
X452314Y277683D01*
X452277Y277705D01*
X452236Y277720D01*
X452232D01*
X452214Y277727D01*
X452188Y277731D01*
X452147Y277738D01*
X452092Y277746D01*
X452029Y277750D01*
X451947Y277757D01*
D02*
G37*
G36*
X452014Y276684D02*
X451340D01*
Y275803D01*
X452069D01*
X452147Y275807D01*
X452180Y275811D01*
X452210Y275815D01*
X452214D01*
X452228Y275818D01*
X452251Y275822D01*
X452277Y275829D01*
X452339Y275851D01*
X452402Y275881D01*
X452406Y275885D01*
X452417Y275892D01*
X452432Y275903D01*
X452450Y275918D01*
X452469Y275940D01*
X452495Y275962D01*
X452513Y275992D01*
X452535Y276025D01*
X452539Y276029D01*
X452543Y276040D01*
X452550Y276062D01*
X452561Y276088D01*
X452572Y276118D01*
X452580Y276155D01*
X452584Y276199D01*
X452587Y276244D01*
Y276251D01*
Y276266D01*
X452584Y276295D01*
X452576Y276329D01*
X452569Y276366D01*
X452554Y276407D01*
X452535Y276447D01*
X452510Y276488D01*
X452506Y276492D01*
X452495Y276506D01*
X452480Y276525D01*
X452458Y276547D01*
X452428Y276573D01*
X452391Y276599D01*
X452351Y276621D01*
X452302Y276640D01*
X452295Y276643D01*
X452280Y276647D01*
X452247Y276654D01*
X452206Y276662D01*
X452154Y276669D01*
X452092Y276677D01*
X452014Y276684D01*
D02*
G37*
G36*
X451654Y267294D02*
Y267290D01*
X451651Y267283D01*
Y267268D01*
X451643Y267253D01*
X451640Y267227D01*
X451632Y267201D01*
X451617Y267139D01*
X451599Y267065D01*
X451573Y266983D01*
X451547Y266894D01*
X451514Y266802D01*
X451236Y266055D01*
X452102D01*
X451836Y266757D01*
Y266761D01*
X451832Y266772D01*
X451825Y266791D01*
X451817Y266813D01*
X451806Y266839D01*
X451795Y266872D01*
X451784Y266909D01*
X451769Y266946D01*
X451740Y267031D01*
X451710Y267120D01*
X451680Y267209D01*
X451654Y267294D01*
D02*
G37*
G36*
Y257794D02*
Y257790D01*
X451651Y257783D01*
Y257768D01*
X451643Y257753D01*
X451640Y257727D01*
X451632Y257701D01*
X451617Y257639D01*
X451599Y257565D01*
X451573Y257483D01*
X451547Y257394D01*
X451514Y257302D01*
X451236Y256555D01*
X452102D01*
X451836Y257258D01*
Y257261D01*
X451832Y257272D01*
X451825Y257291D01*
X451817Y257313D01*
X451806Y257339D01*
X451795Y257372D01*
X451784Y257409D01*
X451769Y257446D01*
X451740Y257531D01*
X451710Y257620D01*
X451680Y257709D01*
X451654Y257794D01*
D02*
G37*
G36*
X456035Y237050D02*
X455229Y235903D01*
X456035D01*
Y237050D01*
D02*
G37*
G36*
X451654Y237294D02*
Y237290D01*
X451651Y237283D01*
Y237268D01*
X451643Y237253D01*
X451640Y237227D01*
X451632Y237201D01*
X451617Y237139D01*
X451599Y237065D01*
X451573Y236983D01*
X451547Y236894D01*
X451514Y236802D01*
X451236Y236054D01*
X452102D01*
X451836Y236757D01*
Y236761D01*
X451832Y236772D01*
X451825Y236791D01*
X451817Y236813D01*
X451806Y236839D01*
X451795Y236872D01*
X451784Y236909D01*
X451769Y236946D01*
X451740Y237031D01*
X451710Y237120D01*
X451680Y237209D01*
X451654Y237294D01*
D02*
G37*
G36*
Y226794D02*
Y226790D01*
X451651Y226783D01*
Y226768D01*
X451643Y226753D01*
X451640Y226727D01*
X451632Y226701D01*
X451617Y226639D01*
X451599Y226565D01*
X451573Y226483D01*
X451547Y226394D01*
X451514Y226302D01*
X451236Y225554D01*
X452102D01*
X451836Y226257D01*
Y226261D01*
X451832Y226272D01*
X451825Y226291D01*
X451817Y226313D01*
X451806Y226339D01*
X451795Y226372D01*
X451784Y226409D01*
X451769Y226446D01*
X451740Y226531D01*
X451710Y226620D01*
X451680Y226709D01*
X451654Y226794D01*
D02*
G37*
G36*
X453130Y190884D02*
X453108D01*
X453093Y190880D01*
X453056Y190876D01*
X453004Y190865D01*
X452949Y190847D01*
X452886Y190817D01*
X452827Y190780D01*
X452768Y190728D01*
X452760Y190721D01*
X452745Y190702D01*
X452719Y190669D01*
X452694Y190621D01*
X452668Y190566D01*
X452642Y190495D01*
X452627Y190418D01*
X452620Y190329D01*
Y190321D01*
Y190303D01*
X452623Y190270D01*
X452627Y190229D01*
X452634Y190181D01*
X452649Y190129D01*
X452664Y190074D01*
X452686Y190018D01*
X452690Y190011D01*
X452701Y189992D01*
X452716Y189966D01*
X452738Y189933D01*
X452764Y189900D01*
X452797Y189859D01*
X452834Y189826D01*
X452879Y189792D01*
X452886Y189789D01*
X452901Y189781D01*
X452927Y189766D01*
X452960Y189755D01*
X452997Y189741D01*
X453041Y189726D01*
X453090Y189718D01*
X453141Y189715D01*
X453160D01*
X453175Y189718D01*
X453212Y189722D01*
X453260Y189733D01*
X453311Y189755D01*
X453371Y189781D01*
X453430Y189822D01*
X453460Y189844D01*
X453485Y189874D01*
Y189877D01*
X453493Y189881D01*
X453508Y189903D01*
X453530Y189940D01*
X453559Y189988D01*
X453585Y190051D01*
X453608Y190125D01*
X453622Y190210D01*
X453630Y190310D01*
Y190314D01*
Y190321D01*
Y190336D01*
X453626Y190355D01*
Y190377D01*
X453622Y190403D01*
X453611Y190462D01*
X453596Y190529D01*
X453571Y190599D01*
X453534Y190665D01*
X453485Y190728D01*
X453478Y190736D01*
X453460Y190754D01*
X453430Y190777D01*
X453389Y190806D01*
X453337Y190836D01*
X453278Y190858D01*
X453208Y190876D01*
X453130Y190884D01*
D02*
G37*
G36*
X450947Y191757D02*
X450340D01*
Y190987D01*
X450969D01*
X451018Y190991D01*
X451069Y190995D01*
X451121Y190998D01*
X451173Y191006D01*
X451214Y191013D01*
X451221Y191017D01*
X451236Y191021D01*
X451258Y191032D01*
X451288Y191047D01*
X451317Y191061D01*
X451350Y191084D01*
X451384Y191113D01*
X451410Y191143D01*
X451413Y191147D01*
X451421Y191158D01*
X451432Y191180D01*
X451443Y191206D01*
X451454Y191235D01*
X451465Y191272D01*
X451473Y191317D01*
X451476Y191365D01*
Y191372D01*
Y191387D01*
X451473Y191409D01*
X451469Y191439D01*
X451462Y191476D01*
X451450Y191513D01*
X451436Y191550D01*
X451413Y191587D01*
X451410Y191590D01*
X451402Y191602D01*
X451388Y191620D01*
X451369Y191639D01*
X451343Y191661D01*
X451313Y191683D01*
X451276Y191705D01*
X451236Y191720D01*
X451232D01*
X451214Y191727D01*
X451188Y191731D01*
X451147Y191738D01*
X451091Y191746D01*
X451029Y191750D01*
X450947Y191757D01*
D02*
G37*
G36*
X451014Y190684D02*
X450340D01*
Y189803D01*
X451069D01*
X451147Y189807D01*
X451180Y189811D01*
X451210Y189814D01*
X451214D01*
X451228Y189818D01*
X451251Y189822D01*
X451276Y189829D01*
X451339Y189851D01*
X451402Y189881D01*
X451406Y189885D01*
X451417Y189892D01*
X451432Y189903D01*
X451450Y189918D01*
X451469Y189940D01*
X451495Y189962D01*
X451513Y189992D01*
X451536Y190025D01*
X451539Y190029D01*
X451543Y190040D01*
X451550Y190062D01*
X451561Y190088D01*
X451573Y190118D01*
X451580Y190155D01*
X451584Y190199D01*
X451587Y190244D01*
Y190251D01*
Y190266D01*
X451584Y190296D01*
X451576Y190329D01*
X451569Y190366D01*
X451554Y190407D01*
X451536Y190447D01*
X451510Y190488D01*
X451506Y190492D01*
X451495Y190506D01*
X451480Y190525D01*
X451458Y190547D01*
X451428Y190573D01*
X451391Y190599D01*
X451350Y190621D01*
X451302Y190640D01*
X451295Y190643D01*
X451280Y190647D01*
X451247Y190654D01*
X451206Y190662D01*
X451154Y190669D01*
X451091Y190677D01*
X451014Y190684D01*
D02*
G37*
G36*
X489897Y276384D02*
X489874D01*
X489860Y276380D01*
X489823Y276376D01*
X489771Y276365D01*
X489715Y276347D01*
X489652Y276317D01*
X489593Y276280D01*
X489534Y276228D01*
X489527Y276221D01*
X489512Y276203D01*
X489486Y276169D01*
X489460Y276121D01*
X489434Y276066D01*
X489408Y275995D01*
X489393Y275918D01*
X489386Y275829D01*
Y275821D01*
Y275803D01*
X489390Y275770D01*
X489393Y275729D01*
X489401Y275681D01*
X489416Y275629D01*
X489430Y275573D01*
X489453Y275518D01*
X489456Y275511D01*
X489467Y275492D01*
X489482Y275466D01*
X489504Y275433D01*
X489530Y275400D01*
X489564Y275359D01*
X489601Y275326D01*
X489645Y275292D01*
X489652Y275289D01*
X489667Y275281D01*
X489693Y275266D01*
X489726Y275255D01*
X489763Y275240D01*
X489808Y275226D01*
X489856Y275218D01*
X489908Y275215D01*
X489926D01*
X489941Y275218D01*
X489978Y275222D01*
X490026Y275233D01*
X490078Y275255D01*
X490137Y275281D01*
X490196Y275322D01*
X490226Y275344D01*
X490252Y275374D01*
Y275377D01*
X490259Y275381D01*
X490274Y275403D01*
X490296Y275440D01*
X490326Y275488D01*
X490352Y275551D01*
X490374Y275625D01*
X490389Y275710D01*
X490396Y275810D01*
Y275814D01*
Y275821D01*
Y275836D01*
X490392Y275855D01*
Y275877D01*
X490389Y275903D01*
X490378Y275962D01*
X490363Y276029D01*
X490337Y276099D01*
X490300Y276166D01*
X490252Y276228D01*
X490244Y276236D01*
X490226Y276254D01*
X490196Y276276D01*
X490156Y276306D01*
X490104Y276336D01*
X490045Y276358D01*
X489974Y276376D01*
X489897Y276384D01*
D02*
G37*
G36*
X487654Y277294D02*
Y277290D01*
X487651Y277283D01*
Y277268D01*
X487643Y277253D01*
X487640Y277227D01*
X487632Y277202D01*
X487617Y277139D01*
X487599Y277065D01*
X487573Y276983D01*
X487547Y276894D01*
X487514Y276802D01*
X487236Y276055D01*
X488102D01*
X487836Y276758D01*
Y276761D01*
X487832Y276772D01*
X487825Y276791D01*
X487817Y276813D01*
X487806Y276839D01*
X487795Y276872D01*
X487784Y276909D01*
X487769Y276946D01*
X487740Y277031D01*
X487710Y277120D01*
X487680Y277209D01*
X487654Y277294D01*
D02*
G37*
G36*
Y267294D02*
Y267290D01*
X487651Y267283D01*
Y267268D01*
X487643Y267253D01*
X487640Y267227D01*
X487632Y267201D01*
X487617Y267139D01*
X487599Y267065D01*
X487573Y266983D01*
X487547Y266894D01*
X487514Y266802D01*
X487236Y266055D01*
X488102D01*
X487836Y266757D01*
Y266761D01*
X487832Y266772D01*
X487825Y266791D01*
X487817Y266813D01*
X487806Y266839D01*
X487795Y266872D01*
X487784Y266909D01*
X487769Y266946D01*
X487740Y267031D01*
X487710Y267120D01*
X487680Y267209D01*
X487654Y267294D01*
D02*
G37*
G36*
Y247294D02*
Y247290D01*
X487651Y247283D01*
Y247268D01*
X487643Y247253D01*
X487640Y247227D01*
X487632Y247201D01*
X487617Y247139D01*
X487599Y247065D01*
X487573Y246983D01*
X487547Y246894D01*
X487514Y246802D01*
X487236Y246055D01*
X488102D01*
X487836Y246758D01*
Y246761D01*
X487832Y246772D01*
X487825Y246791D01*
X487817Y246813D01*
X487806Y246839D01*
X487795Y246872D01*
X487784Y246909D01*
X487769Y246946D01*
X487740Y247031D01*
X487710Y247120D01*
X487680Y247209D01*
X487654Y247294D01*
D02*
G37*
G36*
Y237294D02*
Y237290D01*
X487651Y237283D01*
Y237268D01*
X487643Y237253D01*
X487640Y237227D01*
X487632Y237201D01*
X487617Y237139D01*
X487599Y237065D01*
X487573Y236983D01*
X487547Y236894D01*
X487514Y236802D01*
X487236Y236054D01*
X488102D01*
X487836Y236757D01*
Y236761D01*
X487832Y236772D01*
X487825Y236791D01*
X487817Y236813D01*
X487806Y236839D01*
X487795Y236872D01*
X487784Y236909D01*
X487769Y236946D01*
X487740Y237031D01*
X487710Y237120D01*
X487680Y237209D01*
X487654Y237294D01*
D02*
G37*
G36*
X485647Y207775D02*
X484840D01*
Y206928D01*
X485603D01*
X485647Y206932D01*
X485699Y206936D01*
X485758Y206939D01*
X485817Y206947D01*
X485876Y206958D01*
X485928Y206973D01*
X485936Y206976D01*
X485950Y206984D01*
X485973Y206995D01*
X486002Y207010D01*
X486035Y207032D01*
X486069Y207058D01*
X486102Y207091D01*
X486128Y207128D01*
X486132Y207132D01*
X486139Y207147D01*
X486150Y207169D01*
X486165Y207198D01*
X486176Y207232D01*
X486187Y207269D01*
X486195Y207313D01*
X486198Y207357D01*
Y207361D01*
Y207365D01*
X486195Y207387D01*
X486191Y207420D01*
X486184Y207465D01*
X486165Y207509D01*
X486143Y207561D01*
X486109Y207609D01*
X486065Y207657D01*
X486058Y207661D01*
X486039Y207676D01*
X486010Y207694D01*
X485961Y207716D01*
X485906Y207738D01*
X485832Y207757D01*
X485747Y207772D01*
X485647Y207775D01*
D02*
G37*
G36*
X489457Y297257D02*
X488865D01*
Y295303D01*
X489472D01*
X489498Y295307D01*
X489553Y295311D01*
X489616Y295315D01*
X489683Y295322D01*
X489749Y295333D01*
X489805Y295348D01*
X489812Y295352D01*
X489831Y295355D01*
X489857Y295366D01*
X489890Y295381D01*
X489927Y295403D01*
X489964Y295426D01*
X490001Y295451D01*
X490038Y295481D01*
X490042Y295488D01*
X490057Y295503D01*
X490079Y295529D01*
X490105Y295566D01*
X490134Y295614D01*
X490168Y295670D01*
X490197Y295733D01*
X490223Y295803D01*
Y295807D01*
X490227Y295814D01*
X490230Y295825D01*
X490234Y295840D01*
X490238Y295858D01*
X490245Y295884D01*
X490253Y295910D01*
X490260Y295940D01*
X490271Y296014D01*
X490282Y296099D01*
X490290Y296195D01*
X490293Y296299D01*
Y296302D01*
Y296317D01*
Y296336D01*
X490290Y296365D01*
Y296399D01*
X490286Y296436D01*
X490282Y296480D01*
X490278Y296524D01*
X490260Y296624D01*
X490238Y296728D01*
X490204Y296824D01*
X490182Y296872D01*
X490160Y296913D01*
Y296917D01*
X490153Y296924D01*
X490145Y296935D01*
X490138Y296950D01*
X490108Y296987D01*
X490071Y297031D01*
X490023Y297079D01*
X489968Y297128D01*
X489905Y297168D01*
X489838Y297201D01*
X489831Y297205D01*
X489812Y297209D01*
X489779Y297220D01*
X489731Y297231D01*
X489672Y297238D01*
X489598Y297250D01*
X489553Y297253D01*
X489505D01*
X489457Y297257D01*
D02*
G37*
G36*
X487654Y287294D02*
Y287290D01*
X487651Y287283D01*
Y287268D01*
X487643Y287253D01*
X487640Y287227D01*
X487632Y287201D01*
X487617Y287139D01*
X487599Y287065D01*
X487573Y286983D01*
X487547Y286894D01*
X487514Y286802D01*
X487236Y286054D01*
X488102D01*
X487836Y286757D01*
Y286761D01*
X487832Y286772D01*
X487825Y286791D01*
X487817Y286813D01*
X487806Y286839D01*
X487795Y286872D01*
X487784Y286909D01*
X487769Y286946D01*
X487740Y287031D01*
X487710Y287120D01*
X487680Y287209D01*
X487654Y287294D01*
D02*
G37*
G36*
X490045Y257050D02*
X489238Y255903D01*
X490045D01*
Y257050D01*
D02*
G37*
G36*
X487654Y257294D02*
Y257290D01*
X487651Y257283D01*
Y257268D01*
X487643Y257253D01*
X487640Y257227D01*
X487632Y257202D01*
X487617Y257139D01*
X487599Y257065D01*
X487573Y256983D01*
X487547Y256894D01*
X487514Y256802D01*
X487236Y256054D01*
X488102D01*
X487836Y256757D01*
Y256761D01*
X487832Y256772D01*
X487825Y256791D01*
X487817Y256813D01*
X487806Y256839D01*
X487795Y256872D01*
X487784Y256909D01*
X487769Y256946D01*
X487740Y257031D01*
X487710Y257120D01*
X487680Y257209D01*
X487654Y257294D01*
D02*
G37*
G36*
X488154Y227294D02*
Y227290D01*
X488151Y227283D01*
Y227268D01*
X488143Y227253D01*
X488140Y227227D01*
X488132Y227202D01*
X488117Y227139D01*
X488099Y227065D01*
X488073Y226983D01*
X488047Y226894D01*
X488014Y226802D01*
X487736Y226055D01*
X488602D01*
X488336Y226758D01*
Y226761D01*
X488332Y226772D01*
X488325Y226791D01*
X488317Y226813D01*
X488306Y226839D01*
X488295Y226872D01*
X488284Y226909D01*
X488269Y226946D01*
X488239Y227031D01*
X488210Y227120D01*
X488180Y227209D01*
X488154Y227294D01*
D02*
G37*
G36*
X487654Y217294D02*
Y217290D01*
X487651Y217283D01*
Y217268D01*
X487643Y217253D01*
X487640Y217227D01*
X487632Y217201D01*
X487617Y217139D01*
X487599Y217065D01*
X487573Y216983D01*
X487547Y216894D01*
X487514Y216802D01*
X487236Y216055D01*
X488102D01*
X487836Y216757D01*
Y216761D01*
X487832Y216772D01*
X487825Y216791D01*
X487817Y216813D01*
X487806Y216839D01*
X487795Y216872D01*
X487784Y216909D01*
X487769Y216946D01*
X487740Y217031D01*
X487710Y217120D01*
X487680Y217209D01*
X487654Y217294D01*
D02*
G37*
G36*
X489871Y217313D02*
X489849D01*
X489834Y217309D01*
X489793Y217301D01*
X489745Y217290D01*
X489689Y217268D01*
X489630Y217235D01*
X489601Y217213D01*
X489571Y217190D01*
X489545Y217161D01*
X489519Y217127D01*
Y217124D01*
X489512Y217116D01*
X489504Y217102D01*
X489493Y217083D01*
X489482Y217054D01*
X489467Y217020D01*
X489456Y216980D01*
X489441Y216931D01*
X489427Y216876D01*
X489412Y216813D01*
X489397Y216743D01*
X489386Y216665D01*
X489375Y216576D01*
X489367Y216480D01*
X489364Y216376D01*
X489360Y216262D01*
Y216254D01*
Y216236D01*
Y216202D01*
X489364Y216158D01*
Y216110D01*
X489367Y216051D01*
X489371Y215988D01*
X489379Y215921D01*
X489397Y215777D01*
X489408Y215707D01*
X489423Y215640D01*
X489438Y215577D01*
X489460Y215518D01*
X489482Y215466D01*
X489508Y215422D01*
Y215418D01*
X489515Y215414D01*
X489534Y215388D01*
X489567Y215355D01*
X489608Y215318D01*
X489664Y215281D01*
X489726Y215248D01*
X489797Y215222D01*
X489834Y215218D01*
X489874Y215215D01*
X489897D01*
X489911Y215218D01*
X489948Y215226D01*
X490000Y215241D01*
X490056Y215266D01*
X490119Y215303D01*
X490148Y215326D01*
X490178Y215355D01*
X490207Y215385D01*
X490237Y215422D01*
Y215425D01*
X490244Y215433D01*
X490252Y215444D01*
X490259Y215462D01*
X490274Y215488D01*
X490285Y215522D01*
X490300Y215559D01*
X490315Y215603D01*
X490326Y215659D01*
X490341Y215718D01*
X490355Y215788D01*
X490367Y215862D01*
X490374Y215951D01*
X490381Y216043D01*
X490389Y216147D01*
Y216262D01*
Y216265D01*
Y216269D01*
Y216288D01*
Y216321D01*
X490385Y216365D01*
Y216413D01*
X490381Y216473D01*
X490378Y216535D01*
X490370Y216606D01*
X490352Y216746D01*
X490341Y216817D01*
X490326Y216883D01*
X490311Y216946D01*
X490289Y217005D01*
X490267Y217057D01*
X490241Y217102D01*
Y217105D01*
X490233Y217109D01*
X490226Y217120D01*
X490215Y217135D01*
X490181Y217168D01*
X490141Y217209D01*
X490085Y217246D01*
X490022Y217279D01*
X489989Y217294D01*
X489952Y217305D01*
X489911Y217309D01*
X489871Y217313D01*
D02*
G37*
G36*
X489875Y191813D02*
X489853D01*
X489838Y191809D01*
X489797Y191801D01*
X489749Y191790D01*
X489694Y191768D01*
X489634Y191735D01*
X489605Y191713D01*
X489575Y191690D01*
X489549Y191661D01*
X489523Y191628D01*
Y191624D01*
X489516Y191616D01*
X489509Y191602D01*
X489498Y191583D01*
X489486Y191553D01*
X489472Y191520D01*
X489461Y191480D01*
X489446Y191431D01*
X489431Y191376D01*
X489416Y191313D01*
X489401Y191243D01*
X489390Y191165D01*
X489379Y191076D01*
X489372Y190980D01*
X489368Y190876D01*
X489364Y190762D01*
Y190754D01*
Y190736D01*
Y190702D01*
X489368Y190658D01*
Y190610D01*
X489372Y190551D01*
X489375Y190488D01*
X489383Y190421D01*
X489401Y190277D01*
X489412Y190207D01*
X489427Y190140D01*
X489442Y190077D01*
X489464Y190018D01*
X489486Y189966D01*
X489512Y189922D01*
Y189918D01*
X489520Y189914D01*
X489538Y189889D01*
X489572Y189855D01*
X489612Y189818D01*
X489668Y189781D01*
X489731Y189748D01*
X489801Y189722D01*
X489838Y189718D01*
X489879Y189715D01*
X489901D01*
X489916Y189718D01*
X489953Y189726D01*
X490004Y189741D01*
X490060Y189766D01*
X490123Y189803D01*
X490152Y189826D01*
X490182Y189855D01*
X490212Y189885D01*
X490241Y189922D01*
Y189926D01*
X490249Y189933D01*
X490256Y189944D01*
X490263Y189962D01*
X490278Y189988D01*
X490289Y190022D01*
X490304Y190059D01*
X490319Y190103D01*
X490330Y190159D01*
X490345Y190218D01*
X490360Y190288D01*
X490371Y190362D01*
X490378Y190451D01*
X490385Y190543D01*
X490393Y190647D01*
Y190762D01*
Y190765D01*
Y190769D01*
Y190788D01*
Y190821D01*
X490389Y190865D01*
Y190913D01*
X490385Y190973D01*
X490382Y191035D01*
X490374Y191106D01*
X490356Y191246D01*
X490345Y191317D01*
X490330Y191383D01*
X490315Y191446D01*
X490293Y191505D01*
X490271Y191557D01*
X490245Y191602D01*
Y191605D01*
X490238Y191609D01*
X490230Y191620D01*
X490219Y191635D01*
X490186Y191668D01*
X490145Y191709D01*
X490090Y191746D01*
X490027Y191779D01*
X489993Y191794D01*
X489956Y191805D01*
X489916Y191809D01*
X489875Y191813D01*
D02*
G37*
G36*
X487947Y185757D02*
X487340D01*
Y184987D01*
X487969D01*
X488018Y184991D01*
X488069Y184995D01*
X488121Y184999D01*
X488173Y185006D01*
X488214Y185013D01*
X488221Y185017D01*
X488236Y185021D01*
X488258Y185032D01*
X488288Y185047D01*
X488317Y185061D01*
X488350Y185084D01*
X488384Y185113D01*
X488410Y185143D01*
X488413Y185146D01*
X488421Y185158D01*
X488432Y185180D01*
X488443Y185206D01*
X488454Y185235D01*
X488465Y185272D01*
X488473Y185317D01*
X488476Y185365D01*
Y185372D01*
Y185387D01*
X488473Y185409D01*
X488469Y185439D01*
X488461Y185476D01*
X488450Y185513D01*
X488436Y185550D01*
X488413Y185587D01*
X488410Y185591D01*
X488402Y185602D01*
X488387Y185620D01*
X488369Y185639D01*
X488343Y185661D01*
X488313Y185683D01*
X488276Y185705D01*
X488236Y185720D01*
X488232D01*
X488214Y185727D01*
X488188Y185731D01*
X488147Y185739D01*
X488092Y185746D01*
X488029Y185750D01*
X487947Y185757D01*
D02*
G37*
G36*
X488014Y184684D02*
X487340D01*
Y183803D01*
X488069D01*
X488147Y183807D01*
X488180Y183811D01*
X488210Y183815D01*
X488214D01*
X488228Y183818D01*
X488251Y183822D01*
X488276Y183829D01*
X488339Y183852D01*
X488402Y183881D01*
X488406Y183885D01*
X488417Y183892D01*
X488432Y183903D01*
X488450Y183918D01*
X488469Y183940D01*
X488495Y183963D01*
X488513Y183992D01*
X488535Y184025D01*
X488539Y184029D01*
X488543Y184040D01*
X488550Y184062D01*
X488561Y184088D01*
X488573Y184118D01*
X488580Y184155D01*
X488584Y184199D01*
X488587Y184244D01*
Y184251D01*
Y184266D01*
X488584Y184295D01*
X488576Y184329D01*
X488569Y184366D01*
X488554Y184406D01*
X488535Y184447D01*
X488510Y184488D01*
X488506Y184492D01*
X488495Y184506D01*
X488480Y184525D01*
X488458Y184547D01*
X488428Y184573D01*
X488391Y184599D01*
X488350Y184621D01*
X488302Y184640D01*
X488295Y184643D01*
X488280Y184647D01*
X488247Y184654D01*
X488206Y184662D01*
X488154Y184669D01*
X488092Y184677D01*
X488014Y184684D01*
D02*
G37*
G36*
X490112Y185812D02*
X490082D01*
X490049Y185805D01*
X490004Y185798D01*
X489956Y185783D01*
X489904Y185764D01*
X489856Y185735D01*
X489808Y185694D01*
X489805Y185690D01*
X489790Y185676D01*
X489771Y185650D01*
X489753Y185616D01*
X489731Y185576D01*
X489712Y185528D01*
X489697Y185476D01*
X489694Y185417D01*
Y185413D01*
Y185409D01*
X489697Y185387D01*
X489701Y185354D01*
X489708Y185313D01*
X489723Y185265D01*
X489742Y185217D01*
X489771Y185165D01*
X489808Y185121D01*
X489812Y185117D01*
X489830Y185102D01*
X489856Y185084D01*
X489890Y185065D01*
X489934Y185043D01*
X489986Y185024D01*
X490045Y185010D01*
X490112Y185006D01*
X490119D01*
X490141Y185010D01*
X490175Y185013D01*
X490219Y185021D01*
X490267Y185036D01*
X490315Y185054D01*
X490367Y185084D01*
X490411Y185121D01*
X490415Y185124D01*
X490430Y185143D01*
X490448Y185165D01*
X490471Y185198D01*
X490493Y185239D01*
X490511Y185287D01*
X490526Y185343D01*
X490530Y185402D01*
Y185406D01*
Y185409D01*
Y185431D01*
X490522Y185465D01*
X490515Y185505D01*
X490500Y185550D01*
X490478Y185598D01*
X490448Y185646D01*
X490408Y185694D01*
X490404Y185698D01*
X490385Y185713D01*
X490360Y185731D01*
X490326Y185753D01*
X490282Y185775D01*
X490234Y185794D01*
X490175Y185809D01*
X490112Y185812D01*
D02*
G37*
G36*
X490101Y184751D02*
X490078D01*
X490064Y184747D01*
X490023Y184743D01*
X489971Y184732D01*
X489912Y184714D01*
X489853Y184688D01*
X489790Y184651D01*
X489734Y184603D01*
X489727Y184595D01*
X489712Y184577D01*
X489690Y184543D01*
X489664Y184503D01*
X489634Y184447D01*
X489612Y184384D01*
X489597Y184314D01*
X489590Y184236D01*
Y184229D01*
Y184214D01*
X489594Y184188D01*
X489597Y184155D01*
X489605Y184114D01*
X489616Y184070D01*
X489631Y184025D01*
X489649Y183977D01*
X489653Y183974D01*
X489660Y183955D01*
X489675Y183933D01*
X489697Y183907D01*
X489723Y183874D01*
X489756Y183840D01*
X489793Y183811D01*
X489838Y183781D01*
X489845Y183777D01*
X489860Y183770D01*
X489886Y183759D01*
X489919Y183748D01*
X489960Y183737D01*
X490008Y183726D01*
X490060Y183718D01*
X490112Y183715D01*
X490134D01*
X490149Y183718D01*
X490193Y183722D01*
X490245Y183733D01*
X490304Y183752D01*
X490367Y183774D01*
X490426Y183811D01*
X490485Y183859D01*
X490493Y183866D01*
X490508Y183885D01*
X490533Y183918D01*
X490559Y183959D01*
X490585Y184011D01*
X490611Y184073D01*
X490626Y184148D01*
X490633Y184225D01*
Y184229D01*
Y184236D01*
Y184247D01*
X490630Y184262D01*
X490626Y184303D01*
X490615Y184358D01*
X490596Y184414D01*
X490570Y184477D01*
X490533Y184540D01*
X490482Y184599D01*
X490474Y184606D01*
X490456Y184621D01*
X490422Y184647D01*
X490378Y184677D01*
X490323Y184703D01*
X490256Y184728D01*
X490182Y184743D01*
X490101Y184751D01*
D02*
G37*
%LPD*%
D10*
X488571Y225370D02*
G03*
X488571Y225370I-591J0D01*
G01*
X479752Y202520D02*
G03*
X479752Y202520I-591J0D01*
G01*
D11*
X476012Y264500D02*
G03*
X476012Y264500I-5512J0D01*
G01*
X461839Y223417D02*
X479161D01*
X461839Y250583D02*
X479161D01*
X462970Y254461D02*
X478029D01*
X480539Y260735D02*
Y268265D01*
X460461Y260735D02*
Y268265D01*
X462970Y274539D02*
X478029D01*
D12*
X492500Y171500D02*
Y321500D01*
X502500Y171500D02*
Y314000D01*
Y321500D01*
X492500D02*
X502500D01*
X492500Y171500D02*
X502500D01*
X438500D02*
Y321500D01*
X448500Y171500D02*
Y314000D01*
Y321500D01*
X438500D02*
X448500D01*
X438500Y171500D02*
X448500D01*
X489350Y316653D02*
Y321693D01*
X451634D02*
X489350D01*
X451634Y316653D02*
Y321693D01*
X489350Y301024D02*
Y305945D01*
X451634Y301024D02*
Y305945D01*
D13*
X455000Y194500D02*
X485000D01*
X455000Y184500D02*
Y194500D01*
Y184500D02*
X485000D01*
Y194500D01*
X475000Y184500D02*
Y194500D01*
X480000Y171500D02*
Y181500D01*
X490000Y171500D02*
Y181500D01*
X450000Y171500D02*
X490000D01*
X450000D02*
Y181500D01*
X490000D01*
D14*
X463807Y201732D02*
Y218268D01*
X477193D01*
X463807Y201732D02*
X477193D01*
Y218268D01*
M02*
